<svg id="Layer_1" data-name="Layer 1" xmlns="http://www.w3.org/2000/svg" viewBox="0 0 262 243"><defs><style>.cls-1{fill:none;}.cls-1,.cls-2{stroke:#000;stroke-miterlimit:10;stroke-width:3px;}.cls-2{fill:#fff;}.cls-3{fill:#1d1d1b;}</style></defs><polygon class="cls-1" points="106.76 88.58 133.9 24.09 155.02 89.04 223.52 92.2 166.84 133.08 186.5 200.43 129.15 156.47 70.55 196.23 94.8 129.9 38.48 87.13 106.76 88.58"/><path class="cls-2" d="M47.48,159.6s54-44.55,155,4.05L210,135.3s-77.5-47.93-166.5,0Z"/><path class="cls-3" d="M106.45,122.64l.27,0a.21.21,0,0,0,.13,0,.15.15,0,0,1,.14,0,.46.46,0,0,1,.32,0l.25.06h.21a.74.74,0,0,1,.29.08l.19.1.11.06.19.11a.68.68,0,0,1,.19.15.15.15,0,0,0,.08.08l.16.13a1.94,1.94,0,0,1,.22.25c.08.1.14.19.2.25l.17.23a.83.83,0,0,1,.11.24c0,.06.09.11.12.14a5.78,5.78,0,0,1,.24.64,1.5,1.5,0,0,1,.15.35,1.7,1.7,0,0,0,.09.29.83.83,0,0,1,.06.35,1.53,1.53,0,0,0,0,.18.33.33,0,0,1,0,.14.53.53,0,0,1-.1.2.3.3,0,0,0,0,.28.28.28,0,0,0-.09.13.26.26,0,0,1-.1.11,1.55,1.55,0,0,1-.14.59,3.37,3.37,0,0,0-.23.54.59.59,0,0,0-.18.13.88.88,0,0,1-.6.35.12.12,0,0,0,0,.14.1.1,0,0,1,0,.13.46.46,0,0,1-.2.16.22.22,0,0,0-.13.19.18.18,0,0,0-.16.09.24.24,0,0,1-.1.12c-.19.09-.43.13-.54.2a1.23,1.23,0,0,1-.26.13l-.21.08-.3.09-.38.05a.34.34,0,0,0-.27.1.7.7,0,0,0-.11.23l0,.2a2.14,2.14,0,0,1,0,.29.4.4,0,0,0,0,.31.67.67,0,0,1,.08.18c0,.18.06.27.09.46a3,3,0,0,0,.25.67.14.14,0,0,0,0,.19.63.63,0,0,1,.09.22l0,.35a1.79,1.79,0,0,1,.11.38c0,.09.07.13.17.15a1.39,1.39,0,0,1,.06.13.2.2,0,0,0,.09.1,1.76,1.76,0,0,1,.29-.13l.14,0a.34.34,0,0,1,.31.12.47.47,0,0,1,.12.23.33.33,0,0,1-.08.24.48.48,0,0,1-.2.18.26.26,0,0,1-.18,0,.26.26,0,0,0-.15,0l-.11.05L107,135a.24.24,0,0,1-.17,0c-.07,0-.12,0-.16.1a.56.56,0,0,0-.49.22q-.39,0-.42.09a.36.36,0,0,1-.08.12,1.55,1.55,0,0,0-.64.26,1.15,1.15,0,0,1-.68.21.32.32,0,0,1-.1-.29.53.53,0,0,1,.1-.28.42.42,0,0,0,.3-.13.47.47,0,0,1,.24-.16c0-.07,0-.11,0-.12s0,0,.06-.12a.61.61,0,0,1,0-.15.43.43,0,0,0,0-.12.19.19,0,0,0,0-.13.23.23,0,0,1,0-.12s0-.08-.1-.13a.25.25,0,0,1-.1-.24.45.45,0,0,0,0-.22.51.51,0,0,1,0-.13v-.25l-.12-.28s0-.08-.07-.13l-.07-.14-.12-.18a.66.66,0,0,0-.08-.35l-.1-.2a.7.7,0,0,1-.06-.17l-.06-.16-.12-.23v-.2c-.24-.76-.39-1.22-.42-1.39a1.29,1.29,0,0,0-.15-.38,1.34,1.34,0,0,1-.09-.37,1.23,1.23,0,0,0-.08-.31c-.14-.5-.2-.75-.34-1.25l0-.18a1.08,1.08,0,0,0-.09-.3,1.49,1.49,0,0,1-.13-.34c0-.18-.15-.43-.28-.75a6.32,6.32,0,0,1-.33-1l-.1-.23a1.42,1.42,0,0,1,0-.31.47.47,0,0,0,0-.28.44.44,0,0,0-.13-.14s-.11-.09-.15-.1a.71.71,0,0,0-.35.11,1.27,1.27,0,0,1-.35.14.57.57,0,0,1-.34,0,1,1,0,0,1-.26-.19.92.92,0,0,1,.1-.4c.21-.15.6-.22.68-.34a.64.64,0,0,0,.31-.11.37.37,0,0,1,.31,0,.55.55,0,0,1,.29-.08,1.12,1.12,0,0,0,.32,0l.6-.18.39,0,.48-.15.35,0a1.53,1.53,0,0,1,.48-.1,1.07,1.07,0,0,0,.25,0l.17,0h.14c.11,0,.17,0,.19,0l.36,0A3.35,3.35,0,0,1,106.45,122.64Zm-1.06,1-.86.15c-.25,0-.39.11-.41.22a.28.28,0,0,0,0,.25.52.52,0,0,1,.12.19.91.91,0,0,0,.07.62l.25.7c.06.17.1.33.14.49a1.06,1.06,0,0,1,0,.43.25.25,0,0,1,.14.2c0,.1,0,.17,0,.2l.15.39a4.56,4.56,0,0,1,.14.59,1.15,1.15,0,0,0,.19.48.15.15,0,0,0,0,.18.67.67,0,0,1,.07.27.45.45,0,0,0,.14.32.69.69,0,0,1,.15.14.32.32,0,0,0,.09.08c.13,0,.2,0,.2.06l0,0a2.65,2.65,0,0,1,.49-.2l.55-.18a.21.21,0,0,0,.18-.14.34.34,0,0,1,.09-.17l.12-.09.14-.09a.27.27,0,0,1,.14-.2.41.41,0,0,0,.19-.15c0-.07,0-.15.05-.15s0,0,0-.05a.36.36,0,0,0,0-.11.35.35,0,0,1,0-.13l.07-.18a.78.78,0,0,1,.09-.21.72.72,0,0,1,0-.38,2,2,0,0,0,.06-.35,1.9,1.9,0,0,0,0-.41,1.59,1.59,0,0,1,0-.43,2.11,2.11,0,0,1-.19-.82,1.8,1.8,0,0,0-1.08-1.58s-.06,0-.09,0-.06.05-.12,0a1.4,1.4,0,0,0-.67-.11.84.84,0,0,0-.39,0A2.58,2.58,0,0,1,105.39,123.61Z"/><path class="cls-3" d="M112.2,126.85l-.07-.21a.62.62,0,0,1,0-.33c0-.11,0-.19-.18-.26a.72.72,0,0,0-.24.1.48.48,0,0,1-.26.07h-.2l-.16,0s-.1,0-.15-.1a.33.33,0,0,1,0-.32.46.46,0,0,1,.24-.27,1.79,1.79,0,0,1,.45-.12,1.32,1.32,0,0,0,.4-.13.69.69,0,0,0,.15-.13l.1-.09a1.48,1.48,0,0,1,.35-.11c.05,0,.09-.07.12-.09a.52.52,0,0,1,.5.08,1.91,1.91,0,0,0,.35.27.22.22,0,0,0,.07.22.62.62,0,0,1,.17.22.61.61,0,0,1,.06.22.2.2,0,0,0,.14.18.46.46,0,0,0,.42-.22c.08-.13.16-.25.25-.37l.21-.16.17-.1a1,1,0,0,0,.15-.07.24.24,0,0,0,.09-.15s0-.09.06-.11l.21-.12c.13-.05.18-.12.16-.18a2.82,2.82,0,0,0,.67-.09,4.08,4.08,0,0,1,.54-.1,1.66,1.66,0,0,0,.4-.08.47.47,0,0,1,.22.09l.24.12a.2.2,0,0,1,.14.14.39.39,0,0,0,.14.2,1.81,1.81,0,0,1,.24.24,3.36,3.36,0,0,1,.19.38.75.75,0,0,1,.09.34,1.18,1.18,0,0,1,0,.34,3.18,3.18,0,0,0-.08.33.36.36,0,0,0-.18.28,1.18,1.18,0,0,0-.32.31.54.54,0,0,1-.17.19.49.49,0,0,1-.22,0h-.28a.71.71,0,0,1-.28,0,1.21,1.21,0,0,0-.36-.07s0,0-.07-.06a.16.16,0,0,0-.06-.08.39.39,0,0,0-.11-.06.34.34,0,0,1-.14-.11c-.17-.19-.19-.42-.07-.51a2.77,2.77,0,0,1,.49-.21c.11-.05.2,0,.28.15a.52.52,0,0,0,.29-.11c0-.07,0-.2.08-.23s0-.07,0-.14,0-.12,0-.13l-.12-.27-.1-.1-.12-.11a.44.44,0,0,0-.2-.12.47.47,0,0,0-.31.1.8.8,0,0,1-.41.1.3.3,0,0,0-.17.18.27.27,0,0,1-.21.18c-.31.3-.53.51-.67.63q0,.06-.06.12a.29.29,0,0,0-.13.14.51.51,0,0,0,0,.14.36.36,0,0,1,0,.13.28.28,0,0,0,0,.12.16.16,0,0,1,0,.09s0,.08,0,.15a.44.44,0,0,1,0,.2.29.29,0,0,0-.07.2.12.12,0,0,1,0,.1.27.27,0,0,1-.07.08.11.11,0,0,0,0,.1c.07.07.08.13,0,.19a.19.19,0,0,0,0,.23.4.4,0,0,1,.09.17.89.89,0,0,0,0,.22.86.86,0,0,1,0,.23c0,.08,0,.2.06.34s0,.12,0,.14a.21.21,0,0,1,.07.15l0,.23a1.58,1.58,0,0,0,.06.23.75.75,0,0,1,0,.24,1.29,1.29,0,0,0,0,.24c0,.1,0,.15,0,.17s0,0,0,.06l.06.1a.25.25,0,0,1,0,.11v.18l.06.21a1.48,1.48,0,0,0,.1.38.76.76,0,0,1,.07.39l.08.14c0,.06.07.13.11.2s.2.09.52.06l.59-.11a.93.93,0,0,1,.14.3.41.41,0,0,1,0,.31l-.68.18-.28.07c-.09,0-.18.15-.24.19s-.53.13-.61.18a.32.32,0,0,1-.23.06.27.27,0,0,0-.2,0,.5.5,0,0,0-.13.07.5.5,0,0,1-.37.11.51.51,0,0,0-.35.11.89.89,0,0,1-.19.17c-.33,0-.52,0-.56.07s-.35.17-.42.08a.7.7,0,0,1,.14-.78.88.88,0,0,1,.27-.11.35.35,0,0,0,.24-.14.33.33,0,0,0,.17-.07.53.53,0,0,1,.14-.11q-.12-.48-.18-.81a2.56,2.56,0,0,0-.1-.49l-.09-.31c0-.1-.06-.26-.1-.47s-.07-.4-.11-.56a2.75,2.75,0,0,0-.12-.4,2.13,2.13,0,0,1-.14-.46c0-.19-.1-.41-.17-.66l-.08-.24a.26.26,0,0,1,0-.15.45.45,0,0,0,0-.11s0-.24-.14-.63a4.31,4.31,0,0,1-.12-.71A.53.53,0,0,0,112.2,126.85Z"/><path class="cls-3" d="M124.29,126.94a1.81,1.81,0,0,0,0,.58.38.38,0,0,1-.07.29L124,128a.71.71,0,0,0,0,.14.11.11,0,0,1,0,.11h-.69a1.33,1.33,0,0,0-.57.13c-.07,0-.11,0-.13,0l-.1,0-.22.13a.28.28,0,0,1-.26.05.45.45,0,0,0-.28,0,1.55,1.55,0,0,0-.66.37,2.16,2.16,0,0,1,0,.35.81.81,0,0,0,0,.32l0,.22a.11.11,0,0,1,0,.11.51.51,0,0,0,0,.13.29.29,0,0,0,.06.16.17.17,0,0,1,0,.18s0,.11.08.16a.32.32,0,0,1,0,.22.35.35,0,0,0,.07.12.54.54,0,0,1,.07.12.56.56,0,0,1,0,.2.34.34,0,0,0,0,.21s0,.12.06.19a.68.68,0,0,0,.18.26c.1.11.14.19.11.26a1.1,1.1,0,0,1,.15.16.67.67,0,0,0,.16.14,2,2,0,0,1,.29.07.72.72,0,0,0,.34.05,1.12,1.12,0,0,0,.47-.18c.17-.11.3-.17.35-.2a.2.2,0,0,0,.06-.13.17.17,0,0,1,0-.13l.1-.06a.28.28,0,0,0,.12,0l.15-.1a.78.78,0,0,1,.19-.13c.08,0,.19,0,.34.07a.33.33,0,0,1,0,.28,1,1,0,0,1-.1.17c0,.06,0,.09,0,.11s0,0,0,.11a.28.28,0,0,0-.1.22.28.28,0,0,0-.16.12.33.33,0,0,1-.15.16.53.53,0,0,1-.2.07.6.6,0,0,0-.2.07.57.57,0,0,0-.18.16.85.85,0,0,1-.22.18h-.25a1.09,1.09,0,0,1-.61.15l-.68,0a4.65,4.65,0,0,0-.65-.34,1.27,1.27,0,0,0-.59-.4.13.13,0,0,0-.09-.13s-.08-.07-.09-.16a.13.13,0,0,1-.12-.07.19.19,0,0,0-.12-.09.13.13,0,0,0,0-.07s0-.05,0-.11a.28.28,0,0,1-.14-.1l-.12-.14a1.68,1.68,0,0,1-.18-.31s-.07-.14-.14-.27a.89.89,0,0,1-.1-.44l-.17-.27a.2.2,0,0,0,0-.17,1.29,1.29,0,0,1,0-.19l0-.25a1.72,1.72,0,0,0,0-.39,1.64,1.64,0,0,1,0-.38l0-.2a.24.24,0,0,0,0-.12.48.48,0,0,1,0-.19c0-.08.06-.18.1-.3a.81.81,0,0,0,.06-.24.67.67,0,0,1,0-.17,1,1,0,0,1,.08-.18l.09-.19a.27.27,0,0,0,0-.17.19.19,0,0,1,.08-.15l.11-.13.07-.11a.44.44,0,0,0,.08-.11.42.42,0,0,1,.14-.25.21.21,0,0,0,.09-.23.1.1,0,0,0,.11-.07s0-.1.14-.15l.16-.12.21-.15a.64.64,0,0,0,.25-.31c.07,0,.11.05.13,0l.12-.08a.3.3,0,0,1,.14-.06.3.3,0,0,0,.16-.07.36.36,0,0,1,.19,0,.19.19,0,0,0,.16,0,1.35,1.35,0,0,1,.47-.06,1.21,1.21,0,0,0,.42,0,.24.24,0,0,1,.14.12.68.68,0,0,0,.12.12.33.33,0,0,0,.13.07.61.61,0,0,1,.15.07,1,1,0,0,0,.14.09.29.29,0,0,1,.07.08.57.57,0,0,0,.11.11.76.76,0,0,1,.14.16,1.25,1.25,0,0,1,.13.26,1.09,1.09,0,0,0,.18.31.25.25,0,0,0,0,.2.54.54,0,0,0,.07.13A.44.44,0,0,1,124.29,126.94Zm-2,.79.23-.06a1.54,1.54,0,0,1,.31,0,.88.88,0,0,0,.3-.07c.07-.1,0-.46-.12-.61a.2.2,0,0,0,0-.23.29.29,0,0,1-.09-.25,1.87,1.87,0,0,0-.25-.19.21.21,0,0,0,0-.15.44.44,0,0,0-.08-.11s-.12,0-.19,0a.33.33,0,0,1-.15,0,1.38,1.38,0,0,1-.79.39.54.54,0,0,1-.1.4.68.68,0,0,0,0,.14V127a.23.23,0,0,0-.07.22.51.51,0,0,1-.07.3c0,.11-.07.28,0,.31s.33,0,.48,0l.42-.05Z"/><path class="cls-3" d="M129,119.4a1.64,1.64,0,0,1,1.06-.34.8.8,0,0,0,.22,0,.36.36,0,0,1,.16,0,.56.56,0,0,1,.2,0,.51.51,0,0,0,.25,0,.75.75,0,0,1,.49.2,1.67,1.67,0,0,0,.41.24s.07.08.2.14a.93.93,0,0,1,.25.15.17.17,0,0,1,0,.1s0,.08.07.15a.34.34,0,0,1,.08.12s0,.06,0,.13a.41.41,0,0,0,.11.16.36.36,0,0,1,.09.08s0,.07,0,.14a.33.33,0,0,0,0,.29,1.05,1.05,0,0,1,.05.42l-.2.38a1.69,1.69,0,0,1-.11.23.33.33,0,0,0-.11.18c0,.08-.06.13-.18.17a2,2,0,0,0-.53.29c-.14,0-.21.06-.21.08s0,0-.11,0a.67.67,0,0,0-.2,0,.46.46,0,0,1-.26,0,.36.36,0,0,0-.09-.05s-.05,0,0-.1a.19.19,0,0,0-.15,0s-.14,0-.16,0-.08-.17-.19-.21a.31.31,0,0,1-.18-.22l.3-.2a.23.23,0,0,0,.15,0,.5.5,0,0,1,.21,0l.22.09a.45.45,0,0,0,.57-.12,1.06,1.06,0,0,0,.29-.48c0-.15.06-.28.09-.4a.32.32,0,0,1-.07-.24c0-.08-.07-.18-.12-.27s-.07-.23-.11-.25-.07-.1-.09-.12a1.57,1.57,0,0,0-.27-.1,2.1,2.1,0,0,0-.26-.13.82.82,0,0,0-.31-.07.58.58,0,0,1-.31-.11.67.67,0,0,0-.48.2,2.07,2.07,0,0,1-.39.25c-.07.06-.14.22-.22.3a.7.7,0,0,0-.14.37,3.77,3.77,0,0,0-.05.41.66.66,0,0,1-.09.3.44.44,0,0,0,0,.27c0,.09,0,.24,0,.45s0,.6,0,.81l0,.18c0,.13.06.2.09.32v.37a.9.9,0,0,0,.05.35l0,.23c0,.3,0,.45.06.75a.1.1,0,0,1,.07.05.24.24,0,0,0,.28,0,.48.48,0,0,1,.3,0,.14.14,0,0,0,.16,0,.27.27,0,0,0,.25,0,.84.84,0,0,1,.24-.06.71.71,0,0,1,.29,0l.3,0h.26a.22.22,0,0,1,.19.08.49.49,0,0,1,.09.28,1.16,1.16,0,0,1,0,.27.5.5,0,0,1-.29.07.58.58,0,0,1-.28-.09.21.21,0,0,0-.15.06.15.15,0,0,1-.13.06l-.3,0c-.13,0-.2,0-.22,0s-.05,0-.09,0l-.15,0a1,1,0,0,1-.54.08.54.54,0,0,1-.18.11.29.29,0,0,0-.16.13.15.15,0,0,0,0,.16,1.58,1.58,0,0,1,0,.54c0,.19,0,.28,0,.47s0,.44,0,.63a3.39,3.39,0,0,1,0,.47.71.71,0,0,0,0,.33,2.34,2.34,0,0,1,0,.26,4.3,4.3,0,0,1,0,.63v.25l0,.2a2.07,2.07,0,0,1,0,.22.41.41,0,0,0,0,.22,1,1,0,0,0,0,.15.17.17,0,0,1,0,.1,1.55,1.55,0,0,0-.08.23l.1.93a.44.44,0,0,0,0,.18c0,.1,0,.15.06.25s0,.35,0,.58,0,.37,0,.64a3.74,3.74,0,0,0,0,.66.29.29,0,0,0,.17.12.43.43,0,0,1,.2.11.92.92,0,0,0,.27-.08.35.35,0,0,1,.24,0,.26.26,0,0,1,.16.1.29.29,0,0,0,.16.12.74.74,0,0,1,.07.5.7.7,0,0,0-.17.09.49.49,0,0,1-.27,0,.44.44,0,0,0-.31.08.38.38,0,0,1-.23.1.62.62,0,0,0-.3.07.59.59,0,0,1-.14.06.25.25,0,0,1-.17,0s-.06,0-.11,0a1,1,0,0,0-.28-.07,1.1,1.1,0,0,0-.28,0l-.19.07-.06,0a.21.21,0,0,1-.11,0,.14.14,0,0,0-.11,0l-.11.06a.31.31,0,0,1-.1,0,.82.82,0,0,0-.62.09.91.91,0,0,1-.5.15,1,1,0,0,1-.22-.08.78.78,0,0,1,0-.28,1.1,1.1,0,0,1,0-.28,1.24,1.24,0,0,0,.22-.1.16.16,0,0,1,.1,0l.24-.1a2.21,2.21,0,0,1,.29-.13.86.86,0,0,0,.28-.15,1.19,1.19,0,0,0,.06-.29.32.32,0,0,1,.2-.29.14.14,0,0,0-.08-.1s-.07-.19-.07-.45a5.09,5.09,0,0,1-.14-.85,2.12,2.12,0,0,0,0-.5c0-.14,0-.22-.07-.36s0-.34,0-.57c0-.42-.07-.64-.12-1.06a.88.88,0,0,1,.06-.33,1,1,0,0,1-.11-.47,14.21,14.21,0,0,1-.13-1.44v-.73a.35.35,0,0,0,0-.2,1.22,1.22,0,0,1,0-.63,1.15,1.15,0,0,0-.19-.52c-.37-.07-.59-.09-.66,0a.5.5,0,0,1-.2.09.43.43,0,0,1-.22,0,.24.24,0,0,0-.23.06.37.37,0,0,1-.26-.11.38.38,0,0,0-.15,0,.08.08,0,0,1-.1-.06c0-.15.07-.3.33-.43s.18,0,.18-.07,0-.05.09-.09a.53.53,0,0,1,.27,0,1.45,1.45,0,0,0,.46,0l.49-.07h.13l0-.22,0-.25a1.9,1.9,0,0,1,0-.4.82.82,0,0,0,0-.38c0-.26,0-.4-.06-.66a1.07,1.07,0,0,1,.1-.22,1.21,1.21,0,0,0,0-.43,1.86,1.86,0,0,1,0-.41,1.12,1.12,0,0,1,.06-.25.36.36,0,0,0,0-.11.27.27,0,0,1,0-.12.5.5,0,0,0,0-.12.16.16,0,0,1,0-.12,2,2,0,0,0,.19-.43c.07-.19.12-.31.14-.38a.48.48,0,0,0,0-.2.17.17,0,0,0,.11-.12,1,1,0,0,1,.11-.18,1.21,1.21,0,0,1,.23-.24c.1-.1.19-.27.26-.33a3.16,3.16,0,0,0,.53-.44.22.22,0,0,0,.19,0S128.91,119.37,129,119.4Z"/><path class="cls-3" d="M136.87,127.46a1.48,1.48,0,0,0-.12.57.38.38,0,0,1-.11.27l-.17.12a.61.61,0,0,0,0,.14.11.11,0,0,1-.05.1l-.69-.09a1.2,1.2,0,0,0-.58.05c-.07,0-.11,0-.13,0l-.09,0-.24.1a.27.27,0,0,1-.26,0,.45.45,0,0,0-.28,0,1.64,1.64,0,0,0-.7.28,1.35,1.35,0,0,1,0,.35.93.93,0,0,0,0,.33l0,.22a.14.14,0,0,1,0,.11.21.21,0,0,0,0,.12.27.27,0,0,0,0,.17.14.14,0,0,1,0,.17l.06.18a.32.32,0,0,1,0,.21.32.32,0,0,0,.05.13.32.32,0,0,1,0,.13.37.37,0,0,1,0,.21.43.43,0,0,0,0,.2l0,.2a1,1,0,0,0,.15.28c.09.12.11.21.07.28a1.55,1.55,0,0,1,.13.17c0,.06.09.14.14.16s.2.06.28.11a.76.76,0,0,0,.33.1,1,1,0,0,0,.48-.12l.38-.15s.06-.06.08-.12a.15.15,0,0,1,.07-.12.16.16,0,0,1,.1,0l.13,0a.8.8,0,0,0,.16-.08,1,1,0,0,1,.21-.11c.08,0,.19,0,.32.12a.38.38,0,0,1,0,.28l-.12.15c0,.06-.05.09,0,.11s0,.06,0,.11a.29.29,0,0,0-.12.2.26.26,0,0,0-.17.11.4.4,0,0,1-.18.13.53.53,0,0,1-.2.05.6.6,0,0,0-.22,0,.69.69,0,0,0-.2.13.55.55,0,0,1-.24.15l-.24,0a.89.89,0,0,1-.62.07l-.68-.13a5.26,5.26,0,0,0-.6-.42,1.14,1.14,0,0,0-.53-.47.13.13,0,0,0-.07-.14c-.05,0-.07-.08-.07-.17a.12.12,0,0,1-.1-.09.23.23,0,0,0-.11-.11.21.21,0,0,0,0-.07s0-.06,0-.11a.3.3,0,0,1-.13-.12,1.16,1.16,0,0,0-.11-.16c-.07-.16-.11-.27-.13-.32a2,2,0,0,0-.1-.29,1,1,0,0,1,0-.45,2.55,2.55,0,0,0-.13-.29.23.23,0,0,0,0-.18,1.11,1.11,0,0,1,0-.19l0-.25a1.64,1.64,0,0,0,0-.39,1.45,1.45,0,0,1,0-.37l.07-.19a.3.3,0,0,0,0-.13.41.41,0,0,1,0-.18c0-.08.08-.17.13-.28a1.1,1.1,0,0,0,.1-.23.71.71,0,0,1,0-.16.78.78,0,0,1,.11-.18s.07-.11.11-.17a.37.37,0,0,0,.05-.16.26.26,0,0,1,.1-.15.68.68,0,0,0,.12-.11l.09-.1.09-.09a.38.38,0,0,1,.18-.23.23.23,0,0,0,.11-.22q.1,0,.12-.06a.38.38,0,0,1,.16-.13l.18-.09.22-.12a.67.67,0,0,0,.3-.28c.06,0,.1.07.12,0a.54.54,0,0,1,.13-.06.24.24,0,0,1,.15,0,.37.37,0,0,0,.17,0,.26.26,0,0,1,.19,0,.23.23,0,0,0,.16,0,1.29,1.29,0,0,1,.48,0,1.17,1.17,0,0,0,.42,0,.27.27,0,0,1,.13.13.36.36,0,0,0,.1.14.33.33,0,0,0,.11.08.48.48,0,0,1,.15.1l.12.1.07.09a.77.77,0,0,0,.09.13.83.83,0,0,1,.11.17,1.18,1.18,0,0,1,.1.27,1.09,1.09,0,0,0,.13.34.27.27,0,0,0,0,.2.29.29,0,0,0,.05.13A.54.54,0,0,1,136.87,127.46Zm-2.12.51.24,0a1.61,1.61,0,0,1,.31,0,.84.84,0,0,0,.31,0,.9.9,0,0,0,0-.62.2.2,0,0,0,0-.23.34.34,0,0,1-.05-.26,1.29,1.29,0,0,0-.22-.22.28.28,0,0,0,0-.15s0-.1-.06-.13a.61.61,0,0,0-.19-.06.21.21,0,0,1-.14-.07,1.37,1.37,0,0,1-.83.29.53.53,0,0,1-.17.38.69.69,0,0,0,0,.13v.1a.21.21,0,0,0-.1.2.53.53,0,0,1-.11.3c-.07.1-.1.27-.07.3a1.09,1.09,0,0,0,.47,0h.43Z"/><path class="cls-3" d="M141.13,131.92h.47l.63-.07.32-.17.11.05a.49.49,0,0,0,.2,0,.29.29,0,0,1,.23.13c.07.09.08.15,0,.19a.2.2,0,0,0,0,.17.84.84,0,0,1-.47.29.15.15,0,0,1-.13.06l-.19,0-.25.11a1,1,0,0,1-.38.09,1.63,1.63,0,0,0-.45.07.08.08,0,0,0-.09,0,.25.25,0,0,1-.12,0l-.26,0-.27,0a1.24,1.24,0,0,0-.5-.1.53.53,0,0,1-.32-.08q-.16-.1-.15-.12s0,0,0,0a.43.43,0,0,1-.17-.15,1,1,0,0,0-.06-.14.7.7,0,0,0-.23-.11c-.09,0-.11-.16-.14-.19s-.25-.11-.3-.16a.43.43,0,0,1-.14-.3.37.37,0,0,0-.18-.31,1.16,1.16,0,0,1-.14-.41.54.54,0,0,0-.15-.3,1.52,1.52,0,0,0-.08-.64.83.83,0,0,1,.08-.71.56.56,0,0,0,0-.22.87.87,0,0,0,.15-.34,1.94,1.94,0,0,1,.07-.32l.07-.17a1.36,1.36,0,0,0,.2-.36,1.34,1.34,0,0,1,.17-.34c.06-.09.1-.21.12-.23a.46.46,0,0,0,.16-.14l.23-.24a.71.71,0,0,0,.21-.26.18.18,0,0,0,.15-.06l.12-.12a.21.21,0,0,0,.16-.06.43.43,0,0,1,.21-.08.72.72,0,0,0,.25-.11.78.78,0,0,1,.26-.11.51.51,0,0,0,.19-.06.07.07,0,0,1,.07,0l.22,0,.11,0a.89.89,0,0,0,.64-.14l.42.12a.38.38,0,0,0,.35-.09.23.23,0,0,1,.11.11.17.17,0,0,0,.1.11.67.67,0,0,1,.41.14,1.92,1.92,0,0,1,.23.31l.14-.11.21-.19a.61.61,0,0,1,.3-.15.27.27,0,0,1,.24.05,1,1,0,0,1,.13.17c0,.06,0,.09,0,.11s0,0,0,.11v.2l-.08.19a2.23,2.23,0,0,1-.09.22.17.17,0,0,0,0,.12.91.91,0,0,1-.11.32,1.71,1.71,0,0,0-.14.62,2.15,2.15,0,0,1-.06.43l-.08.18a.35.35,0,0,1-.08.15.26.26,0,0,0-.12.08l-.05.05-.27.09c-.19,0-.31-.05-.36-.2a1.58,1.58,0,0,1-.09-.42,1.4,1.4,0,0,0,.16-.81l0-.12a.42.42,0,0,0-.09-.26c-.07-.12-.1-.18-.09-.2s0,0,0-.06a2.4,2.4,0,0,1-.32-.17l-.27-.18a.31.31,0,0,1-.17,0,.47.47,0,0,0-.17,0,.17.17,0,0,0-.11.06.11.11,0,0,1-.09,0h-.25c-.18,0-.28.09-.3.16a.25.25,0,0,1-.13.16.09.09,0,0,1-.1.06.08.08,0,0,0-.1.05.41.41,0,0,0-.15.14,1.25,1.25,0,0,1-.11.18l-.1.14a.4.4,0,0,0,0,.12s0,.09-.06.11a.29.29,0,0,0-.06.1l-.06.14a.24.24,0,0,0-.05.12.14.14,0,0,1-.07.1.46.46,0,0,0-.13.18,1.26,1.26,0,0,0-.09.35,1,1,0,0,1-.1.38c-.05.11-.06.18,0,.22a.47.47,0,0,1,.07.12,1.28,1.28,0,0,0,0,1,.24.24,0,0,0,.14.14.3.3,0,0,0,0,.3.72.72,0,0,1,.17.33,1.55,1.55,0,0,1,.24.19,1.53,1.53,0,0,0,.19.18c.13.06.29.09.33.15A.36.36,0,0,0,141.13,131.92Z"/><path class="cls-3" d="M149.94,126.45l.27,0a1.09,1.09,0,0,1,.25.1.68.68,0,0,0,.29.06.9.9,0,0,1,.23.25.41.41,0,0,1,0,.27c-.11.2-.35.22-.74.07l-.24,0a.9.9,0,0,1-.28,0,.57.57,0,0,0-.25,0l-.21,0c-.13,0-.19,0-.2-.06s0,0-.12.08-.13.11-.13.16,0,.13-.05.24l-.08.35a2.05,2.05,0,0,1-.13.37.55.55,0,0,0-.07.24,1,1,0,0,1,0,.21.56.56,0,0,1-.13.23.83.83,0,0,0-.13.18c0,.06,0,.11,0,.15s.06.11,0,.2l-.1.18a.28.28,0,0,0,0,.13.35.35,0,0,1,0,.13l-.13.23a.21.21,0,0,1,0,.18.41.41,0,0,0,0,.19.22.22,0,0,1,0,.15.21.21,0,0,0-.06.15.38.38,0,0,1-.06.18.31.31,0,0,0-.07.14l0,.36a.36.36,0,0,1-.14.22,1,1,0,0,1,0,.34,1,1,0,0,0-.06.34c0,.12,0,.18,0,.3s0,.08,0,.13a.2.2,0,0,1,0,.13l-.12.17s0,.13,0,.24a.79.79,0,0,1,0,.42,1.49,1.49,0,0,0,0,.28.85.85,0,0,0,.09.27.83.83,0,0,1,.07.27.72.72,0,0,0,0,.17.67.67,0,0,0,.15.13s0,0,.06,0a.51.51,0,0,0,.18.2.42.42,0,0,1,.16.11.46.46,0,0,0,.49,0,.32.32,0,0,1,.29,0,.26.26,0,0,0,.13-.1.15.15,0,0,1,.12-.08c.23-.13.36-.25.38-.36l.08-.29a.38.38,0,0,0,0-.18.57.57,0,0,1,0-.15c-.1-.06-.14-.1-.14-.13s0-.05-.08-.07H149l-.16.15c0,.06-.12.07-.22,0a.7.7,0,0,1-.32-.18.56.56,0,0,1-.06-.42.51.51,0,0,0,.06-.28,2,2,0,0,1,.87-.31.45.45,0,0,1,.22,0,.46.46,0,0,0,.23.09.45.45,0,0,1,.29.18.58.58,0,0,0,.28.2,1.24,1.24,0,0,1,0,.43.84.84,0,0,0,.08.41.56.56,0,0,0,0,.21c0,.09,0,.15-.08.17a.31.31,0,0,1,0,.37l-.21.26a.75.75,0,0,0-.12.21.64.64,0,0,0-.25.11.41.41,0,0,1-.26.1.35.35,0,0,1-.18.24.79.79,0,0,0-.23.16,1,1,0,0,0-.47,0c-.24,0-.53,0-.64,0a.6.6,0,0,0-.36,0,1,1,0,0,0-.66-.33.44.44,0,0,0-.17-.16.27.27,0,0,1-.13-.15.26.26,0,0,1-.21-.07c0-.05-.13-.09-.16-.13s0-.13-.08-.2a.67.67,0,0,1-.1-.23c0-.08-.08-.19-.16-.35a.66.66,0,0,1-.1-.32,1.33,1.33,0,0,0,0-.31,3.57,3.57,0,0,1,0-.56.58.58,0,0,0-.06-.15.49.49,0,0,1-.06-.17.36.36,0,0,1,0-.2c0-.07,0-.12,0-.15a.32.32,0,0,0,.05-.31.86.86,0,0,1,0-.36,1,1,0,0,1,.11-.37.52.52,0,0,0,0-.39.82.82,0,0,0,.13-.52,2.72,2.72,0,0,1,.11-.72c.06-.22.11-.41.14-.56a1.66,1.66,0,0,1,.12-.45,5.92,5.92,0,0,0,.24-.77l.07-.32c.08-.33.11-.5.19-.83a.47.47,0,0,0-.35-.21,1.73,1.73,0,0,0-.6,0,.55.55,0,0,1-.48-.1c-.09,0-.14,0-.18,0s-.08,0-.13,0c-.17-.26-.25-.43-.23-.51s.09-.14.22-.18a.76.76,0,0,0,.25-.08,3.14,3.14,0,0,1,.45,0A4,4,0,0,0,147,126a2,2,0,0,0,.2-.42,1.4,1.4,0,0,1,.11-.33.92.92,0,0,1,.08-.17.41.41,0,0,0,.05-.09.23.23,0,0,0,0-.11s0-.09.08-.16a.48.48,0,0,0,.11-.19c.07-.09.1-.14.09-.18a.14.14,0,0,1,0-.11,1.29,1.29,0,0,1,.13-.17.38.38,0,0,0,.09-.27,1.39,1.39,0,0,1,.54-.34c.2,0,.44,0,.58,0a1.74,1.74,0,0,0,.25.33,3.23,3.23,0,0,1-.17,2,.34.34,0,0,1,0,.11.26.26,0,0,0,0,.16.32.32,0,0,0,.09.2.37.37,0,0,0,.17.14.24.24,0,0,0,.16,0,.33.33,0,0,1,.14,0Z"/></svg>