<svg id="Layer_1" data-name="Layer 1" xmlns="http://www.w3.org/2000/svg" viewBox="0 0 454.98 422.81"><defs><style>.cls-1{fill:#73160e;}.cls-2,.cls-3{fill:#eeba30;}.cls-2{stroke:#eeba30;stroke-miterlimit:10;}.cls-4{fill:#1d1d1b;}.cls-5{fill:#fff;}</style></defs><path class="cls-1" d="M119.05,83.34s106.32-125.4,219.18,0c0,0,38.17-38.29,40.35-27.87,0,0-97.05,110.74,0,190.34,0,0-10.91,74.15-27.26,78.52L308.79,361.4s-33.5,5.45-81.09,33.8"/><path class="cls-1" d="M337.69,83.34s-106.32-125.4-219.18,0c0,0-38.17-38.29-40.35-27.87,0,0,97.05,110.74,0,190.34,0,0,10.91,74.15,27.26,78.52L148,361.4s33.5,5.45,81.09,33.8"/><path class="cls-2" d="M54.22,279.7s178.83-42.52,179.38-31.62V295s-147.76,14.18-163,24a23.67,23.67,0,0,0,2.71-19.17C71.34,293.4,66.08,286.25,54.22,279.7Z"/><path class="cls-2" d="M99.55,311.33l-21.23,7L91.4,332.48c-26.17,14.18-72,0-72,0,20.72-3.27,22.9-32.71,22.9-32.71l33.25-.63"/><path class="cls-2" d="M410.9,279.7s-178.83-42.52-179.37-31.62v2.17a19.69,19.69,0,0,1,8.68,3.36,4.56,4.56,0,0,1,4.06,3.64c3.26,3.81-.58,9-4.38,8.4-2.06.5-4.16.91-6.25,1.33a90.86,90.86,0,0,1,9.5,3.11c4.78,1.94,4.6,9.51-1.11,9.63a3.94,3.94,0,0,1-4.56,3.28q-3-.3-5.94-.55V295s147.75,14.18,163,24a23.65,23.65,0,0,1-2.72-19.17C393.78,293.4,399,286.25,410.9,279.7Z"/><path class="cls-2" d="M365.58,311.33l21.23,7-13.09,14.17c26.17,14.18,72,0,72,0-20.72-3.27-22.9-32.71-22.9-32.71l-33.25-.63"/><path class="cls-3" d="M253.28,272.28l-16.49-4.9a44.11,44.11,0,0,1,14.6,2.77"/><path class="cls-3" d="M254,269.87,237.46,265l-.67,4.91a42.51,42.51,0,0,1,13.94,2.68,2.5,2.5,0,0,0,3.07-1.74,2.57,2.57,0,0,0-1.75-3.08,47,47,0,0,0-15.26-2.86c-2.86-.06-3.34,4.12-.66,4.91l16.49,4.9a2.5,2.5,0,0,0,1.33-4.82Z"/><path class="cls-3" d="M253.29,264l.07,4.52a2,2,0,0,1-.18,1.09c-.51.87-1.82.57-2.75.19a50.16,50.16,0,0,0-23-3.6,160,160,0,0,1,27.86.39c-.61-1.56-2.49-2.12-4.13-2.47-7.66-1.61-15.4-2.91-23.17-3.89l25.33-2a214.2,214.2,0,0,0-27.43-3.46c1.46-1.8,4.12-1.94,6.44-1.93l12.72.08c3.81,0,7.8.09,11.14,1.92a1.39,1.39,0,0,1,.51.42,1.25,1.25,0,0,1-.11,1.19c-1.56,3-5.43,3.82-8.75,4.56a59.72,59.72,0,0,0-24.26,11.63l21.57-1.73c5.1-.42,10.41-.8,15.19,1L225.62,274,253,278a15,15,0,0,1,5,1.34,34.64,34.64,0,0,1-13.79-3.93l16.85.36-33.17,2.62,27.45,3.34c-.39.9-1.54,1.13-2.52,1.19-4.69.34-9.4-.22-14.11-.13s-9.58.9-13.41,3.64a82.85,82.85,0,0,1,22.3-.17,2.32,2.32,0,0,1,1.8.83c.55.92-.41,2.06-1.42,2.42-3.42,1.23-6.79-1.91-10.38-2.52-4-.69-8,1.82-12,1.14l14.44,0c1.81,0,3.87.09,5,1.48-6.12.78-12.92-2.65-18.19.55,5.91,1.11,12.27-2,17.87.15a90.79,90.79,0,0,1-10-1.42"/><path class="cls-3" d="M250.79,264l0,2.71a6.68,6.68,0,0,1-.06,2.24l.64-1.1c.34-.44.87.13.28-.25a8.35,8.35,0,0,0-1.24-.47c-1.07-.42-2.15-.81-3.25-1.16a51.36,51.36,0,0,0-6.25-1.54,53.51,53.51,0,0,0-13.49-.73,2.56,2.56,0,0,0-2.5,2.5,2.51,2.51,0,0,0,2.5,2.5,162,162,0,0,1,27.86.39c2.07.2,2.86-2.23,2.16-3.76-.93-2-3.07-3-5.12-3.51-2.63-.62-5.3-1.09-8-1.57q-8.16-1.5-16.39-2.52v5l25.33-2a2.5,2.5,0,0,0,.66-4.91,224.63,224.63,0,0,0-28.09-3.55l1.77,4.27c1.15-1.31,3.06-1.2,4.67-1.2l8.56.05c2.59,0,5.2,0,7.78.12a19.58,19.58,0,0,1,3.33.43c.84.2,2.31.44,2.93,1.09l-.64-1.11c.23-.82.23-1,0-.44l-.17.28a3.56,3.56,0,0,1-.46.49,5.84,5.84,0,0,1-1.4.89,15.84,15.84,0,0,1-3.36,1.07,82,82,0,0,0-9.34,2.64,64.18,64.18,0,0,0-17.72,10c-1.66,1.32-.3,4.43,1.77,4.26l18.87-1.52c5.72-.46,11.71-1.3,17.23.73l.66-4.92-34.75,2.1a2.52,2.52,0,0,0-2.45,2.17,2.46,2.46,0,0,0,1.79,2.74l16.37,2.4,8.06,1.18c2.38.35,5.15.42,7.32,1.52l1.27-4.66a32.51,32.51,0,0,1-12.53-3.59l-1.26,4.66,16.85.36v-5l-33.17,2.62a2.5,2.5,0,0,0,0,5l27.45,3.34-2.16-3.76a1.48,1.48,0,0,1,.3-.19c-.19,0-.47.13-.66.15a15.87,15.87,0,0,1-1.7.08c-1.46,0-2.92,0-4.37,0-2.82-.09-5.63-.26-8.45-.18-5,.14-10.11,1.08-14.26,4-2.43,1.69-.85,5,1.93,4.57a79.6,79.6,0,0,1,11.45-.75c1.94,0,3.89.08,5.83.23.89.06,1.78.15,2.66.24.43.05.86.12,1.29.15.77.06.29.23.16-.08l-.34-1.26c0,.52.12.4.29-.37,0,.14-.08.21-.29.22s-.62.07-.8.07a6.55,6.55,0,0,1-2.17-.55,39.49,39.49,0,0,0-5.41-2.09,15.65,15.65,0,0,0-6.67.26c-1.83.4-3.81,1.08-5.71.81l-.66,4.91,10.21,0c1.59,0,3.19,0,4.78,0a3.62,3.62,0,0,1,2.72.75l1.77-4.27c-6.56.74-13.27-2.67-19.45.89-1.73,1-1.59,4.19.6,4.57a31.06,31.06,0,0,0,9.28-.18c2.89-.36,5.79-.69,8.58.33l.67-4.91a91.69,91.69,0,0,1-9.32-1.33,2.56,2.56,0,0,0-3.07,1.74,2.52,2.52,0,0,0,1.75,3.08,102.79,102.79,0,0,0,10.64,1.51,2.47,2.47,0,0,0,2.45-2.17,2.52,2.52,0,0,0-1.79-2.74,19.55,19.55,0,0,0-9.06-.61c-2.88.33-5.91.95-8.8.46l.59,4.57c2.42-1.39,5.26-1.12,7.93-.79,3,.36,6,.92,9,.58a2.54,2.54,0,0,0,1.77-4.27c-2.46-2.6-6.29-2.21-9.55-2.2l-11.7,0a2.51,2.51,0,0,0-2.46,2.17,2.47,2.47,0,0,0,1.79,2.74,16.85,16.85,0,0,0,5.88-.25,28.28,28.28,0,0,1,5.14-.92c3.39-.06,6.22,2.49,9.56,2.86a6.48,6.48,0,0,0,5.1-1.46,4,4,0,0,0,.56-5.45c-1.43-1.62-3.74-1.61-5.74-1.81s-4.2-.34-6.31-.4a87.69,87.69,0,0,0-14.48.91l1.92,4.57c4.29-3,9.51-3.39,14.59-3.3,2.92.05,5.84.26,8.76.24,2.68,0,6.05.13,7.59-2.53,1-1.8-.34-3.54-2.16-3.77l-27.45-3.34v5L261,278.29c3.17-.25,3.26-4.93,0-5l-16.85-.36c-2.43-.05-3.48,3.51-1.26,4.66A38.64,38.64,0,0,0,258,281.86c2.45.19,3.42-3.56,1.26-4.66a23.79,23.79,0,0,0-7.54-1.87l-8.55-1.26-16.86-2.47-.67,4.91,34.75-2.1a2.51,2.51,0,0,0,.67-4.91c-5.8-2.12-12.06-1.42-18.07-.94l-19.36,1.56,1.77,4.27a57.69,57.69,0,0,1,13.11-7.79,56,56,0,0,1,7.12-2.47c2.2-.61,4.48-1,6.66-1.67a11.58,11.58,0,0,0,5.58-3.42c1.88-2.31,2.06-5.22-.93-6.66-5-2.39-10.66-2-16-2-3.14,0-6.3-.11-9.44,0-2.66,0-5.49.56-7.32,2.66a2.52,2.52,0,0,0,1.76,4.26,211.51,211.51,0,0,1,26.77,3.38l.66-4.92-25.33,2a2.5,2.5,0,0,0,0,5c4.71.6,9.42,1.32,14.1,2.16q3.49.63,7,1.34c1.24.26,3.49.35,4.07,1.62l2.16-3.76a162,162,0,0,0-27.86-.39v5a48.54,48.54,0,0,1,18,2c1.47.45,2.9,1,4.33,1.55a5.25,5.25,0,0,0,3.74.18c3.25-1.19,2.33-5.68,2.29-8.39,0-3.22-5-3.23-5,0Z"/><path class="cls-3" d="M226.17,253.48a43.74,43.74,0,0,0,19.8-.92c-2.84-1.18-5.87-2.39-8.92-1.92-1.2.18-2.36.63-3.55.87-2.64.54-5.74.22-7.66,2.11"/><path class="cls-3" d="M225.51,255.89a47.3,47.3,0,0,0,21.13-.92,2.54,2.54,0,0,0,1.83-2.41,2.62,2.62,0,0,0-1.83-2.41,26.11,26.11,0,0,0-5.83-1.88,15.19,15.19,0,0,0-6.73.52c-3.32.91-7.14.42-10,3.06-2.36,2.19,1.18,5.72,3.54,3.54a5.8,5.8,0,0,1,3-1,33,33,0,0,0,4.84-.79,9.52,9.52,0,0,1,4.61-.43,30,30,0,0,1,5.29,1.79v-4.82a41.48,41.48,0,0,1-18.47.92,2.57,2.57,0,0,0-3.08,1.74,2.53,2.53,0,0,0,1.75,3.08Z"/><path class="cls-3" d="M358.38,276.15c4-.81,8.2,1.3,12.05,2.2a50.31,50.31,0,0,0,13.34,1.27c2.32-.1,3.6-3.5,1.26-4.66a49.54,49.54,0,0,0-22.19-5.25c-2.9,0-3.28,4-.66,4.91,5.09,1.73,10.08,3.74,15,5.82,2.2.93,4.43,1.82,6.59,2.85a13,13,0,0,1,5,3.5l1.49-3.68c-2.59.71-5.53-1-7.94-1.8a77.6,77.6,0,0,0-8.75-2.29,79.69,79.69,0,0,0-18-1.49v5c7.34-.41,14,3,20,6.92,2.71,1.76,5.2-2.56,2.53-4.32a95.91,95.91,0,0,0-21.59-10.58l-1.33,4.82a130.36,130.36,0,0,1,22.81,8l1.93-4.57-20.92-5c-2.65-.63-4.57,3.26-1.93,4.57l20.82,10.32,1.26-4.66c-9.91.42-19.07-4.21-28.63-6.08a2.5,2.5,0,0,0-1.33,4.82,174.89,174.89,0,0,1,33.26,16.84l2.52-4.32a115.52,115.52,0,0,1-27.34-19.65l-3,3.93a140.63,140.63,0,0,1,31.95,21.73c2.38,2.16,5.92-1.37,3.53-3.54a145.72,145.72,0,0,0-33-22.51c-2.44-1.21-5.16,1.86-3,3.93a120.32,120.32,0,0,0,28.36,20.43,2.5,2.5,0,0,0,2.52-4.32,181.08,181.08,0,0,0-34.45-17.34l-1.33,4.82c10,2,19.55,6.71,30,6.26,2.31-.1,3.61-3.5,1.26-4.66L359.62,278l-1.93,4.57,20.92,5a2.51,2.51,0,0,0,1.93-4.57,136.93,136.93,0,0,0-24-8.47c-3.14-.79-4.35,3.78-1.33,4.82a90.67,90.67,0,0,1,20.39,10.08l2.53-4.32c-6.69-4.35-14.34-8.05-22.52-7.6-3.19.18-3.24,5.11,0,5a73.5,73.5,0,0,1,18,1.6,75,75,0,0,1,8.71,2.45c3,1.06,6,2.24,9.28,1.36,1.41-.39,2.49-2.36,1.49-3.68-3.25-4.3-8.32-6-13.12-8-5.42-2.29-10.87-4.52-16.45-6.42l-.67,4.91a44,44,0,0,1,19.67,4.56l1.26-4.65a45.12,45.12,0,0,1-13.39-1.44c-4.43-1.17-8.68-2.78-13.33-1.85a2.5,2.5,0,1,0,1.33,4.82Z"/><path class="cls-3" d="M384.69,301.2c-9.82-2.23-19.69-4.34-29.48-6.72a65,65,0,0,1-6.7-2c-1-.35-2-.74-2.92-1.19-.47-.23-.93-.47-1.39-.72-.22-.11-.5-.38-.74-.41-.39-.3-.46,0-.22.94-.39.65-.37,1,0,1.07a4.44,4.44,0,0,0,1.12.35l1.88.62,3.78,1.24,7.32,2.41,16.52,5.43c2.8.92,4.2-3.07,1.93-4.57-3.72-2.45-7.37-5.12-11.27-7.26s-8-3.4-12.31-2.32c-3.12.77-1.8,5.6,1.33,4.82,3.41-.86,6.75.78,9.63,2.49,3.45,2.05,6.74,4.38,10.09,6.59l1.93-4.57-17-5.59L350,289.15c-1.33-.44-2.67-.89-4-1.32a7,7,0,0,0-4.28-.4,3.82,3.82,0,0,0-1.17,6.8,27.85,27.85,0,0,0,7.31,3.35c5.22,1.78,10.7,2.79,16.06,4L383.37,306c3.13.72,4.47-4.1,1.32-4.82Z"/><path class="cls-3" d="M345.57,301.55l20.8,3.47a63.34,63.34,0,0,1,9.64,2.15c3.2,1.06,6.16,2.49,9.58,2.69,3.22.19,3.21-4.81,0-5-3-.18-5.84-1.75-8.7-2.66a69.4,69.4,0,0,0-9.65-2.08l-20.34-3.39a2.56,2.56,0,0,0-3.07,1.74,2.52,2.52,0,0,0,1.74,3.08Z"/><path class="cls-3" d="M374,304.23a62.41,62.41,0,0,1-22.8-3.84l-.67,4.92a32.89,32.89,0,0,1,7.73,1.35,81.34,81.34,0,0,0,8.5,1.53c2.73.36,5.47.62,8.22.88,1.53.15,4.49.26,5.17,2.05a2.58,2.58,0,0,0,3.08,1.74,2.53,2.53,0,0,0,1.75-3.07c-2.43-6.32-10.24-5.67-15.81-6.3a78.53,78.53,0,0,1-9.14-1.54c-3.13-.75-6.24-1.64-9.5-1.64-2.94,0-3.23,4-.66,4.91a66.54,66.54,0,0,0,24.13,4c3.21-.07,3.22-5.07,0-5Z"/><path class="cls-4" d="M178.28,264.51v1.37a1.26,1.26,0,0,0-.31.22.58.58,0,0,1-.81.2,1.06,1.06,0,0,0-.3-.27c-.08,0-.09-.14,0-.31a1,1,0,0,0-.29-.13c-.19-.07-.3-.16-.32-.26s-.05-.15-.07-.16l-.28-.18c-.16-.11-.26-.16-.29-.15l-.08,0a2.85,2.85,0,0,1-.22-.3s-.1-.05-.25-.08a.4.4,0,0,1-.29-.13c0-.07-.13-.1-.28-.1a1.31,1.31,0,0,0-.33,0,.65.65,0,0,1-.41-.15,1,1,0,0,0-.44,0l-.25.15a.31.31,0,0,0-.24.08c-.09.06-.15.07-.18,0a1.54,1.54,0,0,1-.48.22,2,2,0,0,0-.54.23,2.46,2.46,0,0,1-.67.27.82.82,0,0,0-.51.34,2.47,2.47,0,0,1-.32.35,1,1,0,0,0-.18.16.35.35,0,0,0-.1.18.3.3,0,0,1-.07.18l-.38.65a.35.35,0,0,1-.22.11.31.31,0,0,0-.21.14,1.12,1.12,0,0,1-.07.34,1,1,0,0,0-.09.51,1,1,0,0,1,0,.35,1.58,1.58,0,0,1-.13.26.77.77,0,0,0-.17.27c0,.19,0,.49,0,.69a.73.73,0,0,0,0,.49c.06.14.05.23,0,.28s.05.19,0,.35a.64.64,0,0,0,.11.73,2.36,2.36,0,0,0,.08,1.08c.11.38.22.77.32,1.17s0,.62,0,1a11.5,11.5,0,0,0,.61,1.74c.29.65.45,1,.48,1.13s.08.19.13.29.11.2.18.32l.17.28c.05.08.15.2.23.34a2.49,2.49,0,0,0,.31.5l.3.29.25.26a1.19,1.19,0,0,0,.19.16l.2.17a1.67,1.67,0,0,0,.4.26,1.82,1.82,0,0,1,.43.29.56.56,0,0,0,.27.17,1.78,1.78,0,0,0,.35,0l.51,0a4.45,4.45,0,0,0,.72-.1,4.15,4.15,0,0,1,.49-.1.81.81,0,0,0,.25-.08,1.57,1.57,0,0,0,.27-.18,3.25,3.25,0,0,0,.3-.26.7.7,0,0,1,.3-.18.87.87,0,0,0,.33-.15.75.75,0,0,0,.23-.42.66.66,0,0,1,.3-.43.59.59,0,0,1,.15-.27,2,2,0,0,0,.17-.33,3.16,3.16,0,0,0,.2-.48c0-.18.09-.36.14-.52a2.12,2.12,0,0,0,.08-.62,3.6,3.6,0,0,1,0-.56A2.86,2.86,0,0,0,178,276a.61.61,0,0,1,.08-.28.64.64,0,0,0,.06-.3,2.16,2.16,0,0,1,0-.36,1.61,1.61,0,0,0,0-.41,4.19,4.19,0,0,1-.06-.48,2.52,2.52,0,0,1,0-.39.7.7,0,0,0-.08-.35.56.56,0,0,1-.08-.3c0-.07-.06-.1-.17-.08a.56.56,0,0,0-.22-.72,1.69,1.69,0,0,0-.73-.39.63.63,0,0,0-.49.06,1.22,1.22,0,0,1-.32.19c-.14,0-.23,0-.26,0a.3.3,0,0,1-.22.1,1,1,0,0,0-.51-.11,1.63,1.63,0,0,1-.3,0,1,1,0,0,1-.47-.38,3.64,3.64,0,0,1-.14-.43.36.36,0,0,1,.11-.4,1.07,1.07,0,0,1,.47-.21,4.18,4.18,0,0,1,.64-.07,1.6,1.6,0,0,0,.65-.16,1.38,1.38,0,0,1,.56-.17l.56,0,.57-.05a3,3,0,0,0,.43-.05,4.71,4.71,0,0,0,.46-.14A3.19,3.19,0,0,1,179,270a5.88,5.88,0,0,0,.86-.17c.3-.1.52-.11.64,0s.17,0,.18.1l0,.22a1,1,0,0,1,.08.45.9.9,0,0,1-.17.35,1.13,1.13,0,0,1-.35.34,1,1,0,0,1-.47.13.48.48,0,0,0-.4.26,1.14,1.14,0,0,1,.16.63,2.85,2.85,0,0,0,.07.64l.18.7a3.26,3.26,0,0,1-.05,1.12,2.64,2.64,0,0,1,.16.51,11.29,11.29,0,0,0-.21,1.21c-.06.42-.11.76-.17,1s-.09.4-.11.45,0,.12-.05.2a.36.36,0,0,0,0,.25.77.77,0,0,1-.07.41c-.06.18-.12.37-.19.55a.64.64,0,0,1-.33.4,1.37,1.37,0,0,1-.34.76c-.19.19-.25.58-.35.73a1.81,1.81,0,0,1-.52.35,3.36,3.36,0,0,0-.44.33,2.11,2.11,0,0,0-.3.29l-.26.23a1,1,0,0,1-.38.18l-.46.12a1.38,1.38,0,0,0-.39.18,1.17,1.17,0,0,1-.43.17.64.64,0,0,0-.39.23,1.08,1.08,0,0,0-.74,0,1.65,1.65,0,0,1-.88,0,1.1,1.1,0,0,0-.76,0l-.26-.12a.94.94,0,0,1-.24-.13.5.5,0,0,0-.35-.06.75.75,0,0,1-.4,0,.89.89,0,0,0-.33-.18.17.17,0,0,1-.12,0c-.14-.19-.23-.27-.28-.25s-.07,0,0-.14a1,1,0,0,1-.51-.25,1.32,1.32,0,0,0-.48-.29l-.53-.57c-.17-.18-.29-.54-.42-.69s-.23-.13-.32-.2l-.33-.2a.39.39,0,0,0-.22-.32c-.11-.06-.17-.19-.16-.4l-.7-1.11a7.06,7.06,0,0,0-.2-.9,5.53,5.53,0,0,1-.21-1.06,2.79,2.79,0,0,0-.31-1.06,2,2,0,0,1-.27-.88c0-.27,0-.46,0-.56a2,2,0,0,1,0-.37,4,4,0,0,1,.07-.65,2.1,2.1,0,0,0,0-.66,1.1,1.1,0,0,1,0-.44c0-.13,0-.26.07-.38s.05-.26.08-.4.12-.39.09-.44a.42.42,0,0,1,0-.27.57.57,0,0,0,0-.31.49.49,0,0,1,0-.29,1,1,0,0,1,.19-.32,3.11,3.11,0,0,0,.2-.3.46.46,0,0,0,.08-.26,1,1,0,0,1,.07-.34.56.56,0,0,0,0-.36c.15-.19.22-.31.21-.37s0-.12.14-.22a.57.57,0,0,0,.16-.35,1.27,1.27,0,0,1,.29-.55,2.67,2.67,0,0,0,.44-.8,2.8,2.8,0,0,0,.53-.51,4.2,4.2,0,0,1,1.11-.9c.5-.31.87-.52,1.09-.63a2.76,2.76,0,0,0,.55-.31.56.56,0,0,1,.3-.14c.06,0,.15,0,.26-.09a.83.83,0,0,1,.35-.15,1.28,1.28,0,0,0,.35-.08l1.13-.15a11.55,11.55,0,0,1,1.56,0,2,2,0,0,0,.53,0,1,1,0,0,1,.25,0,.62.62,0,0,1,.35.22.5.5,0,0,0,.54.09,3.51,3.51,0,0,0,.08-.7,1.2,1.2,0,0,1,.18-.71.35.35,0,0,0,.29-.1c.08-.07.18-.06.31,0s.14.08.21.22a1.34,1.34,0,0,0,.28.34c.11.09.12.42.19.78a3.7,3.7,0,0,1,.1.58,4.45,4.45,0,0,0,0,.53Z"/><path class="cls-4" d="M183.82,271.56l-.11-.4a1.44,1.44,0,0,1,0-.62c0-.19-.05-.35-.29-.49a1.15,1.15,0,0,0-.43.16.78.78,0,0,1-.45.11l-.34,0a1.27,1.27,0,0,0-.28,0c-.08,0-.17-.05-.25-.2a.64.64,0,0,1,0-.6.82.82,0,0,1,.44-.47,4.14,4.14,0,0,1,.78-.18,1.88,1.88,0,0,0,.69-.21,1.49,1.49,0,0,0,.27-.21,1.29,1.29,0,0,1,.17-.16,2.46,2.46,0,0,1,.61-.18c.09,0,.16-.12.21-.16a.88.88,0,0,1,.86.18,4.2,4.2,0,0,0,.58.53.48.48,0,0,0,.13.42,1.29,1.29,0,0,1,.28.42.9.9,0,0,1,.09.41.43.43,0,0,0,.24.35.82.82,0,0,0,.74-.39,5.54,5.54,0,0,1,.44-.67l.37-.29a1.54,1.54,0,0,1,.29-.18.93.93,0,0,0,.27-.12.61.61,0,0,0,.16-.28.37.37,0,0,1,.09-.2l.38-.21q.32-.15.27-.33a4.56,4.56,0,0,0,1.16-.15,4.69,4.69,0,0,1,.93-.16,2.91,2.91,0,0,0,.69-.14,1,1,0,0,1,.38.16,2.48,2.48,0,0,0,.4.23.43.43,0,0,1,.26.27.73.73,0,0,0,.23.37,3.61,3.61,0,0,1,.42.45,6.26,6.26,0,0,1,.34.7,1.48,1.48,0,0,1,.16.64,2.15,2.15,0,0,1-.06.64q-.08.29-.15.6a.72.72,0,0,0-.31.53,2.45,2.45,0,0,0-.56.57.86.86,0,0,1-.29.34.88.88,0,0,1-.39.07,3.65,3.65,0,0,0-.47,0,1,1,0,0,1-.5-.08,2.81,2.81,0,0,0-.64-.12.45.45,0,0,1-.11-.13.49.49,0,0,0-.11-.14.52.52,0,0,0-.19-.12.71.71,0,0,1-.24-.2c-.3-.36-.33-.79-.12-1a4.07,4.07,0,0,1,.85-.38c.19-.09.35,0,.49.28a.86.86,0,0,0,.51-.2c.08-.13.09-.37.14-.42s.07-.13.06-.27,0-.21,0-.23l-.22-.51-.16-.18s-.09-.08-.22-.22a.67.67,0,0,0-.33-.21.8.8,0,0,0-.55.16,1.24,1.24,0,0,1-.71.18.54.54,0,0,0-.3.34.49.49,0,0,1-.37.31q-.81.83-1.17,1.14c0,.08,0,.16-.11.22a.53.53,0,0,0-.22.25.92.92,0,0,0-.07.26.92.92,0,0,1-.09.24.52.52,0,0,0-.09.23.37.37,0,0,1-.07.16.45.45,0,0,0,0,.28.84.84,0,0,1,0,.36.66.66,0,0,0-.15.38.19.19,0,0,1,0,.18.35.35,0,0,1-.13.14.26.26,0,0,0-.09.18c.12.14.15.26.08.37a.4.4,0,0,0,.07.43.55.55,0,0,1,.14.32,3,3,0,0,0,.06.4,2.14,2.14,0,0,1,.08.44,4.64,4.64,0,0,1,.1.63c0,.1,0,.22,0,.27a.42.42,0,0,1,.1.27l0,.43a2.41,2.41,0,0,0,.1.44,1.59,1.59,0,0,1,.07.44,2.34,2.34,0,0,0,.08.46c.06.18.07.28.05.3s0,.07,0,.13a1.18,1.18,0,0,0,.1.19.38.38,0,0,1,.06.19l0,.35.1.39a2.38,2.38,0,0,0,.17.71,1.56,1.56,0,0,1,.11.72c0,.06.07.15.14.27a2.69,2.69,0,0,1,.18.38c.06.14.38.18,1,.12l1.07-.17a1.88,1.88,0,0,1,.25.55.87.87,0,0,1,0,.58l-1.25.31a2.83,2.83,0,0,1-.5.13c-.16,0-.32.26-.44.34-.31.2-1,.2-1.12.3a.47.47,0,0,1-.42.09.65.65,0,0,0-.37,0,.89.89,0,0,0-.24.14,1,1,0,0,1-.68.18.8.8,0,0,0-.64.18,1.81,1.81,0,0,1-.37.29c-.6,0-.94,0-1,.08-.21.26-.66.29-.79.13a1.32,1.32,0,0,1,.32-1.44,1.51,1.51,0,0,1,.5-.18.68.68,0,0,0,.44-.24.52.52,0,0,0,.31-.13,1.27,1.27,0,0,1,.27-.18,12.5,12.5,0,0,1-.27-1.53,8.5,8.5,0,0,0-.15-.91c-.06-.2-.11-.4-.15-.59s-.09-.49-.15-.88-.11-.75-.17-1a4,4,0,0,0-.2-.76,6.77,6.77,0,0,1-.21-.86c-.06-.36-.15-.78-.27-1.24l-.12-.45a.45.45,0,0,1,0-.28.56.56,0,0,0,0-.21c0-.05-.07-.45-.2-1.19a9.18,9.18,0,0,1-.18-1.31A1.05,1.05,0,0,0,183.82,271.56Z"/><path class="cls-4" d="M199,293.29l-.51.23a1,1,0,0,0-.36.16,1,1,0,0,1-.49.13c-.47,0-.77-.11-.84-.39a1.48,1.48,0,0,1-.84-.36.52.52,0,0,1-.24-.22.49.49,0,0,0-.24-.23.5.5,0,0,1-.24-.21.39.39,0,0,0-.27-.18.83.83,0,0,0-.26-.61,2,2,0,0,1-.4-.92,1.84,1.84,0,0,1,.06-1.11,2.26,2.26,0,0,0,.21-.72.41.41,0,0,1,.22-.36c.13-.06.17-.22.1-.46a7.8,7.8,0,0,0,.58-.53,2.94,2.94,0,0,1,1-.51c.46-.16.77-.19.92-.08a.75.75,0,0,0,.52.14,1.48,1.48,0,0,1,.45,0,1.76,1.76,0,0,0,.45.32l.31.17a.84.84,0,0,1,.16.33,2.44,2.44,0,0,0,.29.69.71.71,0,0,1,.1.3.46.46,0,0,1-.14.17l-.18.15a.47.47,0,0,0-.12.18c0,.07-.11.11-.24.15a.32.32,0,0,1-.3,0,.47.47,0,0,0-.36-.06,4.63,4.63,0,0,1-.83-1.24c-.44,0-.72.1-.85.3a3.6,3.6,0,0,0-.29.49c-.06.13-.25.29-.3.4s-.06.78-.18,1.1a.8.8,0,0,0,.19.38.76.76,0,0,1,.18.37c0,.16.08.22.19.21a.26.26,0,0,1,.26.08.34.34,0,0,1,.09.24.63.63,0,0,0,.08.27.94.94,0,0,1,.6-.05.91.91,0,0,1,.23.15.56.56,0,0,0,.28.12.93.93,0,0,0,.43-.12,2.74,2.74,0,0,1,.48-.18.72.72,0,0,1,.48,0c.12.06.28,0,.46-.13s.28-.24.27-.3a.76.76,0,0,0,.4-.26,3.11,3.11,0,0,1,.2-.25,1.33,1.33,0,0,1,.17-.14,1.16,1.16,0,0,0,.2-.2.43.43,0,0,1,.27-.18,6.4,6.4,0,0,1,.36-.55.28.28,0,0,0,.07-.11.14.14,0,0,0,0-.11.62.62,0,0,1,0-.24,1.87,1.87,0,0,1,.15-.32,4,4,0,0,0,.24-.37c.09-.15.29-.31.35-.43s.05-.41.11-.53a.72.72,0,0,1,.24-.25.57.57,0,0,0,.18-.33,2.46,2.46,0,0,0,.08-.39,1.88,1.88,0,0,1,.21-.69,5.17,5.17,0,0,0,.32-1,5.86,5.86,0,0,1,.32-1,1,1,0,0,0,.11-.48.71.71,0,0,0-.22-.44c-.5-.44-.72-.83-.66-1.19a1.68,1.68,0,0,1-.33-.57,1.08,1.08,0,0,0-.39-.52.48.48,0,0,0-.12-.37,1.52,1.52,0,0,1-.29-.46,1.91,1.91,0,0,0-.3-.47,1,1,0,0,1-.2-.36.48.48,0,0,0-.15-.26,1.14,1.14,0,0,1-.15-.16.77.77,0,0,0-.1-.46,2.13,2.13,0,0,1-.28-.43,2,2,0,0,0-.25-.55c-.11-.13-.27-.22-.28-.26s-.09-.32-.36-.47a3.9,3.9,0,0,0-.61-1.25.49.49,0,0,0-.2-.45.47.47,0,0,1-.17-.48.76.76,0,0,1-.32-.33l-.22-.34a6.12,6.12,0,0,1-.62-.79.49.49,0,0,1-.2-.26c0-.08-.13-.19-.32-.31a.75.75,0,0,1-.35-.44,1.54,1.54,0,0,0-.76.14,1.32,1.32,0,0,1-.54.17.39.39,0,0,1-.44-.55,2.34,2.34,0,0,0,0-.3,3.7,3.7,0,0,1,.88-.44,7.29,7.29,0,0,0,1.41-.46,1.59,1.59,0,0,0,.91-.18,2.49,2.49,0,0,1,.76-.28,2.07,2.07,0,0,1,.61,0,1.12,1.12,0,0,0,.65-.13,1.33,1.33,0,0,1,.53-.18,1.81,1.81,0,0,1,.46,0c.33.35.37.62.13.81a1.27,1.27,0,0,1-.65.3c-.19,0-.36,0-.4.14a.25.25,0,0,0,0,.28c.07.09,0,.15-.08.18a4.37,4.37,0,0,1,.69,1.16c.1.3.2.48.31.53a.64.64,0,0,1,.28.26.54.54,0,0,0,.22.57,1.13,1.13,0,0,1,.38.44,1,1,0,0,1,.07.4,1.66,1.66,0,0,0,0,.33q.27.48.42.78a2.25,2.25,0,0,0,.36.53c.14.16.2.25.19.27a.22.22,0,0,0,0,.09.63.63,0,0,1,.26.26,2.33,2.33,0,0,0,.17.28c.07.11.15.24.23.39a3.65,3.65,0,0,1,.23.43,1.37,1.37,0,0,0,.3.42.54.54,0,0,0,.09.46,3.83,3.83,0,0,1,.28.29c.11,0,.18,0,.2-.09s.08-.18.14-.32a2,2,0,0,0,.14-.63,1.18,1.18,0,0,1,.24-.68.58.58,0,0,1,.07-.52.6.6,0,0,0,.09-.51.3.3,0,0,0,.19-.19.25.25,0,0,1,.11-.17.46.46,0,0,1,.07-.44,1.11,1.11,0,0,0,.2-.52,2.56,2.56,0,0,1,.1-.49c0-.1.07-.19.09-.27l.1-.25a1.08,1.08,0,0,0,.07-.27.8.8,0,0,1,.12-.32.79.79,0,0,0,.13-.36,1.27,1.27,0,0,1,.1-.41c.07-.16.1-.25.08-.28s0-.06,0-.08a1,1,0,0,0,.22-.41.49.49,0,0,1,.23-.32,1,1,0,0,0,.06-.36,1,1,0,0,1,.06-.36,3.7,3.7,0,0,0,.33-.53,1.43,1.43,0,0,1,.16-.35l.36-.63a5.13,5.13,0,0,0,.34-.66.62.62,0,0,0,.28-.17l.36-.35a.51.51,0,0,1,.57-.08c.2.12.3.29.29.35a.47.47,0,0,0,0,.17c.12.14.08.45-.1,1a3.68,3.68,0,0,0-.26.86v.22a1.46,1.46,0,0,1-.5,1,4.38,4.38,0,0,0-.12.75,2.52,2.52,0,0,1-.3,1,.7.7,0,0,1-.1.28.17.17,0,0,0-.06.11.7.7,0,0,0,0,.2.39.39,0,0,1-.08.29.53.53,0,0,0-.11.3.77.77,0,0,1-.07.26.9.9,0,0,0-.07.24.55.55,0,0,1-.07.23.68.68,0,0,0-.17.34,3.69,3.69,0,0,1-.1.47,2.69,2.69,0,0,1-.15.44.46.46,0,0,0,0,.33,1.48,1.48,0,0,0-.43,1,1.53,1.53,0,0,1,0,.59,3.45,3.45,0,0,0-.14.34,1.79,1.79,0,0,0-.12.45,3,3,0,0,1-.17.6.92.92,0,0,0-.1.49,1,1,0,0,1,0,.35c-.13.26-.19.42-.17.49a.55.55,0,0,1,0,.25,1.08,1.08,0,0,0-.06.33,1,1,0,0,1-.18.58,1.83,1.83,0,0,0-.3.61,2.35,2.35,0,0,1-.18.49,4.52,4.52,0,0,0-.35,1.45.25.25,0,0,0-.14.19.32.32,0,0,1-.18.2.75.75,0,0,1-.08.41c-.07.1-.13.21-.19.3a1.33,1.33,0,0,0-.11.26.46.46,0,0,1-.08.19l-.12.14a.76.76,0,0,0-.09.18.46.46,0,0,0,0,.26c0,.2-.17.56-.62,1.07.07.08,0,.19,0,.34a1.14,1.14,0,0,1-.63.85.92.92,0,0,1-.3.67,1.57,1.57,0,0,0-.39.62.49.49,0,0,0-.21.31.9.9,0,0,1-.18.37.46.46,0,0,0-.26.1.41.41,0,0,1-.29.06.43.43,0,0,1-.19.31.88.88,0,0,0-.26.25.82.82,0,0,0-.44.05,1.29,1.29,0,0,1-.39.11,1.11,1.11,0,0,0-.46.33,1.09,1.09,0,0,1-.64.32Z"/><path class="cls-4" d="M217.27,257.2a2.74,2.74,0,0,1,1.73-.74c.19,0,.33.05.37,0a1.17,1.17,0,0,1,.61,0,.8.8,0,0,0,.42,0,1.25,1.25,0,0,1,.84.31,2.46,2.46,0,0,0,.71.39c0,.07.13.14.36.24a1.1,1.1,0,0,1,.43.24.28.28,0,0,1,0,.18c0,.07,0,.16.14.28s.15.19.14.21,0,.1.09.23a.84.84,0,0,0,.21.28l.17.13s0,.13,0,.28a.62.62,0,0,0,.06.52,2.11,2.11,0,0,1,.15.77c-.12.3-.17.45-.29.75a3.61,3.61,0,0,1-.15.44.5.5,0,0,0-.16.34c0,.14-.1.26-.29.34a3.59,3.59,0,0,0-.85.61c-.25.09-.37.15-.37.18s-.06,0-.18,0a.69.69,0,0,0-.35,0,.78.78,0,0,1-.43,0,.79.79,0,0,0-.16-.08c-.07,0-.1-.08-.08-.19a.35.35,0,0,0-.26,0,.32.32,0,0,1-.27,0c-.07-.07-.16-.31-.34-.38a.51.51,0,0,1-.34-.37l.48-.42a.35.35,0,0,0,.27,0,.84.84,0,0,1,.35,0l.39.15a.73.73,0,0,0,.95-.31,1.94,1.94,0,0,0,.43-.93c0-.27.06-.52.1-.75a.58.58,0,0,1-.14-.44c0-.16-.16-.33-.25-.47s-.15-.42-.21-.46-.13-.17-.18-.21-.31-.09-.45-.16l-.46-.21a1.51,1.51,0,0,0-.53-.09.78.78,0,0,1-.52-.17,1.15,1.15,0,0,0-.8.43,4,4,0,0,1-.62.51c-.11.12-.21.43-.33.59a1.22,1.22,0,0,0-.21.68c0,.3,0,.56,0,.78a1.45,1.45,0,0,1-.11.57.81.81,0,0,0-.07.5c0,.16.07.44.13.83a13.11,13.11,0,0,1,.15,1.51l-.05.34.18.58,0,.68a1.24,1.24,0,0,0,.12.64l-.05.44c.07.55.11.83.18,1.38a.17.17,0,0,1,.13.09.39.39,0,0,0,.5.06.83.83,0,0,1,.5-.11c.15,0,.24,0,.28-.08a.45.45,0,0,0,.44,0,2.19,2.19,0,0,1,.41-.15,2,2,0,0,1,.49,0,4.7,4.7,0,0,0,.53,0,3,3,0,0,0,.46,0,.32.32,0,0,1,.33.11,1,1,0,0,1,.19.51,1.6,1.6,0,0,1,0,.51.87.87,0,0,1-.49.16.8.8,0,0,1-.49-.14c-.13,0-.22.07-.26.15a.25.25,0,0,1-.23.11l-.52,0a.78.78,0,0,1-.38,0s-.08,0-.16,0a1.22,1.22,0,0,0-.24.1,1.67,1.67,0,0,1-.94.22,1.41,1.41,0,0,1-.31.21.53.53,0,0,0-.25.26.29.29,0,0,0,0,.3,3.14,3.14,0,0,1,.12,1c0,.35,0,.52,0,.87s0,.82.08,1.17a7.08,7.08,0,0,1,0,.88,1.58,1.58,0,0,0,0,.6,3.11,3.11,0,0,1,.11.49,9.93,9.93,0,0,1,.14,1.17l0,.46.11.37a1.94,1.94,0,0,1,0,.4.8.8,0,0,0,0,.41,2,2,0,0,0,.09.29.25.25,0,0,1,0,.17c0,.17-.07.26-.11.43.11.69.17,1,.28,1.72a1.62,1.62,0,0,0,0,.34l.15.46c0,.43.06.65.09,1.08s0,.68,0,1.19a6,6,0,0,0,.05,1.22.48.48,0,0,0,.33.2,1.46,1.46,0,0,1,.38.17,1.36,1.36,0,0,0,.48-.16.61.61,0,0,1,.44-.09.45.45,0,0,1,.31.17.49.49,0,0,0,.32.19,1.5,1.5,0,0,1,.18.93,1.22,1.22,0,0,0-.29.17.79.79,0,0,1-.5.11.83.83,0,0,0-.58.19.69.69,0,0,1-.4.2,1,1,0,0,0-.33.05,1,1,0,0,0-.23.12.84.84,0,0,1-.25.13.35.35,0,0,1-.31-.07c0-.05-.12,0-.22,0a1.51,1.51,0,0,0-.52-.11,2.11,2.11,0,0,0-.52.11,1.74,1.74,0,0,0-.34.14l-.12.08a.25.25,0,0,1-.19,0,.29.29,0,0,0-.2,0l-.2.11a.54.54,0,0,1-.18.1,1.57,1.57,0,0,0-1.15.24,1.76,1.76,0,0,1-.93.3,1.71,1.71,0,0,1-.41-.12,1.15,1.15,0,0,1-.09-.52,2.77,2.77,0,0,1,0-.53,1.7,1.7,0,0,0,.4-.2.39.39,0,0,1,.18-.1l.43-.21a5.8,5.8,0,0,1,.54-.25,1.63,1.63,0,0,0,.51-.32,1.89,1.89,0,0,0,.07-.54.62.62,0,0,1,.36-.56c-.05-.1-.11-.16-.17-.17s-.14-.34-.16-.83a6.4,6.4,0,0,1-.33-1.57,6.13,6.13,0,0,0-.12-.92c-.06-.27-.1-.4-.16-.67,0-.42-.06-.63-.11-1.05l-.3-2a1.74,1.74,0,0,1,.07-.62,1.93,1.93,0,0,1-.23-.86,25.84,25.84,0,0,1-.35-2.67l-.06-1.36a.75.75,0,0,0,0-.37,2.52,2.52,0,0,1-.12-1.17,2.33,2.33,0,0,0-.37-.94c-.66-.12-1.05-.12-1.16,0a.76.76,0,0,1-.73.17.4.4,0,0,0-.39.11.6.6,0,0,1-.47-.19.57.57,0,0,0-.26,0,.15.15,0,0,1-.17-.1c-.08-.29.1-.57.55-.84.2-.05.3-.09.31-.13s.06-.1.15-.17a.76.76,0,0,1,.46-.07,2.58,2.58,0,0,0,.8-.05l.85-.16a.72.72,0,0,0,.22,0l0-.41c0-.18,0-.27-.08-.46a3.11,3.11,0,0,1,0-.74,1.87,1.87,0,0,0,0-.71l-.15-1.23a1.87,1.87,0,0,1,.15-.41,2.16,2.16,0,0,0,0-.8,3.24,3.24,0,0,1,0-.76,2,2,0,0,1,.08-.47.54.54,0,0,0,0-.21,1.42,1.42,0,0,1,.05-.22,1.66,1.66,0,0,0,0-.24.26.26,0,0,1,.06-.21,4,4,0,0,0,.29-.82l.21-.72a1.22,1.22,0,0,0,.05-.37.31.31,0,0,0,.17-.23,1.28,1.28,0,0,1,.16-.34,2.39,2.39,0,0,1,.37-.48c.17-.19.29-.51.41-.64a5.29,5.29,0,0,0,.84-.86.36.36,0,0,0,.32-.09C217,257.19,217.12,257.17,217.27,257.2Z"/><path class="cls-4" d="M228.75,257a2.67,2.67,0,0,1,1.75-.7,1.46,1.46,0,0,0,.37,0,.75.75,0,0,1,.27,0,1.13,1.13,0,0,1,.34,0,.86.86,0,0,0,.42,0,1.17,1.17,0,0,1,.82.32,2.61,2.61,0,0,0,.71.42c0,.06.12.14.35.25a1.17,1.17,0,0,1,.42.24.31.31,0,0,1,0,.19c0,.06,0,.15.13.28s.15.19.14.21,0,.1.08.24a1,1,0,0,0,.2.28l.17.13c0,.05,0,.14,0,.28a.68.68,0,0,0,.05.53,2.09,2.09,0,0,1,.13.77c-.13.3-.19.44-.31.74a2.94,2.94,0,0,1-.17.43.6.6,0,0,0-.16.34c0,.14-.1.26-.3.34a3.31,3.31,0,0,0-.87.58c-.24.09-.37.14-.37.17s-.06,0-.18,0a.69.69,0,0,0-.35,0,.79.79,0,0,1-.43,0s-.1-.07-.16-.09-.09-.08-.07-.19a.39.39,0,0,0-.27,0,.3.3,0,0,1-.26,0c-.07-.08-.16-.32-.34-.39a.55.55,0,0,1-.33-.38l.5-.41a.28.28,0,0,0,.26,0,.71.71,0,0,1,.35,0l.39.16a.74.74,0,0,0,1-.28,2,2,0,0,0,.45-.93c0-.26.08-.51.12-.74a.58.58,0,0,1-.13-.45c0-.15-.15-.33-.24-.48s-.13-.42-.2-.46-.12-.17-.16-.21a4.31,4.31,0,0,0-.46-.17c-.14-.08-.3-.15-.45-.22a1.27,1.27,0,0,0-.52-.11.87.87,0,0,1-.53-.18,1.14,1.14,0,0,0-.8.41,5.21,5.21,0,0,1-.63.5c-.12.11-.23.42-.35.57a1.3,1.3,0,0,0-.23.68c0,.3-.05.56-.06.77a1.5,1.5,0,0,1-.13.58.94.94,0,0,0-.08.49c0,.17.07.44.11.83a14.6,14.6,0,0,1,.12,1.52l-.07.34.18.58v.68a1.4,1.4,0,0,0,.11.65l-.07.43.15,1.39a.17.17,0,0,1,.13.09.38.38,0,0,0,.49.07.84.84,0,0,1,.51-.09c.14,0,.24,0,.28-.08a.46.46,0,0,0,.44.06,1.65,1.65,0,0,1,.41-.14,1.59,1.59,0,0,1,.49,0,4.71,4.71,0,0,0,.53,0,3.13,3.13,0,0,0,.46,0,.35.35,0,0,1,.33.12,1.12,1.12,0,0,1,.18.51,1.46,1.46,0,0,1,0,.51.8.8,0,0,1-.49.16.82.82,0,0,1-.49-.16.35.35,0,0,0-.26.14.25.25,0,0,1-.23.11h-.52c-.22,0-.35,0-.38,0a.17.17,0,0,0-.16,0,1.63,1.63,0,0,0-.25.1,1.72,1.72,0,0,1-.95.19,1,1,0,0,1-.3.2.53.53,0,0,0-.26.25.29.29,0,0,0,0,.31,3.57,3.57,0,0,1,.09,1c0,.35,0,.52,0,.87s0,.82,0,1.17,0,.65,0,.88a1.88,1.88,0,0,0,0,.6,3,3,0,0,1,.1.5,10.24,10.24,0,0,1,.11,1.17V277l.1.37a1.87,1.87,0,0,1,0,.4.94.94,0,0,0,0,.41c0,.12.06.22.08.29a.21.21,0,0,1,0,.17l-.13.43c.1.69.14,1,.24,1.73a1.3,1.3,0,0,0,0,.34l.13.46c0,.43,0,.65.07,1.08s0,.69,0,1.19a5.71,5.71,0,0,0,0,1.22c0,.09.17.17.32.21a1,1,0,0,1,.38.19,1.48,1.48,0,0,0,.49-.16.64.64,0,0,1,.44-.08.48.48,0,0,1,.3.19.56.56,0,0,0,.31.2,1.5,1.5,0,0,1,.16.92,1.28,1.28,0,0,0-.3.17.8.8,0,0,1-.5.1.78.78,0,0,0-.58.17.69.69,0,0,1-.41.19,1.15,1.15,0,0,0-.33,0,1.67,1.67,0,0,0-.23.11.66.66,0,0,1-.25.13.39.39,0,0,1-.32-.07c0-.06-.11-.05-.21,0a1.57,1.57,0,0,0-.52-.12,2,2,0,0,0-.52.1,1.76,1.76,0,0,0-.34.13.42.42,0,0,1-.13.08.23.23,0,0,1-.18,0,.3.3,0,0,0-.21,0,1.32,1.32,0,0,0-.2.12.66.66,0,0,1-.19.09,1.57,1.57,0,0,0-1.15.2c-.48.24-.79.33-.94.28a2.51,2.51,0,0,1-.41-.13,1.47,1.47,0,0,1-.07-.52,3.57,3.57,0,0,1,0-.53,1.58,1.58,0,0,0,.41-.19.5.5,0,0,1,.18-.1l.44-.19a3.79,3.79,0,0,1,.54-.24.66.66,0,0,0,.6-.84.62.62,0,0,1,.37-.55.27.27,0,0,0-.16-.18c-.08-.06-.13-.34-.14-.84a7.7,7.7,0,0,1-.29-1.57,7.06,7.06,0,0,0-.09-.92c-.06-.27-.09-.41-.14-.68,0-.42-.05-.63-.08-1.05-.1-.79-.16-1.18-.26-2a2,2,0,0,1,.09-.62,1.92,1.92,0,0,1-.21-.86,25.6,25.6,0,0,1-.27-2.68l0-1.36a.75.75,0,0,0,0-.37,2.69,2.69,0,0,1-.08-1.17,2.29,2.29,0,0,0-.35-.95c-.65-.14-1-.15-1.16-.06a.75.75,0,0,1-.34.18.88.88,0,0,1-.39,0,.38.38,0,0,0-.39.1.58.58,0,0,1-.46-.21.82.82,0,0,0-.27,0,.14.14,0,0,1-.16-.11c-.07-.28.11-.56.57-.82.19,0,.3-.09.31-.13s.06-.09.16-.15a.61.61,0,0,1,.45-.06,3.9,3.9,0,0,0,.81,0l.85-.14.23,0,0-.4c0-.19,0-.28-.07-.46a3.81,3.81,0,0,1,.07-.75,1.7,1.7,0,0,0,0-.71c0-.49-.07-.74-.12-1.23a2.23,2.23,0,0,1,.16-.4,2.4,2.4,0,0,0,0-.81,3.13,3.13,0,0,1,0-.75,2.23,2.23,0,0,1,.09-.47.57.57,0,0,0,.07-.22,1.55,1.55,0,0,1,0-.21.93.93,0,0,0,0-.24.37.37,0,0,1,.06-.21,3.67,3.67,0,0,0,.32-.81c.11-.35.18-.59.23-.72a1.15,1.15,0,0,0,.06-.37.31.31,0,0,0,.18-.22,1.44,1.44,0,0,1,.16-.34,3.54,3.54,0,0,1,.38-.47c.18-.18.31-.5.43-.62a5.34,5.34,0,0,0,.86-.84c.16,0,.27,0,.32-.09S228.59,256.91,228.75,257Z"/><path class="cls-4" d="M238.46,266.75a1.27,1.27,0,0,1,.69-.14h.69a.43.43,0,0,1,.42.3.55.55,0,0,1,0,.59c0,.16-.12.25-.23.27a2.13,2.13,0,0,0-1,.57c0,.17,0,.34,0,.53a3,3,0,0,0,0,.46c0,.13,0,.23,0,.31s0,.17,0,.26a.67.67,0,0,0,.08.24.39.39,0,0,1,0,.18l0,.43c0,.23,0,.87,0,1.61a4.79,4.79,0,0,1,.09.76,3.58,3.58,0,0,0,0,.48c.07.47.11.7.18,1.17a9.81,9.81,0,0,1-.12,1.18,5.05,5.05,0,0,0-.09.86,2,2,0,0,1,0,.46c0,.19,0,.37-.07.56a1.7,1.7,0,0,0,0,.55c0,.09.07.12.15.1a.31.31,0,0,1,.26.06.25.25,0,0,0,.29,0,.75.75,0,0,1,.45,0,1,1,0,0,1,.24.9,2.64,2.64,0,0,1-.54.39.57.57,0,0,1-.35,0,.57.57,0,0,0-.37.06,1.56,1.56,0,0,0-.62-.27.94.94,0,0,0-.49.13,1.5,1.5,0,0,0-.39.26.6.6,0,0,1-.35.16,1.3,1.3,0,0,1-.61,0,2.29,2.29,0,0,0-.67-.09,12.93,12.93,0,0,0-1.75.41,2.77,2.77,0,0,1-.7-.28.92.92,0,0,1,0-.62,3,3,0,0,1,1.32-.42c.34,0,.53-.07.6-.2s.22-.2.26-.23a.21.21,0,0,0-.08-.2c-.08-.05-.08-.1,0-.14a1.27,1.27,0,0,0,.1-.85,3.2,3.2,0,0,1,.08-1.22,2.89,2.89,0,0,0-.09-.74,1.46,1.46,0,0,1,0-.8,1.32,1.32,0,0,0,0-.84c0-.18.09-.38.14-.58a1.33,1.33,0,0,0,0-.59,3.24,3.24,0,0,1,0-.71l.2-.46a.61.61,0,0,0,0-.16.69.69,0,0,1,0-.34.7.7,0,0,0,0-.31.33.33,0,0,1,0-.15c.05-.26.07-.39.11-.65a.33.33,0,0,0,0-.24.86.86,0,0,1,0-.28.81.81,0,0,0,0-.51,1.52,1.52,0,0,1,0-.45c0-.12-.07-.22-.25-.28a3.79,3.79,0,0,0-.49,0,1.09,1.09,0,0,1-1-.38,1.33,1.33,0,0,1,.4-.8,1.63,1.63,0,0,1,.67,0,2.37,2.37,0,0,0,.61.08,1.19,1.19,0,0,1,.45-.13.53.53,0,0,0,.29-.12c.15-.1.24-.14.27-.13a.49.49,0,0,0,.23,0,1.79,1.79,0,0,1,.53-.06A1.35,1.35,0,0,1,238.46,266.75Zm-3.26-6.33a1.55,1.55,0,0,0,.47-.71.24.24,0,0,0,.2-.09.72.72,0,0,1,.34-.18,2.5,2.5,0,0,1,.51-.12,2.77,2.77,0,0,0,.64-.18.91.91,0,0,1,.79,0,1.32,1.32,0,0,1,.36.34.69.69,0,0,0,.22.18,1,1,0,0,0,.4.09.33.33,0,0,1,.31.24.45.45,0,0,1-.2.35,1.21,1.21,0,0,0-.31.29c0,.17,0,.36,0,.57a.43.43,0,0,1-.22.45.15.15,0,0,0,0,.2c.06.07,0,.12,0,.14a.44.44,0,0,1-.3.26,1,1,0,0,0-.35.18.52.52,0,0,1-.35.1,2,2,0,0,1-1.69-.66c-.11-.15-.37-.2-.43-.25s-.11-.18-.19-.23l-.25-.18a1.52,1.52,0,0,1,.07-.41A.66.66,0,0,0,235.2,260.42Z"/><path class="cls-4" d="M243.56,283.46l-.86.29c-.32,0-.5-.26-.55-.75a.55.55,0,0,0,.16-.31c.06-.23.18-.35.41-.31a.6.6,0,0,0,.52-.13,1.33,1.33,0,0,1,.33-.24,2,2,0,0,0,.93-.47,1.28,1.28,0,0,1-.06-.49,2,2,0,0,0,0-.48,3.61,3.61,0,0,1-.06-.54,5.62,5.62,0,0,1,0-.59c0-.27,0-.56,0-.87s-.07-.53-.08-.66a.7.7,0,0,1,0-.33,1,1,0,0,0,0-.31q0-.18,0-.72c0-.36,0-.7,0-1s0-.75,0-1.28,0-.93,0-1.16a4.5,4.5,0,0,0-.06-.5,1.18,1.18,0,0,1,0-.26l.1-1.3c0-.53,0-.79,0-1.33l0-.37c-.05-.28-.07-.42-.11-.71a5.11,5.11,0,0,1,0-1,4.08,4.08,0,0,0,0-.92,2.71,2.71,0,0,0-1,.09,1.2,1.2,0,0,1-.88-.1,2.41,2.41,0,0,1,.19-1.11,2.68,2.68,0,0,1,1.07-.16,3.47,3.47,0,0,0,.83-.1c.21-.06.33-.11.35-.16a.38.38,0,0,1,.14-.14c.26-.06.66,0,.86-.08s.44,0,.72.26a.88.88,0,0,1,.39.32c.1.21.14.34.12.4a.41.41,0,0,0,0,.25,3.09,3.09,0,0,1,.05.4,3.26,3.26,0,0,0,.09.47,1,1,0,0,1,0,.43.55.55,0,0,0,.1.38,1,1,0,0,0,1.3-.39q.18-.27.21-.27a.33.33,0,0,0,.22-.13l.24-.24a2.55,2.55,0,0,1,.37-.25,3.13,3.13,0,0,0,.46-.32.62.62,0,0,0,.53-.09,1.43,1.43,0,0,1,.59-.22,2.71,2.71,0,0,1,.76,0,1.58,1.58,0,0,0,.78-.08l.42.17a3,3,0,0,1,.61,0,1.15,1.15,0,0,1,.61.15.86.86,0,0,0,.2.26,1.19,1.19,0,0,1,.25.32c.07.12.12.2.17.22a.51.51,0,0,1,.12.13c0,.07.09.16.14.27a1.45,1.45,0,0,0,.19.4c.11.15.22.26.23.34a2.13,2.13,0,0,0,.08.34l.18.55a1.21,1.21,0,0,1,.11.47.84.84,0,0,0,0,.28c0,.08,0,.16.05.22s0,.16.07.3a2.46,2.46,0,0,1,0,.49,2.15,2.15,0,0,0,0,.47l.07.27c0,.06,0,.21.11.46a3.88,3.88,0,0,1,0,1,6.6,6.6,0,0,0-.05,1.13,6.06,6.06,0,0,1,0,.76,1.56,1.56,0,0,0,0,.49c0,.14,0,.26.06.37s0,.23,0,.33a1,1,0,0,1-.06.46l.2.48a1.93,1.93,0,0,1,0,.59.32.32,0,0,0,.25.38,2,2,0,0,1,.44-.05.93.93,0,0,0,.44-.11.47.47,0,0,1,.39.28,1.66,1.66,0,0,0,.21.4,1.2,1.2,0,0,1-.45.56,6.07,6.07,0,0,0-.57.43,2.29,2.29,0,0,0-.5,0c-.1,0-.22,0-.36-.16a3,3,0,0,1-.52.13.92.92,0,0,0-.46.19.4.4,0,0,1-.15-.1.18.18,0,0,0-.19,0,1.17,1.17,0,0,1-.36.16l-.39.12-.3.13a.67.67,0,0,1-.24.09l-.26.08-.41.12a4.41,4.41,0,0,0-.52.19.79.79,0,0,1-.37.11.44.44,0,0,1-.3-.11.27.27,0,0,1,0-.32.26.26,0,0,0,0-.29s.06-.06.05-.17a.33.33,0,0,1,.06-.23,1.52,1.52,0,0,0,.45-.37,1.22,1.22,0,0,1,.4-.29,1.39,1.39,0,0,1,.54-.12.55.55,0,0,0,.43-.28c0-.14-.08-.26-.11-.34a2.76,2.76,0,0,1-.12-.32.65.65,0,0,1,0-.34.84.84,0,0,0,0-.37l-.1-.74a5.44,5.44,0,0,0,0-1.1c0-.28-.07-.54-.08-.76s0-.42,0-.58,0-.3,0-.45l0-.4a8.26,8.26,0,0,1,0-.86l0-.34a.59.59,0,0,0,0-.21,1.26,1.26,0,0,1-.07-.25c0-.09,0-.14,0-.15s0-.09,0-.23-.17-.38-.14-.44a.56.56,0,0,0,0-.15c0-.33-.08-.49-.13-.81a1.62,1.62,0,0,0-.15-.67,2,2,0,0,1-.18-.55,1.61,1.61,0,0,0-.82-.61.65.65,0,0,0-.81.16l-.48.12a3.35,3.35,0,0,0-.48.12c-.07,0-.17.19-.29.27a.39.39,0,0,0-.17.39.38.38,0,0,0-.15.09.22.22,0,0,1-.18.06.82.82,0,0,1-.26.39,2.56,2.56,0,0,0-.34.31,2.61,2.61,0,0,1-.31.28l-.32.27a.25.25,0,0,1-.07.26c-.07.05-.08.15,0,.29a1.12,1.12,0,0,0-.31.41,4.33,4.33,0,0,1-.25.47,2.83,2.83,0,0,0-.19,1.46,8.53,8.53,0,0,1,.06,1.38c.05.91.07,1.37.12,2.29a5.68,5.68,0,0,0,0,.71,7.41,7.41,0,0,1,0,.89,5.41,5.41,0,0,0,.26,2.85c0,.11.06.16.13.16s.15.11.23.31a1.06,1.06,0,0,1-.16.84l-.4.15a1.33,1.33,0,0,1-.4.13.35.35,0,0,1-.27,0,.32.32,0,0,0-.2-.07l-1.09.21a1,1,0,0,0-.49.13.52.52,0,0,1-.34.1c-.06,0-.11,0-.13.12a1.42,1.42,0,0,1-.44-.05,1.16,1.16,0,0,1-.26.15Z"/><path class="cls-4" d="M271,276.7l-.13.42a.12.12,0,0,0,0,.14.57.57,0,0,1,0,.33c0,.16-.08.41-.16.74a1.33,1.33,0,0,0,.06.89,1.59,1.59,0,0,0-.14.73,3.62,3.62,0,0,1-.1.89c-.06.16-.1.24-.16.39a3.63,3.63,0,0,0,.09,1.13,1.21,1.21,0,0,0,.43,0l.61,0c.25,0,.4.14.43.43a.76.76,0,0,1-.46.79.81.81,0,0,1-.33.07,1.42,1.42,0,0,0-.42.07,1.12,1.12,0,0,1-.54,0,2.28,2.28,0,0,0-.83,0,1.69,1.69,0,0,1-.85-.09,3.08,3.08,0,0,0-.88-.2c-.1-.4-.16-.61-.26-1s-.33-.38-.46-.29a.61.61,0,0,1-.55,0l-.59.2a1,1,0,0,0-.57-.06.72.72,0,0,1-.38,0l-.46.18-.38,0a.8.8,0,0,1-.25-.11,1.36,1.36,0,0,0-.25-.11.5.5,0,0,0-.24,0,.8.8,0,0,1-.34-.11,2.19,2.19,0,0,0-.74-.14l-.3-.3a.75.75,0,0,1-.52-.31,1.94,1.94,0,0,0-.5-.46,3,3,0,0,1-.65-.58.34.34,0,0,0-.06-.25.45.45,0,0,1,0-.34,1.19,1.19,0,0,1-.38-.8,5.72,5.72,0,0,0-.08-1.06,1,1,0,0,1-.11-.5.67.67,0,0,0-.12-.5,2.55,2.55,0,0,1,.08-.42.54.54,0,0,0-.09-.45.17.17,0,0,0,.1-.16.43.43,0,0,1,0-.2.82.82,0,0,0,.25-.55.78.78,0,0,1,0-.34,7.16,7.16,0,0,0,.46-.83,3.59,3.59,0,0,1,.19-.39c0-.06.08-.14.13-.23a1,1,0,0,0,.11-.27.66.66,0,0,1,.12-.22.73.73,0,0,1,.24-.19,3.83,3.83,0,0,0,.43-.31,2.15,2.15,0,0,1,.39-.28,3.44,3.44,0,0,0,.47-.36,2.13,2.13,0,0,0,.47-.52A.51.51,0,0,0,263,271a1.54,1.54,0,0,1,.29-.15,1.07,1.07,0,0,0,.36-.2,1,1,0,0,1,.71-.26.81.81,0,0,0,.55-.1,1.09,1.09,0,0,1,.46-.17,1,1,0,0,1,.47.1,3.08,3.08,0,0,0,.49.16l.46,0a3,3,0,0,1,.93.13c.18.08.48.11.53.05a6.6,6.6,0,0,0,.35-2.21,1.8,1.8,0,0,1,.05-.58,1.12,1.12,0,0,0,.07-.47,2.1,2.1,0,0,1,0-.36,7.2,7.2,0,0,0,.18-1.44c0-.19,0-.37,0-.47a1.72,1.72,0,0,1,.1-.44.73.73,0,0,0,.05-.41.55.55,0,0,1,0-.31,1.93,1.93,0,0,1,.15-.39,1.77,1.77,0,0,0,.15-.42l0-.35c.11-.44.16-.66.26-1.09a.84.84,0,0,1,.05-.2.18.18,0,0,0,0-.2.6.6,0,0,1-.09-.31.63.63,0,0,1,.06-.36,5.38,5.38,0,0,0,.23-.76,1,1,0,0,0-.25-1,.55.55,0,0,0-.4,0,1.25,1.25,0,0,1-.4.06c-.14,0-.23,0-.25-.05s-.14,0-.35,0a1.52,1.52,0,0,1-.92-.1.83.83,0,0,1-.33-.78,1,1,0,0,1,.38-.8,2.72,2.72,0,0,0,.62.12.64.64,0,0,0,.53-.12,2.78,2.78,0,0,0,.8.22l.41-.06a3,3,0,0,1,.66,0,2,2,0,0,0,.53,0,1.09,1.09,0,0,1,.34,0c.13,0,.21,0,.23.05s.1,0,.24-.05l.9.17.21,0a.45.45,0,0,1,.36.28.75.75,0,0,1,.12.38c-.14.82-.22,1.23-.36,2.05a1,1,0,0,1-.1.21.4.4,0,0,0-.07.21c0,.36,0,.53,0,.89-.07.2-.11.29-.18.48l0,.35c0,.19-.06.29-.11.48a2.13,2.13,0,0,1,0,.5l-.3,1.37,0,.44c-.13.67-.19,1-.32,1.68s-.1,1.55-.1,2.31c-.07.24-.1.36-.16.61l.05.56c-.07.24-.11.36-.19.6a.22.22,0,0,0,0,.16.44.44,0,0,1,0,.18l-.08.87a.34.34,0,0,1-.09.2c-.12.12-.14.31-.06.59s.08.43,0,.47a.29.29,0,0,0-.11.11.83.83,0,0,1,.06.72,5.62,5.62,0,0,0-.2.76l0,.34a3,3,0,0,0,0,.74A4.21,4.21,0,0,1,271,276.7Zm-3.11-1.17c0-.42,0-.63,0-1l0-.47a4.75,4.75,0,0,1,.17-.9,2.59,2.59,0,0,0,.11-.93,1,1,0,0,0-.71-.51,1.23,1.23,0,0,0-.62.12.33.33,0,0,1-.45-.1.58.58,0,0,0-.49-.22.54.54,0,0,0-.22.15.63.63,0,0,1-.23.16l-.28.07a1.43,1.43,0,0,0-.32.07,2.8,2.8,0,0,1-.32.38c-.12.11-.22.23-.32.34a.29.29,0,0,1-.07.26q-.09.11,0,.24c-.28,0-.47.32-.58.85a.39.39,0,0,0,.05.25.88.88,0,0,0-.31.51q-.07.3-.12.45a1.28,1.28,0,0,1-.1.26.56.56,0,0,0-.06.2c-.06.36-.1.55-.16.91a2.18,2.18,0,0,1-.05.29.46.46,0,0,0,0,.24c.06.2,0,.51.07.67a.8.8,0,0,1,0,.4.36.36,0,0,0,.12.34c.11.11.14.21.09.31a.26.26,0,0,1,.06.24.92.92,0,0,0,0,.36,1,1,0,0,0,.69.67.7.7,0,0,1,.13.22.38.38,0,0,0,.16.2c0,.11.08.16.12.18a.82.82,0,0,1,.21.12.66.66,0,0,0,.38.11l.43,0a1.65,1.65,0,0,1,.32.05,1.24,1.24,0,0,0,.43,0,1.52,1.52,0,0,0,.74-.3,2.42,2.42,0,0,0,.61-.5.73.73,0,0,1,.09-.56,5.52,5.52,0,0,0,.2-1.81A17,17,0,0,1,267.88,275.53Z"/><path class="cls-4" d="M282.44,268.25c.23.13.34.21.34.24s0,.06.14.08a.22.22,0,0,1,.17.11.26.26,0,0,0,.11.15,2.22,2.22,0,0,0,.25.16.77.77,0,0,1,.3.25,3.86,3.86,0,0,0,.45.43,6.82,6.82,0,0,1,.85.94,2.86,2.86,0,0,1,.62,1.13,4.85,4.85,0,0,0,.12.55.69.69,0,0,1,0,.29,4.28,4.28,0,0,0,0,.86,2.11,2.11,0,0,1-.22,1.12c-.14.29-.21.44-.36.73a.65.65,0,0,0-.06.21.41.41,0,0,1-.16.26c-.1.1-.14.16-.14.21s0,.11-.12.21-.16.16-.2.15-.2.17-.4.48-.39.48-.57.51l-.43.09a2.81,2.81,0,0,0-.68.49,2,2,0,0,1-.6.43,3.17,3.17,0,0,1-.6.19,1.23,1.23,0,0,0-.49.23.37.37,0,0,0-.34,0,1.53,1.53,0,0,1-.29.11.56.56,0,0,1-.21,0,.87.87,0,0,0-.25,0,2,2,0,0,1-1.52,0,1.3,1.3,0,0,0-.33-.14l-.62-.25a1.58,1.58,0,0,1-.63-.47,2.08,2.08,0,0,1-.78-.92,2.42,2.42,0,0,1-.49-.47.83.83,0,0,1-.19-.37.27.27,0,0,0-.05-.13l-.19-.25a4.64,4.64,0,0,1-.26-.4,2.29,2.29,0,0,0-.34-.49.6.6,0,0,1-.14-.57,1.68,1.68,0,0,0,0-.63c0-.21,0-.4-.07-.57a1,1,0,0,1,0-.49,2.37,2.37,0,0,0,.08-.33,2.19,2.19,0,0,1,.15-.39,1.88,1.88,0,0,1,.22-.38,1.4,1.4,0,0,0,.18-.34c.07-.17.13-.26.16-.27s0,0,.06-.07a1.35,1.35,0,0,0,.08-.19,2.37,2.37,0,0,1,.47-.55,3.5,3.5,0,0,1,.61-.51.35.35,0,0,0,.21-.29q.39-.18.39-.24s0-.09.15-.15a1.47,1.47,0,0,1,.43-.19.92.92,0,0,0,.49-.36.88.88,0,0,0,.46-.12,7,7,0,0,1,.66-.32,2.42,2.42,0,0,1,1.18-.12c.47.05.84.11,1.11.16s.5.1.68.15A1.49,1.49,0,0,0,282.44,268.25Zm.92,4.08.05-.49a2.85,2.85,0,0,1-.43-.79,1.15,1.15,0,0,1-.2-.15l-.17-.14a.46.46,0,0,1-.09-.17.45.45,0,0,0-.1-.17,2.78,2.78,0,0,0-.35-.13,1.35,1.35,0,0,0-.39-.08,1,1,0,0,1-.48-.22,1.26,1.26,0,0,0-.81-.17,2.52,2.52,0,0,0-.71.11.91.91,0,0,1-.52,0,3.79,3.79,0,0,0-.43.39,2.44,2.44,0,0,1-.31.28.89.89,0,0,0-.23.26,1.44,1.44,0,0,1-.28.31.35.35,0,0,0-.17.31.5.5,0,0,1-.1.34,3.27,3.27,0,0,0-.23,2.59,1.92,1.92,0,0,1,0,.72,1.43,1.43,0,0,1,.25.47,3.69,3.69,0,0,0,.17.5,1.35,1.35,0,0,0,.25.43,3.64,3.64,0,0,1,.28.41,1.88,1.88,0,0,0,.69.24,2.09,2.09,0,0,0,.73-.09,2.86,2.86,0,0,1,.5-.15.2.2,0,0,0,.17,0l.23-.14a.4.4,0,0,1,.25-.1.49.49,0,0,0,.27-.08,1.66,1.66,0,0,0,.38-.28.76.76,0,0,1,.43-.23.39.39,0,0,0,.1-.19.84.84,0,0,1,.08-.19,1.06,1.06,0,0,0,.48-.38,2.36,2.36,0,0,1,.47-.48,1.32,1.32,0,0,0,0-.34.7.7,0,0,1,.08-.41.73.73,0,0,0,.1-.27,1,1,0,0,1,0-.3.85.85,0,0,1,.15-.38.37.37,0,0,0,.07-.28.5.5,0,0,0-.14-.28A.37.37,0,0,1,283.36,272.33Z"/><path class="cls-4" d="M289.19,272.44V272a1.44,1.44,0,0,1,.15-.6c.09-.18,0-.36-.16-.55a1.17,1.17,0,0,0-.46.05.71.71,0,0,1-.46,0l-.32-.12a1,1,0,0,0-.28-.05c-.09,0-.15-.09-.2-.26a.69.69,0,0,1,.18-.57.83.83,0,0,1,.54-.35,4.35,4.35,0,0,1,.8,0,1.93,1.93,0,0,0,.72,0,1.46,1.46,0,0,0,.32-.14,1.32,1.32,0,0,1,.2-.12,3,3,0,0,1,.64,0c.08,0,.18-.08.24-.11a.87.87,0,0,1,.78.39,5.41,5.41,0,0,0,.45.65.46.46,0,0,0,0,.44,1.44,1.44,0,0,1,.17.48.82.82,0,0,1,0,.42.39.39,0,0,0,.15.39.79.79,0,0,0,.8-.2,7.31,7.31,0,0,1,.6-.54l.42-.19a1.45,1.45,0,0,1,.34-.1,1.6,1.6,0,0,0,.29-.05.57.57,0,0,0,.22-.24.32.32,0,0,1,.14-.16,1.59,1.59,0,0,1,.41-.12c.23,0,.35-.13.34-.26a4.69,4.69,0,0,0,1.17.14,6.26,6.26,0,0,1,.95.07,2.5,2.5,0,0,0,.69,0,.9.9,0,0,1,.33.25,2.61,2.61,0,0,0,.34.32.38.38,0,0,1,.18.33.8.8,0,0,0,.14.41,3.55,3.55,0,0,1,.3.54,5.48,5.48,0,0,1,.16.76,1.47,1.47,0,0,1,0,.66,2.42,2.42,0,0,1-.21.61c-.1.17-.19.35-.29.55a.7.7,0,0,0-.43.43,2.36,2.36,0,0,0-.68.42,1,1,0,0,1-.37.26.82.82,0,0,1-.4,0,4.24,4.24,0,0,0-.46-.1,1.26,1.26,0,0,1-.47-.2,2.08,2.08,0,0,0-.58-.27.35.35,0,0,1-.08-.16.56.56,0,0,0-.07-.16.64.64,0,0,0-.16-.17.58.58,0,0,1-.18-.24c-.2-.43-.13-.85.11-.95a3.79,3.79,0,0,1,.92-.16c.2-.05.34.08.4.39a.78.78,0,0,0,.55-.08c.11-.11.18-.33.24-.37s.1-.11.12-.24a.55.55,0,0,1,.06-.23c0-.22-.05-.32-.08-.54l-.11-.22-.17-.26a.64.64,0,0,0-.27-.29.81.81,0,0,0-.57,0,1.14,1.14,0,0,1-.73,0,.57.57,0,0,0-.37.26.5.5,0,0,1-.44.21c-.66.41-1.13.68-1.41.83,0,.08,0,.14-.16.18a.51.51,0,0,0-.28.19,1,1,0,0,0-.13.23.71.71,0,0,1-.15.22.73.73,0,0,0-.14.19.44.44,0,0,1-.1.15.42.42,0,0,0-.11.26,1,1,0,0,1-.11.34c-.16.15-.23.26-.23.33a.25.25,0,0,1-.08.18.54.54,0,0,1-.16.1.26.26,0,0,0-.14.15c.09.16.09.28,0,.38a.38.38,0,0,0,0,.43.53.53,0,0,1,.06.35,2.35,2.35,0,0,0,0,.4,2.37,2.37,0,0,1,0,.45,5.27,5.27,0,0,1-.05.63c0,.1-.07.21,0,.27a.44.44,0,0,1,.05.29l-.06.43a2.06,2.06,0,0,0,0,.45,1.54,1.54,0,0,1,0,.45,1.58,1.58,0,0,0,0,.46.76.76,0,0,1,0,.31.14.14,0,0,0,0,.12c0,.06,0,.14.05.21a.39.39,0,0,1,0,.21l-.11.32V282a2.57,2.57,0,0,0,0,.73,1.48,1.48,0,0,1-.07.73c0,.06,0,.16.07.29a2.47,2.47,0,0,1,.09.41c0,.15.32.27.89.35l1.08.1a1.59,1.59,0,0,1,.11.59.8.8,0,0,1-.15.56H293a2.9,2.9,0,0,1-.51,0c-.17,0-.39.17-.52.22-.35.12-1,0-1.16,0a.5.5,0,0,1-.43,0,.56.56,0,0,0-.36-.08,1.31,1.31,0,0,0-.27.07.89.89,0,0,1-.7,0,.85.85,0,0,0-.67,0,1.53,1.53,0,0,1-.42.2c-.58-.18-.91-.24-1-.17-.26.2-.71.12-.79-.07a1.3,1.3,0,0,1,.65-1.31,1.44,1.44,0,0,1,.54-.06.63.63,0,0,0,.48-.12.58.58,0,0,0,.33-.05,1.43,1.43,0,0,1,.31-.12,14.35,14.35,0,0,1,.11-1.54,6.3,6.3,0,0,0,.07-.93v-.6c0-.2,0-.5.07-.9s.07-.75.09-1a4.08,4.08,0,0,0,0-.79,6.36,6.36,0,0,1,0-.88c0-.37,0-.8,0-1.28v-.46a.5.5,0,0,1,.05-.28.45.45,0,0,0,.07-.19c0-.05,0-.45.1-1.2a9.32,9.32,0,0,1,.14-1.32A1.1,1.1,0,0,0,289.19,272.44Z"/><polygon class="cls-5" points="218.94 129.51 220.68 132.81 220.01 142.87 222.81 132.51 219.91 125.16 211.39 123.03 205.68 127 208.78 127.38 210.62 129.22 217.01 130.19 218.94 129.51"/><polygon class="cls-5" points="243.14 125.16 240.24 132.51 243.04 142.87 242.37 132.81 244.11 129.51 246.05 130.19 254.27 127.38 257.37 127 251.66 123.03 243.14 125.16"/><path class="cls-5" d="M232.35,164l3.47-9.24,4-1.67a3.8,3.8,0,0,0,1.78-3.61c-.25-1.72-10,.49-10,.49s-9.19-1.91-9.79-.65a2.75,2.75,0,0,0,1.41,3.72l4.09,1.72L230.7,164l-10.3,4.54a5.07,5.07,0,0,0-5.11,3l0,0,16.26-4.91,16.25,4.91,0,0a5.07,5.07,0,0,0-5.11-3Z"/><path d="M298.61,135.71l-14.23-21.2,13.94,11.62-12.49-22.66-18-9.87,12.77,1.45L260.28,82.86,244.59,82l-13.06,7.29L218.46,82l-15.68.87L182.45,95.05l12.78-1.45-18,9.87-12.49,22.66,13.94-11.62-14.23,21.2,1.75,28.46,8.71-11.62-5.52,19.75,10.45,18.59,5.81-19.46-1.16,21.78,9.58,13.94,1.17-22.94,7.26,22.94,15.68,10.74L216.72,205l14.81,16,14.81-16-1.46,12.93,15.69-10.74,7.26-22.94L269,207.15l9.58-13.94-1.16-21.78,5.81,19.46,10.45-18.59-5.52-19.75,8.72,11.62Zm-41.72,21s-11.43-7.16-10.65-6.58,7.94,11.42,7.94,11.42l-1.75,14.14-5.8,9.68-9.88,5.81,3.1-7.94-8.32,5.2-8.33-5.2,3.1,7.94-9.88-5.81-5.8-9.68-1.75-14.14s7.17-10.84,7.94-11.42-10.65,6.58-10.65,6.58L199,143.94l1.36-22.27L210,104.25l21.49,9.23L253,104.25l9.68,17.42,1.35,22.27Z"/><path d="M218.34,122.71a34.11,34.11,0,0,1-1.92-14.3l-10.24,4.24.39.38L205,107.19l-.11.62,2.76-3.59-.5.38,4.62-.6,2.66,2.15-11.79-1.6c.07,4.49-4.15,8.35-6,12.3a33.65,33.65,0,0,0-2.81,15.82c.54,9.67,3.63,21.38,8.81,29.64,3.24,5.16,10.85,2.89,11.18-3l2.52-45.07-11.78,1.59c4.49,17,5.43,34.72,7.13,52.14.74,7.59,12.63,7.75,12,0q-2.81-34.73-2.94-69.59h-12a217.62,217.62,0,0,0,10.25,60c2,6.23,12,5.43,11.78-1.59q-.82-25.12.4-50.23l-11.18,3a250.87,250.87,0,0,1,12.63,34.75c1.82,6.4,11.94,5.29,11.79-1.6L243.35,92.6l-11.79,1.6c5.33,16.7,11.65,33.1,19.92,48.58,3.28,6.14,12.52,1.85,11-4.62L253,98.92l-11,4.63a183.59,183.59,0,0,1,13.83,28.58l11.57-3.19L257,101.3c-2.69-7.08-13.93-4.3-11.57,3.19,3.81,12.11,7.75,24.35,9.43,37,1.65,12.43-1,24.84-9.12,34.74-5.89,7.19-20.55,10.6-27.95,3.82-2.58-2.36-4.83-8.06-.82-10.45s5.23,10.46,5.4,13l9-5.18a43.24,43.24,0,0,1-22.06-21.09l-6.78,8.82c7.86,3.05,12.13,8.83,15.93,16s12.61,9.42,18.75,3.32,5.38-16.58,3.86-24.33c-1.74-8.91-5.59-17.24-7.33-26.15l-11.57,3.19a211.64,211.64,0,0,1,12.91,46.75l10-5.84a114.35,114.35,0,0,1-15-21.17l-9.42,7.27c3.7,3.25,8,8.72,13.22,9.12,5.66.43,8.67-5,10-9.73,3.22-11.52.68-25.8-1.49-37.3l-11.58,3.19q7,18.75,13.05,37.84c2.32,7.34,13.47,4.33,11.57-3.19a265.1,265.1,0,0,1-6-31.35l-11.18,3a123.69,123.69,0,0,1,8.26,21.62c2.09,7.42,13.59,4.28,11.57-3.19A84.56,84.56,0,0,0,249,133c-3.33-5.61-13.61-1.87-11,4.62,4.83,11.84,3.64,24.44,1.91,36.81-.45,3.24.79,6.41,4.19,7.38,2.8.81,6.93-1,7.38-4.19,2-14.4,3.74-29.35-1.91-43.19l-11,4.63a72.54,72.54,0,0,1,7.78,18.39L258,154.23a141.25,141.25,0,0,0-9.47-24.49c-2.53-5.1-11.94-2.91-11.18,3a291.7,291.7,0,0,0,6.46,34.54l11.57-3.19q-6-19.1-13-37.84a6,6,0,0,0-11.58,3.19A126.23,126.23,0,0,1,233,152.75c0,.58-1.06,10.53-1.66,10.05l4.79-1L234,160l-4.88-4.28c-5-4.41-12.84,1.11-9.42,7.27a128.38,128.38,0,0,0,16.9,23.6c4.42,4.91,10.86-.49,10-5.84A211.1,211.1,0,0,0,233.73,134c-2.86-7.08-13.07-4.54-11.57,3.19,1.31,6.72,3.74,13.08,5.67,19.63,1.5,5.07,4.52,14.39.89,19.18l.72.32c-.44-.8-.84-1.63-1.2-2.47A37.56,37.56,0,0,0,220.63,163a42,42,0,0,0-14.92-9.41c-5.33-2.07-8.83,4.6-6.77,8.81A53.24,53.24,0,0,0,225.3,187.8c3.8,1.66,9.36-.17,9-5.18-.77-11.61-6.46-32.53-22.53-24-11.64,6.2-11.17,22.24-2,30.32,10,8.8,26.37,8.14,37.42,1.6,11.37-6.72,18.78-23,20-35.69,1.77-17.92-5-36.75-10.28-53.58l-11.57,3.19,10.49,27.64c2.71,7.14,14.31,4.05,11.57-3.19a202.1,202.1,0,0,0-15-31.45c-3.5-5.92-12.55-2-11,4.62l9.44,39.24,11-4.63c-7.79-14.59-13.68-30-18.7-45.71-2-6.27-11.95-5.41-11.79,1.59l1.14,50.11,11.78-1.59a270.23,270.23,0,0,0-13.84-37.61c-2.63-5.81-10.92-2.39-11.18,3q-1.22,25.11-.4,50.23l11.79-1.6a205.55,205.55,0,0,1-9.82-56.81c-.23-7.7-12-7.75-12,0q.13,34.85,2.94,69.59h12c-1.8-18.47-2.8-37.32-7.56-55.33-1.78-6.74-11.42-5-11.79,1.6l-2.52,45.07,11.18-3c-4.54-7.23-7.66-18.57-7.19-27.08.51-9.26,8.94-15.21,8.79-24.62-.1-6.83-9.76-8-11.78-1.59-1.67,5.33.68,12.84,7.32,12.82,6,0,8.56-7.63,4.46-11.62-3.92-3.81-9.87-.84-10.25,4.25a43,43,0,0,0,2.35,17.49c2.56,7.23,14.16,4.11,11.57-3.19Z"/><polygon class="cls-5" points="218.94 128.04 220.68 131.33 220.01 141.4 222.81 131.04 219.91 123.69 211.39 121.56 205.68 125.53 208.78 125.91 210.62 127.75 217.01 128.72 218.94 128.04"/><polygon class="cls-5" points="243.14 123.69 240.24 131.04 243.04 141.4 242.37 131.33 244.11 128.04 246.05 128.72 254.27 125.91 257.37 125.53 251.66 121.56 243.14 123.69"/><path class="cls-5" d="M232.35,162.53l3.47-9.24,4-1.67a3.8,3.8,0,0,0,1.78-3.61c-.25-1.72-10,.49-10,.49s-9.19-1.92-9.79-.65a2.75,2.75,0,0,0,1.41,3.72l4.09,1.72,3.46,9.24-10.3,4.54a5.07,5.07,0,0,0-5.11,3l0,0,16.26-4.91,16.25,4.91,0,0a5.07,5.07,0,0,0-5.11-3Z"/></svg>