<svg id="Layer_1" data-name="Layer 1" xmlns="http://www.w3.org/2000/svg" viewBox="0 0 448.85 447.96"><defs><style>.cls-1{fill:#edba39;}.cls-2,.cls-3{fill:#736255;}.cls-2{stroke:#736255;stroke-miterlimit:10;stroke-width:3px;}.cls-4{fill:#1d1d1b;}.cls-5{fill:#010101;}.cls-5,.cls-6{fill-rule:evenodd;}.cls-6{fill:#fff;}</style></defs><path class="cls-1" d="M117.15,99.6s105.39-124.3,217.26,0c0,0,37.83-37.95,40-27.62,0,0-96.21,109.77,0,188.68,0,0-10.81,73.5-27,77.83l-42.15,36.75s-33.21,5.4-80.38,33.51"/><path class="cls-1" d="M333.87,99.6s-105.39-124.3-217.26,0c0,0-37.84-37.95-40-27.62,0,0,96.2,109.77,0,188.68,0,0,10.81,73.5,27,77.83l42.15,36.75s33.21,5.4,80.38,33.51"/><path class="cls-2" d="M52.88,294.25s177.27-42.15,177.81-31.34v46.48S84.23,323.44,69.09,333.17a23.45,23.45,0,0,0,2.7-19C69.85,307.83,64.64,300.74,52.88,294.25Z"/><path class="cls-2" d="M97.81,325.6l-21,6.92,13,14.05c-25.94,14.05-71.34,0-71.34,0,20.54-3.24,22.7-32.43,22.7-32.43l32.95-.62"/><path class="cls-2" d="M406.45,294.25S229.18,252.1,228.64,262.91v2.15a19.46,19.46,0,0,1,8.6,3.33,4.54,4.54,0,0,1,4,3.61c3.23,3.77-.57,8.93-4.34,8.32-2.05.5-4.13.9-6.2,1.32a89.2,89.2,0,0,1,9.41,3.09c4.75,1.91,4.57,9.43-1.09,9.54a3.9,3.9,0,0,1-4.52,3.25c-2-.2-3.93-.37-5.89-.54v12.41s146.46,14.05,161.59,23.78a23.46,23.46,0,0,1-2.69-19C389.47,307.83,394.69,300.74,406.45,294.25Z"/><path class="cls-2" d="M361.52,325.6l21,6.92-13,14.05c25.94,14.05,71.34,0,71.34,0-20.54-3.24-22.7-32.43-22.7-32.43l-33-.62"/><path class="cls-3" d="M250.2,286.89,233.86,282a43.64,43.64,0,0,1,14.47,2.75"/><path class="cls-3" d="M250.87,284.48l-16.35-4.85-.66,4.91a41.72,41.72,0,0,1,13.8,2.66,2.52,2.52,0,0,0,3.08-1.75,2.57,2.57,0,0,0-1.75-3.08,46.81,46.81,0,0,0-15.13-2.83c-2.86-.06-3.34,4.12-.67,4.91l16.35,4.85a2.52,2.52,0,0,0,3.07-1.74,2.55,2.55,0,0,0-1.74-3.08Z"/><path class="cls-3" d="M250.21,278.7l.07,4.48a2,2,0,0,1-.18,1.09c-.51.86-1.8.57-2.73.19a49.55,49.55,0,0,0-22.77-3.57,158.25,158.25,0,0,1,27.62.38c-.6-1.54-2.46-2.1-4.09-2.44q-11.4-2.4-23-3.86l25.11-2a212.46,212.46,0,0,0-27.19-3.43c1.45-1.79,4.08-1.93,6.38-1.91l12.61.07c3.78,0,7.73.09,11,1.91a1.38,1.38,0,0,1,.51.41,1.23,1.23,0,0,1-.11,1.18c-1.54,3-5.38,3.79-8.68,4.52a59.19,59.19,0,0,0-24,11.54l21.38-1.73c5.06-.4,10.32-.79,15.06,1l-34.44,2.08,27.12,4a14.71,14.71,0,0,1,5,1.33,34.47,34.47,0,0,1-13.67-3.9l16.7.36L225,293l27.21,3.31c-.39.88-1.52,1.11-2.49,1.18-4.65.33-9.32-.23-14-.14s-9.5.9-13.29,3.61a82.18,82.18,0,0,1,22.1-.17,2.3,2.3,0,0,1,1.79.83c.54.91-.41,2-1.41,2.4-3.39,1.21-6.73-1.9-10.29-2.51-3.95-.68-7.94,1.81-11.9,1.14l14.31-.05c1.8,0,3.84.09,5,1.46-6.06.77-12.8-2.62-18,.55,5.86,1.1,12.16-2,17.71.15a91.6,91.6,0,0,1-9.89-1.41"/><path class="cls-3" d="M247.71,278.7l0,2.74a6.78,6.78,0,0,1-.07,2.17l.64-1.1c.34-.44.89.12.3-.25a7.27,7.27,0,0,0-1.23-.47c-1.06-.42-2.13-.8-3.22-1.15a50.85,50.85,0,0,0-6.19-1.53,53.18,53.18,0,0,0-13.39-.72,2.56,2.56,0,0,0-2.5,2.5,2.53,2.53,0,0,0,2.5,2.5,161.26,161.26,0,0,1,27.62.38c2.08.21,2.86-2.23,2.16-3.76-.92-2-3-3-5.09-3.48-2.6-.62-5.25-1.08-7.88-1.57q-8.08-1.47-16.25-2.49v5l25.11-2a2.52,2.52,0,0,0,2.46-2.16,2.5,2.5,0,0,0-1.8-2.75A220.82,220.82,0,0,0,223.08,267l1.77,4.27c1.14-1.29,3-1.18,4.61-1.18,2.83,0,5.66,0,8.49.05,2.57,0,5.15,0,7.72.11a20.18,20.18,0,0,1,3.28.43c.84.2,2.3.43,2.9,1.07l-.64-1.1c.24-.83.23-1,0-.46l-.18.28a2.91,2.91,0,0,1-.45.48,5.68,5.68,0,0,1-1.38.88,16.14,16.14,0,0,1-3.33,1.06,80.41,80.41,0,0,0-9.25,2.61,63.43,63.43,0,0,0-17.58,10c-1.66,1.33-.3,4.43,1.77,4.27l18.89-1.53c5.61-.45,11.47-1.25,16.89.73l.66-4.91-34.44,2.08a2.53,2.53,0,0,0-2.46,2.17,2.47,2.47,0,0,0,1.79,2.74l16.28,2.39,7.89,1.16c2.37.34,5.13.41,7.3,1.51l1.27-4.66a32.3,32.3,0,0,1-12.41-3.56l-1.26,4.66,16.7.36v-5L225,290.48a2.5,2.5,0,0,0,0,5l27.21,3.31L250.07,295a.93.93,0,0,1,.3-.2c-.18,0-.47.12-.64.14a15.68,15.68,0,0,1-1.69.08c-1.44,0-2.89,0-4.34,0-2.79-.09-5.58-.26-8.37-.18-4.93.14-10,1.08-14.15,3.94-2.42,1.69-.85,5,1.93,4.57a78.4,78.4,0,0,1,11.35-.74c1.93,0,3.85.08,5.78.23q1.32.09,2.64.24c.42,0,.85.11,1.27.14.78.06.28.23.15-.08l-.35-1.26c0,.51.12.39.3-.39,0,.13-.07.21-.28.22s-.62.07-.79.06a6.61,6.61,0,0,1-2.14-.54,38.45,38.45,0,0,0-5.37-2.08,15.59,15.59,0,0,0-6.62.27c-1.81.39-3.77,1.07-5.65.8l-.66,4.91,10.12,0c1.58,0,3.16,0,4.74,0a3.55,3.55,0,0,1,2.68.73l1.77-4.27c-6.51.73-13.16-2.64-19.29.89-1.73,1-1.59,4.19.6,4.57a30.92,30.92,0,0,0,9.21-.18c2.86-.36,5.73-.68,8.5.33l.66-4.91a89.35,89.35,0,0,1-9.22-1.32,2.57,2.57,0,0,0-3.08,1.75,2.52,2.52,0,0,0,1.75,3.07,101.45,101.45,0,0,0,10.55,1.5,2.49,2.49,0,0,0,2.46-2.17,2.55,2.55,0,0,0-1.79-2.75,19.52,19.52,0,0,0-9-.6c-2.85.33-5.86.95-8.72.46l.59,4.57c2.4-1.38,5.21-1.1,7.85-.78,3,.35,5.92.91,8.92.57a2.53,2.53,0,0,0,1.77-4.26c-2.44-2.59-6.24-2.21-9.48-2.19l-11.6,0a2.5,2.5,0,0,0-2.46,2.17,2.47,2.47,0,0,0,1.79,2.74,16.69,16.69,0,0,0,5.85-.25,26.67,26.67,0,0,1,5.08-.91c3.36-.06,6.16,2.47,9.48,2.84a6.46,6.46,0,0,0,5.07-1.46,3.92,3.92,0,0,0,.55-5.43c-1.42-1.61-3.71-1.6-5.7-1.8s-4.17-.35-6.26-.4a87.39,87.39,0,0,0-14.36.9l1.93,4.57c4.25-3,9.42-3.36,14.44-3.27,2.9.06,5.79.26,8.69.24,2.67,0,6,.13,7.54-2.52,1-1.79-.34-3.54-2.16-3.76L225,290.48v5l32.88-2.6c3.17-.25,3.26-4.93,0-5l-16.7-.36c-2.43,0-3.48,3.51-1.26,4.66a38.43,38.43,0,0,0,14.93,4.24c2.45.18,3.42-3.56,1.26-4.66a23.74,23.74,0,0,0-7.52-1.87l-8.38-1.23-16.77-2.46-.66,4.91L257.23,289a2.51,2.51,0,0,0,.67-4.91c-5.69-2.08-11.82-1.42-17.72-.95l-19.39,1.57,1.77,4.26a57,57,0,0,1,13-7.72,55.42,55.42,0,0,1,7-2.44c2.19-.61,4.44-1,6.6-1.66a11.55,11.55,0,0,0,5.55-3.39c1.87-2.31,2-5.21-.93-6.64-4.91-2.37-10.57-2-15.87-2-3.12,0-6.25-.11-9.36-.05-2.64.06-5.45.56-7.27,2.64a2.53,2.53,0,0,0,1.76,4.27,209.53,209.53,0,0,1,26.53,3.34l.66-4.91-25.11,2a2.5,2.5,0,0,0,0,5q7,.88,14,2.14,3.47.63,6.91,1.33c1.23.25,3.45.35,4,1.59l2.16-3.76a161.26,161.26,0,0,0-27.62-.38v5a48.26,48.26,0,0,1,17.6,1.87c1.38.42,2.74.9,4.09,1.44a6,6,0,0,0,3.84.48c3.55-1,2.63-5.69,2.58-8.48-.05-3.21-5.05-3.22-5,0Z"/><path class="cls-3" d="M223.33,268.26a43.42,43.42,0,0,0,19.63-.91c-2.83-1.17-5.83-2.37-8.85-1.91-1.19.19-2.33.62-3.52.87-2.62.53-5.68.21-7.59,2.09"/><path class="cls-3" d="M222.67,270.67a46.93,46.93,0,0,0,21-.91,2.55,2.55,0,0,0,1.84-2.41,2.63,2.63,0,0,0-1.84-2.41,25.68,25.68,0,0,0-5.78-1.87,15.28,15.28,0,0,0-6.68.52,41.57,41.57,0,0,1-5,.8,9.09,9.09,0,0,0-4.92,2.24c-2.36,2.19,1.18,5.72,3.54,3.54a5.94,5.94,0,0,1,2.92-1,33.81,33.81,0,0,0,4.8-.78,9.43,9.43,0,0,1,4.56-.42,28.35,28.35,0,0,1,5.24,1.77v-4.82a41.11,41.11,0,0,1-18.29.91,2.57,2.57,0,0,0-3.08,1.74,2.53,2.53,0,0,0,1.75,3.08Z"/><path class="cls-4" d="M162.89,287.59l0,.49a1.3,1.3,0,0,0,.11.36,1.7,1.7,0,0,1,.1.91,4.27,4.27,0,0,0,.49,1.79c0,.28,0,.42.07.7l.11.32a1,1,0,0,1,.08.52,2.55,2.55,0,0,0,0,.61,3.11,3.11,0,0,0,.13.56.67.67,0,0,1,.07.33.35.35,0,0,0,0,.18c0,.05.06.07.12.08h.43c.06,0,.09,0,.07.08a.54.54,0,0,0,.42,0,.72.72,0,0,1,.36-.11.88.88,0,0,1,.33,0l.36.12a2.11,2.11,0,0,0,1-.13,1.81,1.81,0,0,1,.83-.18h.67l.54,0a1.82,1.82,0,0,0,.42,0,1.7,1.7,0,0,1,.37,0c.16,0,.25,0,.27,0a2.71,2.71,0,0,1,.43.1.89.89,0,0,0,.43,0L172,294a3,3,0,0,0,.26-1.1,3.11,3.11,0,0,0,0-.91,2.15,2.15,0,0,1-.07-.53,2.22,2.22,0,0,1,0-.34,2.38,2.38,0,0,0,0-.33,1.58,1.58,0,0,0-.06-.5,2.2,2.2,0,0,1-.07-.56,4.17,4.17,0,0,0,0-.52c0-.19,0-.28.07-.47a.53.53,0,0,0-.07-.18c0-.08-.05-.14,0-.18a1.07,1.07,0,0,0,0-.49,1.07,1.07,0,0,1-.06-.27l.12-.39a.44.44,0,0,0-.06-.16.76.76,0,0,1,0-.34.88.88,0,0,0,0-.36.86.86,0,0,1-.06-.23l.05-.4c0-.23,0-.46,0-.71a6.51,6.51,0,0,1,0-.77l-.1-.76c0-.41-.05-.62-.09-1s0-.53,0-.89l-.13-1a1,1,0,0,1,0-.34q.15-.92-.18-.87c-.08,0-.12,0-.11-.14a2.6,2.6,0,0,0-.64.09,2.12,2.12,0,0,1-.65.07.76.76,0,0,1-.2-.81.84.84,0,0,1,.37-.09,2,2,0,0,0,.35-.06l.65-.17.44,0,.39-.11a1.64,1.64,0,0,0,.55-.05,1.28,1.28,0,0,1,.56,0,1.49,1.49,0,0,0,.69,0,.82.82,0,0,1,.51,0,.88.88,0,0,0,.69,0,.47.47,0,0,1,.33,0,3,3,0,0,1,.4.26.29.29,0,0,0,.11.11.89.89,0,0,1-.49.71,1.2,1.2,0,0,0-.54.51c-.05.14-.24.28-.29.38a1.7,1.7,0,0,0,.06.78,6,6,0,0,1,.09.64.92.92,0,0,1,0,.36c0,.08,0,.15.13.2a.64.64,0,0,0-.09.64,5.16,5.16,0,0,1,.14.68V285a.37.37,0,0,0,0,.25.4.4,0,0,1,.07.2l-.15,1.28c0,.31.08.46.13.76a2.57,2.57,0,0,1,0,.48,2.27,2.27,0,0,0,0,.41.56.56,0,0,0,0,.27.93.93,0,0,1,0,.27,1,1,0,0,1-.06.33,1,1,0,0,0-.08.32c.05.54.07.8.12,1.34a.41.41,0,0,1-.12.35.17.17,0,0,1,.11.24.68.68,0,0,0,0,.31.57.57,0,0,0,.08.25.4.4,0,0,1,0,.25c0,.09,0,.24-.07.45a2.35,2.35,0,0,0,0,.65,2,2,0,0,1,0,.61,3,3,0,0,0-.05.5,2,2,0,0,0,0,.38,1.54,1.54,0,0,1,0,.3c0,.1,0,.21,0,.33s0,.28,0,.49a2.13,2.13,0,0,0,0,.48,2.16,2.16,0,0,1,0,.52,2.17,2.17,0,0,0,0,.68,1.23,1.23,0,0,1-.1.66,1.65,1.65,0,0,1,0,1,5.36,5.36,0,0,0,0,1q0,.49,0,1.11a.35.35,0,0,0,.47.13,1.1,1.1,0,0,1,.52-.09,1.59,1.59,0,0,1,.78.37.69.69,0,0,0,.06.36.33.33,0,0,1-.06.32.27.27,0,0,1-.27.14,2.7,2.7,0,0,0-.61,0,5.22,5.22,0,0,1-1,0,1.43,1.43,0,0,0-.77.12l-.52.29a1.65,1.65,0,0,0-.84.05,5.39,5.39,0,0,1-.91.21,1.27,1.27,0,0,1-.71,0q-.28-.12-.21-.75a.45.45,0,0,1,.24-.09,1.73,1.73,0,0,0,.31-.07,2.46,2.46,0,0,1,.48-.31,1.58,1.58,0,0,0,.49-.28,3,3,0,0,0,.1-1,2.38,2.38,0,0,1,.13-1c-.1-.26-.13-.4-.09-.44s0-.11,0-.24,0-.31,0-.58a5.6,5.6,0,0,1,0-.69,4.16,4.16,0,0,1,0-.45c0-.11,0-.21.05-.3a.8.8,0,0,0,0-.27,4.89,4.89,0,0,1-.07-.64,1.32,1.32,0,0,0-.33-.84,4,4,0,0,0-1.13,0,1.76,1.76,0,0,1-1.08-.11,2.27,2.27,0,0,1-1.1.24,2.24,2.24,0,0,0-.61,0,.62.62,0,0,1-.27.05h-.4a2.11,2.11,0,0,0-.8.3,2.42,2.42,0,0,0-1.15.13c0,.06-.1.13-.28.21s-.26.17-.28.27,0,.18.06.21a.41.41,0,0,1,.15.26c0,.18,0,.28,0,.46a1.83,1.83,0,0,0,.14.5,2,2,0,0,1,.12.61l.1.51c0,.41,0,.71.07.89a4.92,4.92,0,0,1,0,.52,1.36,1.36,0,0,0,1.12,0,.7.7,0,0,0,.18-.11,1.07,1.07,0,0,1,.19-.12,1.33,1.33,0,0,1,.37-.09,2.13,2.13,0,0,0,.45-.13.93.93,0,0,1,.43,1,2.59,2.59,0,0,0-.33.19,1.12,1.12,0,0,1-.35.15,1.24,1.24,0,0,1-.37.06.71.71,0,0,0-.42.09c-.13.07-.24.19-.32.2a.94.94,0,0,0-.56.25.66.66,0,0,1-.34.21.72.72,0,0,0-.4.2.73.73,0,0,1-.4.23l-2.21.79a.78.78,0,0,1-.55-.08.46.46,0,0,1-.21-.5c0-.24.1-.37.22-.39a.7.7,0,0,0,.34-.16,3.48,3.48,0,0,1,.45-.3,1.29,1.29,0,0,0,.46-.44,1,1,0,0,0-.11-.44,3.15,3.15,0,0,1-.28-1.33c0-.08,0-.17-.06-.19s-.1-.1-.09-.23a.84.84,0,0,0-.13-.49,1.71,1.71,0,0,1-.21-.53,1,1,0,0,1,0-.36.48.48,0,0,0,0-.26,1.22,1.22,0,0,0-.15-.27,1.12,1.12,0,0,1-.17-.38,1.86,1.86,0,0,1-.07-.56.81.81,0,0,0-.23-.57,1.55,1.55,0,0,0,0-.43,3.69,3.69,0,0,0-.1-.39c-.22-.88-.33-1.33-.56-2.21v-.46a4.38,4.38,0,0,0-.15-.57,5.45,5.45,0,0,1-.14-.58c0-.19-.09-.37-.14-.55s-.08-.33-.12-.46a3.07,3.07,0,0,0-.11-.36.63.63,0,0,1-.08-.27c0-.07,0-.18,0-.32a1.39,1.39,0,0,0-.18-.5,3.38,3.38,0,0,1-.27-.58,2.53,2.53,0,0,1-.15-.68.88.88,0,0,0-.31-.61,2.34,2.34,0,0,0-.28-1.05,3.3,3.3,0,0,1-.31-1.49c-.07-.11-.08-.19-.06-.22a.19.19,0,0,0,0-.12l-.23-.4a1,1,0,0,0-.17-.46,1.52,1.52,0,0,1-.17-.51c0-.18-.09-.28-.16-.31-.26,0-.37,0-.35,0s0,.08-.11.06a.63.63,0,0,0-.42.08.9.9,0,0,1-.49.1q-.23-.58,0-.72a1.83,1.83,0,0,1,.53-.17l.63-.1a.68.68,0,0,0,.43-.22.67.67,0,0,1,.38.06,2.44,2.44,0,0,1,.32-.15l.48-.23a2.4,2.4,0,0,1,.53-.22,1.94,1.94,0,0,0,.42-.17,2.12,2.12,0,0,0,.33-.21.89.89,0,0,1,.53-.06,2.33,2.33,0,0,0,.24-.19.81.81,0,0,1,.29-.1c.82-.21,1.39-.17,1.69.09a1,1,0,0,0,0,.25l0,.24a1.23,1.23,0,0,1-.35.27,1,1,0,0,0-.3.15.61.61,0,0,1-.42.11.3.3,0,0,0-.21.18l-.09.26a.4.4,0,0,0-.34,0c-.13.05-.23.13-.24.21s0,.25-.05.36a.72.72,0,0,0,.08.45,2.15,2.15,0,0,1,.15.4,1.05,1.05,0,0,0,.06.24l.13.38a.8.8,0,0,1,0,.31,1.06,1.06,0,0,0,0,.26,1.36,1.36,0,0,0,.15.36l.15.32a3.92,3.92,0,0,0,.19.53,1.18,1.18,0,0,1,.1.36.63.63,0,0,0,.22.37.34.34,0,0,0,0,.35,1.11,1.11,0,0,1,.11.34C162.86,287.23,162.87,287.35,162.89,287.59Z"/><path class="cls-4" d="M182.84,293.82l0,.4a1.73,1.73,0,0,1,.19,1,.6.6,0,0,0,.22.6,1,1,0,0,1,.28-.09.61.61,0,0,0,.24-.07.75.75,0,0,0,.19-.17.28.28,0,0,1,.21-.13,1.16,1.16,0,0,1,.14-.34.82.82,0,0,0,.14-.37,1.15,1.15,0,0,0,.55-.54,1.63,1.63,0,0,1,.47-.6,1.61,1.61,0,0,1,.2-.8,1.51,1.51,0,0,0,.22-.61,1.23,1.23,0,0,1,.06-.34.45.45,0,0,1,.18-.18.59.59,0,0,0,.18-.17c.1-.3.18-.51.22-.64a1.36,1.36,0,0,1,.21-.39,8.29,8.29,0,0,0,.24-.89.89.89,0,0,1,.34-.57.62.62,0,0,1,0-.33,2.5,2.5,0,0,0,.12-.36.82.82,0,0,0,.05-.28.86.86,0,0,1,.17-.29l.28-1,.22-.51a.93.93,0,0,0,0-.31,2.5,2.5,0,0,1,.15-.81,2.15,2.15,0,0,0,.08-1.05,1.47,1.47,0,0,1,.37-1.14.85.85,0,0,1,.34-.07h.38a3,3,0,0,0,.28.22,1.89,1.89,0,0,1,.26.95,2.57,2.57,0,0,0,.09.84,1.26,1.26,0,0,0,.15.34s0,.08.08.22a5.14,5.14,0,0,1,.07.63,4,4,0,0,0,.07.68,1.49,1.49,0,0,0,.13.42,1.75,1.75,0,0,1,.11.56,1.33,1.33,0,0,0,.14.56,5.41,5.41,0,0,0,.25,1.68c.21.94.31,1.44.31,1.51a.94.94,0,0,0,.08.34.55.55,0,0,1,.05.3.73.73,0,0,0,.06.33.82.82,0,0,1,.06.41.56.56,0,0,0,0,.24,3.93,3.93,0,0,1,.17.54v.53a3.14,3.14,0,0,0,.15.49,1.2,1.2,0,0,1,.09.56c0,.27,0,.41,0,.68a1.44,1.44,0,0,0,.61.13,4.27,4.27,0,0,1,.71.07,1.31,1.31,0,0,0,.2.37.84.84,0,0,1,.12.5,1.82,1.82,0,0,1-1.44.35c-.14.08-.22.11-.36.18a.78.78,0,0,0-.51.11l-.44.22a1.35,1.35,0,0,1-.36.09.81.81,0,0,0-.34.1,3.06,3.06,0,0,0-.43.28,4.08,4.08,0,0,1-.58.36,2.32,2.32,0,0,1-.44.19,2,2,0,0,0-.47.23.4.4,0,0,1-.57-.09.54.54,0,0,1-.07-.58.6.6,0,0,1,.4-.34.84.84,0,0,1,.32-.37c.17-.08.32-.11.34-.15a.37.37,0,0,1,.21-.13c.12,0,.2-.08.21-.11a.44.44,0,0,1,.12-.1.57.57,0,0,1,.25-.07c.28,0,.32-.16.14-.41s-.26-.39-.24-.42,0-.11-.07-.23a.8.8,0,0,1-.09-.36,1.41,1.41,0,0,0-.07-.42l-.15-.47a.72.72,0,0,1,0-.46c0-.15,0-.25-.08-.3a.23.23,0,0,1-.14-.15l-.15-.6,0-.44a1.92,1.92,0,0,0-.08-.62c-.06-.21-.11-.4-.15-.56a1.12,1.12,0,0,1,0-.39.72.72,0,0,0-.22-.69,1.38,1.38,0,0,0-.22.49,1.07,1.07,0,0,1-.28.51,6,6,0,0,1-.35.9c-.11.19-.13.58-.22.71s-.32.26-.35.4a1.08,1.08,0,0,1-.24.46,1,1,0,0,1-.18.52c-.13.23-.25.46-.37.69a2.49,2.49,0,0,1-.47.66,2.76,2.76,0,0,0-.42.6c-.09.14-.16.24-.15.26s0,.09-.16.23l-.61.52a1.17,1.17,0,0,0-.73.1l-.5.28c-.15.08-.25.1-.31.05a.32.32,0,0,0-.23-.09.49.49,0,0,0-.25.06.33.33,0,0,1-.24,0,.47.47,0,0,1-.24-.13,1.21,1.21,0,0,0-.25-.17,1.53,1.53,0,0,0-.29-.11.8.8,0,0,1-.26-.08,1.73,1.73,0,0,1-.15-.2,1.14,1.14,0,0,1-.15-.23.56.56,0,0,1-.19-.26,2.15,2.15,0,0,0-.28-.49.76.76,0,0,0-.19-.44c-.11-.13-.16-.23-.14-.3a2.49,2.49,0,0,0-.32-.73,3.16,3.16,0,0,1-.38-.91l0-.43a2.7,2.7,0,0,1-.11-.71,3.66,3.66,0,0,0-.1-.75,4.7,4.7,0,0,1-.06-1.18c0-.54,0-.9.06-1.06s0-.34,0-.56a1.19,1.19,0,0,0-.09-.36.74.74,0,0,1,0-.42.5.5,0,0,0,0-.32.44.44,0,0,1,0-.2c0-.07,0-.16.06-.25s0-.19,0-.28a.55.55,0,0,0,0-.26,2.56,2.56,0,0,1-.08-.43,3,3,0,0,1,0-.67,2.21,2.21,0,0,0-.07-.83.13.13,0,0,0,0-.18.3.3,0,0,1-.11-.23.26.26,0,0,0-.3-.16,2.18,2.18,0,0,1-.4.08.7.7,0,0,0-.26-.25.94.94,0,0,1-.25-.19c-.05-.05,0-.15,0-.3s.1-.25,0-.32a3.1,3.1,0,0,1,1.88-.39.6.6,0,0,1,.37,0,.41.41,0,0,0,.36,0,.57.57,0,0,1,.42,0,1.77,1.77,0,0,0,.43,0,.56.56,0,0,1,.31.06.75.75,0,0,0,.3.09,5,5,0,0,1,.27.55.37.37,0,0,0,.24.2c-.06.09-.07.14,0,.16s.07.07.08.17l.11.42c0,.4,0,.59.06,1a4.91,4.91,0,0,1,.13.91c0,.2,0,.3,0,.5a.54.54,0,0,0,.1.29c.1.14.08.32,0,.56a.7.7,0,0,1,.14.54,2.88,2.88,0,0,0-.06.59l.1.64c0,.42,0,.63,0,1.05l.12.48a3.56,3.56,0,0,1-.11.55.68.68,0,0,0,0,.42,1.71,1.71,0,0,1,0,.42c0,.22,0,.34,0,.56Z"/><path class="cls-4" d="M199.44,274.12a2.68,2.68,0,0,1,1.7-.77,1.88,1.88,0,0,0,.37,0,.61.61,0,0,1,.26-.05.88.88,0,0,1,.34,0,.83.83,0,0,0,.42,0,1.23,1.23,0,0,1,.83.28,2.45,2.45,0,0,0,.72.38c0,.06.13.14.36.23a1,1,0,0,1,.43.23.27.27,0,0,1,0,.18c0,.06,0,.15.14.27s.16.19.15.21,0,.09.09.22a.79.79,0,0,0,.21.27l.17.13c.05,0,.05.13,0,.28a.65.65,0,0,0,.07.51,2,2,0,0,1,.17.76l-.27.75a3.61,3.61,0,0,1-.15.44.67.67,0,0,0-.15.34c0,.14-.09.26-.28.35a3.27,3.27,0,0,0-.83.62c-.24.09-.35.15-.35.18s-.06,0-.18,0a.69.69,0,0,0-.35,0,.79.79,0,0,1-.43,0,.76.76,0,0,0-.16-.09c-.07,0-.1-.07-.08-.18a.35.35,0,0,0-.26.05.3.3,0,0,1-.26,0c-.07-.07-.17-.3-.35-.36a.54.54,0,0,1-.35-.37l.47-.42a.35.35,0,0,0,.27,0,.66.66,0,0,1,.34,0,3,3,0,0,1,.39.13.74.74,0,0,0,1-.32,2.08,2.08,0,0,0,.4-.94c0-.27,0-.51.08-.74a.54.54,0,0,1-.15-.44c0-.15-.16-.32-.26-.46s-.15-.41-.22-.45-.13-.17-.18-.2a3.36,3.36,0,0,0-.45-.15l-.46-.19a1.14,1.14,0,0,0-.52-.08.85.85,0,0,1-.53-.16,1.17,1.17,0,0,0-.78.44,4.14,4.14,0,0,1-.6.52,5.39,5.39,0,0,0-.32.59,1.28,1.28,0,0,0-.19.68c0,.3,0,.56,0,.77a1.5,1.5,0,0,1-.1.58.92.92,0,0,0-.05.49l.15.82a13.69,13.69,0,0,1,.18,1.49l-.05.34.2.57,0,.67a1.26,1.26,0,0,0,.14.64l0,.43c.09.55.13.82.21,1.37a.21.21,0,0,1,.14.08.37.37,0,0,0,.49.05.85.85,0,0,1,.5-.12q.21,0,.27-.09a.42.42,0,0,0,.44,0,1.59,1.59,0,0,1,.4-.16,1.55,1.55,0,0,1,.49,0,4.51,4.51,0,0,0,.52,0,2.86,2.86,0,0,0,.46-.06.36.36,0,0,1,.33.11,1,1,0,0,1,.2.5,1.64,1.64,0,0,1,0,.5.89.89,0,0,1-.48.18,1,1,0,0,1-.49-.13.32.32,0,0,0-.26.15.26.26,0,0,1-.22.12l-.52,0c-.21,0-.34,0-.37,0a.17.17,0,0,0-.16,0,1.22,1.22,0,0,0-.24.1,1.66,1.66,0,0,1-.93.24,1,1,0,0,1-.3.22.42.42,0,0,0-.24.25.31.31,0,0,0,0,.31,3,3,0,0,1,.14,1c0,.34,0,.51,0,.86s.05.81.09,1.16a4.65,4.65,0,0,1,.05.87,2,2,0,0,0,.07.59,4.21,4.21,0,0,1,.12.48,8.9,8.9,0,0,1,.16,1.16l0,.46.12.36a2.91,2.91,0,0,1,0,.4.88.88,0,0,0,0,.4c0,.12.07.21.1.28a.26.26,0,0,1,0,.17c0,.18-.06.26-.11.44.13.68.19,1,.32,1.7a1.43,1.43,0,0,0,0,.33l.15.45c.05.43.08.64.13,1.07,0,.28,0,.68,0,1.18a5.13,5.13,0,0,0,.09,1.2.43.43,0,0,0,.32.2,1,1,0,0,1,.38.16,1.4,1.4,0,0,0,.48-.18.59.59,0,0,1,.43-.09.49.49,0,0,1,.31.16.56.56,0,0,0,.32.19,1.41,1.41,0,0,1,.2.91,1,1,0,0,0-.29.18.79.79,0,0,1-.49.12.76.76,0,0,0-.56.19.68.68,0,0,1-.4.21,1.4,1.4,0,0,0-.32.06l-.23.12a.63.63,0,0,1-.24.14.39.39,0,0,1-.32-.06q-.06-.08-.21,0a1.78,1.78,0,0,0-.52-.1,1.73,1.73,0,0,0-.51.13,1.51,1.51,0,0,0-.33.14l-.12.08a.22.22,0,0,1-.19,0,.25.25,0,0,0-.2,0,.62.62,0,0,0-.19.12l-.19.1a1.5,1.5,0,0,0-1.13.26,1.71,1.71,0,0,1-.91.32,2.7,2.7,0,0,1-.42-.11,1.15,1.15,0,0,1-.09-.52,3.17,3.17,0,0,1,0-.52,1.57,1.57,0,0,0,.39-.21.39.39,0,0,1,.18-.1l.43-.22a4.24,4.24,0,0,1,.53-.26,1.93,1.93,0,0,0,.49-.32,1.73,1.73,0,0,0,.06-.54A.6.6,0,0,1,199,302c-.05-.1-.1-.16-.16-.18s-.15-.32-.18-.81a7.26,7.26,0,0,1-.37-1.54,5.7,5.7,0,0,0-.13-.92c-.07-.26-.11-.39-.17-.66s-.08-.62-.13-1l-.35-1.94a1.72,1.72,0,0,1,.05-.61,2,2,0,0,1-.24-.85,25.75,25.75,0,0,1-.4-2.64l-.09-1.34a.69.69,0,0,0-.06-.37,2.74,2.74,0,0,1-.14-1.15,2.25,2.25,0,0,0-.38-.93c-.66-.1-1-.1-1.16,0a.71.71,0,0,1-.33.19.85.85,0,0,1-.39,0,.38.38,0,0,0-.38.12.58.58,0,0,1-.47-.18h-.26a.13.13,0,0,1-.17-.09c-.08-.28.09-.56.53-.84.19-.05.29-.1.3-.14a.41.41,0,0,1,.15-.17.71.71,0,0,1,.45-.07,3.15,3.15,0,0,0,.8-.08l.83-.17.23-.05,0-.4-.1-.46a4.46,4.46,0,0,1,0-.73,1.68,1.68,0,0,0,0-.71c-.07-.48-.1-.73-.17-1.21a2.16,2.16,0,0,1,.13-.41,2.18,2.18,0,0,0,0-.8,3.83,3.83,0,0,1,0-.75,2,2,0,0,1,.07-.46.87.87,0,0,0,0-.22,2.07,2.07,0,0,1,0-.22.87.87,0,0,0,0-.23.43.43,0,0,1,.06-.22,4.61,4.61,0,0,0,.28-.81c.08-.35.15-.59.18-.72a1.18,1.18,0,0,0,.05-.37.33.33,0,0,0,.16-.23,1.61,1.61,0,0,1,.15-.34,3.1,3.1,0,0,1,.35-.48c.17-.2.29-.51.4-.64a5.29,5.29,0,0,0,.81-.88c.16,0,.27,0,.32-.09S199.28,274.09,199.44,274.12Z"/><path class="cls-4" d="M210.82,273.62a2.7,2.7,0,0,1,1.72-.73,1,1,0,0,0,.37,0,.72.72,0,0,1,.26,0,1.13,1.13,0,0,1,.34,0,.89.89,0,0,0,.42,0c.18-.05.46.05.82.3a2.6,2.6,0,0,0,.71.4c0,.06.12.14.36.24a1.15,1.15,0,0,1,.42.23.31.31,0,0,1,0,.19c0,.06,0,.15.14.27s.15.19.14.21,0,.1.08.23a.79.79,0,0,0,.21.27l.17.14s0,.13,0,.27a.65.65,0,0,0,0,.52,1.87,1.87,0,0,1,.15.76c-.11.3-.17.45-.29.74a3.61,3.61,0,0,1-.15.44.52.52,0,0,0-.16.34c0,.14-.1.25-.29.34a3.28,3.28,0,0,0-.85.6c-.24.08-.36.14-.36.17s-.06,0-.18,0a.65.65,0,0,0-.34,0,.79.79,0,0,1-.43,0,.87.87,0,0,0-.17-.09c-.06,0-.09-.08-.07-.18a.35.35,0,0,0-.26,0c-.07,0-.22.05-.26,0s-.17-.3-.34-.37a.51.51,0,0,1-.34-.37l.48-.41a.37.37,0,0,0,.26,0,.7.7,0,0,1,.35,0l.39.15a.74.74,0,0,0,.95-.3,2,2,0,0,0,.42-.93c0-.26.07-.51.11-.74a.58.58,0,0,1-.15-.44c0-.15-.15-.32-.24-.47s-.14-.41-.21-.45-.12-.17-.17-.21-.31-.09-.45-.16l-.46-.2a1.24,1.24,0,0,0-.52-.1.78.78,0,0,1-.52-.17,1.16,1.16,0,0,0-.79.42,4,4,0,0,1-.61.51,6,6,0,0,0-.34.58,1.4,1.4,0,0,0-.21.68c0,.29,0,.55,0,.76a1.41,1.41,0,0,1-.11.57.8.8,0,0,0-.07.5c0,.16.07.43.12.82a13,13,0,0,1,.15,1.49l-.06.34c.08.23.11.35.19.58l0,.67a1.24,1.24,0,0,0,.12.64l-.06.43c.07.55.11.83.18,1.38,0,0,.08,0,.13.08a.38.38,0,0,0,.49.06.82.82,0,0,1,.5-.1c.14,0,.23,0,.28-.09a.43.43,0,0,0,.44.05,1.45,1.45,0,0,1,.4-.14,1.31,1.31,0,0,1,.49,0l.52,0,.45,0a.32.32,0,0,1,.33.11.93.93,0,0,1,.19.5,1.61,1.61,0,0,1,0,.51.86.86,0,0,1-.48.16.9.9,0,0,1-.5-.14.32.32,0,0,0-.25.14.25.25,0,0,1-.23.11l-.52,0c-.21,0-.34,0-.37,0s-.09,0-.16,0a1.22,1.22,0,0,0-.24.1,1.72,1.72,0,0,1-.94.21,1.14,1.14,0,0,1-.3.21.47.47,0,0,0-.25.25.31.31,0,0,0,0,.31,3.51,3.51,0,0,1,.11,1c0,.34,0,.51,0,.86s0,.81.07,1.16a6.92,6.92,0,0,1,0,.87,1.62,1.62,0,0,0,0,.6,4.15,4.15,0,0,1,.11.48c.08.53.12.92.13,1.16v.46l.11.37a1.84,1.84,0,0,1,0,.39.88.88,0,0,0,0,.4c0,.12.06.22.08.29a.21.21,0,0,1,0,.17l-.12.43.28,1.71a1.11,1.11,0,0,0,0,.33c0,.19.08.28.14.46,0,.43.06.64.09,1.07,0,.28,0,.68,0,1.18a5.69,5.69,0,0,0,0,1.2c0,.09.17.17.32.21a1.1,1.1,0,0,1,.38.17,1.36,1.36,0,0,0,.48-.16.6.6,0,0,1,.44-.09.51.51,0,0,1,.3.18.53.53,0,0,0,.31.19,1.44,1.44,0,0,1,.18.91,1.27,1.27,0,0,0-.29.18.8.8,0,0,1-.5.1.85.85,0,0,0-.57.18.61.61,0,0,1-.4.2,1,1,0,0,0-.32.05,1,1,0,0,0-.23.12.84.84,0,0,1-.25.13.35.35,0,0,1-.31-.07c0-.05-.12,0-.22,0a1.41,1.41,0,0,0-.51-.1,1.89,1.89,0,0,0-.51.1,1.46,1.46,0,0,0-.34.14l-.12.08a.25.25,0,0,1-.19,0,.28.28,0,0,0-.2,0,1.32,1.32,0,0,0-.2.12l-.18.1a1.51,1.51,0,0,0-1.14.22c-.47.25-.78.35-.92.3a1.58,1.58,0,0,1-.41-.12,1.15,1.15,0,0,1-.09-.52,3.82,3.82,0,0,1,0-.52,1.49,1.49,0,0,0,.4-.2.39.39,0,0,1,.18-.1l.43-.2a4.12,4.12,0,0,1,.54-.25.66.66,0,0,0,.57-.85.59.59,0,0,1,.36-.55c0-.1-.1-.16-.16-.18s-.14-.33-.16-.82A7.35,7.35,0,0,1,209,299a5,5,0,0,0-.11-.91l-.15-.67-.1-1-.3-1.95a1.71,1.71,0,0,1,.07-.61,1.92,1.92,0,0,1-.22-.85,23.73,23.73,0,0,1-.33-2.66l-.06-1.34a.75.75,0,0,0,0-.37,2.49,2.49,0,0,1-.11-1.16,2.34,2.34,0,0,0-.37-.93c-.65-.12-1-.13-1.15,0a.78.78,0,0,1-.33.18.87.87,0,0,1-.39,0,.4.4,0,0,0-.39.11.62.62,0,0,1-.46-.19.77.77,0,0,0-.26,0,.13.13,0,0,1-.17-.1c-.08-.28.1-.55.55-.82.19,0,.29-.09.3-.13s.06-.1.16-.17a.72.72,0,0,1,.45-.06,3.29,3.29,0,0,0,.79-.05l.85-.16a.72.72,0,0,0,.22,0l0-.4c0-.18,0-.27-.08-.46a3.59,3.59,0,0,1,0-.73,1.88,1.88,0,0,0,0-.71l-.15-1.22a4,4,0,0,1,.15-.4,2.15,2.15,0,0,0,0-.8,3.15,3.15,0,0,1,0-.75,1.84,1.84,0,0,1,.08-.46.79.79,0,0,0,.06-.22.78.78,0,0,1,0-.21.9.9,0,0,0,0-.23.4.4,0,0,1,.06-.22,4.41,4.41,0,0,0,.3-.81c.1-.35.16-.59.2-.71a1.19,1.19,0,0,0,.06-.37.35.35,0,0,0,.17-.22,1.61,1.61,0,0,1,.15-.34,3.48,3.48,0,0,1,.37-.48c.17-.19.3-.5.41-.62a5.29,5.29,0,0,0,.84-.86.32.32,0,0,0,.32-.09C210.56,273.6,210.66,273.58,210.82,273.62Z"/><path class="cls-4" d="M217.31,278.33V278a1,1,0,0,1,0-.56,1.4,1.4,0,0,0,.09-.29,1.33,1.33,0,0,1,0-.68.61.61,0,0,0,0-.46.58.58,0,0,0-.15-.13c-.06,0-.12-.12-.15-.14a.87.87,0,0,0-.6.09,3,3,0,0,1-.53.18c-.11,0-.18,0-.2,0a.28.28,0,0,1-.16.16.56.56,0,0,1-.73-.11c-.25-.22-.33-.4-.23-.55a.75.75,0,0,1,.41-.3l.58-.16a6.4,6.4,0,0,1,.66-.14,4,4,0,0,0,.56-.11,2.41,2.41,0,0,1,.43-.1,2.14,2.14,0,0,0,.37-.1,1.17,1.17,0,0,0,.25-.13,1.47,1.47,0,0,1,.25-.12,1.08,1.08,0,0,1,.26-.08,6.34,6.34,0,0,0,.78-.24,3.08,3.08,0,0,1,1.43-.2,1,1,0,0,0,.14.33.51.51,0,0,1,.09.63,1.23,1.23,0,0,0-.2.49.28.28,0,0,1-.14.26c0,.39,0,.62-.16.68l.25,1.86a1.44,1.44,0,0,0,.07.72,5.09,5.09,0,0,1,.14,1.09,4,4,0,0,0,.18,1.47c0,.24,0,.36-.06.61a1.12,1.12,0,0,0,0,.27c0,.09.06.23.1.43a2.56,2.56,0,0,1,0,.8,6.53,6.53,0,0,0,0,1c.06.5.17.93.18,1.13a.89.89,0,0,1-.16.52c.06.16.08.26,0,.28s0,.08,0,.18a2.41,2.41,0,0,0,0,.41,2.08,2.08,0,0,1,0,.6c.07.32.1.48.17.79l-.07.34c.06.41.09.61.14,1a5.06,5.06,0,0,1-.08.52.69.69,0,0,0,.12.52,1,1,0,0,0-.06.48,1,1,0,0,1-.06.49.55.55,0,0,0,0,.47,1.46,1.46,0,0,1,.12.58c0,.24-.06.35-.09.58a1.69,1.69,0,0,0,.06.63.7.7,0,0,1-.06.6,1.56,1.56,0,0,1,.08,1.22,1.8,1.8,0,0,1,.07.95,1.29,1.29,0,0,0,.16.92,1.15,1.15,0,0,0-.15.61,5,5,0,0,0,0,.61c.09.47.37.6.82.4a1.11,1.11,0,0,0,.26-.2c.06-.08.16-.08.28-.05s.31.21.31.52a.61.61,0,0,1,.19.58c0,.16-.28.3-.61.34a7.33,7.33,0,0,0-.73.12.49.49,0,0,0-.34.28.25.25,0,0,1-.16,0,.3.3,0,0,0-.22,0c-.23.15-.37.21-.44.19s-.39,0-.68.25a.59.59,0,0,0-.35,0,.79.79,0,0,1-.44-.05,1,1,0,0,0-.64,0,1.41,1.41,0,0,0-.63.37,1,1,0,0,0-.56.13,1.06,1.06,0,0,1-.56.1,1,1,0,0,1-.3-.52.45.45,0,0,1,.14-.32,1.83,1.83,0,0,1,.31-.24.48.48,0,0,0,.23-.24,5.77,5.77,0,0,0,1.28-.45,2.82,2.82,0,0,0-.13-1.29,2.42,2.42,0,0,1-.2-.64,1.75,1.75,0,0,0,0-.36c0-.19-.05-.39-.09-.62l-.09-.64a3.42,3.42,0,0,1,0-.55,3.65,3.65,0,0,0,0-.82c0-.39-.07-.72-.08-1-.08-.61-.13-.92-.21-1.53,0-.35,0-.53,0-.89s-.06-.42-.11-.7a1.22,1.22,0,0,1,0-.34,2.41,2.41,0,0,0,0-.38c0-.13,0-.27,0-.41a.49.49,0,0,0-.19-.34,1.48,1.48,0,0,0,.16-.55c-.05-.23-.07-.35-.11-.58a.57.57,0,0,1,0-.26.78.78,0,0,0,0-.26l-.05-1.56a2.79,2.79,0,0,1,.07-.69,2.35,2.35,0,0,0,0-.75,1,1,0,0,1,0-.47.33.33,0,0,0,0-.2l-.15-1.17c0-.25,0-.38.06-.64s-.07-.4-.11-.67a.34.34,0,0,1,0-.2.58.58,0,0,0,0-.23c0-.29,0-.44,0-.73a1,1,0,0,0,0-.43.47.47,0,0,1,0-.31.67.67,0,0,0,0-.29,1.85,1.85,0,0,1,0-.53A6,6,0,0,0,217.31,278.33Z"/><path class="cls-4" d="M233.44,287.4a2.76,2.76,0,0,0-.12,1.06.69.69,0,0,1-.16.52l-.28.24c0,.08,0,.17,0,.26a.18.18,0,0,1-.08.2l-1.21-.07a2.13,2.13,0,0,0-1,.18.33.33,0,0,1-.23,0,.34.34,0,0,0-.16-.08,2.65,2.65,0,0,0-.4.21.5.5,0,0,1-.47,0,.78.78,0,0,0-.48,0,2.6,2.6,0,0,0-1.19.6,2.91,2.91,0,0,1,0,.66,1.9,1.9,0,0,0,0,.59l.06.4a.28.28,0,0,1,0,.22.65.65,0,0,0-.05.22.75.75,0,0,0,.08.31.28.28,0,0,1-.05.32,2.88,2.88,0,0,0,.13.31.61.61,0,0,1,0,.4.45.45,0,0,0,.1.23.7.7,0,0,1,.11.23.92.92,0,0,1,0,.38,1.1,1.1,0,0,0,0,.38l.1.36a1.27,1.27,0,0,0,.29.5c.17.21.22.37.16.5a2.32,2.32,0,0,1,.26.3.73.73,0,0,0,.27.28c.13.06.36.08.52.16a1.15,1.15,0,0,0,.59.13,1.66,1.66,0,0,0,.86-.28l.66-.34a.26.26,0,0,0,.11-.22.35.35,0,0,1,.11-.25.5.5,0,0,1,.18-.09.54.54,0,0,0,.22-.08,1.67,1.67,0,0,0,.28-.18,1.52,1.52,0,0,1,.35-.22c.15-.08.35,0,.6.16a.73.73,0,0,1,0,.52l-.2.3c-.06.1-.08.17,0,.2s0,.1,0,.2a.57.57,0,0,0-.2.4.44.44,0,0,0-.28.22.84.84,0,0,1-.29.27.78.78,0,0,1-.37.11,1.1,1.1,0,0,0-.38.12.89.89,0,0,0-.33.27,1.34,1.34,0,0,1-.42.31,2.44,2.44,0,0,0-.44,0,1.71,1.71,0,0,1-1.12.21c-.39-.05-.8-.11-1.24-.15a9.62,9.62,0,0,0-1.13-.71c-.18-.18-.5-.68-1-.8a.24.24,0,0,0-.14-.25c-.1,0-.14-.14-.14-.31a.25.25,0,0,1-.21-.15.33.33,0,0,0-.2-.18.43.43,0,0,0-.08-.14s0-.1,0-.2a.48.48,0,0,1-.24-.2,2.17,2.17,0,0,0-.2-.29,4.45,4.45,0,0,1-.27-.58,4,4,0,0,0-.21-.52,1.73,1.73,0,0,1-.12-.83l-.26-.52a.5.5,0,0,0,0-.32,1,1,0,0,1-.05-.35l.06-.46a4.33,4.33,0,0,0,0-.72,2.54,2.54,0,0,1,0-.69l.1-.37a.6.6,0,0,0,0-.23.77.77,0,0,1,.07-.34c0-.15.12-.33.21-.53a2.21,2.21,0,0,0,.14-.43,2,2,0,0,1,.08-.31,2.53,2.53,0,0,1,.16-.33,2,2,0,0,0,.18-.32.68.68,0,0,0,.08-.31.38.38,0,0,1,.15-.27,1.82,1.82,0,0,0,.21-.23,1.25,1.25,0,0,1,.15-.19l.14-.18a.82.82,0,0,1,.28-.44.44.44,0,0,0,.18-.42.18.18,0,0,0,.2-.12c0-.08.1-.17.26-.26a2,2,0,0,0,.29-.19,2.35,2.35,0,0,1,.38-.25,1.19,1.19,0,0,0,.47-.54c.11.08.18.1.21.07l.21-.13a.6.6,0,0,1,.27-.09.53.53,0,0,0,.27-.11.46.46,0,0,1,.33-.07.36.36,0,0,0,.28-.06,2.11,2.11,0,0,1,.81-.06,2,2,0,0,0,.72,0,.43.43,0,0,1,.24.22.85.85,0,0,0,.2.25.62.62,0,0,0,.2.12,1.41,1.41,0,0,1,.26.16l.23.17a.55.55,0,0,1,.12.16,1.59,1.59,0,0,0,.18.22,1.46,1.46,0,0,1,.22.29,2.46,2.46,0,0,1,.2.5,2.22,2.22,0,0,0,.28.58.58.58,0,0,0,0,.37.8.8,0,0,0,.11.25A.93.93,0,0,1,233.44,287.4Zm-3.61,1.25.42-.09a3.07,3.07,0,0,1,.53-.06,1.32,1.32,0,0,0,.54-.1c.13-.17,0-.85-.14-1.14a.39.39,0,0,0-.06-.41.59.59,0,0,1-.12-.48,3.51,3.51,0,0,0-.42-.37.51.51,0,0,0-.06-.28c-.05-.06-.09-.18-.13-.21s-.21-.07-.32-.09a.37.37,0,0,1-.26-.11,2.22,2.22,0,0,1-1.4.63,1,1,0,0,1-.24.73,1.13,1.13,0,0,0,0,.25v.18a.41.41,0,0,0-.15.38,1,1,0,0,1-.15.55c-.11.2-.16.52-.1.57s.58,0,.83,0a6.51,6.51,0,0,1,.75,0Z"/><path class="cls-4" d="M243.84,292.71a4,4,0,0,1-1.15.07.34.34,0,0,1-.25-.11.61.61,0,0,0-.22-.13,1.24,1.24,0,0,1-.3-.13.69.69,0,0,0-.49-.05,2.78,2.78,0,0,0-.57-.27.42.42,0,0,1-.12-.22.22.22,0,0,0-.2-.16c-.12,0-.19,0-.21.08a.23.23,0,0,1-.2.15c0,.7,0,1.05.06,1.75a2.37,2.37,0,0,1,0,.41,1.48,1.48,0,0,0,.08.52,2.38,2.38,0,0,1,0,.86,2.29,2.29,0,0,0,0,.72,2.32,2.32,0,0,1,.06.46v.46l0,.43-.1,1c0,.14,0,.23,0,.27a.25.25,0,0,0,0,.16c.07.24.1.37.17.61s0,.48.06.8v.34l-.05.33c.06.15.09.23.14.38,0,.56,0,.84,0,1.41,0,0-.06.1-.05.24s0,.3,0,.48a3.38,3.38,0,0,0,0,.47.73.73,0,0,1,0,.32,1,1,0,0,0,0,.46,1.48,1.48,0,0,1,0,.58,2.13,2.13,0,0,0-.05.61,2.93,2.93,0,0,1,0,.63,1.54,1.54,0,0,0,.8.15c.11,0,.22-.11.27,0a.13.13,0,0,0,.16.07l.18-.1c.05,0,.14,0,.27,0a1,1,0,0,1,.28.29.63.63,0,0,1,.08.61c-.08.31-.23.47-.43.51l-.35.07a.92.92,0,0,1-.4,0,1.28,1.28,0,0,0-.49.09.8.8,0,0,0-.26-.09.14.14,0,0,1-.13-.17l-.5.19-.77,0a1.41,1.41,0,0,0-.31.12s-.06,0-.17,0a.5.5,0,0,0-.36.17,1,1,0,0,0-.9.13,1.14,1.14,0,0,0-.52-.13,1.06,1.06,0,0,1-.52-.12,3.76,3.76,0,0,0-.42.26.61.61,0,0,1-.49.13,1.13,1.13,0,0,1-.54-.24.78.78,0,0,1,.21-.73,1.33,1.33,0,0,1,.56-.39,9.22,9.22,0,0,0,1-.27,1.39,1.39,0,0,1,.79-.13c-.23-3.67-.34-5.78-.31-6.35a5.49,5.49,0,0,0,0-1.24,3.19,3.19,0,0,1-.08-.73.88.88,0,0,0,.13-.44c0-.13,0-.28,0-.44a3.08,3.08,0,0,0-.05-.46c0-.15-.05-.28-.08-.4a4.2,4.2,0,0,1-.07-.48,4.64,4.64,0,0,1,0-.64c0-.24,0-.46,0-.66a3.67,3.67,0,0,0,0-.52c0-.15-.05-.31-.07-.49a5.23,5.23,0,0,1,0-.56,3.1,3.1,0,0,0,0-.61l0-.67c0-.23,0-.46-.06-.71a1.08,1.08,0,0,1,0-.43.23.23,0,0,0,0-.09c0-.34-.08-.52-.14-.86l.08-.4a.6.6,0,0,0-.06-.27,1,1,0,0,1-.08-.34,2.25,2.25,0,0,1,0-.52,2.59,2.59,0,0,0,0-.62.28.28,0,0,1,0-.17.69.69,0,0,0,0-.2l-.15-.52a1,1,0,0,0,.05-.41c0-.08-.08-.4-.17-1a2.69,2.69,0,0,1-.06-1,.43.43,0,0,0,.05-.31,1,1,0,0,1,0-.43,5.11,5.11,0,0,0,0-.55c0-.23,0-.35-.08-.58a2.89,2.89,0,0,0,.07-.86,3.23,3.23,0,0,1,0-.53,2.11,2.11,0,0,1,.06-.43.4.4,0,0,0,0-.36.73.73,0,0,0-.46,0c-.17.06-.44.13-.79.23a1.38,1.38,0,0,1-.28-.64.69.69,0,0,1,.17-.44,2.68,2.68,0,0,1,.54-.2,1,1,0,0,1,.54-.2,2.21,2.21,0,0,0,.62-.13l.47-.21c.73-.3,1.27-.4,1.45-.26a1.41,1.41,0,0,1,.41.57l.25.46a2.87,2.87,0,0,1,.24.75,1.74,1.74,0,0,1,.06.57,1,1,0,0,0,0,.3c0,.12,0,.21,0,.28s0,.23.1.48a2.7,2.7,0,0,1,.07.66.3.3,0,0,0,.29.33.66.66,0,0,0,.58-.3c.19-.23.35-.34.49-.33a1.58,1.58,0,0,1,.15-.24,2.46,2.46,0,0,1,.16-.24s.19-.06.23-.13a.82.82,0,0,1,.41-.21,3.47,3.47,0,0,0,.53-.23,3.62,3.62,0,0,1,.4-.19.54.54,0,0,0,.53-.1.91.91,0,0,1,.5-.23,1.58,1.58,0,0,0,.49.06,2.75,2.75,0,0,1,.4,0l.85.07a3.8,3.8,0,0,1,.57.09,2.12,2.12,0,0,0,.46.1,1.06,1.06,0,0,1,.39.13,1.3,1.3,0,0,1,.34.33.54.54,0,0,0,.4.23,1.85,1.85,0,0,0,.62.65.63.63,0,0,0,.09.43,2.18,2.18,0,0,1,.24.45,4.24,4.24,0,0,0,.32.64,2.42,2.42,0,0,1,.25.54,2.32,2.32,0,0,0,.2.36,6.6,6.6,0,0,1,.07.77c0,.27.07.63.1,1.08a1.81,1.81,0,0,1-.31,1.18c0,.22,0,.33,0,.55a.18.18,0,0,0-.12.2c0,.09,0,.15-.16.19a.22.22,0,0,1-.1.28,1.11,1.11,0,0,0-.22.19.23.23,0,0,0,0,.23c0,.09,0,.19-.11.28a.8.8,0,0,0-.25.42.57.57,0,0,1-.28.32.45.45,0,0,0-.18.36.83.83,0,0,0-.53.24c-.34.33-.6.49-.79.48-.23.17-.39.24-.49.19a.36.36,0,0,0-.29,0,.65.65,0,0,1-.36.06c0,.12,0,.18-.13.18a.24.24,0,0,0-.23.08,1.38,1.38,0,0,1-.52.08.17.17,0,0,0-.18.07.13.13,0,0,1-.15.08Zm-3.6-5.45c0,.37,0,.56-.07.94a.5.5,0,0,0,.19.22.62.62,0,0,1,.19.32c0,.14.1.28.13.4a1.31,1.31,0,0,0,.12.34,1.25,1.25,0,0,0,.24.15l.2.14a1.27,1.27,0,0,0,.3.45,1.4,1.4,0,0,1,.34.41c.28,0,.53.07.77.12l.7.16.44-.14a.81.81,0,0,1,.56.06.25.25,0,0,1,.21-.13.61.61,0,0,0,.25-.06l.3-.33a.68.68,0,0,0,.28-.3,1.33,1.33,0,0,1,.16-.36c.08-.15.13-.25.16-.29a.5.5,0,0,0,0-.16.8.8,0,0,1,.15-.26,1,1,0,0,0,.18-.49c0-.24.09-.51.13-.82s.08-.6.12-.86a2.25,2.25,0,0,0,0-.67,1,1,0,0,1,0-.43.15.15,0,0,0-.09-.2c.07,0,.07-.12,0-.25s-.06-.19,0-.21c-.22-.38-.37-.85-.53-1.19a1.09,1.09,0,0,0-.47-.5A1,1,0,0,1,245,283a.36.36,0,0,1-.27,0,.5.5,0,0,0-.34,0,.42.42,0,0,1-.3,0,.88.88,0,0,0-.41.05.74.74,0,0,1-.52,0,.9.9,0,0,1-.37.2l-.48.21a1.37,1.37,0,0,1-.38.15.4.4,0,0,0-.11.18c0,.08-.05.15-.07.22s-.35.11-.4.16-.14.32-.34.42l-.08.39a.81.81,0,0,0-.25.36.72.72,0,0,1-.24.36,1,1,0,0,1-.12.61,1.11,1.11,0,0,0-.14.48A.82.82,0,0,0,240.24,287.26Z"/><path class="cls-4" d="M255.79,292.9l-.1.4a1.84,1.84,0,0,1,0,1,.55.55,0,0,0,.11.62,1.06,1.06,0,0,1,.29,0,.63.63,0,0,0,.24,0,.59.59,0,0,0,.22-.14.27.27,0,0,1,.23-.09,1.1,1.1,0,0,1,.2-.31,1,1,0,0,0,.2-.33,1.17,1.17,0,0,0,.63-.45,1.81,1.81,0,0,1,.57-.5,1.6,1.6,0,0,1,.34-.76,1.58,1.58,0,0,0,.32-.56.76.76,0,0,1,.12-.32.49.49,0,0,1,.21-.16.5.5,0,0,0,.2-.13c.15-.28.26-.47.33-.59a1.37,1.37,0,0,1,.27-.35,5.83,5.83,0,0,0,.39-.84.9.9,0,0,1,.44-.5.49.49,0,0,1,.06-.32,3.25,3.25,0,0,0,.17-.33,1.45,1.45,0,0,0,.11-.27s.07-.13.21-.26l.44-.91.31-.47a.82.82,0,0,0,.09-.3,2.46,2.46,0,0,1,.3-.77,2.33,2.33,0,0,0,.25-1,1.49,1.49,0,0,1,.56-1.06.84.84,0,0,1,.35,0l.37.08.24.27a1.78,1.78,0,0,1,.09,1,2.52,2.52,0,0,0-.05.84,1,1,0,0,0,.08.36.45.45,0,0,1,0,.24,3.15,3.15,0,0,1,0,.63,4.61,4.61,0,0,0-.05.68,2.12,2.12,0,0,0,.06.44,1.55,1.55,0,0,1,0,.57,1.34,1.34,0,0,0,0,.57,5.8,5.8,0,0,0,0,1.7,13.89,13.89,0,0,1,0,1.55,1.08,1.08,0,0,0,0,.34.48.48,0,0,1,0,.3.9.9,0,0,0,0,.34.82.82,0,0,1,0,.42.53.53,0,0,0,0,.24c0,.06,0,.25.08.56l-.09.52a2.73,2.73,0,0,0,.07.51,1.38,1.38,0,0,1,0,.57l-.1.66a1.51,1.51,0,0,0,.59.25,3.28,3.28,0,0,1,.68.19,1.72,1.72,0,0,0,.14.4.81.81,0,0,1,0,.51,1.86,1.86,0,0,1-1.48.1l-.39.11a.75.75,0,0,0-.51,0,2.92,2.92,0,0,1-.48.13,1.23,1.23,0,0,1-.37,0,.92.92,0,0,0-.35.05,2.76,2.76,0,0,0-.48.2,4.59,4.59,0,0,1-.63.25,1.92,1.92,0,0,1-.47.11,2,2,0,0,0-.5.14.39.39,0,0,1-.54-.18.51.51,0,0,1,0-.58.58.58,0,0,1,.46-.27.78.78,0,0,1,.37-.31c.18,0,.34-.05.36-.09a.36.36,0,0,1,.23-.09c.13,0,.21,0,.23-.07a.34.34,0,0,1,.14-.08.63.63,0,0,1,.25,0c.28,0,.35-.1.21-.38s-.19-.43-.16-.46,0-.11,0-.24a.78.78,0,0,1,0-.37,2,2,0,0,0,0-.43c0-.16,0-.32-.07-.48a.81.81,0,0,1,0-.46c.07-.14.06-.25,0-.3s-.12-.12-.11-.18c0-.25,0-.37,0-.62l.1-.42a2.19,2.19,0,0,0,0-.63c0-.22,0-.41-.05-.57a1.18,1.18,0,0,1,0-.4.74.74,0,0,0-.09-.72,1.48,1.48,0,0,0-.3.45,1,1,0,0,1-.36.45,5.86,5.86,0,0,1-.51.83c-.13.16-.22.55-.33.66s-.36.2-.42.34a1,1,0,0,1-.32.4,1.11,1.11,0,0,1-.26.49c-.17.2-.33.4-.49.62a2.53,2.53,0,0,1-.57.56,3.16,3.16,0,0,0-.52.51c-.11.14-.2.21-.2.23s-.05.09-.19.2l-.7.41a1.22,1.22,0,0,0-.73,0l-.54.19c-.16.06-.27,0-.31,0a.33.33,0,0,0-.22-.13.51.51,0,0,0-.25,0,.33.33,0,0,1-.24,0,.56.56,0,0,1-.21-.17,1.11,1.11,0,0,0-.22-.21,1.53,1.53,0,0,0-.26-.16.83.83,0,0,1-.25-.13,1.5,1.5,0,0,1-.11-.22,1,1,0,0,1-.11-.25c-.1-.13-.15-.23-.14-.29a2.09,2.09,0,0,0-.19-.53.8.8,0,0,0-.11-.47c-.09-.15-.12-.25-.09-.31a2.58,2.58,0,0,0-.19-.78,3.16,3.16,0,0,1-.21-1l0-.42a2.9,2.9,0,0,1,0-.72,3.86,3.86,0,0,0,0-.75,4.68,4.68,0,0,1,.14-1.17,9.18,9.18,0,0,1,.25-1.05c.05-.21.08-.32.13-.54a1.53,1.53,0,0,0,0-.37.62.62,0,0,1,.06-.41.7.7,0,0,0,.07-.32.28.28,0,0,1,0-.2c0-.07.06-.15.1-.23s.07-.18.1-.27a.58.58,0,0,0,0-.26,3,3,0,0,1,0-.43,2.92,2.92,0,0,1,.13-.67,2.39,2.39,0,0,0,.07-.82.14.14,0,0,0,0-.19.34.34,0,0,1-.06-.25c-.06-.14-.15-.21-.27-.2h-.41a.61.61,0,0,0-.21-.29,1,1,0,0,1-.21-.22c0-.07,0-.16.1-.29s.14-.23.1-.32a3.11,3.11,0,0,1,1.91-.05.63.63,0,0,1,.36.08.43.43,0,0,0,.36.05.53.53,0,0,1,.42,0,1.45,1.45,0,0,0,.42.1.5.5,0,0,1,.29.12,1,1,0,0,0,.29.14,5.24,5.24,0,0,1,.17.58.33.33,0,0,0,.19.25c-.07.07-.08.12,0,.15s.06.08,0,.18,0,.26,0,.44c-.05.39-.07.58-.11,1a4.47,4.47,0,0,1,0,.92l-.1.48a.54.54,0,0,0,0,.31c.08.15,0,.33-.14.54a.66.66,0,0,1,0,.56,3.4,3.4,0,0,0-.15.57l0,.64c-.08.42-.12.62-.21,1,0,.2,0,.3,0,.5a2.82,2.82,0,0,1-.2.52.71.71,0,0,0-.09.41,1.29,1.29,0,0,1,0,.42l-.1.55C255.75,292.59,255.76,292.69,255.79,292.9Z"/><path class="cls-4" d="M275.56,276.38a2.58,2.58,0,0,1,1.8-.46,1.26,1.26,0,0,0,.37.07.86.86,0,0,1,.27,0,.88.88,0,0,1,.32.08.85.85,0,0,0,.42,0c.19,0,.45.12.77.42a2.84,2.84,0,0,0,.65.5c0,.06.1.16.32.29s.36.23.38.29a.31.31,0,0,1,0,.19c0,.06,0,.15.1.29s.12.21.11.23,0,.1.05.24a.69.69,0,0,0,.16.29l.15.16c0,.05,0,.14-.05.27a.68.68,0,0,0,0,.53,1.92,1.92,0,0,1,0,.77l-.39.69a4.38,4.38,0,0,1-.22.41.59.59,0,0,0-.21.31c0,.14-.13.24-.34.29a3.7,3.7,0,0,0-.93.47c-.25.05-.37.09-.38.12s-.06,0-.18,0a.79.79,0,0,0-.34,0,.88.88,0,0,1-.43,0s-.09-.08-.15-.11-.08-.09-.05-.19a.34.34,0,0,0-.26,0,.28.28,0,0,1-.27,0c-.05-.08-.11-.32-.28-.42a.53.53,0,0,1-.28-.42l.54-.33a.35.35,0,0,0,.26.06.69.69,0,0,1,.34.07,3.24,3.24,0,0,1,.36.2.74.74,0,0,0,1-.15,2,2,0,0,0,.56-.86,6.6,6.6,0,0,1,.21-.71.56.56,0,0,1-.08-.46c0-.15-.1-.34-.17-.5s-.08-.43-.14-.48-.1-.19-.14-.23A4.7,4.7,0,0,0,279,278l-.42-.26a1.23,1.23,0,0,0-.51-.17.89.89,0,0,1-.49-.25,1.14,1.14,0,0,0-.84.3,3.86,3.86,0,0,1-.69.41c-.13.1-.27.38-.41.52a1.32,1.32,0,0,0-.31.64c-.07.29-.12.55-.16.76a1.44,1.44,0,0,1-.19.54.81.81,0,0,0-.14.48v.83a11.84,11.84,0,0,1-.08,1.5l-.1.33c0,.24.06.36.09.6l-.07.67a1.31,1.31,0,0,0,0,.65l-.12.41c0,.56,0,.83,0,1.39.05,0,.08,0,.12.1a.38.38,0,0,0,.48.14.76.76,0,0,1,.51,0c.14,0,.23,0,.29-.05a.44.44,0,0,0,.42.12,1.43,1.43,0,0,1,.43-.09,1.36,1.36,0,0,1,.48.05,4.34,4.34,0,0,0,.52.09l.46,0a.31.31,0,0,1,.3.16,1,1,0,0,1,.12.52,1.94,1.94,0,0,1-.05.51.88.88,0,0,1-.5.09.79.79,0,0,1-.47-.22.34.34,0,0,0-.27.11.28.28,0,0,1-.24.08l-.52-.07c-.22,0-.34,0-.37-.06a.19.19,0,0,0-.16,0l-.25.06a1.72,1.72,0,0,1-1,.07,1.26,1.26,0,0,1-.33.16.56.56,0,0,0-.29.21.32.32,0,0,0,0,.31,3.16,3.16,0,0,1,0,1c-.05.34-.08.51-.13.85s-.09.82-.1,1.16a5.67,5.67,0,0,1-.11.87,1.52,1.52,0,0,0,0,.59,4.32,4.32,0,0,1,0,.5,11,11,0,0,1,0,1.17l-.05.45.05.38a2.16,2.16,0,0,1-.09.39.81.81,0,0,0,0,.4c0,.12,0,.22,0,.29a.19.19,0,0,1,0,.17l-.17.41c0,.69,0,1,0,1.73a1.24,1.24,0,0,0,0,.34c0,.19,0,.28.07.47,0,.43,0,.64-.07,1.07q0,.42-.15,1.17a5.82,5.82,0,0,0-.13,1.2c0,.09.15.19.29.25a1.07,1.07,0,0,1,.35.23,1.51,1.51,0,0,0,.5-.09.62.62,0,0,1,.44,0,.47.47,0,0,1,.27.22.59.59,0,0,0,.29.24,1.5,1.5,0,0,1,0,.93,1.2,1.2,0,0,0-.31.13.8.8,0,0,1-.51,0,.77.77,0,0,0-.59.1.71.71,0,0,1-.43.13,1.21,1.21,0,0,0-.33,0,1,1,0,0,0-.24.08.72.72,0,0,1-.27.1.4.4,0,0,1-.3-.12c0-.05-.1-.06-.21,0a1.8,1.8,0,0,0-.5-.18,2.53,2.53,0,0,0-.52,0,1.48,1.48,0,0,0-.36.09l-.13.06a.25.25,0,0,1-.19,0,.27.27,0,0,0-.2,0,1.33,1.33,0,0,0-.21.09.8.8,0,0,1-.2.07,1.52,1.52,0,0,0-1.16.05c-.5.18-.82.23-1,.16s-.34-.12-.38-.18,0-.28,0-.52a3.65,3.65,0,0,1,.08-.51,2,2,0,0,0,.43-.14.42.42,0,0,1,.19-.08l.46-.13a3.41,3.41,0,0,1,.56-.17,1.66,1.66,0,0,0,.55-.23,2.23,2.23,0,0,0,.15-.53.6.6,0,0,1,.43-.49.31.31,0,0,0-.13-.2c-.08-.07-.09-.34,0-.83a7.24,7.24,0,0,1-.1-1.58,5,5,0,0,0,0-.92l0-.69,0-1v-2a1.66,1.66,0,0,1,.16-.6,2,2,0,0,1-.1-.87,26,26,0,0,1,.07-2.67l.14-1.34a.85.85,0,0,0,0-.37,2.54,2.54,0,0,1,.06-1.16,2.23,2.23,0,0,0-.22-1c-.63-.21-1-.28-1.14-.2a.83.83,0,0,1-.36.13.81.81,0,0,1-.38-.07.38.38,0,0,0-.4.05.61.61,0,0,1-.43-.26.73.73,0,0,0-.25,0,.13.13,0,0,1-.15-.12c0-.29.18-.54.66-.73.2,0,.3-.06.32-.09s.07-.09.17-.14a.71.71,0,0,1,.46,0,3,3,0,0,0,.8.07l.85,0a.83.83,0,0,0,.23,0l.11-.39v-.46a2.89,2.89,0,0,1,.16-.72,1.71,1.71,0,0,0,.09-.7c0-.49,0-.74,0-1.23a3.59,3.59,0,0,1,.21-.38,2.1,2.1,0,0,0,.12-.78,3.49,3.49,0,0,1,.1-.75,1.58,1.58,0,0,1,.14-.44,1,1,0,0,0,.09-.21,1.8,1.8,0,0,1,.08-.21,1.42,1.42,0,0,0,.05-.22.4.4,0,0,1,.09-.21,4,4,0,0,0,.42-.75c.15-.34.25-.56.31-.68a1.07,1.07,0,0,0,.1-.36.33.33,0,0,0,.21-.19,1.24,1.24,0,0,1,.2-.31,2.88,2.88,0,0,1,.43-.42c.2-.16.37-.45.5-.56a4.87,4.87,0,0,0,1-.72.33.33,0,0,0,.33,0C275.3,276.33,275.41,276.32,275.56,276.38Z"/><path class="cls-4" d="M286.87,277.86a2.67,2.67,0,0,1,1.82-.42,1.72,1.72,0,0,0,.36.09.63.63,0,0,1,.27,0,1.2,1.2,0,0,1,.33.09.88.88,0,0,0,.41.05c.2,0,.45.13.77.44a2.18,2.18,0,0,0,.63.51c0,.06.1.16.31.3a1.14,1.14,0,0,1,.38.31.28.28,0,0,1,0,.18c0,.06,0,.16.09.29s.11.22.09.24a.71.71,0,0,0,.05.23.8.8,0,0,0,.16.31l.14.16q.06.08-.06.27a.65.65,0,0,0,0,.52,2,2,0,0,1,0,.78l-.41.68c-.09.15-.17.33-.23.4a.54.54,0,0,0-.22.3c0,.14-.13.24-.34.29a3.22,3.22,0,0,0-.94.44c-.25.05-.38.08-.39.11s-.06,0-.18,0a.81.81,0,0,0-.34,0,.7.7,0,0,1-.43-.05s-.09-.08-.15-.11-.08-.09,0-.19a.34.34,0,0,0-.26,0,.31.31,0,0,1-.27,0c-.05-.09-.1-.33-.27-.43a.53.53,0,0,1-.27-.42l.55-.33a.35.35,0,0,0,.26.07.72.72,0,0,1,.34.09,2.57,2.57,0,0,1,.35.2.73.73,0,0,0,1-.12,2.16,2.16,0,0,0,.59-.84c.07-.26.15-.5.22-.71a.63.63,0,0,1-.06-.46c0-.15-.09-.35-.16-.51s-.07-.43-.13-.48-.09-.19-.13-.24a4.7,4.7,0,0,0-.42-.23l-.41-.28a1.2,1.2,0,0,0-.5-.18.82.82,0,0,1-.48-.26,1.15,1.15,0,0,0-.86.28,4.73,4.73,0,0,1-.69.39c-.14.09-.29.37-.43.51a1.33,1.33,0,0,0-.33.63c-.07.29-.13.54-.17.75a1.65,1.65,0,0,1-.21.54.78.78,0,0,0-.16.47c0,.17,0,.45,0,.84,0,.61-.06,1.11-.11,1.5l-.11.32c0,.24,0,.36.08.6l-.1.67a1.31,1.31,0,0,0,0,.65l-.13.41c0,.55,0,.83-.07,1.38.05,0,.08.05.12.11a.39.39,0,0,0,.47.15.85.85,0,0,1,.52,0c.13,0,.23,0,.28,0a.48.48,0,0,0,.43.12,1.84,1.84,0,0,1,.42-.08,2.12,2.12,0,0,1,.49.06,4.64,4.64,0,0,0,.51.11,2.68,2.68,0,0,0,.46,0,.34.34,0,0,1,.3.17.94.94,0,0,1,.1.53,1.49,1.49,0,0,1-.06.5.88.88,0,0,1-1-.15.32.32,0,0,0-.28.1.25.25,0,0,1-.24.07l-.52-.08c-.22,0-.34,0-.37-.07a.16.16,0,0,0-.15,0l-.26.06a1.68,1.68,0,0,1-1,0,1.26,1.26,0,0,1-.33.16.49.49,0,0,0-.3.2.3.3,0,0,0,0,.3,3.21,3.21,0,0,1-.06,1c-.06.34-.09.51-.16.84s-.1.81-.13,1.16a6.84,6.84,0,0,1-.12.86,1.65,1.65,0,0,0-.06.6,4.19,4.19,0,0,1,0,.5,10.91,10.91,0,0,1-.08,1.16l-.06.46,0,.37a2.24,2.24,0,0,1-.1.39.79.79,0,0,0-.06.39c0,.13,0,.23,0,.3a.22.22,0,0,1,0,.17l-.18.41c0,.69,0,1,0,1.72a1.09,1.09,0,0,0,0,.34c0,.19,0,.29.06.47,0,.43,0,.65-.09,1.07s-.1.67-.19,1.17a6.37,6.37,0,0,0-.16,1.2.47.47,0,0,0,.28.25,1.14,1.14,0,0,1,.35.24,1.45,1.45,0,0,0,.5-.08.64.64,0,0,1,.45,0,.46.46,0,0,1,.26.23.52.52,0,0,0,.28.24,1.46,1.46,0,0,1,0,.93,1.75,1.75,0,0,0-.32.12.81.81,0,0,1-.51,0,.77.77,0,0,0-.59.08.66.66,0,0,1-.43.12.91.91,0,0,0-.33,0,1.26,1.26,0,0,0-.25.07,1,1,0,0,1-.26.09.4.4,0,0,1-.3-.12c0-.06-.11-.06-.22,0a1.47,1.47,0,0,0-.49-.19,1.58,1.58,0,0,0-.52,0,1.33,1.33,0,0,0-.36.07.4.4,0,0,1-.13.06.31.31,0,0,1-.19,0,.27.27,0,0,0-.2,0l-.22.08a.8.8,0,0,1-.2.07,1.54,1.54,0,0,0-1.16,0c-.51.16-.82.21-1,.14a2.86,2.86,0,0,1-.39-.19,1.31,1.31,0,0,1,0-.53,3.22,3.22,0,0,1,.1-.51,1.35,1.35,0,0,0,.43-.13.34.34,0,0,1,.2-.06l.45-.13a4.91,4.91,0,0,1,.57-.15,1.85,1.85,0,0,0,.55-.22,1.72,1.72,0,0,0,.17-.52.6.6,0,0,1,.45-.48.28.28,0,0,0-.13-.2c-.08-.07-.08-.35,0-.84a8.07,8.07,0,0,1-.05-1.58,5.62,5.62,0,0,0,.05-.92c0-.27,0-.41,0-.69s.05-.62.08-1l.05-2a2,2,0,0,1,.17-.59,2,2,0,0,1-.07-.88c0-1.23.06-2.12.13-2.66l.18-1.34a.7.7,0,0,0,0-.37,2.57,2.57,0,0,1,.09-1.16,2.21,2.21,0,0,0-.19-1c-.63-.23-1-.31-1.14-.23a.81.81,0,0,1-.36.12.84.84,0,0,1-.38-.08.38.38,0,0,0-.4,0,.6.6,0,0,1-.42-.27.8.8,0,0,0-.26-.05.13.13,0,0,1-.14-.12c0-.29.19-.53.68-.72.2,0,.3,0,.32-.08s.08-.08.18-.13a.66.66,0,0,1,.46,0,2.81,2.81,0,0,0,.79.09h.86a.88.88,0,0,0,.23,0l.12-.39v-.46a4.74,4.74,0,0,1,.18-.72,1.52,1.52,0,0,0,.11-.69c0-.49,0-.74.07-1.23a3.47,3.47,0,0,1,.21-.37,1.91,1.91,0,0,0,.14-.78,4.2,4.2,0,0,1,.12-.75,3,3,0,0,1,.16-.44,1.24,1.24,0,0,0,.1-.2,1.72,1.72,0,0,1,.07-.21.71.71,0,0,0,.07-.22.34.34,0,0,1,.09-.2,3.9,3.9,0,0,0,.44-.75c.15-.33.26-.55.32-.66a1.27,1.27,0,0,0,.12-.36.35.35,0,0,0,.21-.19,2.13,2.13,0,0,1,.21-.31,3.13,3.13,0,0,1,.44-.4c.2-.16.38-.44.52-.54a5.89,5.89,0,0,0,1-.7.35.35,0,0,0,.33,0C286.62,277.79,286.72,277.79,286.87,277.86Z"/><path class="cls-3" d="M360.23,291.55a80.25,80.25,0,0,0,15.35,4.29,2.58,2.58,0,0,0,3.08-1.75,2.52,2.52,0,0,0-1.75-3.07,27,27,0,0,1-9.77-4.31c-2.31-1.62-5.17,2.07-3,3.93l7.64,6.61.5-3.93c.31-.16-.36-.13-.61-.18l-1.46-.32-3.15-.69-6.3-1.38-.66,4.91a15.89,15.89,0,0,1,11,4l1.1-4.18c-2.08.39-4.53-.36-6.59-.69l-7.28-1.17a2.56,2.56,0,0,0-3.07,1.74,2.53,2.53,0,0,0,1.74,3.08l8.21,1.9a24.89,24.89,0,0,1,3.22.82c.74.28.95.4,1,1l1.74-3.08c-2.47.37-5-.31-7.42-.83a27.18,27.18,0,0,0-8.17-.87,2.51,2.51,0,0,0-2.45,2.17,2.48,2.48,0,0,0,1.79,2.74,81.59,81.59,0,0,1,16.77,5.32L373,303a96,96,0,0,1-16.33-1v5a30.44,30.44,0,0,1,14.24,4.79l-.9-3.43c.43-.61.82-.47,0-.58-.64-.09-1.27-.24-1.91-.36l-4.3-.8L355.45,305a2.56,2.56,0,0,0-3.08,1.74,2.54,2.54,0,0,0,1.75,3.08c5.29,1.29,10.63,2.6,15.4,5.3v-4.31c-1.8.79-4.36-.43-6.13-1-2.59-.88-5.21-1.51-7.94-.89a2.49,2.49,0,0,0-1.79,2.75,2.56,2.56,0,0,0,2.45,2.17,169.37,169.37,0,0,1,23.61,4.88l-.6-4.57c-.78.39-2-.31-2.69-.67-1.38-.7-2.73-1.45-4.13-2.11a75.57,75.57,0,0,0-8.79-3.51,69.32,69.32,0,0,0-8.75-2.25c-2.59-.49-7.31-2-8.29,1.63a2.55,2.55,0,0,0,1.74,3.08l15.83,5c3.68,1.16,8.4,2.19,10.8,5.52l1.49-3.67a12.25,12.25,0,0,1-6.27-.23c-2.26-.52-4.51-1.11-6.75-1.71q-6.88-1.83-13.69-4a2.54,2.54,0,0,0-3.08,1.75,2.57,2.57,0,0,0,1.75,3.08,16.77,16.77,0,0,1,5.64,3,60.15,60.15,0,0,0,4.74,4.43c3.06,2.27,8.16,3,10.82-.32a2.54,2.54,0,0,0-1.77-4.27,105,105,0,0,1-16.66-3.24c-3.13-.87-4.36,3.79-1.33,4.82l3.38,1.14c.26.09,1.24.6,1.47.5a.2.2,0,0,0,.13,0c-.48-.79-.26-1.47.65-2.06h1.32c-.8-.17-1.83-2.1-2.11-2.81a4.13,4.13,0,0,1-.1-2.73,5,5,0,0,1,3.89-3.61,2.57,2.57,0,0,0,2.5-2.5,2.52,2.52,0,0,0-2.5-2.5c-7,.69-11.33,8.55-7.64,14.74a10.25,10.25,0,0,0,3.68,3.91,3.45,3.45,0,0,0,5-2.26c1.06-4.6-5.23-5.64-8.3-6.68l-1.33,4.82a112.16,112.16,0,0,0,18,3.42L366,319.64a2.33,2.33,0,0,1-2.77.62,8.75,8.75,0,0,1-3.57-2.58,29.59,29.59,0,0,0-4.25-3.82,27.46,27.46,0,0,0-5.74-2.66L348.29,316q7.26,2.28,14.63,4.22c4.69,1.23,9.9,3.1,14.74,1.69,1.43-.41,2.47-2.32,1.5-3.67-3-4.16-7.65-5.89-12.37-7.38l-17.25-5.41,1.75,3.07.06-.21-.65,1.1-.88.4a2.31,2.31,0,0,1,.37,0,6.83,6.83,0,0,0,1,.15c.67.11,1.34.22,2,.35,1.4.26,2.8.56,4.19.91a66,66,0,0,1,16,6.22c2.65,1.41,5.41,2.38,8.27.95,2-1,1.38-4-.6-4.57a178,178,0,0,0-24.94-5.06l.67,4.91c2.31-.54,4.81.76,7,1.45,2.82.9,5.52,1.18,8.28-.05,1.76-.77,1.51-3.46,0-4.31-5.15-2.92-10.88-4.42-16.59-5.81l-1.33,4.82,10.75,2c3.13.58,7.23,2.16,9.44-1a2.53,2.53,0,0,0-.9-3.42A35.74,35.74,0,0,0,356.65,302a2.52,2.52,0,0,0-2.5,2.5,2.56,2.56,0,0,0,2.5,2.5A96,96,0,0,0,373,308a2.55,2.55,0,0,0,2.41-1.83,2.51,2.51,0,0,0-1.15-2.83,87.22,87.22,0,0,0-18-5.82l-.67,4.91a27.18,27.18,0,0,1,8.12,1,24.63,24.63,0,0,0,8.8.56c1.46-.22,1.91-1.89,1.75-3.08-.39-2.84-3.33-4.2-5.8-4.81-3.37-.83-6.77-1.57-10.15-2.35L357,298.49l8.26,1.33c2.76.44,5.48,1.05,8.27.53a2.52,2.52,0,0,0,1.11-4.18,21.09,21.09,0,0,0-14.57-5.51c-2.74,0-3.51,4.28-.67,4.91l7.76,1.7c2.48.54,5.2,1.61,7.62.37a2.52,2.52,0,0,0,.5-3.93l-7.63-6.61-3,3.93a30.68,30.68,0,0,0,11,4.81l1.33-4.82a80.25,80.25,0,0,1-15.35-4.29,2.52,2.52,0,0,0-3.07,1.75,2.55,2.55,0,0,0,1.74,3.07Z"/><path class="cls-5" d="M182.67,134c-4.24-5.47-9.24-29.83,3-26.44,10.55,2.92,6,22.08,8.22,19.31,8.17-10.37,35.95-16.19,19.22-1.63-.58.52,19.94-14.28,12.57.7-2,4.1.51-.8,3.28-3.31,2.51-2.29,5.22-2.27,5.22,2.09,0,2.89,1.83-2.13,5.28-4.64,4.16-3,9.88-3.5,6.75,3.77-1.23,2.9,1.81-1.57,7.53-2.29,3.72-.46,4.2,6,6.57,4,1.11-.93,1.08-5.44,5.12-10.42,6.95-8.6,12.23-1.23,8.72,6.14-2.65,5.54-3.84,7.11-5.18,10.65-.23.62,4.74,3.37,7.39,9.72,7.81,18.64,19.32,55.8,7.51,62.12-2.25,1.21-1.57-7.37-3-.86-.32,1.44-2.75,11-4.8,3.7-.3-1.07-7.23,8.07-15.89,11-22.86,7.59-56.54,3.14-78.47-5.32-3.8-1.47-4.12-7.77-4.46-8.36-.95-1.66-.79,5.77-5.55,2.87-4.32-2.64,2.23-16.66.25-14-10.33,13.91-12.1-8.46-4.85-31.42,5.19-16.41,16.13-26.57,15.53-27.35Z"/><path class="cls-5" d="M273.56,145.52c2.25-.23,5.18,5.54,7.83,16.48,6.67,27.52-23.56,34.31-42.1,21.62,1.67-14.36,9.38-35.53,34.27-38.1Z"/><path class="cls-5" d="M180.14,144.25c-2.25-.24-5.71,7.53-8.36,18.46-6.67,27.52,24.11,32.32,42.63,19.64-1.65-14.36-9.35-35.53-34.27-38.1Z"/><path class="cls-6" d="M228.67,183.3a4,4,0,0,1-1.89,1.08c.06,1,.1,1.79.1,2,0,2.35.26,3.51.16,4a8.62,8.62,0,0,0,4.72-1.87c.74-.49,1-1.29,1.48-1.67.63-.54,1.19-.48,1,.22-.52,2.11-3.84,4.56-7.65,4.72-3.6.16-6.61-1.72-7.51-3.27s-.59-2.47.16-1.91c.5.36.14,1.08,2,2.61a7,7,0,0,0,4.32,1.25c-.1-.81-.28-3.5-.4-6.11-4.5-1.15-8.82-10.1-8.23-11.53,1.52-3.62,31.41-8.38,11.77,10.49Z"/><path class="cls-5" d="M257.21,192.53c4.86,4.77,16.39,3,16.21-4.58,0-1.74-3.82-5.1-8.28-5.22-6.47-.2-13.76,4-7.93,9.8Z"/><path class="cls-5" d="M179.19,192.17c4.84,4.78,16.37,3,16.19-4.58,0-1.74-3.83-5.1-8.27-5.22-6.49-.18-13.76,4-7.92,9.8Z"/><path class="cls-5" d="M186.57,130.39c-3.6.86-4.86-18.38-.69-10.36,1,2,.69,7.77.69,10.36Z"/><path class="cls-5" d="M263.62,128.74c3.09,2,10.88-15.62,4.21-9.5-1.64,1.49-3.33,7.07-4.21,9.5Z"/><path class="cls-6" d="M188.48,171.39c-.16.65-1.77,1.53-1.38-1a7.19,7.19,0,0,1,.58-1.83c-.62-.88-1.93-2.47-2.09-2.73-.68-1.06-.08-2.31,2,.06a6.31,6.31,0,0,1,.88,1.35,5.75,5.75,0,0,1,4.1-2.29c.06-1,.1-2.17.14-2.38.18-1.24,1.45-1.8,1.47,1.37a5,5,0,0,1-.1,1,7.47,7.47,0,0,1,5.2,2.59c.7-.68,1.44-1.41,1.6-1.53,1-.78,2.28-.32.13,2a6.75,6.75,0,0,1-.89.78A8.44,8.44,0,0,1,201,174c-.12,1-1.17.37-1.37-1-.7-4.76-4.8-7.45-8.09-5.95-1.37.61-2.46,1.95-3,4.36Z"/><path class="cls-6" d="M259.58,171.21c.13.64,1.54,1.51,1.18-1a6.52,6.52,0,0,0-.5-1.85c.55-.88,1.68-2.47,1.82-2.73.58-1.05.06-2.31-1.73.08a4.54,4.54,0,0,0-.76,1.36,4.86,4.86,0,0,0-3.52-2.32c-.05-1-.1-2.17-.12-2.39-.15-1.23-1.25-1.79-1.27,1.38a8.16,8.16,0,0,0,.07,1,6.15,6.15,0,0,0-4.45,2.59c-.61-.67-1.23-1.39-1.37-1.53-.85-.78-2-.32-.12,2a6,6,0,0,0,.76.78,9.91,9.91,0,0,0-.74,5.16c.1,1,1,.37,1.2-1,.6-4.76,4.11-7.45,6.93-5.95,1.2.61,2.12,1.95,2.62,4.38Z"/></svg>