<svg id="Layer_1" data-name="Layer 1" xmlns="http://www.w3.org/2000/svg" viewBox="0 0 71.01 100.09"><defs><style>.cls-1{fill:none;stroke:#fff;stroke-miterlimit:10;stroke-width:5px;}.cls-2{fill:#fff;}</style></defs><rect class="cls-1" x="7.53" y="34.17" width="56.17" height="56.17"/><path class="cls-2" d="M5.09,40.65c13.71,3.69,20.3,18.93,24.82,31Q32.55,78.74,34.55,86c.78,2.83,4.71,2.08,4.91-.66C40.83,67.3,44.25,48.17,56,33.71a49.42,49.42,0,0,1,10.2-9.6,2.56,2.56,0,0,0,.89-3.42,2.52,2.52,0,0,0-3.42-.9c-15.8,11-23.81,29.35-27,47.77-1,5.89-1.69,11.84-2.14,17.8l4.92-.67A154.41,154.41,0,0,0,30.1,59.23C27,52.73,23,46.29,17.39,41.65a29,29,0,0,0-11-5.82C3.31,35,2,39.81,5.09,40.65Z"/></svg>