<svg id="Layer_1" data-name="Layer 1" xmlns="http://www.w3.org/2000/svg" viewBox="0 0 437.36 169.28"><defs><style>.cls-1{fill:#fff;}</style></defs><path class="cls-1" d="M32.53,40.39a13.37,13.37,0,0,1-.09-1.91c0-.92.2-1.38.62-1.38a2,2,0,0,0,.8-.26.88.88,0,0,1,.84-.09,2.58,2.58,0,0,0,.8.27A2.83,2.83,0,0,0,36.61,37c.42-.09.86-.16,1.34-.22l2.48.35a8,8,0,0,0,1.47,0,3.72,3.72,0,0,1,1.33.13,3.42,3.42,0,0,1,.89.4,2.15,2.15,0,0,0,.94.31,5.22,5.22,0,0,0,1.86-.22,9,9,0,0,1,2.45-.27,12.58,12.58,0,0,0,2,0,6.53,6.53,0,0,1,.35,1.38c.12.68.3,1.08.53,1.2a.69.69,0,0,1-.26.62c-.18.12-.24.35-.18.71a7.61,7.61,0,0,0-1.78.89q-1.24-.54-4.53.53c.06.24,0,.4-.13.49a.91.91,0,0,0-.36.49,2,2,0,0,0,0,1c.06.41.12.83.17,1.24s.14.58.23.49.13.4.13,1.47a8.42,8.42,0,0,1-.36,2.66,10.82,10.82,0,0,1,.36,3.11l-.18,1.34c.06.71.17,1.46.31,2.26a8.15,8.15,0,0,1,.18,1.91,5.21,5.21,0,0,1-.13,1c-.06.21-.14.52-.22.94a3.91,3.91,0,0,0-.05,1.33,3.78,3.78,0,0,1-.09,1.42l-.18,1.6c.24,1.19.36,1.81.36,1.87L45.32,70l.18,3.82a2.25,2.25,0,0,1,0,1.11,1.73,1.73,0,0,0-.14.93,11.46,11.46,0,0,0,.18,1.87l-.18,3.11.18,1a39.92,39.92,0,0,1-.36,5.34l-.08,2.22a15.55,15.55,0,0,1-.27,1.82A8.71,8.71,0,0,0,44.61,93l.09,1.51a4.45,4.45,0,0,1-.31,1.56,7.23,7.23,0,0,0-.4,1.46,2.63,2.63,0,0,0,0,1,2.79,2.79,0,0,1-.31,1.78,3.47,3.47,0,0,0-.18,2.35,5,5,0,0,1,.18,2,3.93,3.93,0,0,1-.4,1.2c-.18.33-.39.73-.62,1.2-.3-.12-.51-.07-.63.14a.58.58,0,0,1-.53.31,1.06,1.06,0,0,1-.75-.45,1.22,1.22,0,0,0-1.11-.35,1.68,1.68,0,0,0-.49-1.07,1.39,1.39,0,0,1-.31-1.24c-1-.59-1.52-1.13-1.52-1.6a3.14,3.14,0,0,0-1.68-3,5.09,5.09,0,0,0-1-2c-.12-2.31-.68-3.73-1.69-4.26a5.86,5.86,0,0,0-.62-1.78l-.8-1.69a11.42,11.42,0,0,1-.67-1.82,2.14,2.14,0,0,0-.62-1.16.85.85,0,0,1-.36-.8.82.82,0,0,0-.13-.66.47.47,0,0,0-.4-.4.7.7,0,0,1-.49-.31,1,1,0,0,0-.35-.89,2.69,2.69,0,0,1-.63-.67,2.48,2.48,0,0,1-.35-.89,3.75,3.75,0,0,0-.4-1.07,1.47,1.47,0,0,1-.27-.79.79.79,0,0,0-.13-.54,7.17,7.17,0,0,0-.49-.71,3.6,3.6,0,0,1-.49-.84,7.93,7.93,0,0,0-.53-.8,3.67,3.67,0,0,1-.45-.8,1.33,1.33,0,0,0-.53-.67,1.69,1.69,0,0,1-.53-.49,4.23,4.23,0,0,0-.45-1.64,5.93,5.93,0,0,1-.53-1.65,1.84,1.84,0,0,0-.44-.44,3,3,0,0,1-.45-.36,1.65,1.65,0,0,0-.4-1.15,3.53,3.53,0,0,1-.62-1,5.84,5.84,0,0,1-.31-1.11,2.85,2.85,0,0,0-.58-1.2,3.42,3.42,0,0,1-.49-.76,3,3,0,0,0-.31-.67,2.82,2.82,0,0,1-.35-1.24,1.6,1.6,0,0,0-.58-1.11,9.76,9.76,0,0,0-.45-1.47.75.75,0,0,0-1-.49q-1.43.63-.09,2.85l-.18,1.42.62,2.84L17,69.63l.18,1.07A9.32,9.32,0,0,0,17,72.56a12.59,12.59,0,0,0,.23,2.22c.14.83.26,1.69.35,2.58A19.86,19.86,0,0,1,17.64,80c0,.89,0,1.72,0,2.49A3.51,3.51,0,0,0,17.55,84a.86.86,0,0,1-.31.94c.18.65.36,1.28.53,1.91A5.44,5.44,0,0,1,17.91,89a3.14,3.14,0,0,0,0,1.51,2.79,2.79,0,0,1,.27,1,4.12,4.12,0,0,1-.09,1.46,4.81,4.81,0,0,0-.09,1.6l.27,2a5.82,5.82,0,0,1-.14,1.91,1.88,1.88,0,0,0,.49,1.73.63.63,0,0,1-.31.62c-.21.12-.28.39-.22.8a3.2,3.2,0,0,1-.05,1.2,2.17,2.17,0,0,0,1.65,2.58,1.78,1.78,0,0,1,1.47,1.38c.14.71.1,1.17-.14,1.37a1.72,1.72,0,0,1-1.15.32,1.52,1.52,0,0,0-1.25.53l-1-.53a1.33,1.33,0,0,1-1.33.22,2.83,2.83,0,0,0-1.46,0,5.46,5.46,0,0,0-1.07.45,5.71,5.71,0,0,1-1.07.44,2.26,2.26,0,0,1-1.33,0,4.5,4.5,0,0,0-2.27.18,12,12,0,0,1-3,.4,3.12,3.12,0,0,1-2.58-1.52q0-2.13,3.56-2.48a8.6,8.6,0,0,0,1.51-.27A3.7,3.7,0,0,0,9,104a2.75,2.75,0,0,0-.09-1.51,6.76,6.76,0,0,1-.36-1.24l.18-1.51a3.92,3.92,0,0,0-.18-1.25v-2.4L8.26,94a4.18,4.18,0,0,1,0-1,11.12,11.12,0,0,0,0-1.42c0-.57-.09-1.17-.18-1.83s-.16-1.28-.22-1.91a6.57,6.57,0,0,1,0-1.73A12.1,12.1,0,0,0,8,83.94c0-.89,0-2,0-3.25a24.14,24.14,0,0,0-.08-3c-.09-.74-.17-1.24-.23-1.51a7.44,7.44,0,0,1-.13-1.06,13.47,13.47,0,0,1,0-1.56,15.57,15.57,0,0,0,0-1.91c-.06-.68-.14-1.48-.23-2.4s-.13-1.88-.13-2.89l-.18-2.93L7,62.25l-.27-2,.18-1.51c-.06-.24-.13-.49-.22-.76S6.52,57.41,6.4,57a6.56,6.56,0,0,1-.09-2q.09-1.34.09-2.67V50a17.29,17.29,0,0,0-.27-3.2,5.73,5.73,0,0,1-.13-2,1.11,1.11,0,0,0-.31-1.07,4.75,4.75,0,0,0,.18-1.33V40.93a1.52,1.52,0,0,0,.84-.8,1.47,1.47,0,0,1,.93-.8,1.9,1.9,0,0,0,.49-.49c.15-.21.34-.21.58,0a.46.46,0,0,0,.67,0c.2-.18.4-.12.57.18l.89,1a6.2,6.2,0,0,1,1.69,2.4,3,3,0,0,1,.71,1.15,2.66,2.66,0,0,0,.45,1l.8,1.38L15,47.06a3.33,3.33,0,0,1,.44.84,7.12,7.12,0,0,0,.45,1,4.23,4.23,0,0,0,.49.75c.14.18.35.46.62.85a4.25,4.25,0,0,1,.58,1.24,5.89,5.89,0,0,0,.62,1.47l.71,1.29a2.72,2.72,0,0,0,.71.84,2.84,2.84,0,0,0,.8,1.73,2.71,2.71,0,0,1,.71,1.83,2.83,2.83,0,0,1,.36.44,2.42,2.42,0,0,0,.35.45,3.14,3.14,0,0,0,.45,1.64q.44.75.66,1.2a2.59,2.59,0,0,1,.27.76,2.54,2.54,0,0,0,.18.62,2.37,2.37,0,0,0,.44.66,2.87,2.87,0,0,1,.49.8,2.08,2.08,0,0,1,.18.71A1.48,1.48,0,0,0,25,67a1.24,1.24,0,0,1,.4.85,1.24,1.24,0,0,0,.05.58.53.53,0,0,0,.4.35,1.06,1.06,0,0,1,.48.27,3.18,3.18,0,0,0,.58,1.82,2.65,2.65,0,0,1,.62,1.24q.13.68.45.72c.21,0,.44.45.71,1.28a5.37,5.37,0,0,0,1.56,2.31l.08,1.25a1.4,1.4,0,0,1,.89,1.11A2,2,0,0,0,32.08,80a1.06,1.06,0,0,0,.27.84,3.39,3.39,0,0,1,.53.58,3.68,3.68,0,0,0,.76,1.69,9.89,9.89,0,0,1,1,1.55c.29.57.56,1.14.8,1.74a5.39,5.39,0,0,0,1,1.6A3.39,3.39,0,0,0,37,85.94a10.47,10.47,0,0,1-.27-1.82,3,3,0,0,1,0-1.34,1.06,1.06,0,0,0,.13-.62,4.48,4.48,0,0,0-.09-.89,9.53,9.53,0,0,1-.18-3.82,19.26,19.26,0,0,0,.09-4.09,11.7,11.7,0,0,1-.09-2.4L37,69.1a10.52,10.52,0,0,0,.13-2.18,16.57,16.57,0,0,1,0-2.13c.05-.68.09-1.38.09-2.09s0-1.45.08-2.22l-.17-1.16.35-3.11a9.53,9.53,0,0,1,.22-2.58A12.88,12.88,0,0,0,38,51.06L38,48l-.09-.45L38,47l.09-1.6a5.83,5.83,0,0,1,.31-2.27,3.3,3.3,0,0,0,.31-1.37c-.12-.42-.33-.63-.62-.63H36.88a2.58,2.58,0,0,0-1.33,0c-.36.24-1,.12-2-.35-.18.3-.37.32-.58.09A2,2,0,0,0,32.53,40.39Z"/><path class="cls-1" d="M74.38,60.48c.65.29,1,.48,1,.57s.13.15.4.18.43.12.49.27a.93.93,0,0,0,.35.4,3.61,3.61,0,0,0,.71.35,2.61,2.61,0,0,1,.89.63,10.4,10.4,0,0,0,1.34,1.06,20.52,20.52,0,0,1,2.57,2.4,8.2,8.2,0,0,1,2,3,10.73,10.73,0,0,0,.49,1.51,1.82,1.82,0,0,1,.09.85A11.85,11.85,0,0,0,85,74.16a6.25,6.25,0,0,1-.22,3.29l-.71,2.22a2,2,0,0,0-.09.62,1.31,1.31,0,0,1-.36.8c-.23.3-.34.51-.31.63s-.06.34-.26.66-.37.49-.49.49-.49.56-.94,1.51-.9,1.5-1.37,1.65-.86.28-1.16.4a8.22,8.22,0,0,0-1.69,1.64,5.41,5.41,0,0,1-1.51,1.42,8.19,8.19,0,0,1-1.55.76,3.17,3.17,0,0,0-1.29.8,1,1,0,0,0-.93.09,4.32,4.32,0,0,1-.76.4,1.71,1.71,0,0,1-.58.13,1.93,1.93,0,0,0-.66.18,5.27,5.27,0,0,1-4.18.35,4.38,4.38,0,0,0-.93-.31c-.39-.09-1-.26-1.78-.53a4.21,4.21,0,0,1-1.87-1.16,2.86,2.86,0,0,0-1.29-.93A2.79,2.79,0,0,0,59,87.8a8.36,8.36,0,0,1-1.46-1.2,4,4,0,0,1-.62-1,.64.64,0,0,0-.18-.35c-.12-.15-.31-.37-.58-.67a8.27,8.27,0,0,1-.8-1.07,7.8,7.8,0,0,0-1.07-1.28,1.81,1.81,0,0,1-.53-1.6,5.6,5.6,0,0,0,0-1.83c-.12-.59-.24-1.12-.36-1.6a3.24,3.24,0,0,1,0-1.42,6.06,6.06,0,0,0,.13-1,4.66,4.66,0,0,1,.31-1.15,6.5,6.5,0,0,1,.49-1.16,4,4,0,0,0,.4-1c.15-.5.27-.77.35-.8a.2.2,0,0,0,.14-.22,2.69,2.69,0,0,0,.18-.58,6,6,0,0,1,1.11-1.69,10.11,10.11,0,0,1,1.51-1.64,1.08,1.08,0,0,0,.49-.89c.65-.41,1-.68,1-.8s.12-.28.36-.49a4.87,4.87,0,0,1,1.11-.66A2.74,2.74,0,0,0,62,62.52a2.31,2.31,0,0,0,1.2-.49,16.49,16.49,0,0,1,1.69-1.11A6.07,6.07,0,0,1,68,60.21c1.27,0,2.28,0,3,.09s1.36.13,1.87.22A3.41,3.41,0,0,0,74.38,60.48Zm3.73,11.37V70.43a8.4,8.4,0,0,1-1.42-2.13,3.14,3.14,0,0,1-.57-.36c-.15-.12-.32-.23-.49-.35a1.5,1.5,0,0,1-.31-.45A1.67,1.67,0,0,0,75,66.7l-1-.27A2.28,2.28,0,0,0,73,66.34a2.94,2.94,0,0,1-1.38-.49,3.18,3.18,0,0,0-2.22-.22,8,8,0,0,0-1.87.53,2.34,2.34,0,0,1-1.37.18,11.56,11.56,0,0,0-1.07,1.25,5.64,5.64,0,0,1-.75.88,2.66,2.66,0,0,0-.54.8,3.78,3.78,0,0,1-.66,1,1,1,0,0,0-.36.94,1.6,1.6,0,0,1-.18,1,9.83,9.83,0,0,0,.09,7.46,5.86,5.86,0,0,1,.36,2,4.77,4.77,0,0,1,.8,1.28,13.71,13.71,0,0,0,.62,1.38,4.16,4.16,0,0,0,.8,1.16,9.17,9.17,0,0,1,.89,1.06,4.57,4.57,0,0,0,1.95.49,7.55,7.55,0,0,0,2-.49A3.2,3.2,0,0,1,71.36,86a.53.53,0,0,0,.44-.09c.12-.09.32-.25.58-.49a1.13,1.13,0,0,1,.67-.36,1.37,1.37,0,0,0,.71-.31,4.28,4.28,0,0,0,.93-.93,2.2,2.2,0,0,1,1.11-.8,1.39,1.39,0,0,0,.23-.58,3.29,3.29,0,0,1,.13-.58,2.87,2.87,0,0,0,1.2-1.24,5.75,5.75,0,0,1,1.11-1.51,4,4,0,0,0-.13-1,2.11,2.11,0,0,1,.09-1.2,2.12,2.12,0,0,0,.17-.8,3.86,3.86,0,0,1,0-.89,2.42,2.42,0,0,1,.27-1.11,1,1,0,0,0,.09-.84,1.48,1.48,0,0,0-.45-.76A1.26,1.26,0,0,1,78.11,71.85Z"/><path class="cls-1" d="M110.2,58.88l1.24-.09a4.43,4.43,0,0,1,1.24.18,2.16,2.16,0,0,0,1.34-.09,4.25,4.25,0,0,1,1.33,1,2.6,2.6,0,0,1,.27,1.38c-.24,1.18-1.31,1.63-3.2,1.33a6.55,6.55,0,0,0-1.07.49,3,3,0,0,1-1.29.09,3.54,3.54,0,0,0-1.2,0,2.58,2.58,0,0,1-1,.14c-.6,0-.91,0-.94,0s-.19.12-.49.53a1.67,1.67,0,0,0-.4,1,12.3,12.3,0,0,1,0,1.28v2a12.25,12.25,0,0,1-.18,2,3.82,3.82,0,0,0-.09,1.34,4.19,4.19,0,0,1,0,1.15,3.42,3.42,0,0,1-.32,1.38,6.47,6.47,0,0,0-.44,1.07c-.12.38,0,.65.27.79s.38.49.26,1L105.4,78a1.27,1.27,0,0,0,0,.67,1.93,1.93,0,0,1,0,.76L105,80.74a1.34,1.34,0,0,1,.13,1,2.14,2.14,0,0,0,0,1c.09.44.08.72,0,.84s-.15.4-.09.85a1.78,1.78,0,0,1-.09,1,1.74,1.74,0,0,0-.18.8l.18,2a2.61,2.61,0,0,1-.44,1.34,4.85,4.85,0,0,1,.18,1.82,6.5,6.5,0,0,0,.08,1.82l.27,1.6c.06.18.13.39.22.62a1.16,1.16,0,0,1,0,.71L105,97.18a7.29,7.29,0,0,0,.18,1.24,5,5,0,0,1,.62,2.14,5.53,5.53,0,0,0,.18,1.51,4.34,4.34,0,0,0,.71,1.33,3.48,3.48,0,0,1,.67,1.29,2.7,2.7,0,0,0,.31.84c.53.36.83.52.89.49a.59.59,0,0,1,.26,0,2.74,2.74,0,0,0,1.16.8,2.84,2.84,0,0,1,.89.35,1.66,1.66,0,0,0,1.24.09,2,2,0,0,0,1.2-.71,1.44,1.44,0,0,1,1.38-.44,1.41,1.41,0,0,0,.49-.67,1,1,0,0,1,.49-.58,4.26,4.26,0,0,0,1.42-2.4v-1.6a1.91,1.91,0,0,0-.18-.93,5,5,0,0,1-.35-.76c-.54-.17-.8-.34-.8-.49s-.17-.22-.49-.22a1.36,1.36,0,0,0-.76.18,7.84,7.84,0,0,0-.58,1c-.14.33-.49.49-1,.49a3.88,3.88,0,0,1-1.78-.53,2.86,2.86,0,0,1-.75-2.09,3.76,3.76,0,0,0,0-1.56A10.28,10.28,0,0,1,114,93.18a1.73,1.73,0,0,1,1.11,0,2.82,2.82,0,0,0,1.24.13,2.22,2.22,0,0,1,1.56.54,3,3,0,0,0,1.6.66,7.65,7.65,0,0,1,.75,2.14,4.55,4.55,0,0,0,.94,2,3.05,3.05,0,0,0,0,1.15,1.11,1.11,0,0,1-.13,1,1.75,1.75,0,0,1,.4,1.91c-.27.69-.49,1.23-.67,1.65a3.08,3.08,0,0,0-.27,1.24,2.56,2.56,0,0,0-1.06.93,2.08,2.08,0,0,1-1.16.85,1.94,1.94,0,0,1-.58,1.51,5,5,0,0,0-.93,1.15,3.65,3.65,0,0,0-2.31.63,7.21,7.21,0,0,0-3.11,1.06,2.68,2.68,0,0,0-1.87.18c-1.6-.89-2.81-1.18-3.64-.89a2.58,2.58,0,0,0-1-.62,1.46,1.46,0,0,1-.85-.62,1.17,1.17,0,0,1-1.11-.14,2.14,2.14,0,0,0-.93-.48,3.37,3.37,0,0,0-.62-.94,5.27,5.27,0,0,1-.76-1.06,14.6,14.6,0,0,0-1.15-1.69,3.54,3.54,0,0,1-.85-1.51,6.16,6.16,0,0,0-.44-1.6,8.54,8.54,0,0,1-.45-3,4.57,4.57,0,0,0-.44-.71,3,3,0,0,1-.44-.84,2.12,2.12,0,0,1-.09-1.07c0-.39-.06-.64-.36-.76a2,2,0,0,0,0-1.68,5,5,0,0,1-.49-1.83A7.09,7.09,0,0,1,96,90.42a2.86,2.86,0,0,0-.31-2,5,5,0,0,0,.09-2.89,15.42,15.42,0,0,1-.22-3.86,29.64,29.64,0,0,0,.09-3.11A13.86,13.86,0,0,1,95.8,76a31.86,31.86,0,0,0,.35-4.27V70l.09-4.54a2,2,0,0,0-1.82-.71,6.85,6.85,0,0,0-2.71.58,2.35,2.35,0,0,1-2.31,0c-.41-.12-.68,0-.8.22s-.33.28-.62,0a5.41,5.41,0,0,1-1.51-2.44c0-.45.3-.83.89-1.16a6,6,0,0,0,1.06-.66,8.32,8.32,0,0,1,2-.27,18.25,18.25,0,0,0,5.86-1.07,8.79,8.79,0,0,0,.49-2.44A14.29,14.29,0,0,1,97,55.63a6.08,6.08,0,0,1,.22-1,2.38,2.38,0,0,0,.13-.54,1.2,1.2,0,0,0,0-.57,1.49,1.49,0,0,1,.22-.94,2.68,2.68,0,0,0,.31-1.11c.24-.53.31-.87.23-1a.83.83,0,0,1,0-.62,4.46,4.46,0,0,1,.4-1,2.31,2.31,0,0,0,.13-1.52,8.84,8.84,0,0,1,2-2.4,5.56,5.56,0,0,0,2.49-.71,7.82,7.82,0,0,0,1.42,1.43,20.54,20.54,0,0,1,1.33,10.66,2.5,2.5,0,0,1-.09.62,1.69,1.69,0,0,0,0,.85,2,2,0,0,0,.62.93,1.94,1.94,0,0,0,.93.53.9.9,0,0,0,.71-.09,1.18,1.18,0,0,1,.62-.17Z"/><path class="cls-1" d="M168.76,76.38a6.58,6.58,0,0,0-.27,3.11c-.06.83-.19,1.34-.4,1.51s-.46.42-.75.72a6.63,6.63,0,0,0,0,.75.56.56,0,0,1-.22.58c-1.13-.06-2.24-.1-3.33-.13a5.55,5.55,0,0,0-2.8.57.79.79,0,0,1-.62,0,1.57,1.57,0,0,0-.45-.22,6,6,0,0,0-1.11.62,1.31,1.31,0,0,1-1.29.18,2,2,0,0,0-1.33-.09,7.59,7.59,0,0,0-3.29,1.77,10.26,10.26,0,0,1,0,1.92,5.45,5.45,0,0,0,.09,1.73l.18,1.15a.89.89,0,0,1-.05.63,1.44,1.44,0,0,0-.13.66,2.11,2.11,0,0,0,.22.89.84.84,0,0,1-.13.93c.12.3.23.6.35.89a1.89,1.89,0,0,1,0,1.16,1.51,1.51,0,0,0,.27.66,2.1,2.1,0,0,1,.31.67,3.16,3.16,0,0,1,.09,1.11,3.11,3.11,0,0,0,.09,1.11q.14.45.27,1a3.93,3.93,0,0,0,.84,1.47c.47.59.62,1.07.44,1.42a7.37,7.37,0,0,1,.76.89,3.6,3.6,0,0,0,.76.8,4,4,0,0,1,1.46.45,3.68,3.68,0,0,0,1.69.35,4.81,4.81,0,0,0,2.4-.84,15.66,15.66,0,0,1,1.82-1,.8.8,0,0,0,.31-.66,1,1,0,0,1,.31-.71,1.15,1.15,0,0,1,.49-.27,2.26,2.26,0,0,0,.62-.27,3.85,3.85,0,0,0,.76-.53,6.06,6.06,0,0,1,1-.67c.41-.23,1-.08,1.69.45a2.21,2.21,0,0,1,0,1.51l-.54.89c-.18.3-.21.49-.09.58s.15.28.09.57a1.64,1.64,0,0,0-.53,1.16,1.38,1.38,0,0,0-.8.66,2.14,2.14,0,0,1-.8.81,2.64,2.64,0,0,1-1,.35,2.82,2.82,0,0,0-1.07.36,2.51,2.51,0,0,0-.93.8,3.62,3.62,0,0,1-1.16.93,6.55,6.55,0,0,0-1.24-.09,4.88,4.88,0,0,1-3.16.67c-1.09-.15-2.26-.29-3.51-.4a8.39,8.39,0,0,0-3.2-2,3.84,3.84,0,0,0-2.84-2.31.7.7,0,0,0-.4-.71c-.27-.12-.4-.41-.4-.89a.7.7,0,0,1-.58-.44.91.91,0,0,0-.57-.53,1.05,1.05,0,0,0-.23-.41c-.09-.08-.1-.28,0-.57a1.28,1.28,0,0,1-.67-.58,5.54,5.54,0,0,0-.58-.84,14.54,14.54,0,0,1-.75-1.69c-.09-.3-.28-.8-.58-1.51a5.19,5.19,0,0,1-.35-2.4l-.71-1.51a1.5,1.5,0,0,0,0-.94,3.75,3.75,0,0,1-.13-1l.17-1.33a12.14,12.14,0,0,0,0-2.09,7.18,7.18,0,0,1,.09-2l.27-1.07a1.66,1.66,0,0,0,0-.66,2.38,2.38,0,0,1,.18-1c.15-.44.34-1,.58-1.56a5.82,5.82,0,0,0,.4-1.24,4.73,4.73,0,0,1,.22-.89,5.15,5.15,0,0,1,.45-1,8.12,8.12,0,0,0,.48-.93,2.14,2.14,0,0,0,.23-.89,1.16,1.16,0,0,1,.4-.8,5.29,5.29,0,0,0,.57-.66c.12-.18.26-.36.4-.54a4.91,4.91,0,0,0,.4-.53,2.3,2.3,0,0,1,.76-1.29,1.28,1.28,0,0,0,.49-1.2.48.48,0,0,0,.53-.35,1.53,1.53,0,0,1,.71-.76,5.59,5.59,0,0,0,.8-.58,10.13,10.13,0,0,1,1-.71,3.25,3.25,0,0,0,1.29-1.6c.3.24.49.31.58.22a4.22,4.22,0,0,1,.58-.4,1.55,1.55,0,0,1,.71-.26,1.53,1.53,0,0,0,.75-.31,1.18,1.18,0,0,1,.89-.22.92.92,0,0,0,.76-.18,5.57,5.57,0,0,1,2.22-.23,4.84,4.84,0,0,0,2-.13,1.28,1.28,0,0,1,.66.62,2.23,2.23,0,0,0,.53.71,1.8,1.8,0,0,0,.58.36,2.63,2.63,0,0,1,.71.44c.3.24.51.41.63.49a1.63,1.63,0,0,1,.35.45A3,3,0,0,0,166,70a4.36,4.36,0,0,1,.62.84,6.68,6.68,0,0,1,.58,1.43A6.16,6.16,0,0,0,168,74a1.24,1.24,0,0,0,.09,1.07,1.55,1.55,0,0,0,.31.71A3.48,3.48,0,0,1,168.76,76.38Zm-9.87,3.83,1.16-.27a7.77,7.77,0,0,1,1.47-.22,5.21,5.21,0,0,0,1.46-.31,6.2,6.2,0,0,0-.44-3.29,1.11,1.11,0,0,0-.18-1.2,1.83,1.83,0,0,1-.35-1.38,10.54,10.54,0,0,0-1.16-1.07,1.46,1.46,0,0,0-.18-.8,3.91,3.91,0,0,1-.35-.62,3.31,3.31,0,0,0-.89-.22,1.09,1.09,0,0,1-.71-.31,6,6,0,0,1-3.82,1.86,3.14,3.14,0,0,1-.63,2.14,2.82,2.82,0,0,0-.09.71v.53a1.26,1.26,0,0,0-.4,1.11,3.07,3.07,0,0,1-.39,1.6,2.35,2.35,0,0,0-.27,1.65,8.58,8.58,0,0,0,2.31,0,16.2,16.2,0,0,1,2-.13Z"/><path class="cls-1" d="M192.58,59.94l.26,1a1.73,1.73,0,0,1-.35,1.25,5.37,5.37,0,0,0-.63,1.06,1.37,1.37,0,0,0-1.2,0,1.58,1.58,0,0,1-1.11.18c-.29.06-.43.22-.4.49a.57.57,0,0,1-.22.58c-.59-.06-.89-.12-.89-.18l-.17.44-.27,1a2.59,2.59,0,0,1,.13,1.2,2.15,2.15,0,0,0,.18,1.2c.15.24.44.76.89,1.55a24.65,24.65,0,0,1,1.11,2.27c.3.71.58,1.32.84,1.82l.58,1.11c.12.24.22.48.31.71s.19.49.31.76a4.78,4.78,0,0,1,.31,1,6.56,6.56,0,0,0,.36,1.16,5,5,0,0,0,.53,1,7.25,7.25,0,0,1,.49.8,1.31,1.31,0,0,1,.14.71,1.58,1.58,0,0,0,.26.94,4.36,4.36,0,0,1,.45,1.2,1.44,1.44,0,0,0,.84,1c.41-.06.61-.33.58-.8a.76.76,0,0,1,.58-.89,9.42,9.42,0,0,1,1.37-2.94,15.82,15.82,0,0,0,1.38-2.26,12.83,12.83,0,0,1,.71-1.34,1.59,1.59,0,0,0,.27-.93,1.46,1.46,0,0,0,.84-1.11,1.26,1.26,0,0,1,.85-1,.88.88,0,0,1,.31-.71,3.61,3.61,0,0,0,.53-.58,2.61,2.61,0,0,0,.36-.75.56.56,0,0,1,.57-.45,3.91,3.91,0,0,1,.58-1.38c.27-.38.52-.78.76-1.2,0-.23.14-.42.44-.57a.47.47,0,0,0,.27-.67,1.1,1.1,0,0,0,.62-1.42c.47-.24.74-.48.8-.71l.27-1.07a.52.52,0,0,0-.4-.62,8.79,8.79,0,0,0-.85-.27.8.8,0,0,1-.53-.44,1.54,1.54,0,0,1-1-.27c-.45-.24-.82-.41-1.11-.53a1.74,1.74,0,0,1,.44-1.47,6.47,6.47,0,0,1,1.07-1.2h.89a2.9,2.9,0,0,1,1.82.53,4.15,4.15,0,0,0,1,.67,1.33,1.33,0,0,0,.67.09,1.89,1.89,0,0,1,.66,0,1.53,1.53,0,0,1,.54.23,11,11,0,0,0,1.73.66,7.75,7.75,0,0,0,3.78.18c.17.48.36,1,.57,1.56a1.32,1.32,0,0,1-.49,1.55,2.61,2.61,0,0,1-2.08.18A3.41,3.41,0,0,0,212.3,64a5,5,0,0,1-1.15.09c-.12,0-.36.25-.71.84a5.9,5.9,0,0,1-.89,1.2,3.13,3.13,0,0,0-.71,1.07,4.35,4.35,0,0,1-.71,1.11,4.08,4.08,0,0,1-.09,1c-.3.24-.45.4-.45.49a1.92,1.92,0,0,1-.4.67,11,11,0,0,0-.75,1.16,11.47,11.47,0,0,1-.62,1,11.9,11.9,0,0,0-.71,1.11c-.3.51-.49.77-.58.8a.71.71,0,0,0-.27.18,1.16,1.16,0,0,0-.22.53.81.81,0,0,1-.45.58,1.37,1.37,0,0,1-.31,1,1.67,1.67,0,0,0-.4.94.94.94,0,0,0-.57.58,1,1,0,0,1-.49.57c.12.3.09.52-.09.67a1.25,1.25,0,0,0-.36.44.83.83,0,0,0,0,.54.79.79,0,0,1-.13.66,1.34,1.34,0,0,0-.22.45.61.61,0,0,1-.09.26.84.84,0,0,0-.05.49.86.86,0,0,1-.08.54,1.06,1.06,0,0,1-.4.35c-.18.09-.18.28,0,.58l-1,.89c.06.18-.08.34-.4.49s-.49.31-.49.48c-.48.3-.68.51-.62.63a.48.48,0,0,1,0,.35,2.23,2.23,0,0,1-.31.58,3,3,0,0,0-.4.89,2,2,0,0,0,.45,1.42,7.82,7.82,0,0,1,.75,1.47c.12.35.28.77.49,1.24s.37.86.49,1.16a4.73,4.73,0,0,0,.31.66,5,5,0,0,1,.31.67c.36,1.54.92,2.52,1.69,2.93a9.72,9.72,0,0,0,.8,1.87c.35.65.65,1.24.89,1.78a10.16,10.16,0,0,0,.71,1.37,2,2,0,0,1,.35.85,8.09,8.09,0,0,0,1.25,2,.84.84,0,0,0,.35.76,3.84,3.84,0,0,1,.85.84c.32.42.46.67.4.76s0,.28.22.57a3.16,3.16,0,0,0,.53.63,5.46,5.46,0,0,1,.67.71c.41.29.62.5.62.62-.06.3.33.65,1.16,1.07.29.29.51.43.66.4a5.54,5.54,0,0,1,1.16,0,3.8,3.8,0,0,0,1.82-.27,1.93,1.93,0,0,0,1.16-.53c-.12-.71-.08-1.08.13-1.11s.34-.28.4-.76a2.87,2.87,0,0,0-.53-1.82,2.42,2.42,0,0,1-.67-1q-.22-.57-1.29-.66a1.89,1.89,0,0,0-1.51.35q-.8.81-2.49.18a2.07,2.07,0,0,1-.18-1.46,5,5,0,0,0,.09-1.65,3.72,3.72,0,0,1,.85-.58,3.51,3.51,0,0,0,.8-.53,1.37,1.37,0,0,1,.62-.35,2.06,2.06,0,0,1,1-.05l1.28.18c.12.18.36.22.72.13s.56,0,.62.22a2.36,2.36,0,0,1,1.46.8c.57.54,1,.92,1.29,1.16a6.22,6.22,0,0,1,.89.89c.3.35.43.62.4.8a.71.71,0,0,0,.13.53,11.67,11.67,0,0,1,.05,2.71,3.91,3.91,0,0,0,.22,2.09,8.76,8.76,0,0,1-1.42,2.49.46.46,0,0,1,0,.58,3.77,3.77,0,0,0-.4.48q-2.92,2.94-5.42,2a2.17,2.17,0,0,0-1.24,0,2.94,2.94,0,0,1-3.29-.27c-.59,0-.89,0-.89-.09s-.13-.13-.4-.22a4.16,4.16,0,0,1-1-.58l-.8-.53q.18,0-.09-.18c-.29-.47-.5-.71-.62-.71s-.53-.26-.89-1.15a1.16,1.16,0,0,0-.58-.27,1.12,1.12,0,0,1-.57-.27,13.36,13.36,0,0,0-1.78-1.91c-.59-.5-.89-.86-.89-1.06a1,1,0,0,0-.18-.58c-.77-.65-1.36-1.13-1.77-1.42a20.49,20.49,0,0,0-1.07-3.29,4.65,4.65,0,0,1-1.2-1.91,3.56,3.56,0,0,0-.62-1.33,2.93,2.93,0,0,1-.58-1.12,1.6,1.6,0,0,0-1-1.06,2.15,2.15,0,0,0-.26-1,3.74,3.74,0,0,1-.36-.85.58.58,0,0,0-.44-.44,13.8,13.8,0,0,1-1.65,2.93,12,12,0,0,0-1.64,3,2.39,2.39,0,0,0-1.25,1.69,2.84,2.84,0,0,1-1.06,1.78,11.16,11.16,0,0,1-.27,1.51A5.06,5.06,0,0,1,184.8,110c-.62.77-.9,1.27-.84,1.51a.56.56,0,0,0,.66-.09,2.68,2.68,0,0,1,.76-.45,5.71,5.71,0,0,0,1.42.14,1.11,1.11,0,0,1,.89.4,7.65,7.65,0,0,0,.62,1.15,1.35,1.35,0,0,1,.27,1.16,1.66,1.66,0,0,1-2.14.35c-.71.3-1.12.56-1.24.8a4,4,0,0,0-3.11.18.43.43,0,0,1-.4-.27.59.59,0,0,0-.58-.26,1.74,1.74,0,0,1-1.55.17,2.43,2.43,0,0,0-1.65,0,4.7,4.7,0,0,0-1,.53,1,1,0,0,1-.71.22l-2.75-.26a4.66,4.66,0,0,0-.53-1.29,1.41,1.41,0,0,1,0-1.38,1.21,1.21,0,0,1,1.15-.44,2.11,2.11,0,0,0,1.42-.36,2.38,2.38,0,0,0,1.91.09c.51-.24,1-.5,1.56-.8a6.28,6.28,0,0,1,.93-1.42,8.33,8.33,0,0,0,.89-1.2c.15-.27.31-.53.49-.8a3.66,3.66,0,0,0,.44-1.11,2.77,2.77,0,0,1,.63-1.2,7.16,7.16,0,0,0,.8-1.11,9.62,9.62,0,0,1,.75-1.16c.27-.35.55-.77.85-1.24a1.72,1.72,0,0,0,.57-1c.09-.45.25-.7.49-.76-.06-.47,0-.68.09-.62s.12-.15,0-.62a2.19,2.19,0,0,1,.4-.58,1.61,1.61,0,0,0,.36-.62,2.22,2.22,0,0,1,.57-.85,10,10,0,0,0,2.31-3.2,7.49,7.49,0,0,0-1.42-4.08,9.26,9.26,0,0,0-1.38-3.87,15.73,15.73,0,0,1-1.55-3.15A6.28,6.28,0,0,1,184,80.34a4,4,0,0,0-1.43-2,16.25,16.25,0,0,0-2.48-5.87,3.33,3.33,0,0,0-.8-1.6l-1.07-1.51a2.24,2.24,0,0,1-.53-1.24,39.94,39.94,0,0,0-4-.13,7.34,7.34,0,0,1-3.2-.67,8,8,0,0,1,.26-2A6.48,6.48,0,0,1,172,65a2.22,2.22,0,0,0,1.15-.45,8.93,8.93,0,0,0,4.27-.44c.65-.41,1.07-.59,1.24-.53a1.69,1.69,0,0,0,1-.22,2.09,2.09,0,0,1,.93-.27,1.5,1.5,0,0,0,.76-.22,2,2,0,0,0,.8-.71,2.45,2.45,0,0,1,.62-.72,14.28,14.28,0,0,0,2.67-.31,7,7,0,0,1,3,0,.48.48,0,0,0,.53-.36c.06-.23.28-.4.67-.49s.86-.22,1.42-.4A2.45,2.45,0,0,1,192.58,59.94Z"/><path class="cls-1" d="M242.7,90.78a10.22,10.22,0,0,1-3.2.36.93.93,0,0,1-.71-.27,1.34,1.34,0,0,0-.63-.36,3.21,3.21,0,0,1-.84-.35,2,2,0,0,0-1.38-.09,3.2,3.2,0,0,0-1.6-.71,1.43,1.43,0,0,1-.35-.62.65.65,0,0,0-.58-.45c-.33-.06-.52,0-.58.27a.61.61,0,0,1-.53.44l.35,5.07c0,.47,0,.87,0,1.2a4.4,4.4,0,0,0,.27,1.51,7.3,7.3,0,0,1,.22,2.49,6.94,6.94,0,0,0,.09,2.09,6.06,6.06,0,0,1,.22,1.33c0,.47,0,.92,0,1.33v1.25l-.17,3a1.3,1.3,0,0,1-.05.8.7.7,0,0,0-.13.44l.53,1.78.27,2.31v1l-.09,1,.44,1.07.18,4.09c-.12.06-.16.29-.13.71s.06.87.09,1.38.07,1,.13,1.37a2,2,0,0,1,0,.94,3.07,3.07,0,0,0,0,1.33,4.59,4.59,0,0,1,0,1.69,5.37,5.37,0,0,0-.09,1.78,9.12,9.12,0,0,1,0,1.82,5.59,5.59,0,0,0,2.31.35c.36-.29.61-.34.76-.13s.31.27.49.18a2.71,2.71,0,0,0,.49-.31c.14-.12.41-.09.8.09a1.68,1.68,0,0,1,.84.8c.41.29.52.88.31,1.77s-.61,1.39-1.2,1.51l-1,.27a3.16,3.16,0,0,1-1.15.13,3.4,3.4,0,0,0-1.42.31,2.47,2.47,0,0,0-.76-.22c-.27,0-.4-.19-.4-.49l-1.42.63-2.22-.09a4.14,4.14,0,0,0-.89.4s-.16,0-.49,0a1.5,1.5,0,0,0-1,.53,2.76,2.76,0,0,0-2.58.45,3.18,3.18,0,0,0-1.51-.31,3.3,3.3,0,0,1-1.51-.31,6.07,6.07,0,0,0-1.2.8,1.77,1.77,0,0,1-1.42.4,4.1,4.1,0,0,1-1.56-.67,2.29,2.29,0,0,1,.54-2.13,3.8,3.8,0,0,1,1.6-1.16,19.76,19.76,0,0,0,2.88-.89,4.37,4.37,0,0,1,2.27-.44q-1.52-15.91-1.47-18.4a15.79,15.79,0,0,0-.22-3.6,8.76,8.76,0,0,1-.26-2.08,2.58,2.58,0,0,0,.31-1.29q0-.58-.09-1.29a8.9,8.9,0,0,0-.18-1.33c-.09-.42-.18-.8-.27-1.16a10.27,10.27,0,0,1-.22-1.38,12.45,12.45,0,0,1,0-1.86c0-.68,0-1.32,0-1.91a9.33,9.33,0,0,0-.18-1.51,12,12,0,0,1-.22-1.43,9.48,9.48,0,0,1-.05-1.6,12,12,0,0,0,0-1.77l-.18-2c-.06-.65-.13-1.33-.22-2a3.63,3.63,0,0,1,0-1.25.61.61,0,0,0,.09-.26l-.44-2.49.18-1.16a1.77,1.77,0,0,0-.18-.8,3.16,3.16,0,0,1-.27-1,8,8,0,0,1,0-1.51,7.1,7.1,0,0,0-.14-1.78,1.11,1.11,0,0,1-.08-.49,2.13,2.13,0,0,0-.09-.58l-.45-1.51a3,3,0,0,0,.09-1.2c-.06-.21-.24-1.14-.53-2.8a7.66,7.66,0,0,1-.23-2.93,1.16,1.16,0,0,0,.09-.89,3.23,3.23,0,0,1,0-1.24,14.44,14.44,0,0,0,.09-1.6l-.27-1.69a8.45,8.45,0,0,0,.13-2.49,10.46,10.46,0,0,1-.13-1.55,5.32,5.32,0,0,1,.13-1.25,1.38,1.38,0,0,0-.13-1,1.82,1.82,0,0,0-1.24.09c-.48.18-1.19.41-2.13.71a4,4,0,0,1-.8-1.82,2.43,2.43,0,0,1,.44-1.29,10.28,10.28,0,0,0,1.42-.62,2.58,2.58,0,0,1,1.47-.63,5.06,5.06,0,0,0,1.64-.44l1.25-.62c2-1,3.25-1.25,3.91-.89a5.52,5.52,0,0,1,1.15,1.6l.71,1.33a8.58,8.58,0,0,1,.71,2.13,6.44,6.44,0,0,1,.22,1.65,3.09,3.09,0,0,0,0,.89c.06.32.1.59.13.8s.14.66.31,1.37a8,8,0,0,1,.27,1.92.83.83,0,0,0,.8.93q.79.09,1.56-.93c.5-.69.93-1,1.28-1,.12-.23.26-.47.4-.71a7.14,7.14,0,0,0,.4-.71.87.87,0,0,0,.63-.4,2.17,2.17,0,0,1,1.06-.67,7.18,7.18,0,0,0,1.42-.71c.36-.23.72-.44,1.07-.62a1.3,1.3,0,0,0,1.42-.35,2.22,2.22,0,0,1,1.33-.71,3.77,3.77,0,0,0,1.34.08,7.59,7.59,0,0,1,1.07-.08l2.31.08a6,6,0,0,1,1.55.18,6.13,6.13,0,0,0,1.24.22,2.76,2.76,0,0,1,1.07.31,3.44,3.44,0,0,1,1,.89,1.38,1.38,0,0,0,1.11.63,4.92,4.92,0,0,0,1.78,1.77,1.9,1.9,0,0,0,.31,1.25,5.59,5.59,0,0,1,.71,1.24,15.58,15.58,0,0,0,1,1.82,7.38,7.38,0,0,1,.75,1.51,2.54,2.54,0,0,0,.62,1,20.83,20.83,0,0,0,.32,2.22c.14.77.29,1.81.44,3.11a5.43,5.43,0,0,1-.67,3.46l.18,1.6a.52.52,0,0,0-.31.58.54.54,0,0,1-.4.58.69.69,0,0,1-.22.84,2.62,2.62,0,0,0-.58.58.66.66,0,0,0,0,.67c.12.26,0,.55-.27.84a2.54,2.54,0,0,0-.62,1.25,1.19,1.19,0,0,1-.71,1,1.46,1.46,0,0,0-.44,1.07,2.22,2.22,0,0,0-1.43.8c-.88,1-1.6,1.51-2.13,1.51-.59.53-1,.74-1.33.62a.83.83,0,0,0-.8,0,1.85,1.85,0,0,1-1,.22c.06.35-.06.53-.36.53a.69.69,0,0,0-.62.27,4,4,0,0,1-1.42.31.43.43,0,0,0-.49.22.43.43,0,0,1-.4.27ZM232.12,75.41,232,78.16a1.68,1.68,0,0,0,.54.62,2,2,0,0,1,.57.89c.15.42.28.8.4,1.16s.24.68.36,1a4.88,4.88,0,0,1,.66.41c.21.14.4.28.58.39a3.46,3.46,0,0,0,.89,1.25A4.9,4.9,0,0,1,237,85a20.58,20.58,0,0,1,2.13.27l2,.36q.53-.18,1.2-.45a2,2,0,0,1,1.55.09.69.69,0,0,1,.58-.4,1.39,1.39,0,0,0,.66-.22l.81-1a2,2,0,0,0,.71-.93,5.51,5.51,0,0,1,.4-1.07c.2-.44.34-.72.4-.84a2,2,0,0,0,.13-.49,1.89,1.89,0,0,1,.36-.76,3.5,3.5,0,0,0,.44-1.46c.09-.68.16-1.48.22-2.4s.13-1.75.22-2.49a7.12,7.12,0,0,0,0-2,3.56,3.56,0,0,1,0-1.24.47.47,0,0,0-.27-.58c.18-.12.18-.35,0-.71s-.18-.56,0-.62a18,18,0,0,1-1.6-3.38,3.71,3.71,0,0,0-1.33-1.37,2.66,2.66,0,0,1-1-.76.84.84,0,0,1-.71,0,1.37,1.37,0,0,0-.93.09,1.29,1.29,0,0,1-.8.14,2.39,2.39,0,0,0-1.11.17,1.91,1.91,0,0,1-1.42,0,2.52,2.52,0,0,1-1,.63,10.06,10.06,0,0,0-1.29.66,4.77,4.77,0,0,1-1,.49,1.15,1.15,0,0,0-.27.53q-.09.36-.18.63a2.29,2.29,0,0,1-1.06.53,1.58,1.58,0,0,1-.89,1.24l-.18,1.16A2.4,2.4,0,0,0,233.1,70a2.46,2.46,0,0,1-.62,1.06,3.6,3.6,0,0,1-.27,1.78,3.53,3.53,0,0,0-.36,1.42A2.54,2.54,0,0,0,232.12,75.41Z"/><path class="cls-1" d="M288.55,76.38a6.85,6.85,0,0,0-.27,3.11c-.06.83-.19,1.34-.4,1.51s-.45.42-.75.72a6.63,6.63,0,0,0,0,.75.56.56,0,0,1-.22.58c-1.12-.06-2.24-.1-3.33-.13a5.55,5.55,0,0,0-2.8.57.8.8,0,0,1-.62,0,1.57,1.57,0,0,0-.45-.22,6.7,6.7,0,0,0-1.11.62,1.31,1.31,0,0,1-1.29.18,2,2,0,0,0-1.33-.09,7.66,7.66,0,0,0-3.29,1.77,10.26,10.26,0,0,1,0,1.92,5.45,5.45,0,0,0,.09,1.73l.18,1.15a.89.89,0,0,1-.05.63,1.58,1.58,0,0,0-.13.66,2.11,2.11,0,0,0,.22.89.82.82,0,0,1-.13.93l.36.89a2.05,2.05,0,0,1,0,1.16,1.4,1.4,0,0,0,.26.66,1.9,1.9,0,0,1,.31.67,3.16,3.16,0,0,1,.09,1.11,3.11,3.11,0,0,0,.09,1.11q.14.45.27,1a4.08,4.08,0,0,0,.84,1.47c.48.59.62,1.07.45,1.42a8.25,8.25,0,0,1,.75.89,3.6,3.6,0,0,0,.76.8,4,4,0,0,1,1.46.45,3.68,3.68,0,0,0,1.69.35,4.81,4.81,0,0,0,2.4-.84,16.57,16.57,0,0,1,1.82-1,.8.8,0,0,0,.31-.66,1,1,0,0,1,.32-.71,1.13,1.13,0,0,1,.48-.27,2.42,2.42,0,0,0,.63-.27,4.1,4.1,0,0,0,.75-.53,6.06,6.06,0,0,1,1-.67c.41-.23,1-.08,1.69.45a2.1,2.1,0,0,1,0,1.51l-.54.89c-.17.3-.2.49-.08.58s.14.28.08.57a1.64,1.64,0,0,0-.53,1.16,1.42,1.42,0,0,0-.8.66,2.07,2.07,0,0,1-.8.81,2.59,2.59,0,0,1-1,.35,2.82,2.82,0,0,0-1.07.36,2.68,2.68,0,0,0-.93.8,3.62,3.62,0,0,1-1.16.93,6.55,6.55,0,0,0-1.24-.09,4.87,4.87,0,0,1-3.15.67c-1.1-.15-2.27-.29-3.51-.4a8.55,8.55,0,0,0-3.2-2,3.87,3.87,0,0,0-2.85-2.31.7.7,0,0,0-.4-.71c-.26-.12-.4-.41-.4-.89a.72.72,0,0,1-.58-.44.89.89,0,0,0-.57-.53,1.2,1.2,0,0,0-.22-.41c-.09-.08-.11-.28,0-.57a1.28,1.28,0,0,1-.67-.58,5.43,5.43,0,0,0-.57-.84,13.49,13.49,0,0,1-.76-1.69c-.09-.3-.28-.8-.58-1.51a5.33,5.33,0,0,1-.35-2.4L263,93.45a1.44,1.44,0,0,0,0-.94,3.75,3.75,0,0,1-.13-1l.18-1.33a14.56,14.56,0,0,0,0-2.09,7.18,7.18,0,0,1,.09-2L263.4,85a1.88,1.88,0,0,0,.05-.66,2.33,2.33,0,0,1,.17-1c.15-.44.34-1,.58-1.56a5.82,5.82,0,0,0,.4-1.24,4.73,4.73,0,0,1,.22-.89,5.15,5.15,0,0,1,.45-1,8.16,8.16,0,0,0,.49-.93,2.27,2.27,0,0,0,.22-.89,1.16,1.16,0,0,1,.4-.8,4.74,4.74,0,0,0,.58-.66,4.69,4.69,0,0,1,.4-.54c.14-.17.28-.35.4-.53a2.28,2.28,0,0,1,.75-1.29,1.26,1.26,0,0,0,.49-1.2.47.47,0,0,0,.53-.35,1.53,1.53,0,0,1,.71-.76,5,5,0,0,0,.8-.58,9.54,9.54,0,0,1,1-.71,3.29,3.29,0,0,0,1.28-1.6c.3.24.49.31.58.22a4.22,4.22,0,0,1,.58-.4,1.59,1.59,0,0,1,.71-.26,1.59,1.59,0,0,0,.76-.31,1.14,1.14,0,0,1,.88-.22.92.92,0,0,0,.76-.18,5.57,5.57,0,0,1,2.22-.23,4.84,4.84,0,0,0,2-.13,1.28,1.28,0,0,1,.66.62,2.11,2.11,0,0,0,.54.71,1.77,1.77,0,0,0,.57.36,2.81,2.81,0,0,1,.72.44c.29.24.5.41.62.49a1.46,1.46,0,0,1,.35.45,3,3,0,0,0,.49.62,4,4,0,0,1,.62.84A6.68,6.68,0,0,1,287,72.3a6.47,6.47,0,0,0,.8,1.68,1.24,1.24,0,0,0,.09,1.07,1.55,1.55,0,0,0,.31.71A3.48,3.48,0,0,1,288.55,76.38Zm-9.86,3.83,1.15-.27a7.9,7.9,0,0,1,1.47-.22,5.21,5.21,0,0,0,1.46-.31,6.2,6.2,0,0,0-.44-3.29,1.11,1.11,0,0,0-.18-1.2,1.88,1.88,0,0,1-.35-1.38,10.54,10.54,0,0,0-1.16-1.07,1.46,1.46,0,0,0-.18-.8,4.9,4.9,0,0,1-.35-.62,3.22,3.22,0,0,0-.89-.22,1.11,1.11,0,0,1-.71-.31,6,6,0,0,1-3.82,1.86,3.14,3.14,0,0,1-.62,2.14,2.82,2.82,0,0,0-.09.71v.53a1.23,1.23,0,0,0-.4,1.11,3.09,3.09,0,0,1-.4,1.6,2.35,2.35,0,0,0-.27,1.65,8.58,8.58,0,0,0,2.31,0,16.2,16.2,0,0,1,2-.13Z"/><path class="cls-1" d="M297,50.17V49.1a3.53,3.53,0,0,1,0-1.64,4,4,0,0,0,.27-.85,3.88,3.88,0,0,1,.09-2,2,2,0,0,0,.09-1.33,1.27,1.27,0,0,0-.4-.4,1.38,1.38,0,0,1-.4-.4,2.93,2.93,0,0,0-1.6.22,6.23,6.23,0,0,1-1.42.49q-.45-.18-.54.09a.82.82,0,0,1-.44.44,1.45,1.45,0,0,1-2-.36c-.65-.65-.84-1.18-.57-1.6a2,2,0,0,1,1.11-.84c.47-.15,1-.3,1.55-.44a15.56,15.56,0,0,1,1.78-.36,10.37,10.37,0,0,0,1.51-.31,7.8,7.8,0,0,1,1.16-.27,3.77,3.77,0,0,0,1-.26,4.51,4.51,0,0,0,.67-.36,3.76,3.76,0,0,1,.67-.35,2.64,2.64,0,0,1,.71-.23,21.67,21.67,0,0,0,2.09-.66,7.41,7.41,0,0,1,3.82-.54,2.67,2.67,0,0,0,.35,1,1.55,1.55,0,0,1,.22,1.82,3.7,3.7,0,0,0-.53,1.42.84.84,0,0,1-.4.76c.12,1.13,0,1.78-.44,2l.62,5.42a4.66,4.66,0,0,0,.18,2.08,16.39,16.39,0,0,1,.35,3.16,12,12,0,0,0,.45,4.26l-.18,1.78a3.2,3.2,0,0,0,.09.8c.06.24.15.65.26,1.25a8.11,8.11,0,0,1,.05,2.31c-.09.94-.13,1.89-.13,2.84a22.63,22.63,0,0,1,.44,3.29,2.57,2.57,0,0,1-.44,1.51c.17.47.22.74.13.8s-.13.24-.13.53a10.2,10.2,0,0,0,.08,1.2,6.13,6.13,0,0,1-.08,1.73l.44,2.32-.18,1,.36,2.94c-.06.47-.14,1-.23,1.51a2.15,2.15,0,0,0,.32,1.51,2.59,2.59,0,0,0-.18,1.37,2.86,2.86,0,0,1-.18,1.43,1.72,1.72,0,0,0,0,1.37,4.18,4.18,0,0,1,.32,1.69l-.27,1.69a4.77,4.77,0,0,0,.18,1.82,2.19,2.19,0,0,1-.18,1.74,4.72,4.72,0,0,1,.18,3.55,5.56,5.56,0,0,1,.18,2.75,3.76,3.76,0,0,0,.44,2.67,3.29,3.29,0,0,0-.44,1.78,14.94,14.94,0,0,0,.08,1.78c.24,1.36,1,1.74,2.31,1.15a2.9,2.9,0,0,0,.72-.58.67.67,0,0,1,.8-.13c.59.12.88.62.88,1.51a1.49,1.49,0,0,1-1.2,2.67,17.13,17.13,0,0,0-2.08.35,1.36,1.36,0,0,0-1,.8.73.73,0,0,1-.45-.13.79.79,0,0,0-.62-.05c-.65.42-1.06.6-1.24.54-.48-.24-1.13,0-2,.71a1.59,1.59,0,0,0-1,0,2,2,0,0,1-1.25-.17,2.68,2.68,0,0,0-1.82,0,3.92,3.92,0,0,0-1.82,1,3.27,3.27,0,0,0-1.6.35,2.67,2.67,0,0,1-1.6.27,2.85,2.85,0,0,1-.8-1.51,1.24,1.24,0,0,1,.4-.93,3.85,3.85,0,0,1,.89-.67,1.45,1.45,0,0,0,.66-.71,15.49,15.49,0,0,0,3.65-1.25,8.17,8.17,0,0,0-.31-3.73,7,7,0,0,1-.54-1.86,4.68,4.68,0,0,0,0-1.07c-.06-.53-.13-1.13-.22-1.78s-.17-1.27-.23-1.86a7.11,7.11,0,0,1,0-1.6,12.44,12.44,0,0,0-.08-2.4,27.76,27.76,0,0,1-.18-2.85l-.54-4.44V89l-.26-2a3.46,3.46,0,0,1-.05-1,6.85,6.85,0,0,0,0-1.11q0-.57-.09-1.2a1.34,1.34,0,0,0-.48-1,4.78,4.78,0,0,0,.44-1.6L297,79.41a1.63,1.63,0,0,1,0-.76,3.49,3.49,0,0,0,.09-.76L297,73.36a9.38,9.38,0,0,1,.23-2,6.78,6.78,0,0,0,.08-2.17,3.55,3.55,0,0,1,0-1.38,1.11,1.11,0,0,0,.14-.58l-.36-3.38.18-1.86L297,60a.92.92,0,0,1,0-.57,2.41,2.41,0,0,0,.09-.67L297,56.66a2.94,2.94,0,0,0,0-1.25,1.59,1.59,0,0,1-.05-.89,1.88,1.88,0,0,0,0-.84,5.93,5.93,0,0,1,0-1.56Q297,50.79,297,50.17Z"/><path class="cls-1" d="M318.68,50.17V49.1a3.53,3.53,0,0,1,0-1.64,4,4,0,0,0,.26-.85,3.88,3.88,0,0,1,.09-2,2,2,0,0,0,.09-1.33,1.17,1.17,0,0,0-.4-.4,1.38,1.38,0,0,1-.4-.4,2.94,2.94,0,0,0-1.6.22,6.07,6.07,0,0,1-1.42.49c-.3-.12-.47-.09-.53.09a.84.84,0,0,1-.45.44,1.44,1.44,0,0,1-1.95-.36c-.65-.65-.85-1.18-.58-1.6A2,2,0,0,1,312.9,41c.47-.15,1-.3,1.56-.44a15.38,15.38,0,0,1,1.77-.36,10.09,10.09,0,0,0,1.51-.31,8.1,8.1,0,0,1,1.16-.27,4,4,0,0,0,1-.26,4.35,4.35,0,0,0,.66-.36,3.76,3.76,0,0,1,.67-.35,2.76,2.76,0,0,1,.71-.23,20.76,20.76,0,0,0,2.09-.66,7.41,7.41,0,0,1,3.82-.54,2.68,2.68,0,0,0,.36,1,1.59,1.59,0,0,1,.22,1.82,3.58,3.58,0,0,0-.54,1.42.84.84,0,0,1-.4.76c.12,1.13,0,1.78-.44,2l.62,5.42a4.66,4.66,0,0,0,.18,2.08,15.7,15.7,0,0,1,.36,3.16,12,12,0,0,0,.44,4.26l-.18,1.78a3.2,3.2,0,0,0,.09.8c.06.24.15.65.27,1.25a8.16,8.16,0,0,1,0,2.31c-.09.94-.13,1.89-.13,2.84a22.63,22.63,0,0,1,.44,3.29,2.57,2.57,0,0,1-.44,1.51c.18.47.22.74.13.8s-.13.24-.13.53a10.59,10.59,0,0,0,.09,1.2,5.81,5.81,0,0,1-.09,1.73l.44,2.32-.17,1,.35,2.94c-.06.47-.13,1-.22,1.51a2.09,2.09,0,0,0,.31,1.51,2.59,2.59,0,0,0-.18,1.37,2.86,2.86,0,0,1-.18,1.43,1.72,1.72,0,0,0,.05,1.37,4.18,4.18,0,0,1,.31,1.69l-.27,1.69a4.77,4.77,0,0,0,.18,1.82,2.19,2.19,0,0,1-.18,1.74,4.63,4.63,0,0,1,.18,3.55,5.34,5.34,0,0,1,.18,2.75,3.82,3.82,0,0,0,.44,2.67,3.38,3.38,0,0,0-.44,1.78,14.68,14.68,0,0,0,.09,1.78c.23,1.36,1,1.74,2.31,1.15a3,3,0,0,0,.71-.58.68.68,0,0,1,.8-.13c.59.12.89.62.89,1.51a2,2,0,0,1,.53,1.69,2,2,0,0,1-1.73,1A17.36,17.36,0,0,0,331,115a1.36,1.36,0,0,0-1,.8.7.7,0,0,1-.44-.13.79.79,0,0,0-.62-.05c-.66.42-1.07.6-1.25.54-.47-.24-1.12,0-1.95.71a1.62,1.62,0,0,0-1,0,2,2,0,0,1-1.25-.17,2.68,2.68,0,0,0-1.82,0,3.92,3.92,0,0,0-1.82,1,3.3,3.3,0,0,0-1.6.35,2.66,2.66,0,0,1-1.6.27,2.85,2.85,0,0,1-.8-1.51,1.28,1.28,0,0,1,.4-.93,3.85,3.85,0,0,1,.89-.67,1.43,1.43,0,0,0,.67-.71,15.42,15.42,0,0,0,3.64-1.25,8,8,0,0,0-.31-3.73,6.73,6.73,0,0,1-.53-1.86,4.9,4.9,0,0,0-.05-1.07c-.06-.53-.13-1.13-.22-1.78s-.16-1.27-.22-1.86a7.11,7.11,0,0,1,0-1.6,11.86,11.86,0,0,0-.09-2.4,27.76,27.76,0,0,1-.18-2.85l-.53-4.44V89l-.27-2a3.48,3.48,0,0,1,0-1,6.85,6.85,0,0,0,0-1.11q0-.57-.09-1.2a1.32,1.32,0,0,0-.49-1,4.55,4.55,0,0,0,.44-1.6l-.26-1.68a1.63,1.63,0,0,1,0-.76,3.49,3.49,0,0,0,.09-.76l-.09-4.53a9.35,9.35,0,0,1,.22-2,6.5,6.5,0,0,0,.09-2.17,3.17,3.17,0,0,1,0-1.38,1.11,1.11,0,0,0,.13-.58l-.35-3.38.17-1.86-.26-2a.92.92,0,0,1,0-.57,2.41,2.41,0,0,0,.09-.67l-.09-2.13a2.87,2.87,0,0,0-.05-1.25,1.62,1.62,0,0,1,0-.89,1.88,1.88,0,0,0,0-.84,5.93,5.93,0,0,1,0-1.56Q318.68,50.79,318.68,50.17Z"/><path class="cls-1" d="M362.58,76.38a6.58,6.58,0,0,0-.27,3.11c-.06.83-.19,1.34-.4,1.51s-.46.42-.75.72a6.63,6.63,0,0,0,0,.75.56.56,0,0,1-.22.58c-1.13-.06-2.24-.1-3.34-.13a5.53,5.53,0,0,0-2.79.57.82.82,0,0,1-.63,0,1.51,1.51,0,0,0-.44-.22,6,6,0,0,0-1.11.62,1.31,1.31,0,0,1-1.29.18,2,2,0,0,0-1.33-.09,7.59,7.59,0,0,0-3.29,1.77,10.26,10.26,0,0,1,0,1.92,5.45,5.45,0,0,0,.09,1.73l.18,1.15a1,1,0,0,1,0,.63,1.44,1.44,0,0,0-.13.66,2.11,2.11,0,0,0,.22.89.84.84,0,0,1-.13.93c.11.3.23.6.35.89a1.89,1.89,0,0,1,0,1.16,1.51,1.51,0,0,0,.27.66,2.1,2.1,0,0,1,.31.67,3.16,3.16,0,0,1,.09,1.11,3.11,3.11,0,0,0,.09,1.11c.09.3.17.64.26,1a4,4,0,0,0,.85,1.47c.47.59.62,1.07.44,1.42a7.37,7.37,0,0,1,.76.89,3.55,3.55,0,0,0,.75.8,4,4,0,0,1,1.47.45,3.65,3.65,0,0,0,1.69.35,4.81,4.81,0,0,0,2.4-.84,15.66,15.66,0,0,1,1.82-1,.8.8,0,0,0,.31-.66,1,1,0,0,1,.31-.71,1.15,1.15,0,0,1,.49-.27,2.26,2.26,0,0,0,.62-.27,3.85,3.85,0,0,0,.76-.53,5.64,5.64,0,0,1,1-.67q.62-.35,1.68.45a2.1,2.1,0,0,1,0,1.51c-.17.3-.35.59-.53.89s-.21.49-.09.58.15.28.09.57a1.64,1.64,0,0,0-.53,1.16,1.38,1.38,0,0,0-.8.66,2.14,2.14,0,0,1-.8.81,2.64,2.64,0,0,1-1,.35,2.76,2.76,0,0,0-1.07.36,2.51,2.51,0,0,0-.93.8,3.73,3.73,0,0,1-1.16.93,6.63,6.63,0,0,0-1.24-.09,4.88,4.88,0,0,1-3.16.67c-1.1-.15-2.26-.29-3.51-.4a8.47,8.47,0,0,0-3.2-2,3.84,3.84,0,0,0-2.84-2.31.7.7,0,0,0-.4-.71c-.27-.12-.4-.41-.4-.89a.7.7,0,0,1-.58-.44.91.91,0,0,0-.58-.53,1,1,0,0,0-.22-.41c-.09-.08-.1-.28,0-.57a1.28,1.28,0,0,1-.67-.58,5.54,5.54,0,0,0-.58-.84,14.54,14.54,0,0,1-.75-1.69c-.09-.3-.28-.8-.58-1.51a5.33,5.33,0,0,1-.36-2.4L337,93.45a1.44,1.44,0,0,0,0-.94,3.75,3.75,0,0,1-.14-1l.18-1.33a12.14,12.14,0,0,0,0-2.09,7.18,7.18,0,0,1,.09-2l.27-1.07a1.66,1.66,0,0,0,0-.66,2.38,2.38,0,0,1,.18-1c.15-.44.34-1,.58-1.56a6.49,6.49,0,0,0,.4-1.24,4.73,4.73,0,0,1,.22-.89,5.83,5.83,0,0,1,.44-1,8.16,8.16,0,0,0,.49-.93,2.14,2.14,0,0,0,.23-.89,1.18,1.18,0,0,1,.39-.8,4.74,4.74,0,0,0,.58-.66,6.25,6.25,0,0,1,.4-.54,4.91,4.91,0,0,0,.4-.53,2.3,2.3,0,0,1,.76-1.29,1.28,1.28,0,0,0,.49-1.2.48.48,0,0,0,.53-.35,1.53,1.53,0,0,1,.71-.76,6.28,6.28,0,0,0,.8-.58,10.13,10.13,0,0,1,1-.71,3.36,3.36,0,0,0,1.29-1.6c.3.24.49.31.58.22a4.22,4.22,0,0,1,.58-.4,1.55,1.55,0,0,1,.71-.26,1.53,1.53,0,0,0,.75-.31,1.18,1.18,0,0,1,.89-.22.92.92,0,0,0,.76-.18,5.57,5.57,0,0,1,2.22-.23,4.78,4.78,0,0,0,1.95-.13,1.27,1.27,0,0,1,.67.62,2.1,2.1,0,0,0,.53.71,1.8,1.8,0,0,0,.58.36,2.79,2.79,0,0,1,.71.44c.3.24.5.41.62.49a1.47,1.47,0,0,1,.36.45,3,3,0,0,0,.49.62,4.82,4.82,0,0,1,.62.84A6.68,6.68,0,0,1,361,72.3a6.16,6.16,0,0,0,.8,1.68,1.24,1.24,0,0,0,.09,1.07,1.55,1.55,0,0,0,.31.71A4.14,4.14,0,0,1,362.58,76.38Zm-9.87,3.83,1.16-.27a7.79,7.79,0,0,1,1.46-.22,5.21,5.21,0,0,0,1.47-.31,6.2,6.2,0,0,0-.44-3.29,1.15,1.15,0,0,0-.18-1.2,1.84,1.84,0,0,1-.36-1.38,10,10,0,0,0-1.15-1.07,1.46,1.46,0,0,0-.18-.8,3.91,3.91,0,0,1-.35-.62,3.31,3.31,0,0,0-.89-.22,1.09,1.09,0,0,1-.71-.31,6,6,0,0,1-3.83,1.86,3.09,3.09,0,0,1-.62,2.14,2.82,2.82,0,0,0-.09.71v.53a1.26,1.26,0,0,0-.4,1.11,3,3,0,0,1-.4,1.6,2.39,2.39,0,0,0-.26,1.65,8.58,8.58,0,0,0,2.31,0,16.2,16.2,0,0,1,2-.13Z"/><path class="cls-1" d="M400.61,88l-.26,1.24a.39.39,0,0,0,0,.4,1.85,1.85,0,0,1,.09.93c0,.48-.12,1.2-.27,2.18a3.78,3.78,0,0,0,.4,2.53,4.72,4.72,0,0,0-.22,2.14,11.17,11.17,0,0,1,0,2.57l-.36,1.16a10.27,10.27,0,0,0,.53,3.2,3.3,3.3,0,0,0,1.2,0c.45-.09,1-.18,1.69-.26s1.11.28,1.29,1.11a2.23,2.23,0,0,1-1.07,2.4,2.19,2.19,0,0,1-.88.26,5.19,5.19,0,0,0-1.16.31,3,3,0,0,1-1.51.09,6.39,6.39,0,0,0-2.31.18,4.41,4.41,0,0,1-2.4,0,7.78,7.78,0,0,0-2.49-.36l-1-2.84c-.53-.77-1-1-1.33-.71a1.61,1.61,0,0,1-1.51.17l-1.6.71a2.74,2.74,0,0,0-1.6,0,2,2,0,0,1-1.07.13l-1.24.63h-1.07a3.67,3.67,0,0,1-.71-.27,3.24,3.24,0,0,0-.71-.27,1.72,1.72,0,0,0-.67,0,2.25,2.25,0,0,1-1-.22,6,6,0,0,0-2.09-.27l-.89-.8a2,2,0,0,1-1.51-.8,5.32,5.32,0,0,0-1.47-1.2,8.85,8.85,0,0,1-1.91-1.56,1.08,1.08,0,0,0-.22-.71,1.28,1.28,0,0,1-.13-1,3.44,3.44,0,0,1-1.2-2.23c-.15-.94-.28-2-.4-3a2,2,0,0,1-.4-1.42,2,2,0,0,0-.4-1.42,6,6,0,0,1,.13-1.2,1.59,1.59,0,0,0-.31-1.29.46.46,0,0,0,.22-.49,1.25,1.25,0,0,1,.05-.58,2.38,2.38,0,0,0,.58-1.6,2.17,2.17,0,0,1-.05-1,25,25,0,0,0,1.11-2.49c.21-.59.36-1,.44-1.16s.2-.4.32-.66a5.31,5.31,0,0,0,.26-.8,2,2,0,0,1,.27-.67,2.35,2.35,0,0,1,.62-.58,8,8,0,0,0,1.11-1,7.22,7.22,0,0,1,1-.89,7.94,7.94,0,0,0,1.2-1.11,6.82,6.82,0,0,0,1.2-1.6,1.3,1.3,0,0,0,.71-.36,2.56,2.56,0,0,1,.76-.49,3.12,3.12,0,0,0,.93-.66,2.54,2.54,0,0,1,1.87-.89,2.07,2.07,0,0,0,1.47-.4,2.85,2.85,0,0,1,1.2-.58,2.58,2.58,0,0,1,1.28.18,7.35,7.35,0,0,0,1.38.35h1.25a7.25,7.25,0,0,1,2.53.18,2,2,0,0,0,1.46,0c.12-1.12.27-3.26.45-6.4a4,4,0,0,1,0-1.69,3.57,3.57,0,0,0,.09-1.37,8.39,8.39,0,0,1-.09-1q0-.34.18-4.17a7.39,7.39,0,0,1-.18-1.34,6.69,6.69,0,0,1,.18-1.28,2.47,2.47,0,0,0,0-1.2,1.73,1.73,0,0,1,0-.89,6.72,6.72,0,0,1,.31-1.16,7,7,0,0,0,.31-1.24l-.18-1,.45-3.2a2.07,2.07,0,0,1,.08-.58.58.58,0,0,0-.13-.57,1.74,1.74,0,0,1-.31-.85,2.08,2.08,0,0,1,.09-1.06,14.31,14.31,0,0,0,.44-2.23,3.16,3.16,0,0,0-.89-2.88,1.41,1.41,0,0,0-1.06,0,2.74,2.74,0,0,1-1,.27c-.39,0-.61,0-.67-.09s-.37-.05-.93.13a5,5,0,0,1-2.45-.09,2.61,2.61,0,0,1-1-2.17,3.05,3.05,0,0,1,.84-2.36,6.18,6.18,0,0,0,1.65.18,1.7,1.7,0,0,0,1.38-.45,7.11,7.11,0,0,0,2.13.45l1.07-.27a6.06,6.06,0,0,1,1.73-.13,4.09,4.09,0,0,0,1.38-.09,3.24,3.24,0,0,1,.88-.18q.54,0,.63.09c.06.09.26,0,.62-.22l2.4.26h.53a1.16,1.16,0,0,1,1,.72,2.47,2.47,0,0,1,.4,1.06l-.44,6a3.21,3.21,0,0,1-.22.62,1.35,1.35,0,0,0-.14.62L401.5,44l-.35,1.42.17,1-.17,1.42a6.26,6.26,0,0,1,.17,1.42l-.44,4,.18,1.24-.45,4.89c0,2.25.09,4.48.27,6.67l-.27,1.77.27,1.6-.36,1.78a.58.58,0,0,0,0,.45,1.17,1.17,0,0,1,.09.53v2.49a1.1,1.1,0,0,1-.18.62,1.73,1.73,0,0,0,0,1.69c.27.77.34,1.21.22,1.33a1.16,1.16,0,0,0-.26.36,2.52,2.52,0,0,1,.35,2,12.25,12.25,0,0,0-.35,2.22v1a9,9,0,0,0,.08,2.13A12.27,12.27,0,0,1,400.61,88Zm-8.8-2.58-.17-3-.18-1.34a12.8,12.8,0,0,1,.27-2.62,8.43,8.43,0,0,0,.08-2.71,2.68,2.68,0,0,0-2-1.29,3.21,3.21,0,0,0-1.64.49.87.87,0,0,1-1.25-.18,1.55,1.55,0,0,0-1.37-.53,1.47,1.47,0,0,0-.58.49,1.54,1.54,0,0,1-.58.49,3.27,3.27,0,0,1-.76.27,4.68,4.68,0,0,0-.84.26,8,8,0,0,1-.8,1.16,12.28,12.28,0,0,0-.8,1.06,1,1,0,0,1-.13.76c-.15.21-.11.43.13.67-.77.17-1.24,1-1.42,2.57a1.22,1.22,0,0,0,.18.71,2.64,2.64,0,0,0-.76,1.51c-.09.6-.16,1-.22,1.34a3.75,3.75,0,0,1-.22.75,1.48,1.48,0,0,0-.14.58l-.26,2.67a3.86,3.86,0,0,1-.09.84.83.83,0,0,0,.09.67,8.2,8.2,0,0,0,.31,1.91,2.43,2.43,0,0,1,.13,1.15,1,1,0,0,0,.4.94.76.76,0,0,1,.31.88.77.77,0,0,1,.22.67,2.7,2.7,0,0,0,2.18,2.8,2.65,2.65,0,0,1,.4.62,1,1,0,0,0,.49.54c.12.29.24.46.36.49a3.05,3.05,0,0,1,.62.31,1.81,1.81,0,0,0,1.06.22c.42,0,.82,0,1.2,0a3.37,3.37,0,0,1,.89.09,3.33,3.33,0,0,0,1.2,0,4.46,4.46,0,0,0,2-1,7.33,7.33,0,0,0,1.56-1.6,2,2,0,0,1,.13-1.6c.27-.6.31-2.34.13-5.25A55.25,55.25,0,0,1,391.81,85.45Z"/></svg>