<svg id="Layer_1" data-name="Layer 1" xmlns="http://www.w3.org/2000/svg" viewBox="0 0 262 243"><defs><style>.cls-1{fill:none;stroke:#000;stroke-miterlimit:10;stroke-width:3px;}.cls-2{fill:#1d1d1b;}</style></defs><polygon class="cls-1" points="100.57 91.77 134.63 10.8 161.16 92.35 247.16 96.32 175.99 147.64 200.68 232.19 128.67 177 55.11 226.93 85.55 143.65 14.85 89.95 100.57 91.77"/><path class="cls-2" d="M96.4,109.45l.46-.1a.25.25,0,0,0,.23.09.24.24,0,0,1,.22.09.73.73,0,0,1,.55,0,2.47,2.47,0,0,0,.43.11l.36,0a1,1,0,0,1,.5.15l.31.19a.49.49,0,0,1,.19.1l.33.22a1,1,0,0,1,.32.26.39.39,0,0,0,.15.16,2.61,2.61,0,0,1,.26.23,3.35,3.35,0,0,1,.38.47l.33.47a4.54,4.54,0,0,1,.29.43,1.14,1.14,0,0,1,.19.44c0,.12.17.21.22.27a10.93,10.93,0,0,1,.41,1.19,3.28,3.28,0,0,1,.25.64,5,5,0,0,0,.15.56,1.43,1.43,0,0,1,.1.64,2.17,2.17,0,0,0,0,.34.73.73,0,0,1,0,.25.83.83,0,0,1-.17.38.62.62,0,0,0-.06.52.57.57,0,0,0-.16.23.54.54,0,0,1-.16.21,2.87,2.87,0,0,1-.25,1.1,8.33,8.33,0,0,0-.38,1,1.26,1.26,0,0,0-.31.25,1.43,1.43,0,0,1-1,.65.22.22,0,0,0-.07.26.23.23,0,0,1-.07.25,1,1,0,0,1-.34.29.41.41,0,0,0-.22.36.3.3,0,0,0-.28.16.39.39,0,0,1-.17.22c-.32.16-.74.24-.93.37a2.45,2.45,0,0,1-.43.25l-.36.14a2.44,2.44,0,0,1-.52.17,3.29,3.29,0,0,1-.64.09.59.59,0,0,0-.46.2,1.16,1.16,0,0,0-.19.42,1.88,1.88,0,0,0-.06.38c0,.09,0,.27-.1.54a.85.85,0,0,0,0,.58,1.12,1.12,0,0,1,.14.33c.06.34.09.51.14.85a6.26,6.26,0,0,0,.43,1.26.3.3,0,0,0,0,.35,1.12,1.12,0,0,1,.17.4c0,.26,0,.39.07.65a3.84,3.84,0,0,1,.2.71.31.31,0,0,0,.29.28l.1.24a.39.39,0,0,0,.15.2,2.43,2.43,0,0,1,.5-.25l.24-.06a.57.57,0,0,1,.52.22,1,1,0,0,1,.22.44.7.7,0,0,1-.14.45,1.11,1.11,0,0,1-.35.34.47.47,0,0,1-.31.06.43.43,0,0,0-.25,0,.4.4,0,0,0-.19.11.65.65,0,0,1-.18.15.54.54,0,0,1-.29,0c-.12,0-.21,0-.29.18A.91.91,0,0,0,96,133c-.45,0-.68.09-.72.17a.53.53,0,0,1-.12.21,2.83,2.83,0,0,0-1.1.49,1.81,1.81,0,0,1-1.16.39.66.66,0,0,1-.18-.54,1.14,1.14,0,0,1,.17-.51.71.71,0,0,0,.52-.26.82.82,0,0,1,.41-.29c0-.12,0-.2.06-.22s.07-.1.09-.22,0-.21,0-.28a1.37,1.37,0,0,0,0-.23.62.62,0,0,0,0-.24.37.37,0,0,1,0-.21c0-.08,0-.17-.17-.26a.47.47,0,0,1-.17-.45,1.24,1.24,0,0,0,0-.41.56.56,0,0,1,0-.23c0-.19,0-.28,0-.47l-.22-.52-.12-.25c0-.09-.08-.18-.12-.25l-.2-.33a1.45,1.45,0,0,0-.13-.67q-.1-.2-.18-.36a1.65,1.65,0,0,1-.1-.32,2.47,2.47,0,0,0-.1-.29l-.2-.43c0-.15,0-.22,0-.37-.42-1.42-.66-2.28-.72-2.59a3.07,3.07,0,0,0-.25-.72,2.26,2.26,0,0,1-.16-.69,3.13,3.13,0,0,0-.13-.56c-.24-.94-.35-1.4-.58-2.33l-.08-.33a1.5,1.5,0,0,0-.15-.56,3.75,3.75,0,0,1-.22-.65c-.09-.33-.25-.8-.48-1.39a12.68,12.68,0,0,1-.55-1.76l-.18-.43a2.51,2.51,0,0,1,0-.58,1.21,1.21,0,0,0-.09-.52.69.69,0,0,0-.22-.25c-.08-.06-.2-.19-.26-.2s-.44.12-.6.22a2.46,2.46,0,0,1-.6.25.77.77,0,0,1-.58,0,1.45,1.45,0,0,1-.45-.35,2.32,2.32,0,0,1,.17-.75c.35-.26,1-.4,1.16-.63a.91.91,0,0,0,.54-.2.55.55,0,0,1,.53-.07.84.84,0,0,1,.5-.15,2.51,2.51,0,0,0,.55-.07l1-.34.66,0,.82-.27.6,0a2.5,2.5,0,0,1,.81-.2,1.91,1.91,0,0,0,.43,0l.3-.08.24,0a.82.82,0,0,0,.31.07,2.89,2.89,0,0,1,.62-.05A4.89,4.89,0,0,1,96.4,109.45Zm-1.8,1.81-1.47.27c-.43.06-.67.2-.71.41a.58.58,0,0,0,0,.47,1.13,1.13,0,0,1,.2.34,1.91,1.91,0,0,0,.13,1.16c.17.56.31,1,.41,1.31a8.76,8.76,0,0,1,.25.9,2.19,2.19,0,0,1,0,.8.53.53,0,0,1,.24.39l.06.36.25.73a9.48,9.48,0,0,1,.24,1.1,2.09,2.09,0,0,0,.32.89.29.29,0,0,0,0,.34,1.3,1.3,0,0,1,.1.5.9.9,0,0,0,.25.6c.09.1.21.18.26.25a.47.47,0,0,0,.15.16,1.12,1.12,0,0,1,.35.1s0,0,.07,0a3.41,3.41,0,0,1,.84-.37l.94-.35a.38.38,0,0,0,.31-.26.65.65,0,0,1,.15-.3.91.91,0,0,1,.21-.18l.23-.16a.48.48,0,0,1,.24-.37.76.76,0,0,0,.32-.29c0-.13.07-.27.1-.28s.06,0,.08-.09a.6.6,0,0,0,0-.2.5.5,0,0,1,0-.25,2.58,2.58,0,0,0,.12-.34,1.8,1.8,0,0,1,.16-.38,1.38,1.38,0,0,1,0-.72,3.19,3.19,0,0,0,.09-.65,4.75,4.75,0,0,0,0-.75,2.4,2.4,0,0,1,0-.8,4.69,4.69,0,0,1-.34-1.53,3.34,3.34,0,0,0-1.82-3c-.06-.07-.12-.07-.16,0a.16.16,0,0,1-.21.07q-.17-.18-1.14-.21a1.46,1.46,0,0,0-.67,0C95.09,111.13,94.86,111.2,94.6,111.26Z"/><path class="cls-2" d="M106.21,117.28l-.12-.38a1.31,1.31,0,0,1,0-.62.47.47,0,0,0-.3-.49,1.22,1.22,0,0,0-.42.19.89.89,0,0,1-.44.14,1.94,1.94,0,0,0-.33,0,.65.65,0,0,0-.28,0c-.08,0-.17,0-.26-.19a.7.7,0,0,1,0-.6.87.87,0,0,1,.42-.49,3.14,3.14,0,0,1,.76-.23,2,2,0,0,0,.68-.24,1.9,1.9,0,0,0,.27-.23.85.85,0,0,1,.16-.17,2.47,2.47,0,0,1,.6-.21c.09,0,.16-.13.21-.17a.85.85,0,0,1,.85.15,4.2,4.2,0,0,0,.59.5.48.48,0,0,0,.13.42,1.16,1.16,0,0,1,.29.41.86.86,0,0,1,.09.4.41.41,0,0,0,.24.34.8.8,0,0,0,.72-.41,7.43,7.43,0,0,1,.43-.69l.36-.29a1.16,1.16,0,0,1,.29-.2,1.05,1.05,0,0,0,.26-.13.48.48,0,0,0,.15-.28.46.46,0,0,1,.1-.2,2.09,2.09,0,0,1,.37-.22c.21-.11.29-.22.26-.34a4.57,4.57,0,0,0,1.15-.17,6.81,6.81,0,0,1,.92-.19,2.4,2.4,0,0,0,.68-.15.93.93,0,0,1,.38.17,2.48,2.48,0,0,0,.4.22.41.41,0,0,1,.25.27.71.71,0,0,0,.22.36,3.64,3.64,0,0,1,.42.46,7.07,7.07,0,0,1,.33.7,1.63,1.63,0,0,1,.15.64,2.56,2.56,0,0,1-.07.64c0,.19-.09.39-.14.6a.72.72,0,0,0-.31.53,2.15,2.15,0,0,0-.54.58.94.94,0,0,1-.29.34.83.83,0,0,1-.38.07,3.39,3.39,0,0,0-.46,0,1.1,1.1,0,0,1-.49-.07,2.62,2.62,0,0,0-.62-.12.32.32,0,0,1-.11-.12.48.48,0,0,0-.11-.15.68.68,0,0,0-.19-.11.62.62,0,0,1-.22-.19c-.3-.36-.34-.79-.13-1a4.4,4.4,0,0,1,.83-.4c.19-.09.35,0,.48.28a.86.86,0,0,0,.5-.21c.08-.14.09-.38.14-.42a.31.31,0,0,0,.05-.27.45.45,0,0,1,0-.24c-.09-.2-.13-.3-.21-.5a1.33,1.33,0,0,0-.17-.19l-.21-.21a.63.63,0,0,0-.33-.21.78.78,0,0,0-.54.17,1.14,1.14,0,0,1-.7.19.61.61,0,0,0-.29.35.5.5,0,0,1-.36.32c-.53.57-.91,1-1.14,1.18,0,.08,0,.15-.11.22a.49.49,0,0,0-.21.26,1.28,1.28,0,0,0-.07.26.6.6,0,0,1-.08.24.7.7,0,0,0-.09.23.29.29,0,0,1-.06.17.39.39,0,0,0,0,.28,1.06,1.06,0,0,1,0,.36.7.7,0,0,0-.14.38.25.25,0,0,1,0,.19.44.44,0,0,1-.13.14.26.26,0,0,0-.09.19q.18.19.09.36a.42.42,0,0,0,.07.43.51.51,0,0,1,.15.32,2,2,0,0,0,.06.39,3.12,3.12,0,0,1,.09.44c0,.16.05.36.1.63a.29.29,0,0,0,0,.27.38.38,0,0,1,.11.27l0,.42a3.31,3.31,0,0,0,.1.44,2.29,2.29,0,0,1,.09.44,1.78,1.78,0,0,0,.08.46c0,.18.07.28,0,.3s0,.07,0,.13a1.12,1.12,0,0,0,.1.18.51.51,0,0,1,.06.2c0,.13,0,.2,0,.34s.07.24.11.39a2.16,2.16,0,0,0,.18.71,1.68,1.68,0,0,1,.11.72c0,.06.07.14.14.26s.12.24.18.38.35.17.89.1l1-.19a2,2,0,0,1,.24.54,1,1,0,0,1,0,.58l-1.17.33a2.79,2.79,0,0,1-.47.14c-.16,0-.3.27-.41.35-.28.21-.91.24-1,.34a.45.45,0,0,1-.39.1.58.58,0,0,0-.35,0,1,1,0,0,0-.22.15.83.83,0,0,1-.63.2.69.69,0,0,0-.59.21,1.42,1.42,0,0,1-.34.3c-.56,0-.87,0-.94.13-.18.26-.61.31-.73.16a1.37,1.37,0,0,1,.24-1.45,1.6,1.6,0,0,1,.47-.21.61.61,0,0,0,.4-.25.48.48,0,0,0,.29-.15,1.55,1.55,0,0,1,.24-.19c-.14-.6-.24-1.11-.3-1.52a6,6,0,0,0-.17-.91c-.06-.19-.11-.39-.15-.58a8.66,8.66,0,0,1-.17-.88c-.07-.39-.13-.74-.19-1a4.41,4.41,0,0,0-.22-.74,5.1,5.1,0,0,1-.23-.86q-.11-.54-.3-1.23l-.12-.45a.44.44,0,0,1,0-.27.56.56,0,0,0,0-.21s-.08-.44-.23-1.18a10.66,10.66,0,0,1-.22-1.31A1.05,1.05,0,0,0,106.21,117.28Z"/><path class="cls-2" d="M126.84,117.46a3.32,3.32,0,0,0-.07,1.08.7.7,0,0,1-.12.53,2.11,2.11,0,0,0-.26.26,2.46,2.46,0,0,0,0,.26.2.2,0,0,1-.07.2c-.4,0-.79,0-1.18,0a1.87,1.87,0,0,0-1,.24.32.32,0,0,1-.22,0,.34.34,0,0,0-.16-.07,1.91,1.91,0,0,0-.38.23.48.48,0,0,1-.45.09.69.69,0,0,0-.47,0,2.91,2.91,0,0,0-1.12.69,3.05,3.05,0,0,1,0,.67,2,2,0,0,0,.06.6c0,.16.06.23.09.39a.41.41,0,0,1,0,.22.55.55,0,0,0,0,.24.81.81,0,0,0,.1.3.33.33,0,0,1,0,.33c0,.1.09.2.14.3a.73.73,0,0,1,0,.4.65.65,0,0,0,.1.22.55.55,0,0,1,.12.23.88.88,0,0,1,0,.38,1.35,1.35,0,0,0,0,.38,2.89,2.89,0,0,1,.11.35,1.39,1.39,0,0,0,.32.49c.17.2.23.36.17.49a1.79,1.79,0,0,1,.27.29,1,1,0,0,0,.27.27,4,4,0,0,1,.5.12,1.1,1.1,0,0,0,.57.1,1.59,1.59,0,0,0,.8-.33c.3-.21.52-.33.6-.38a.3.3,0,0,0,.1-.24.34.34,0,0,1,.1-.25.35.35,0,0,1,.16-.1.63.63,0,0,0,.21-.1,1.5,1.5,0,0,0,.25-.19,1.48,1.48,0,0,1,.32-.24c.14-.09.34,0,.58.14a.7.7,0,0,1,0,.52l-.17.31q-.09.16,0,.21s0,.09,0,.2a.52.52,0,0,0-.17.4.53.53,0,0,0-.27.24.66.66,0,0,1-.26.29.81.81,0,0,1-.33.13,1,1,0,0,0-.36.14.84.84,0,0,0-.3.29,1.24,1.24,0,0,1-.37.34,1.81,1.81,0,0,0-.42,0,1.58,1.58,0,0,1-1,.28c-.37,0-.76-.06-1.18-.07a9.82,9.82,0,0,0-1.1-.64c-.2-.17-.52-.65-1-.73a.25.25,0,0,0-.15-.24c-.1,0-.15-.13-.16-.3a.22.22,0,0,1-.2-.14.32.32,0,0,0-.21-.16.24.24,0,0,0-.09-.14s0-.09,0-.2a.37.37,0,0,1-.24-.18,1.74,1.74,0,0,0-.22-.27,5.8,5.8,0,0,1-.3-.57,5.27,5.27,0,0,0-.23-.5,2,2,0,0,1-.19-.83l-.28-.5a.5.5,0,0,0,0-.32,1.36,1.36,0,0,1-.07-.35c0-.19,0-.28,0-.47a3.59,3.59,0,0,0,0-.72,2.39,2.39,0,0,1,0-.7c0-.15,0-.23.06-.38a.59.59,0,0,0,0-.23.77.77,0,0,1,0-.34c0-.16.09-.35.16-.56a2.44,2.44,0,0,0,.11-.44,1.1,1.1,0,0,1,.06-.32,1.33,1.33,0,0,1,.13-.35l.15-.34a1,1,0,0,0,.06-.31.37.37,0,0,1,.12-.29,2.06,2.06,0,0,0,.19-.25l.13-.2a2.14,2.14,0,0,0,.13-.19.79.79,0,0,1,.24-.47.46.46,0,0,0,.15-.43c.11,0,.17-.06.18-.14a.58.58,0,0,1,.24-.28,1.9,1.9,0,0,0,.28-.22,2.12,2.12,0,0,1,.35-.27,1.2,1.2,0,0,0,.44-.59c.11.07.18.1.21.06l.21-.15a.58.58,0,0,1,.25-.11.58.58,0,0,0,.27-.12.46.46,0,0,1,.32-.1.32.32,0,0,0,.27-.08,2.17,2.17,0,0,1,.8-.11,2.13,2.13,0,0,0,.71-.08.39.39,0,0,1,.25.2.83.83,0,0,0,.21.24.43.43,0,0,0,.21.11,1.08,1.08,0,0,1,.26.15l.23.16a.51.51,0,0,1,.14.15.84.84,0,0,0,.18.21,1.22,1.22,0,0,1,.23.29,2.18,2.18,0,0,1,.22.48,1.91,1.91,0,0,0,.31.58.51.51,0,0,0,0,.37.77.77,0,0,0,.12.24A1.64,1.64,0,0,1,126.84,117.46Zm-3.46,1.47.41-.12a2.88,2.88,0,0,1,.51-.1,1.34,1.34,0,0,0,.52-.13c.13-.18,0-.85-.2-1.14a.38.38,0,0,0-.08-.41.6.6,0,0,1-.14-.47,2.85,2.85,0,0,0-.43-.35.49.49,0,0,0-.08-.28,1.93,1.93,0,0,0-.13-.21.65.65,0,0,0-.33-.06.43.43,0,0,1-.26-.1,2.22,2.22,0,0,1-1.34.73,1.1,1.1,0,0,1-.19.76,1,1,0,0,0,0,.24v.19a.44.44,0,0,0-.12.4,1.08,1.08,0,0,1-.11.56.78.78,0,0,0-.06.58,1.82,1.82,0,0,0,.82,0,4.72,4.72,0,0,1,.72-.09Z"/><path class="cls-2" d="M134.87,103.41a2.77,2.77,0,0,1,1.8-.62,1.84,1.84,0,0,0,.38,0,1,1,0,0,1,.28,0,1.39,1.39,0,0,1,.34.06.83.83,0,0,0,.43,0c.2,0,.47.08.83.36a2.37,2.37,0,0,0,.7.45c0,.07.11.16.35.27a1.23,1.23,0,0,1,.41.27.31.31,0,0,1,0,.19.44.44,0,0,0,.12.28c.1.13.14.21.13.23s0,.1.07.24a.86.86,0,0,0,.19.29.78.78,0,0,1,.16.15s0,.13,0,.27a.7.7,0,0,0,0,.53,1.86,1.86,0,0,1,.09.78c-.13.29-.2.43-.34.72a2.49,2.49,0,0,1-.19.42.66.66,0,0,0-.18.33c0,.15-.11.25-.32.32a3.42,3.42,0,0,0-.89.54c-.25.07-.37.12-.37.15s-.06,0-.18,0a.69.69,0,0,0-.35,0,.78.78,0,0,1-.43,0,.85.85,0,0,0-.17-.1c-.06,0-.08-.08-.06-.19a.43.43,0,0,0-.26,0,.28.28,0,0,1-.27,0c-.06-.08-.14-.32-.32-.4a.55.55,0,0,1-.32-.39l.51-.39a.34.34,0,0,0,.27,0,.73.73,0,0,1,.35,0,2.48,2.48,0,0,1,.38.17.74.74,0,0,0,1-.23,2.13,2.13,0,0,0,.49-.9c.05-.27.1-.51.15-.74a.59.59,0,0,1-.11-.45c0-.15-.13-.34-.22-.49s-.11-.43-.18-.48S139,105,139,105a2.9,2.9,0,0,0-.45-.19l-.45-.24a1.33,1.33,0,0,0-.53-.13.85.85,0,0,1-.52-.21,1.16,1.16,0,0,0-.83.37,4.83,4.83,0,0,1-.66.48c-.12.11-.24.41-.37.56a1.29,1.29,0,0,0-.25.67c0,.3-.07.56-.09.77a1.41,1.41,0,0,1-.14.57.89.89,0,0,0-.09.5c0,.16,0,.44.08.83a12.84,12.84,0,0,1,.07,1.52,3.4,3.4,0,0,0-.07.34l.15.59,0,.68a1.53,1.53,0,0,0,.09.65l-.08.43.1,1.39s.09,0,.13.1a.37.37,0,0,0,.48.09.79.79,0,0,1,.5-.08c.14,0,.23,0,.28-.06a.42.42,0,0,0,.43.07,2.2,2.2,0,0,1,.41-.12,1.56,1.56,0,0,1,.48,0l.52,0a2.18,2.18,0,0,0,.45,0,.36.36,0,0,1,.32.14,1,1,0,0,1,.15.52,2.08,2.08,0,0,1,0,.51.81.81,0,0,1-.49.13.89.89,0,0,1-.48-.18.38.38,0,0,0-.26.13.24.24,0,0,1-.23.1l-.51,0c-.21,0-.33,0-.37,0s-.08,0-.15,0l-.25.09a1.6,1.6,0,0,1-.93.15.89.89,0,0,1-.31.19.51.51,0,0,0-.26.24.34.34,0,0,0,0,.31,3.4,3.4,0,0,1,.06,1l-.05.86c0,.44,0,.83,0,1.18a7.89,7.89,0,0,1,0,.88,2,2,0,0,0,0,.6,4.37,4.37,0,0,1,.09.5,10,10,0,0,1,.06,1.18v.46c0,.15.05.22.08.37a1.9,1.9,0,0,1-.05.4.82.82,0,0,0,0,.41c0,.12.05.22.07.29a.24.24,0,0,1,0,.17l-.13.43c.07.69.1,1,.17,1.74a1.48,1.48,0,0,0,0,.34c0,.18.07.28.11.46,0,.44,0,.65,0,1.09,0,.28,0,.68,0,1.19a5.66,5.66,0,0,0,0,1.22c0,.09.15.18.28.22a1,1,0,0,1,.35.2,1.24,1.24,0,0,0,.45-.14.52.52,0,0,1,.41-.06.41.41,0,0,1,.27.2.55.55,0,0,0,.29.21,1.58,1.58,0,0,1,.1.94,1,1,0,0,0-.28.15.7.7,0,0,1-.46.08.69.69,0,0,0-.54.14.6.6,0,0,1-.38.18.73.73,0,0,0-.3,0,.9.9,0,0,0-.22.1.84.84,0,0,1-.23.12.32.32,0,0,1-.29-.09c0-.05-.1,0-.2,0a1.34,1.34,0,0,0-.47-.13,1.59,1.59,0,0,0-.48.08,1.5,1.5,0,0,0-.32.12.38.38,0,0,1-.11.08.2.2,0,0,1-.17,0,.25.25,0,0,0-.19,0,1.18,1.18,0,0,0-.19.11.7.7,0,0,1-.17.09,1.29,1.29,0,0,0-1.06.18c-.44.22-.73.31-.86.26a1.81,1.81,0,0,1-.37-.14,1.15,1.15,0,0,1-.06-.52,3.57,3.57,0,0,1,0-.53,1.47,1.47,0,0,0,.38-.18.31.31,0,0,1,.17-.1l.4-.18a2.72,2.72,0,0,1,.51-.23,1.93,1.93,0,0,0,.48-.3A2.08,2.08,0,0,0,132,132a.6.6,0,0,1,.35-.53.3.3,0,0,0-.14-.19c-.08-.06-.12-.34-.11-.84a7.44,7.44,0,0,1-.25-1.57,5,5,0,0,0-.07-.93c0-.27-.06-.41-.11-.68,0-.42,0-.63-.06-1.05l-.2-2a2,2,0,0,1,.09-.62,2.12,2.12,0,0,1-.18-.87c-.14-1.23-.22-2.13-.22-2.68V118.7a.78.78,0,0,0,0-.38,2.86,2.86,0,0,1-.06-1.17,2.33,2.33,0,0,0-.32-1c-.64-.14-1-.16-1.13-.07a.69.69,0,0,1-.72.15.36.36,0,0,0-.38.1.6.6,0,0,1-.45-.21.76.76,0,0,0-.26,0,.13.13,0,0,1-.16-.1c-.07-.29.12-.56.56-.82.19,0,.3-.09.31-.13s.06-.09.15-.16a.71.71,0,0,1,.46,0,3,3,0,0,0,.78,0l.84-.13a.8.8,0,0,0,.23,0c0-.16,0-.24.06-.4s0-.28-.06-.47a3.16,3.16,0,0,1,.08-.74,1.7,1.7,0,0,0,0-.71l-.1-1.24a4.34,4.34,0,0,1,.17-.4,2.32,2.32,0,0,0,0-.8,3.8,3.8,0,0,1,0-.76,2,2,0,0,1,.1-.46.81.81,0,0,0,.07-.22,1.6,1.6,0,0,1,.05-.21.93.93,0,0,0,0-.24.31.31,0,0,1,.07-.21,4.65,4.65,0,0,0,.34-.8c.11-.35.19-.59.24-.71a1.72,1.72,0,0,0,.07-.37.33.33,0,0,0,.18-.22,2.14,2.14,0,0,1,.17-.34,4.11,4.11,0,0,1,.4-.46c.18-.18.33-.49.45-.61a4.92,4.92,0,0,0,.9-.82.33.33,0,0,0,.33-.07C134.6,103.38,134.71,103.37,134.87,103.41Z"/><path class="cls-2" d="M148.3,118.42a3,3,0,0,0-.2,1.06.72.72,0,0,1-.2.51l-.29.21c0,.09,0,.17,0,.27a.19.19,0,0,1-.09.19c-.4-.07-.78-.13-1.17-.18a2,2,0,0,0-1,.1.34.34,0,0,1-.22,0,.36.36,0,0,0-.15-.1,2.1,2.1,0,0,0-.4.18.45.45,0,0,1-.46,0,.72.72,0,0,0-.46-.07,2.6,2.6,0,0,0-1.2.52,3.55,3.55,0,0,1,0,.66,1.74,1.74,0,0,0,0,.6c0,.17,0,.25,0,.41a.25.25,0,0,1,0,.21.7.7,0,0,0-.06.23.67.67,0,0,0,.06.32.3.3,0,0,1-.07.32c0,.1.07.21.1.32a.68.68,0,0,1,0,.39.56.56,0,0,0,.08.24.93.93,0,0,1,.09.24,1.27,1.27,0,0,1,0,.39,1,1,0,0,0,0,.39q0,.17.06.36a1.51,1.51,0,0,0,.25.53c.15.22.18.39.12.51a2.19,2.19,0,0,1,.23.33.82.82,0,0,0,.23.3,3.08,3.08,0,0,1,.48.2,1.37,1.37,0,0,0,.56.18,1.63,1.63,0,0,0,.83-.21,4.65,4.65,0,0,1,.64-.29.3.3,0,0,0,.13-.22.39.39,0,0,1,.12-.24.41.41,0,0,1,.18-.07l.22-.07a1.28,1.28,0,0,0,.27-.16,2.64,2.64,0,0,1,.35-.19c.15-.06.34,0,.56.22a.8.8,0,0,1-.06.53l-.21.28c-.07.1-.08.16,0,.2s0,.1,0,.2a.6.6,0,0,0-.22.38.48.48,0,0,0-.29.2.63.63,0,0,1-.29.24.79.79,0,0,1-.35.09.92.92,0,0,0-.37.08.83.83,0,0,0-.33.25,1.33,1.33,0,0,1-.42.28,2.1,2.1,0,0,0-.41-.08,1.49,1.49,0,0,1-1.07.13l-1.15-.24a10,10,0,0,0-1-.79c-.17-.2-.43-.72-.9-.88a.23.23,0,0,0-.12-.25c-.09-.05-.13-.16-.12-.32a.23.23,0,0,1-.18-.17.73.73,0,0,1-.26-.34s0-.1,0-.2a.47.47,0,0,1-.22-.22,1.69,1.69,0,0,0-.18-.3,5.07,5.07,0,0,1-.22-.6c0-.11-.09-.29-.17-.54a1.91,1.91,0,0,1-.09-.84c-.08-.22-.13-.32-.22-.54a.5.5,0,0,0,0-.32,1.1,1.1,0,0,1,0-.36c0-.18.05-.27.08-.46a4.16,4.16,0,0,0,0-.72,2.56,2.56,0,0,1,.07-.7c0-.14.06-.22.11-.36a.62.62,0,0,0,0-.23,1,1,0,0,1,.08-.34c.06-.15.14-.33.23-.53a2.23,2.23,0,0,0,.17-.42,1.21,1.21,0,0,1,.09-.3,1.74,1.74,0,0,1,.18-.33l.19-.32a.78.78,0,0,0,.09-.3.43.43,0,0,1,.16-.27,2.24,2.24,0,0,0,.22-.22,1.14,1.14,0,0,1,.15-.17,1.19,1.19,0,0,0,.15-.18.89.89,0,0,1,.3-.43.41.41,0,0,0,.2-.4.17.17,0,0,0,.2-.11.54.54,0,0,1,.27-.24,2,2,0,0,0,.3-.18,3.47,3.47,0,0,1,.39-.22,1.15,1.15,0,0,0,.5-.52q.15.14.21.09l.21-.12a.71.71,0,0,1,.27-.07.54.54,0,0,0,.28-.08.45.45,0,0,1,.33,0,.32.32,0,0,0,.28,0,2.2,2.2,0,0,1,.81,0,1.7,1.7,0,0,0,.71,0,.45.45,0,0,1,.23.24.69.69,0,0,0,.17.26.65.65,0,0,0,.2.15,1.22,1.22,0,0,1,.24.18l.21.19a.56.56,0,0,1,.11.17,1.11,1.11,0,0,0,.16.24,1.27,1.27,0,0,1,.19.31,2,2,0,0,1,.16.52,2.9,2.9,0,0,0,.23.62.57.57,0,0,0,0,.37,1.14,1.14,0,0,0,.09.26A2.42,2.42,0,0,1,148.3,118.42Zm-3.62,1,.42-.05a2.24,2.24,0,0,1,.52,0,1.29,1.29,0,0,0,.53-.05c.15-.16.07-.86-.06-1.16a.38.38,0,0,0,0-.42.6.6,0,0,1-.09-.49,2.82,2.82,0,0,0-.38-.41.55.55,0,0,0,0-.28,1.67,1.67,0,0,0-.11-.23.67.67,0,0,0-.32-.11.38.38,0,0,1-.24-.13,2.23,2.23,0,0,1-1.43.52,1.08,1.08,0,0,1-.27.72.74.74,0,0,0-.05.25v.18a.41.41,0,0,0-.17.38,1,1,0,0,1-.18.54c-.12.19-.19.5-.14.56s.57.09.82.09a5.87,5.87,0,0,1,.73,0Z"/><path class="cls-2" d="M155.56,126.73l.81,0,1.08-.14.55-.3a.4.4,0,0,1,.17.08.77.77,0,0,0,.35.07.43.43,0,0,1,.39.23c.11.16.13.28.07.36a.38.38,0,0,0-.07.32,1.44,1.44,0,0,1-.8.53.28.28,0,0,1-.22.11,1.56,1.56,0,0,0-.32.07,2.23,2.23,0,0,0-.43.2,1.53,1.53,0,0,1-.66.15,3.1,3.1,0,0,0-.76.15.12.12,0,0,0-.15-.08.35.35,0,0,1-.2,0l-.45-.07-.47,0a2,2,0,0,0-.84-.19.82.82,0,0,1-.56-.15c-.18-.12-.26-.2-.24-.23a.08.08,0,0,0,0-.08.56.56,0,0,1-.28-.27l-.11-.25a1,1,0,0,0-.4-.21c-.14,0-.18-.29-.23-.36s-.43-.2-.52-.29a.93.93,0,0,1-.23-.57.72.72,0,0,0-.31-.57,2.69,2.69,0,0,1-.25-.77.89.89,0,0,0-.24-.54,3.51,3.51,0,0,0-.13-1.21,1.6,1.6,0,0,1,.13-1.32,1.45,1.45,0,0,0,0-.4,1.62,1.62,0,0,0,.25-.64,4.87,4.87,0,0,1,.13-.59,2.55,2.55,0,0,1,.12-.33,3,3,0,0,0,.33-.65,2.83,2.83,0,0,1,.3-.65c.1-.16.16-.37.21-.42a1,1,0,0,0,.27-.26,2.16,2.16,0,0,1,.39-.44,1.35,1.35,0,0,0,.36-.49.35.35,0,0,0,.25-.12l.21-.22a.36.36,0,0,0,.26-.1.67.67,0,0,1,.36-.16,1.39,1.39,0,0,0,.44-.2,1,1,0,0,1,.43-.2.8.8,0,0,0,.33-.12.15.15,0,0,1,.12,0l.37,0a.73.73,0,0,1,.19.07,1.47,1.47,0,0,0,1.09-.26c.28.07.52.14.73.21a.57.57,0,0,0,.59-.16.37.37,0,0,1,.18.2.36.36,0,0,0,.18.21.91.91,0,0,1,.69.27,3,3,0,0,1,.4.56,1.37,1.37,0,0,0,.23-.2c.09-.09.2-.21.36-.36a1.08,1.08,0,0,1,.51-.28.45.45,0,0,1,.42.1,2.13,2.13,0,0,1,.23.32c.06.1.05.17,0,.2s-.07.1,0,.21v.38a2.49,2.49,0,0,0-.14.35l-.15.41a.32.32,0,0,0,0,.21,2,2,0,0,1-.18.6,3.73,3.73,0,0,0-.25,1.17,3.63,3.63,0,0,1-.1.79c0,.1-.08.21-.12.34a.66.66,0,0,1-.15.27.52.52,0,0,0-.2.15.31.31,0,0,1-.1.1l-.44.17a.54.54,0,0,1-.62-.37,3.82,3.82,0,0,1-.16-.79,2.84,2.84,0,0,0,.27-1.52l0-.21a.83.83,0,0,0-.15-.5,1,1,0,0,1-.16-.36s0-.06,0-.11a3.5,3.5,0,0,1-.54-.32l-.47-.33a.55.55,0,0,1-.29,0,.52.52,0,0,0-.28,0c-.1,0-.16.05-.19.11a.18.18,0,0,1-.15.1l-.42,0c-.32.07-.49.17-.52.29a.55.55,0,0,1-.22.31.14.14,0,0,1-.18.09.15.15,0,0,0-.17.1.7.7,0,0,0-.25.27,3,3,0,0,1-.19.33l-.16.25a.76.76,0,0,0-.08.23.63.63,0,0,1-.09.2.48.48,0,0,0-.11.19l-.11.26a.62.62,0,0,0-.08.24.27.27,0,0,1-.12.18.79.79,0,0,0-.22.32,1.9,1.9,0,0,0-.15.67,2.38,2.38,0,0,1-.18.71c-.08.19-.11.32-.06.39a1.33,1.33,0,0,1,.11.24,2.71,2.71,0,0,0,0,1.78.53.53,0,0,0,.25.26.62.62,0,0,0,0,.56,1.54,1.54,0,0,1,.29.61,2.71,2.71,0,0,1,.4.35,2.71,2.71,0,0,0,.34.34c.2.11.49.16.56.28A.57.57,0,0,0,155.56,126.73Z"/><path class="cls-2" d="M170.6,116.55l.46.09a1.78,1.78,0,0,1,.43.18.79.79,0,0,0,.49.1,2,2,0,0,1,.4.48.91.91,0,0,1,0,.49c-.18.38-.6.42-1.26.13l-.42.06a1.17,1.17,0,0,1-.47-.09,1.52,1.52,0,0,0-.43-.1,1.09,1.09,0,0,1-.36,0,.84.84,0,0,1-.33-.1s-.08,0-.22.14-.21.21-.21.3,0,.24-.08.44l-.15.67a3.68,3.68,0,0,1-.21.67,1.34,1.34,0,0,0-.13.44,1.11,1.11,0,0,1-.07.4,1,1,0,0,1-.21.44,2,2,0,0,0-.23.32.2.2,0,0,0,0,.29c.1.08.1.2,0,.37a3.59,3.59,0,0,1-.17.34.64.64,0,0,0-.05.23.49.49,0,0,1,0,.25l-.22.42a.48.48,0,0,1,0,.35.69.69,0,0,0-.07.34c0,.16,0,.25-.08.28s-.08.12-.09.28a.65.65,0,0,1-.1.34.53.53,0,0,0-.12.25c0,.28,0,.41-.08.68a.94.94,0,0,1-.25.42,1.7,1.7,0,0,1-.07.63,1.87,1.87,0,0,0-.1.62c0,.23,0,.34,0,.57,0,.06,0,.14,0,.23a.38.38,0,0,1,0,.24l-.19.33a2.15,2.15,0,0,0,0,.44,1.94,1.94,0,0,1,0,.77,1.72,1.72,0,0,0,0,.53,1.59,1.59,0,0,0,.13.51,1.2,1.2,0,0,1,.13.5.86.86,0,0,0,0,.31,1.27,1.27,0,0,0,.25.24.18.18,0,0,1,.1,0,1,1,0,0,0,.31.37.86.86,0,0,1,.27.2.61.61,0,0,0,.4.14.67.67,0,0,0,.45-.13.45.45,0,0,1,.48,0,.44.44,0,0,0,.22-.18.32.32,0,0,1,.21-.15c.39-.25.61-.47.66-.67l.13-.54a.75.75,0,0,0,0-.33,1.92,1.92,0,0,1-.05-.29c-.17-.11-.24-.19-.23-.24s0-.09-.15-.12a.47.47,0,0,0-.26,0,3.69,3.69,0,0,0-.28.29c-.07.1-.2.12-.37.07a1.33,1.33,0,0,1-.55-.34,1.06,1.06,0,0,1-.1-.77,1.26,1.26,0,0,0,.11-.53,3.24,3.24,0,0,1,1.47-.59.6.6,0,0,1,.37.11,1.08,1.08,0,0,0,.41.16.88.88,0,0,1,.48.33,1.1,1.1,0,0,0,.48.38,2.59,2.59,0,0,1,.08.79,1.62,1.62,0,0,0,.14.78.93.93,0,0,0-.09.39.4.4,0,0,1-.12.32.6.6,0,0,1,0,.68c-.15.2-.26.36-.36.48a1.33,1.33,0,0,0-.19.4.73.73,0,0,0-.42.21.7.7,0,0,1-.45.17.64.64,0,0,1-.31.45,1.82,1.82,0,0,0-.4.3,1.76,1.76,0,0,0-.8,0,8.47,8.47,0,0,0-1.09.08.89.89,0,0,0-.62-.1c-.45-.44-.83-.64-1.12-.61a.84.84,0,0,0-.29-.3.49.49,0,0,1-.23-.28.4.4,0,0,1-.35-.13c-.06-.09-.23-.18-.27-.25s-.07-.23-.14-.36a2.3,2.3,0,0,1-.18-.43,4.26,4.26,0,0,0-.26-.66,1.58,1.58,0,0,1-.18-.58,2.13,2.13,0,0,0,0-.58,9.45,9.45,0,0,1,.05-1,.9.9,0,0,0-.1-.27,1.15,1.15,0,0,1-.1-.33.81.81,0,0,1,.05-.37.22.22,0,0,0-.07-.28.67.67,0,0,0,.09-.58,1.78,1.78,0,0,1,0-.66,2.26,2.26,0,0,1,.18-.7,1,1,0,0,0,0-.72,1.6,1.6,0,0,0,.22-1,5.62,5.62,0,0,1,.18-1.33c.11-.42.19-.77.24-1.06a4,4,0,0,1,.21-.83,11.29,11.29,0,0,0,.41-1.42l.11-.61c.14-.61.2-.92.34-1.53a.77.77,0,0,0-.61-.39,2.45,2.45,0,0,0-1,0,.93.93,0,0,1-.83-.19c-.14-.08-.24-.07-.3,0s-.13.07-.23,0a1.9,1.9,0,0,1-.39-1q0-.22.39-.33a2.09,2.09,0,0,0,.42-.14,3.07,3.07,0,0,1,.76.07,7,7,0,0,0,2.2.11,3.09,3.09,0,0,0,.34-.79,4.22,4.22,0,0,1,.19-.62,1.63,1.63,0,0,1,.14-.31,1.31,1.31,0,0,0,.09-.17.47.47,0,0,0,0-.2.48.48,0,0,1,.14-.3.81.81,0,0,0,.19-.35q.19-.24.15-.33a.27.27,0,0,1,0-.21,1.41,1.41,0,0,1,.22-.32.75.75,0,0,0,.15-.5,2.32,2.32,0,0,1,.92-.63,7.77,7.77,0,0,0,1,0,2.63,2.63,0,0,0,.43.61,6.62,6.62,0,0,1-.29,3.74,1,1,0,0,1-.07.2.52.52,0,0,0,0,.29.73.73,0,0,0,.16.38.76.76,0,0,0,.3.27.35.35,0,0,0,.26,0,.49.49,0,0,1,.24,0Z"/></svg>