<svg id="Layer_1" data-name="Layer 1" xmlns="http://www.w3.org/2000/svg" xmlns:xlink="http://www.w3.org/1999/xlink" viewBox="0 0 499.4 523.97"><defs><style>.cls-1{fill:none;}.cls-2{fill:#1c203e;}.cls-3,.cls-4{fill:#946b2c;}.cls-3{stroke:#946b2c;stroke-miterlimit:10;}.cls-5{fill:#fff;}.cls-6{fill:#736255;}.cls-7{fill:#5e5e5e;}.cls-8{fill:#eeba30;}.cls-9{fill:#010101;}.cls-10{fill:#1b1b1b;}.cls-11{clip-path:url(#clip-path);}.cls-12{opacity:0.1;}.cls-13{mask:url(#mask);}.cls-14{fill:#faf8d4;}.cls-15{fill:#343434;}.cls-16{fill:#4e4d4d;}.cls-17{fill:#1d1d1b;}.cls-18{filter:url(#luminosity-noclip);}</style><clipPath id="clip-path"><path class="cls-1" d="M284.67,177.42c-1.15-1.44-3.06-2.72-4-4.31s2.51-4.16,2.86-5.88c.19-.95-2.34-1.72-2.07-2.42a6.6,6.6,0,0,1,.19-2.08.86.86,0,0,1-.37-.06,9.81,9.81,0,0,1-1.21.06,2.92,2.92,0,0,1,.29-.34,23,23,0,0,0-3.05.43,3.3,3.3,0,0,0,.35-.87c-.52,0-1.05.05-1.58.09.31-.2.52-.45.82-.68l-1.2.1c.29-.84,1.25-.87,1.72-1.45-.37,0-.78,0-1.14,0,.76-1.08,2.67-1.13,3.52-1.68-.19,0-.39,0-.58,0,1.21-.13,2.28-.68,3.53-.73l-1.8.12c.93-.13,1.7-.61,2.71-.67l-2.45.16c.68-.33,2-.43,2.85-.89-.28,0-.61,0-.91,0a9.37,9.37,0,0,0,1.46-.68,5.29,5.29,0,0,1-1.32,0,5.13,5.13,0,0,1,1.66-.53c-.55-.13-7.2-.64-8.37-.62-2.08,0-4-.42-6.11-.36a19.77,19.77,0,0,0-6.24,1.49c-3.36,1.22-5.09,4.57-6.59,7.7a28.28,28.28,0,0,1-2.67,5.11c-1.24,1.66-.4,3.41-1.93,4.91s-2.7,2.8-4.21,4-3.69,2.2-5.09,3.59a37.15,37.15,0,0,0-4.39,5c-1.25,1.82-2.14,3.93-3.26,5.88a34.87,34.87,0,0,1-4.2,5.55c-1.7,2-2.59,4.18-3.88,6.39-1.58,2.69-3.41,5.13-5.11,7.69a14.51,14.51,0,0,1-6.13,5.27l-.36.15a22.5,22.5,0,0,0-3.86,1.49c-1.21.7-2.18,1.55-3.42,2.26a44.08,44.08,0,0,1-4.82,2.13c-1.54.66-2.73,1.71-4.34,2.35-2.16.87-3.37,2.62-5,4-1.09.95-4.07,1.89-3.64,3.56a18.28,18.28,0,0,0,3.81-.68c1.28-.27,2.23-1.25,3.52-1.47a14.42,14.42,0,0,0-3.4,2.63c-1.54,1.44-3.85,2.32-5.3,3.82-.32.33-1.3,1.34-.81,1.84s1.77,0,2.23-.17c1.41-.52,2.76-1.57,4.4-1.49a.82.82,0,0,0,.31.74c.66.45,1.57,0,2.33-.12a18.2,18.2,0,0,1,2.69-.28c-.92.87-1.65,1.93-2.53,2.85s-3.37,1.84-3,3.51a12.64,12.64,0,0,0,3.17-.63c1.06-.26,1.85-1.23,2.92-1.43a12.29,12.29,0,0,0-2.8,2.58c-1.27,1.43-3.19,2.28-4.38,3.76-.26.33-1.07,1.33-.65,1.83s1.47,0,1.85-.14c1.17-.51,2.29-1.54,3.65-1.44a.93.93,0,0,0,.27.74c.56.45,1.31,0,1.94-.09a13.08,13.08,0,0,1,2.65-.26c1.33,0,2.68-1,3.85-1.7a15.16,15.16,0,0,0,2.31-1.53c.64-.57,1-1.4,1.64-2a13.22,13.22,0,0,0,3.36-3.69c.52.48-.14.91,0,1.47a12,12,0,0,0,1.65-1.69c.4-.53.58-1.29,1.11-1.75a17.51,17.51,0,0,1,4.7-2.9h.12a13,13,0,0,0,2.52-.77c1.13-.26,1.87.29,2.91.14a13.22,13.22,0,0,0,6-3.09,17.12,17.12,0,0,0-2,2.69,13.59,13.59,0,0,0,3-2.46c.88-.81,2-1.44,2.87-2.26l.17.35c-.49.62-1.06,1.19-1.52,1.76a10.53,10.53,0,0,1,1.7-1.4c1.26,2.42,3.34,5.51,3.32,6.73s.44,1.49.84,2.4c.31.73.34,1.32.93,1.8.84.68,1.34.24,2.24.19s1.38.5,2.14.34a36.6,36.6,0,0,0,0-3.79c-.15-1.16-.81-2.1-.55-3.39.16-.79.47-1.35.57-2.12a10.69,10.69,0,0,1,.23-1.76,8.12,8.12,0,0,1,.8-1.62,17,17,0,0,0,1.11-1.65c.82-.24,1.33-.93,2.08-1.27-.26.32-.51.62-.79.93.76-.34,1.94-.2,2.74-.62a1.74,1.74,0,0,0-.42.69c.38-.31,5.47,1.38,10.91-2.65a17.25,17.25,0,0,1,2.05-2.7,15,15,0,0,1-1.27,3.24l.24.19a16.66,16.66,0,0,0,1.5-2.13c.81-.23,1.78-1.6,2.19-2L266.68,226l0,0,.13-.06c1.81-1.18,1.75-3.88,3.16-5.37a52.65,52.65,0,0,1,4.05-4c1.7-1.44,2.33-3,3.56-4.76,1.75-2.51,2.34-5.36,3.69-8.09,2.16-4.37,2.69-9.16,4.3-13.68C287,186,287.56,181.05,284.67,177.42Zm-62,57.65h0Zm19.22-8.61Zm.82-.24c0-.14.05-.27.08-.39A.31.31,0,0,1,242.73,226.22Z"/></clipPath><filter id="luminosity-noclip" x="184.45" y="155.99" width="76.56" height="78.96" filterUnits="userSpaceOnUse" color-interpolation-filters="sRGB"><feFlood flood-color="#fff" result="bg"/><feBlend in="SourceGraphic" in2="bg"/></filter><mask id="mask" x="184.45" y="155.99" width="76.56" height="78.96" maskUnits="userSpaceOnUse"><g class="cls-18"><image width="319" height="329" transform="translate(184.45 155.99) scale(0.24)" xlink:href="rhousecrest1.png"/></g></mask></defs><path d="M170.62,265.88c-.05-.12-.09-.24-.13-.37l-.06-.25,0,.42c0-.08,0-.28,0-.38s0-.17,0-.25c-.06.43-.08.55,0,.35a2.24,2.24,0,0,0,.1-.37c.12-.5-.19.31-.07.12a7.58,7.58,0,0,0,.4-.68c.12-.2-.42.48-.05.1a2.57,2.57,0,0,1,.33-.33l.1-.09c.2-.16.13-.12-.19.14a2.09,2.09,0,0,0,.34-.21,2.89,2.89,0,0,0,.35-.19l-.35.14.25-.09.39-.1c.43-.12-.62,0-.14,0,.14,0,.28,0,.42,0s.61.12-.09,0a7.72,7.72,0,0,1,.83.2c.21.06.52.28-.06-.05l.38.19a5.06,5.06,0,0,0,.74.47c-.31-.25-.37-.29-.16-.12l.11.09.33.3c.17.16.39.56.59.66-.23-.32-.27-.37-.12-.16a1.27,1.27,0,0,1,.13.19,2.92,2.92,0,0,1,.24.37,8.6,8.6,0,0,1,.45.85l3.92-3a12.45,12.45,0,0,0-8.2-3.24,7.34,7.34,0,0,0-4.22,1.1,4.68,4.68,0,0,0-2.17,4.18,4.21,4.21,0,0,0,2.94,3.88c1.89.56,3.76-1,4.1-2.84a19.73,19.73,0,0,0,.09-3.17c0-.11,0-.23,0-.35,0,.67-.08.47,0,.19s.23-.16-.07.15a1.3,1.3,0,0,0,.12-.21c.2-.4-.43.45-.1.13l.26-.26c.33-.32-.53.32-.12.1l.33-.19c.41-.23-.6.19-.14.06l.49-.13c.4-.1-.31.05-.29,0s.4,0,.5,0c.48,0-.63-.15-.17,0l.44.14c.31.09-.55-.31-.14-.05a2.73,2.73,0,0,0,.48.3l-.28-.22.21.19c.11.1.2.21.3.31.36.38-.31-.49,0-.05.1.16.21.32.31.49l.13.26c.11.24.09.18-.07-.19,0,.09.07.18.1.27a6.52,6.52,0,0,1,.25,1,2.51,2.51,0,0,0,3.08,1.74,2.56,2.56,0,0,0,1.74-3.07c-.55-3.14-3.16-6-6.48-6.09a6.09,6.09,0,0,0-4.31,1.72,5.56,5.56,0,0,0-1.55,4.19c0,.56,0,1.13,0,1.7s.12-.51,0-.18c0,.12-.18.52,0,.07s.1-.22,0-.13.45-.5.22-.3c0,0,.53-.38.32-.26s.67-.23.27-.12h1.33c-.26-.05-.41-.2.19.11-.34-.18.41.37.21.17s.37.59.13.17.11.24.1.24a3.18,3.18,0,0,1-.09-.33s.1.75.06.27,0,.29,0,.26.09-.31.09-.32c-.18.39-.23.51-.13.34l.09-.15c0,.13-.34.47-.06.13s-.48.3-.12.09a2.26,2.26,0,0,0,.37-.22c-.11.12-.53.2-.12.07a3.31,3.31,0,0,1,.42-.12,1.35,1.35,0,0,0,.36-.08c-.39.05-.49.07-.29.05l.22,0a6.77,6.77,0,0,1,.78,0,4,4,0,0,1,.49,0l.25,0-.26,0c.1.1.66.12.81.15.32.08.63.17.94.27l.39.14c.29.11-.48-.22-.07,0s.54.26.81.41.5.32.76.48c.47.31-.42-.36,0,0l.38.32a2.5,2.5,0,0,0,3.92-3c-1.57-3.4-5.21-5.94-9-5.3-3.52.59-6.61,4.71-5.17,8.24a2.78,2.78,0,0,0,1.15,1.5,2.6,2.6,0,0,0,1.93.25c1.16-.38,2.27-1.78,1.74-3.08Z"/><path class="cls-2" d="M144.1,124.73S249.51.4,361.41,124.73c0,0,37.84-38,40-27.63,0,0-96.22,109.8,0,188.72,0,0-10.81,73.52-27,77.84l-42.16,36.76s-33.22,5.41-80.4,33.52"/><path class="cls-2" d="M360.87,124.73S255.46.4,143.56,124.73c0,0-37.84-38-40-27.63,0,0,96.22,109.8,0,188.72,0,0,10.81,73.52,27,77.84l42.17,36.76s33.22,5.41,80.4,33.52"/><path class="cls-3" d="M79.82,319.42s177.31-42.16,177.85-31.35v46.49S111.17,348.61,96,358.34a23.45,23.45,0,0,0,2.69-19C96.8,333,91.58,325.91,79.82,319.42Z"/><path class="cls-3" d="M124.76,350.78l-21.05,6.91,13,14.06c-25.94,14.05-71.35,0-71.35,0C65.87,368.5,68,339.31,68,339.31l33-.62"/><path class="cls-3" d="M433.46,319.42s-177.31-42.16-177.85-31.35v2.15a19.45,19.45,0,0,1,8.61,3.33,4.54,4.54,0,0,1,4,3.61c3.23,3.77-.58,8.93-4.34,8.33-2.05.5-4.13.9-6.2,1.31a91.57,91.57,0,0,1,9.41,3.09c4.75,1.92,4.57,9.43-1.09,9.54a3.91,3.91,0,0,1-4.53,3.26c-1.95-.2-3.92-.37-5.89-.54v12.41s146.5,14.05,161.63,23.78a23.45,23.45,0,0,1-2.69-19C416.48,333,421.7,325.91,433.46,319.42Z"/><path class="cls-3" d="M388.52,350.78l21.05,6.91-13,14.06c26,14.05,71.36,0,71.36,0-20.54-3.25-22.7-32.44-22.7-32.44l-33-.62"/><path class="cls-4" d="M277.18,312.06l-16.35-4.85A43.43,43.43,0,0,1,275.31,310"/><path class="cls-4" d="M277.85,309.65l-16.35-4.86-.67,4.92a42,42,0,0,1,13.81,2.65,2.52,2.52,0,0,0,3.08-1.75,2.56,2.56,0,0,0-1.75-3.07,46.3,46.3,0,0,0-15.14-2.83c-2.86-.06-3.34,4.11-.66,4.91l16.35,4.85a2.5,2.5,0,1,0,1.33-4.82Z"/><path class="cls-4" d="M277.19,303.87l.07,4.48a2,2,0,0,1-.18,1.09c-.51.86-1.8.56-2.73.18a49.68,49.68,0,0,0-22.77-3.57,159.25,159.25,0,0,1,27.62.39c-.6-1.55-2.46-2.11-4.09-2.45q-11.4-2.4-23-3.86l25.12-2a212.71,212.71,0,0,0-27.19-3.44c1.44-1.79,4.08-1.92,6.38-1.91l12.61.07c3.78,0,7.73.09,11,1.91a1.38,1.38,0,0,1,.51.41,1.22,1.22,0,0,1-.11,1.18c-1.54,3-5.38,3.79-8.68,4.52a59.13,59.13,0,0,0-24,11.54l21.37-1.72c5.07-.41,10.33-.79,15.07,1l-34.45,2.08,27.13,4a15,15,0,0,1,4.95,1.33,34.46,34.46,0,0,1-13.67-3.89l16.7.35L252,318.14l27.21,3.31c-.39.89-1.52,1.12-2.49,1.18-4.66.33-9.33-.22-14-.13s-9.51.89-13.3,3.61a82.26,82.26,0,0,1,22.11-.17,2.26,2.26,0,0,1,1.78.83c.54.91-.4,2-1.4,2.39-3.4,1.22-6.74-1.89-10.29-2.5-4-.68-8,1.81-11.91,1.14l14.32-.05c1.8,0,3.84.09,5,1.46-6.07.77-12.8-2.62-18,.55,5.85,1.1,12.16-2,17.71.14a89.15,89.15,0,0,1-9.89-1.4"/><path class="cls-4" d="M274.69,303.87l.05,2.74a6.72,6.72,0,0,1-.07,2.16l.64-1.1c.34-.44.89.12.3-.25a8.67,8.67,0,0,0-1.23-.47c-1.06-.41-2.13-.8-3.22-1.14a48.79,48.79,0,0,0-6.2-1.53,53.1,53.1,0,0,0-13.38-.73,2.56,2.56,0,0,0-2.5,2.5,2.51,2.51,0,0,0,2.5,2.5,161.26,161.26,0,0,1,27.62.39c2.08.2,2.86-2.23,2.16-3.77-.92-2-3.05-3-5.09-3.48-2.6-.62-5.25-1.08-7.88-1.56-5.39-1-10.82-1.81-16.26-2.5v5l25.12-2a2.53,2.53,0,0,0,2.46-2.17,2.5,2.5,0,0,0-1.8-2.75,220.82,220.82,0,0,0-27.85-3.52l1.77,4.27c1.13-1.29,3-1.18,4.61-1.18,2.83,0,5.66,0,8.49.05,2.57,0,5.15,0,7.71.11a20.16,20.16,0,0,1,3.29.43c.84.2,2.3.43,2.9,1.07l-.64-1.1c.24-.83.23-1,0-.46l-.18.28a2.91,2.91,0,0,1-.45.48,5.72,5.72,0,0,1-1.38.89,16.74,16.74,0,0,1-3.33,1.05,79.89,79.89,0,0,0-9.25,2.62A63.25,63.25,0,0,0,246,310.63c-1.67,1.33-.3,4.44,1.77,4.27l18.89-1.52c5.61-.45,11.47-1.26,16.89.73l.66-4.91-34.45,2.08a2.52,2.52,0,0,0-2.46,2.17,2.47,2.47,0,0,0,1.8,2.74l16.28,2.39,7.89,1.15c2.37.35,5.13.41,7.31,1.51l1.26-4.66A32.29,32.29,0,0,1,269.43,313l-1.26,4.66,16.7.35v-5L252,315.64a2.5,2.5,0,0,0,0,5L279.2,324l-2.15-3.76a.89.89,0,0,1,.3-.19c-.18,0-.47.12-.64.14a15.68,15.68,0,0,1-1.69.08c-1.44,0-2.89,0-4.34,0-2.79-.09-5.58-.26-8.37-.18-4.94.14-10,1.08-14.15,3.94-2.43,1.69-.85,5,1.93,4.57a78.17,78.17,0,0,1,11.34-.74c1.93,0,3.86.08,5.78.22.89.07,1.77.15,2.65.24.42.05.85.12,1.27.15.77.06.28.23.14-.08l-.34-1.27c0,.52.12.39.29-.38,0,.13-.06.2-.27.22s-.62.07-.79.06a6.61,6.61,0,0,1-2.14-.54,38.45,38.45,0,0,0-5.37-2.08,15.57,15.57,0,0,0-6.62.27c-1.82.38-3.77,1.07-5.65.8l-.67,4.91,10.13,0c1.58,0,3.16,0,4.74,0a3.52,3.52,0,0,1,2.68.73l1.77-4.27c-6.51.73-13.16-2.64-19.3.89-1.73,1-1.59,4.19.6,4.57a31,31,0,0,0,9.22-.18c2.86-.36,5.73-.68,8.5.33l.66-4.92a87.23,87.23,0,0,1-9.23-1.31,2.55,2.55,0,0,0-3.07,1.74,2.52,2.52,0,0,0,1.74,3.08,99,99,0,0,0,10.56,1.49,2.47,2.47,0,0,0,2.46-2.16,2.54,2.54,0,0,0-1.79-2.75,19.4,19.4,0,0,0-9-.6c-2.86.33-5.86.95-8.73.46l.6,4.57c2.39-1.38,5.2-1.11,7.84-.79,3,.36,5.93.92,8.93.58a2.53,2.53,0,0,0,1.77-4.26c-2.44-2.59-6.24-2.21-9.48-2.19l-11.61,0a2.5,2.5,0,0,0-.66,4.91,16.87,16.87,0,0,0,5.84-.25A27.6,27.6,0,0,1,260,329c3.35-.05,6.16,2.48,9.48,2.85a6.42,6.42,0,0,0,5.06-1.46,3.91,3.91,0,0,0,.56-5.43c-1.42-1.62-3.71-1.6-5.7-1.81s-4.17-.34-6.26-.39a87.32,87.32,0,0,0-14.36.9l1.92,4.57c4.25-3,9.42-3.36,14.45-3.27,2.9.05,5.79.26,8.69.24,2.67,0,6,.12,7.54-2.52,1-1.8-.34-3.54-2.16-3.77L252,315.64v5l32.88-2.6c3.18-.25,3.26-4.93,0-5l-16.7-.35c-2.43-.06-3.48,3.5-1.27,4.65a38.52,38.52,0,0,0,14.94,4.24c2.46.19,3.42-3.56,1.26-4.65-2.38-1.21-4.92-1.49-7.52-1.88l-8.38-1.22-16.78-2.46-.66,4.91,34.45-2.08a2.51,2.51,0,0,0,.67-4.91c-5.69-2.09-11.82-1.43-17.72-1l-19.39,1.56,1.76,4.27a57.32,57.32,0,0,1,13-7.73,56.46,56.46,0,0,1,7.05-2.44c2.18-.61,4.44-1,6.6-1.66a11.55,11.55,0,0,0,5.55-3.39c1.87-2.3,2-5.21-.93-6.64-4.91-2.37-10.57-2-15.87-2-3.12,0-6.25-.11-9.37-.05-2.64.06-5.44.57-7.27,2.65a2.53,2.53,0,0,0,1.77,4.26,211.38,211.38,0,0,1,26.53,3.35l.66-4.91-25.12,2a2.5,2.5,0,0,0,0,5q7,.89,14,2.15,3.47.62,6.91,1.33c1.23.25,3.45.35,4,1.59l2.16-3.76a161.26,161.26,0,0,0-27.62-.39v5a48.05,48.05,0,0,1,17.6,1.88c1.38.42,2.74.9,4.08,1.43a6,6,0,0,0,3.85.48c3.55-1,2.63-5.69,2.58-8.47-.05-3.22-5.05-3.23-5,0Z"/><path class="cls-4" d="M250.31,293.42a43.43,43.43,0,0,0,19.63-.91c-2.83-1.17-5.83-2.37-8.85-1.9-1.2.18-2.34.62-3.52.86-2.62.53-5.69.21-7.59,2.09"/><path class="cls-4" d="M249.64,295.83a47,47,0,0,0,21-.91,2.55,2.55,0,0,0,1.84-2.41,2.63,2.63,0,0,0-1.84-2.41,26.19,26.19,0,0,0-5.78-1.87,15.25,15.25,0,0,0-6.68.52,38.22,38.22,0,0,1-5,.8,9.1,9.1,0,0,0-4.92,2.24c-2.37,2.19,1.17,5.72,3.53,3.54a6,6,0,0,1,2.92-1,34,34,0,0,0,4.81-.78,9.43,9.43,0,0,1,4.56-.42,28.35,28.35,0,0,1,5.24,1.77V290.1A41.16,41.16,0,0,1,251,291a2.57,2.57,0,0,0-3.08,1.74,2.53,2.53,0,0,0,1.75,3.08Z"/><path class="cls-5" d="M395.87,318.68c3.22,0,3.23-5,0-5s-3.22,5,0,5Z"/><path class="cls-5" d="M394,315.43c-3.65,4.54-3.9,10.16-4.1,15.74,0,1.5-.08,5.11-2.34,5-1.56-.08-2.87-.74-4.47-.38a4.49,4.49,0,0,0-3.22,2.38,2.55,2.55,0,0,0,1.5,3.68,17.46,17.46,0,0,0,6.16.09c1.47-.16,3.35-.47,4.72.25a1.65,1.65,0,0,1,.82.83,1.29,1.29,0,0,1,.11.55.78.78,0,0,1-.07.26c-.89.26-2.21-1-2.86-1.53a10.83,10.83,0,0,0-4.83-2.72,5.29,5.29,0,0,0-5.32,1.79,4.83,4.83,0,0,0-.49,5,4.23,4.23,0,0,0,5,1.95c3.59-.93,7.7-3.78,7.66-7.84,0-3.21-5-3.22-5,0,0,1.14-1.59,2-2.74,2.52a7.67,7.67,0,0,0-1.06.45c-.56.09-.5.17.19.22a.93.93,0,0,1,.44.54c.23.28-.08-.3,0,.05s-.31.1-.17.2c-.12-.08.92.13.86.11a4.42,4.42,0,0,1,1.12.63c.88.64,1.66,1.41,2.55,2a7.08,7.08,0,0,0,6.19,1.27c4.66-1.54,4.26-7.73.74-10.23a9.81,9.81,0,0,0-6.05-1.51c-2.21.09-4.49.77-6.67.24l1.49,3.68c.29-.64,0,0-.2,0s.41,0,.23-.07l1.6.27a7.08,7.08,0,0,0,4.61-.35c2.81-1.34,4-4.31,4.33-7.22.54-4.69-.42-10.39,2.77-14.36a2.57,2.57,0,0,0,0-3.54,2.51,2.51,0,0,0-3.53,0Z"/><path class="cls-5" d="M393.66,319.79c3.22,0,3.23-5,0-5s-3.22,5,0,5Z"/><path class="cls-5" d="M395.87,319.79c3.22,0,3.23-5,0-5s-3.22,5,0,5Z"/><path class="cls-5" d="M397,322c3.21,0,3.22-5,0-5s-3.23,5,0,5Z"/><path class="cls-5" d="M396.43,320.34c3.21,0,3.22-5,0-5s-3.23,5,0,5Z"/><path class="cls-5" d="M394.22,319.79c3.21,0,3.22-5,0-5s-3.23,5,0,5Z"/><path class="cls-5" d="M394.77,319.79c3.22,0,3.22-5,0-5s-3.22,5,0,5Z"/><path class="cls-5" d="M395.87,319.79c3.22,0,3.23-5,0-5s-3.22,5,0,5Z"/><path class="cls-5" d="M394.77,319.79a3.73,3.73,0,0,1,.82,0l-.66-.09A4.31,4.31,0,0,1,396,320l-.6-.25a4,4,0,0,1,.78.44v-4.32l-.12.05.6-.25a3.74,3.74,0,0,1-.93.24l.67-.09a4,4,0,0,1-1,0l.67.09a4.26,4.26,0,0,1-.93-.25l.6.25a3.19,3.19,0,0,1-.72-.41l1.15,2.83v-.05l-.25.6a1.5,1.5,0,0,1,.19-.32l-.39.51a1.15,1.15,0,0,1,.22-.22l-.5.39a1.54,1.54,0,0,1,.39-.23l-.59.25a1.66,1.66,0,0,1,.45-.12l-.67.09a1.85,1.85,0,0,1,.47,0l-.67-.09a1.4,1.4,0,0,1,.4.11l-.6-.25a1.57,1.57,0,0,1,.31.18l-.5-.39.17.16,1.1-4.18h-.07l.66-.09a4.57,4.57,0,0,1-1.28,0l.66.09a5.4,5.4,0,0,1-1.31-.35l.6.25-.33-.16-1.26,4.66,2,0a2.51,2.51,0,0,0,2.16-3.77,2.59,2.59,0,0,0-.73-.81,2.2,2.2,0,0,0-1-.49,3,3,0,0,0-2.16.31,4.44,4.44,0,0,0-.55.42L393,315c-.09.09-.19.24-.25.31a3,3,0,0,0-.24.32,3.18,3.18,0,0,0-.45,1.59,3.14,3.14,0,0,0,2.33,2.91,4.56,4.56,0,0,0,.9.14h.32a8.82,8.82,0,0,0,1.24-.18,2.52,2.52,0,0,0,1.75-3.08,2.53,2.53,0,0,0-1.15-1.49,2.7,2.7,0,0,0-1.93-.26,3.4,3.4,0,0,1-.46.09l.67-.09a2.27,2.27,0,0,1-.52,0l.66.08a.84.84,0,0,1-.26-.07l.6.26-.18-.11.51.39a.68.68,0,0,1-.12-.12l.39.51-.06-.1.25.6a.43.43,0,0,1,0-.11l.09.66a.41.41,0,0,1,0-.11l-.09.67a.83.83,0,0,1,0-.15l-.25.6a1,1,0,0,1,.1-.17l-.39.51.14-.14-.51.4.12-.07-.59.25.09,0-.67.09h.06l-.66-.09h.06l-.6-.25.05,0-.51-.39.05.05-.39-.51a.16.16,0,0,1,0,.07l2.16-3.76-2,0-.66.09a1.89,1.89,0,0,0-.85.45,2.38,2.38,0,0,0-.9,1.3,3,3,0,0,0,0,1.33,1.94,1.94,0,0,0,.45.85,1.88,1.88,0,0,0,.7.64,7,7,0,0,0,2.09.74,8,8,0,0,0,1.38.15,8.9,8.9,0,0,0,1.45-.14,2.49,2.49,0,0,0,1.74-1.74,2.53,2.53,0,0,0-.64-2.43c0-.06-.11-.11-.17-.17a7.47,7.47,0,0,0-.63-.48,4.4,4.4,0,0,0-1-.41,4.6,4.6,0,0,0-2.12,0,4.22,4.22,0,0,0-1,.36,1.79,1.79,0,0,0-.38.22,4.37,4.37,0,0,0-1.14,1.13,4,4,0,0,0-.46,1l-.09.66a1.9,1.9,0,0,0,.22,1,1.33,1.33,0,0,0,.32.55,2,2,0,0,0,.7.64,6.18,6.18,0,0,0,1.44.7,6.54,6.54,0,0,0,1.63.32,6.37,6.37,0,0,0,1.63-.12,6.11,6.11,0,0,0,1.54-.53,2.5,2.5,0,0,0,.9-.9,2.5,2.5,0,0,0,0-2.52,2.43,2.43,0,0,0-.9-.9,3.25,3.25,0,0,0-.65-.38,8.46,8.46,0,0,0-1.21-.48,8,8,0,0,0-1.3-.22,4.7,4.7,0,0,0-.75,0,2.64,2.64,0,0,0-1.77.73,2.57,2.57,0,0,0-.73,1.77,2.49,2.49,0,0,0,2.5,2.5Z"/><path class="cls-6" d="M387.24,316.72A80.05,80.05,0,0,0,402.59,321a2.57,2.57,0,0,0,3.07-1.75,2.53,2.53,0,0,0-1.74-3.08,27,27,0,0,1-9.77-4.3c-2.31-1.62-5.18,2.06-3,3.92l7.63,6.61.51-3.92c.3-.16-.36-.13-.62-.18l-1.45-.32L394,317.3l-6.31-1.39-.66,4.91a15.91,15.91,0,0,1,11,4.06l1.1-4.18c-2.09.39-4.53-.36-6.59-.69l-7.29-1.18a2.58,2.58,0,0,0-3.07,1.75,2.53,2.53,0,0,0,1.74,3.08l8.22,1.9a25.31,25.31,0,0,1,3.22.82c.73.28.95.4,1,.95l1.75-3.08c-2.48.36-5-.31-7.43-.83a27.14,27.14,0,0,0-8.17-.87,2.51,2.51,0,0,0-2.45,2.16,2.49,2.49,0,0,0,1.79,2.75,81.68,81.68,0,0,1,16.78,5.32l1.26-4.66a96.16,96.16,0,0,1-16.34-1v5a30.51,30.51,0,0,1,14.25,4.79l-.9-3.43c.43-.61.81-.47,0-.58s-1.28-.24-1.91-.36l-4.31-.8-8.36-1.56a2.55,2.55,0,0,0-3.07,1.74,2.52,2.52,0,0,0,1.74,3.08c5.29,1.29,10.63,2.6,15.41,5.3V336c-1.8.79-4.37-.43-6.14-1-2.59-.88-5.21-1.51-7.94-.88a2.48,2.48,0,0,0-1.79,2.74,2.56,2.56,0,0,0,2.46,2.17,170,170,0,0,1,23.61,4.88l-.6-4.57c-.78.39-2-.31-2.69-.67-1.38-.7-2.74-1.45-4.14-2.11a74.87,74.87,0,0,0-8.79-3.51,69.32,69.32,0,0,0-8.75-2.25c-2.59-.49-7.31-2-8.29,1.63a2.55,2.55,0,0,0,1.74,3.08l15.83,5c3.69,1.16,8.41,2.19,10.81,5.52l1.49-3.67a12.29,12.29,0,0,1-6.28-.23c-2.26-.52-4.5-1.11-6.74-1.7-4.6-1.22-9.17-2.56-13.7-4a2.54,2.54,0,0,0-3.08,1.75,2.57,2.57,0,0,0,1.75,3.08,16.77,16.77,0,0,1,5.64,3,63.88,63.88,0,0,0,4.74,4.43c3.06,2.27,8.16,3,10.82-.32a2.54,2.54,0,0,0-1.76-4.27,103.8,103.8,0,0,1-16.67-3.24c-3.13-.87-4.36,3.8-1.33,4.82l3.38,1.14c.26.09,1.24.6,1.47.5a.2.2,0,0,0,.13,0c-.48-.78-.26-1.47.65-2h1.33c-.81-.17-1.83-2.11-2.11-2.82a4.07,4.07,0,0,1-.11-2.73,5,5,0,0,1,3.89-3.61,2.57,2.57,0,0,0,2.5-2.5,2.52,2.52,0,0,0-2.5-2.5c-7,.69-11.33,8.55-7.64,14.74a10.06,10.06,0,0,0,3.69,3.91,3.45,3.45,0,0,0,4.95-2.26c1.07-4.6-5.23-5.64-8.3-6.68l-1.33,4.82a112.28,112.28,0,0,0,18,3.42L393,344.81c-1.75,2.16-4.78-.38-6.35-2a28.56,28.56,0,0,0-4.25-3.82,27.46,27.46,0,0,0-5.74-2.66l-1.33,4.83c4.84,1.52,9.72,2.94,14.63,4.22,4.69,1.23,9.91,3.1,14.75,1.69,1.43-.41,2.47-2.32,1.49-3.67-3-4.16-7.65-5.89-12.37-7.37l-17.25-5.42,1.75,3.07.06-.21-.64,1.1-.89.4a2.31,2.31,0,0,1,.37,0,7.25,7.25,0,0,0,1,.15c.67.11,1.34.22,2,.35,1.41.26,2.81.56,4.2.91a65.73,65.73,0,0,1,16,6.22c2.65,1.41,5.42,2.38,8.27.95,2-1,1.38-4-.59-4.57A178.34,178.34,0,0,0,383.12,334l.66,4.91c2.32-.54,4.82.76,7,1.45,2.82.91,5.53,1.18,8.29-.05,1.76-.77,1.5-3.46,0-4.31-5.15-2.92-10.89-4.42-16.6-5.81L381.12,335l10.75,2c3.13.58,7.23,2.16,9.45-1a2.54,2.54,0,0,0-.9-3.42,35.74,35.74,0,0,0-16.77-5.47,2.53,2.53,0,0,0-2.5,2.5,2.57,2.57,0,0,0,2.5,2.5,96.16,96.16,0,0,0,16.34,1,2.59,2.59,0,0,0,2.41-1.83,2.53,2.53,0,0,0-1.15-2.83,87.31,87.31,0,0,0-18-5.82l-.67,4.91a26.65,26.65,0,0,1,8.13,1,24.61,24.61,0,0,0,8.8.55c1.45-.21,1.91-1.88,1.74-3.07-.39-2.84-3.33-4.2-5.8-4.81-3.37-.83-6.76-1.57-10.15-2.36L384,323.66l8.26,1.32c2.76.45,5.49,1.06,8.28.54a2.52,2.52,0,0,0,1.1-4.18,21.13,21.13,0,0,0-14.57-5.52c-2.73.06-3.5,4.29-.66,4.91l7.75,1.71c2.49.54,5.2,1.6,7.62.36a2.51,2.51,0,0,0,.51-3.92l-7.64-6.61-3,3.92a30.74,30.74,0,0,0,11,4.82l1.33-4.83a80,80,0,0,1-15.35-4.28,2.52,2.52,0,0,0-3.08,1.74,2.56,2.56,0,0,0,1.75,3.08Z"/><path class="cls-7" d="M380.72,313.51c3.81-.86,7.69.68,11.45,1.72a46.28,46.28,0,0,0,14.39,1.62A45.56,45.56,0,0,0,385.81,312c6.64,2.24,13.09,5,19.53,7.72,3.09,1.32,6.34,2.75,8.31,5.47-2.3.73-4.75-.21-7-1a74.59,74.59,0,0,0-28-4.41c7.54-.5,14.75,3.06,21.07,7.19a91.21,91.21,0,0,0-20.8-10.24,130.62,130.62,0,0,1,23.2,8.15l-20.74-4.94L402,330.13c-9.93.51-19.29-4.25-29.05-6.11A175,175,0,0,1,406.52,341a115.2,115.2,0,0,1-27.61-19.87A140.31,140.31,0,0,1,411.08,343"/><path class="cls-8" d="M381.39,315.92c4-.8,8.12,1.29,11.94,2.18a49.44,49.44,0,0,0,13.23,1.25c2.32-.09,3.6-3.49,1.26-4.65a48.91,48.91,0,0,0-22-5.2c-2.9,0-3.29,4-.66,4.91,5.05,1.71,10,3.7,14.91,5.77,2.18.91,4.39,1.79,6.52,2.81a12.87,12.87,0,0,1,4.91,3.47l1.5-3.68c-2.57.7-5.51-1-7.9-1.79a73.31,73.31,0,0,0-8.59-2.25,78.24,78.24,0,0,0-17.87-1.49v5c7.27-.41,13.87,3,19.81,6.85,2.71,1.76,5.2-2.56,2.52-4.32a95.3,95.3,0,0,0-21.4-10.49l-1.33,4.82a129.19,129.19,0,0,1,22.61,7.9l1.93-4.57L382,317.5c-2.64-.63-4.56,3.26-1.92,4.57l20.64,10.22,1.26-4.66c-9.83.43-18.91-4.17-28.38-6a2.5,2.5,0,0,0-1.33,4.82,173.6,173.6,0,0,1,33,16.69l2.52-4.32a114.25,114.25,0,0,1-27.11-19.48l-3,3.93a139.43,139.43,0,0,1,31.68,21.54c2.38,2.16,5.92-1.37,3.53-3.53a144.4,144.4,0,0,0-32.68-22.33c-2.45-1.21-5.17,1.86-3,3.93a119.28,119.28,0,0,0,28.12,20.26,2.5,2.5,0,0,0,2.52-4.32,179.49,179.49,0,0,0-34.16-17.19l-1.33,4.82c9.93,1.94,19.39,6.65,29.71,6.2,2.31-.1,3.61-3.49,1.26-4.66l-20.64-10.22-1.93,4.57,20.75,4.94a2.52,2.52,0,0,0,2.95-1.45,2.49,2.49,0,0,0-1-3.12,136.18,136.18,0,0,0-23.8-8.4c-3.15-.79-4.35,3.78-1.33,4.82a90.12,90.12,0,0,1,20.21,10l2.52-4.32c-6.63-4.31-14.21-8-22.33-7.53-3.19.18-3.24,5.1,0,5a72.29,72.29,0,0,1,17.91,1.59,74.91,74.91,0,0,1,8.55,2.42c3,1.05,6,2.23,9.23,1.34,1.41-.38,2.48-2.35,1.49-3.67-3.23-4.27-8.26-6-13-8-5.38-2.27-10.78-4.48-16.31-6.36l-.67,4.92A43.48,43.48,0,0,1,405.3,319l1.26-4.66a44.6,44.6,0,0,1-13.27-1.41c-4.4-1.17-8.61-2.77-13.23-1.84a2.53,2.53,0,0,0-1.75,3.08,2.56,2.56,0,0,0,3.08,1.74Z"/><path class="cls-8" d="M407.48,340.72c-9.74-2.22-19.52-4.31-29.23-6.67a66.34,66.34,0,0,1-6.64-1.93,29.16,29.16,0,0,1-2.89-1.18c-.47-.23-.93-.46-1.39-.71a2.75,2.75,0,0,0-.58-.32c-.49-.42-.61-.13-.37.86-.35.55-.36.91,0,1.08a5.81,5.81,0,0,0,1.61.5l1.64.54,3.74,1.23,7,2.31,16.39,5.39c2.79.92,4.2-3.07,1.92-4.57-3.68-2.43-7.3-5.08-11.17-7.21s-7.93-3.37-12.22-2.3c-3.12.78-1.8,5.6,1.33,4.82,3.38-.84,6.69.78,9.53,2.47,3.42,2,6.69,4.34,10,6.53l1.92-4.56-16.61-5.47-8.19-2.69-4-1.31a7.46,7.46,0,0,0-4.49-.47,3.8,3.8,0,0,0-1.16,6.78,27.39,27.39,0,0,0,7.25,3.32c5.13,1.76,10.53,2.75,15.81,4l19.43,4.42c3.13.71,4.47-4.11,1.33-4.82Z"/><path class="cls-8" d="M368.68,341.1l20.85,3.48a59.64,59.64,0,0,1,9.54,2.17c3.1,1.05,6,2.4,9.29,2.6s3.21-4.81,0-5c-3-.18-5.79-1.75-8.62-2.64a67.58,67.58,0,0,0-9.34-2L370,336.28a2.59,2.59,0,0,0-3.08,1.74,2.52,2.52,0,0,0,1.75,3.08Z"/><path class="cls-8" d="M396.91,343.72a62.19,62.19,0,0,1-22.6-3.8l-.67,4.91a31.35,31.35,0,0,1,7.43,1.28,76.22,76.22,0,0,0,8.33,1.53c2.74.37,5.49.64,8.24.9,1.56.14,4.65.21,5.35,2a2.58,2.58,0,0,0,3.08,1.75,2.52,2.52,0,0,0,1.74-3.08c-2.45-6.33-10.33-5.64-15.93-6.29a74.39,74.39,0,0,1-9-1.55,39.56,39.56,0,0,0-9.21-1.57c-2.94,0-3.23,4-.66,4.91a65.91,65.91,0,0,0,23.93,4c3.21-.07,3.22-5.07,0-5Z"/><path class="cls-8" d="M396.82,347.53c-2.74-1.72-5.91-2.31-9-2.86l-10.22-1.82a2.51,2.51,0,0,0-1.93,4.57c2.39,1.8,5.52,1.46,8.28,1a2.51,2.51,0,0,0,1.74-3.07,2.56,2.56,0,0,0-3.07-1.75c-1.57.24-3.18.41-4.42-.53l-1.93,4.56,9.86,1.75c2.82.5,5.75.89,8.2,2.43a2.5,2.5,0,0,0,2.53-4.32Z"/><path class="cls-8" d="M383.28,349.8c3.22,0,3.22-5,0-5s-3.22,5,0,5Z"/><path class="cls-8" d="M382.91,344.8h-.37a2.43,2.43,0,0,0-2.28,1.53,1.9,1.9,0,0,0-.22,1l.09.66a2.52,2.52,0,0,0,.65,1.1l.5.39a2.54,2.54,0,0,0,1.26.35h.37a1.9,1.9,0,0,0,1-.22,1.82,1.82,0,0,0,.8-.52,1.85,1.85,0,0,0,.52-.8,1.88,1.88,0,0,0,.21-1l-.09-.67a2.5,2.5,0,0,0-.64-1.1l-.51-.39a2.43,2.43,0,0,0-1.26-.34Z"/><path class="cls-8" d="M381.07,349.06c3.22,0,3.22-5,0-5s-3.22,5,0,5Z"/><path class="cls-8" d="M390.27,351.27c3.22,0,3.23-5,0-5s-3.22,5,0,5Z"/><path class="cls-7" d="M359.58,320.92a42,42,0,0,1,12.62,12.25l2.16-3.76a77.18,77.18,0,0,1-26.88-2.72l-.67,4.91,47.65,1.71,3,.11c.29,0,2.2.29,2.35.08s.73.45-.16-.28c-.25-.22.44-.2,0,.15a6.53,6.53,0,0,1-.94.66,21.88,21.88,0,0,1-4.14,1.22,10.59,10.59,0,0,1-5.06.28,3.44,3.44,0,0,1-2.16-1.42,3.5,3.5,0,0,1-.59-1.31,2.27,2.27,0,0,1,0-1.16l.06-.15c.2-.33,0-.12.31-.35a1,1,0,0,1,.68-.16,4.16,4.16,0,0,1,2.38,1.56c.84,1,2.19,4.24,0,4.42a8,8,0,0,1-3.68-.94,20.69,20.69,0,0,1-4-2.31c-2-1.5-4.12-3.66-4.8-6.13a4.79,4.79,0,0,1-.21-1.53c0-.7-.1.15.05-.52,0,0,.29-.74.14-.46a.94.94,0,0,1,1.35-.39c2.35,1,4.06,4.65,4.71,6.91a3,3,0,0,1-.21,2.83c-.8.94-2-.21-2.7-.86a11.94,11.94,0,0,1-3-7.13c-.1-.83-.47-2.48,0-3.21.52-.88,2.77-1.13,3.66-1.34,2.47-.59,5.76-1.15,8,.42,1.74,1.23,2.12,4,.55,5.25-1.14.94-3.48,0-3.51-1.33,0-.53-.14.12.08-.35-.18.37.16-.23.21-.3-.26.34.32-.25.31-.24-.38.29.71-.36.25-.15a3.26,3.26,0,0,1,.75-.23c-.59.12.81,0,.18,0,.06,0,.75.24.33.05.25.16.28.17.1,0a3.09,3.09,0,0,1,.35.38,2.52,2.52,0,0,0,3.54,0,2.55,2.55,0,0,0,0-3.53c-2.64-3.18-7.74-2-10,1-2.46,3.33-.52,7.78,3,9.36a7.16,7.16,0,0,0,10-4.5,8.6,8.6,0,0,0-4.61-10.26c-3.88-1.81-8.43-1.12-12.39,0-2.35.68-4.68,1.75-5.54,4.22-.72,2.06-.29,4.6.06,6.69.72,4.18,2.92,8.78,6.94,10.69a5.94,5.94,0,0,0,7.05-1.11,7.63,7.63,0,0,0,1.74-6.64,18.09,18.09,0,0,0-2.9-6.66,12,12,0,0,0-4.64-4.44c-4.49-2.1-8.92,1.39-8.77,6.14.14,4.3,3,8.09,6.22,10.69s7.85,5.35,12.15,4.85c5.54-.65,6.49-6.81,4.17-11-1.95-3.53-6.59-6.42-10.49-4s-3.49,7.37-1,10.53c3.17,4.05,8.7,3.66,13.18,2.48,2.26-.6,4.87-1.21,6.49-3a5.29,5.29,0,0,0,.59-6.36c-1.57-2.31-4.63-2-7.09-2.07l-8.19-.29L355,326.89l-8.19-.29c-2.85-.1-3.34,4.15-.66,4.91a81.43,81.43,0,0,0,28.21,2.9c1.76-.13,3.29-2.07,2.16-3.76a47.79,47.79,0,0,0-14.42-14c-2.73-1.72-5.24,2.61-2.52,4.31Z"/><path class="cls-7" d="M351.13,329.05a215.66,215.66,0,0,0,26.18,7.18c9.08,1.88,18.27,3,27.41,4.54,3.22.54,7.21,1.27,9,4.33l2.16-3.76A18.35,18.35,0,0,1,405.66,338c-2.81-2-4.79-4.85-6.85-7.53s-4.5-5.6-7.71-7.24c-3.55-1.81-7.53-2-11.45-1.86s-8.5.91-12.29-.75l-.59,4.57a10.89,10.89,0,0,1,12.83,5.21l1.5-3.67A22.12,22.12,0,0,1,361,321.46l-1.76,4.27a208.48,208.48,0,0,1,49.81,12.12c2.37.89,4.19-2.55,2.43-4.18a77.4,77.4,0,0,0-25.05-15.54L385.11,323q14.85,3,29.92,4.51c2.9.29,3.26-4.12.67-4.91q-21.63-6.6-43.84-11.06l1.11,4.17c.18-.15.68-.12.91-.14.85-.07,1.7-.07,2.55-.09q2.55-.07,5.1-.06c3.32,0,6.64.15,10,.37a153.13,153.13,0,0,1,19.78,2.69,2.56,2.56,0,0,0,3.08-1.75,2.52,2.52,0,0,0-1.75-3.07,164.18,164.18,0,0,0-22.08-2.93c-3.64-.23-7.29-.33-10.93-.31-3.32,0-7.44-.49-10.16,1.76a2.52,2.52,0,0,0,1.1,4.18q22.19,4.45,43.84,11.06l.66-4.91q-14.38-1.47-28.59-4.33a2.5,2.5,0,0,0-1.33,4.82A71.21,71.21,0,0,1,408,337.21l2.43-4.18a213.23,213.23,0,0,0-51.14-12.3c-2.19-.25-3.25,2.88-1.77,4.26a27.29,27.29,0,0,0,24.95,6.58,2.53,2.53,0,0,0,1.49-3.67,15.92,15.92,0,0,0-18.48-7.51c-1.84.59-2.71,3.65-.6,4.57,3.77,1.65,7.71,1.8,11.77,1.59,3.73-.19,7.78-.71,11.34.73,3,1.22,5.18,4,7.11,6.47,2.37,3.12,4.68,6.17,7.91,8.47a23.09,23.09,0,0,0,12.91,4.12,2.52,2.52,0,0,0,2.16-3.76c-1.94-3.32-5.4-5.1-9-6-4.14-1.06-8.48-1.42-12.7-2.07A276.44,276.44,0,0,1,368,328.91q-7.83-2-15.5-4.68a2.5,2.5,0,1,0-1.33,4.82Z"/><path class="cls-7" d="M412.61,320.77l-15.56-6.13c-4.26-1.68-9.36-3-12.72-6.29l-1.77,4.27a58.74,58.74,0,0,1,25.84,7.51c2.81,1.58,5.33-2.74,2.53-4.32a64.63,64.63,0,0,0-28.37-8.19c-2.18-.11-3.27,2.8-1.77,4.27,3.82,3.72,9.16,5.3,14,7.21l16.48,6.49a2.51,2.51,0,0,0,3.07-1.74,2.56,2.56,0,0,0-1.74-3.08Z"/><path class="cls-7" d="M399.53,330.94q7.71-1.71,15.54-2.8a2.5,2.5,0,0,0,1.75-3.07,2.58,2.58,0,0,0-3.08-1.75q-7.82,1.08-15.54,2.8a2.51,2.51,0,0,0-1.75,3.07,2.57,2.57,0,0,0,3.08,1.75Z"/><path class="cls-7" d="M361.53,335.34c3.75-.9,7.49.15,11,1.61,3.87,1.63,7.53,3.74,11.43,5.33a65.89,65.89,0,0,0,11.59,3c3.91.8,7.73,1.79,10.95,4.25a2.51,2.51,0,0,0,3.42-.9,2.56,2.56,0,0,0-.89-3.42c-6.89-5.25-16.17-4.6-23.9-7.86-8-3.36-15.77-9.06-24.87-6.87-3.13.75-1.81,5.57,1.32,4.82Z"/><path class="cls-7" d="M360.05,335.29a34,34,0,0,0,16.45,8.07,64.19,64.19,0,0,0,10.09.61,48.3,48.3,0,0,1,10.28,1.42c3.33.79,6.65,1.63,10,2.44l5.25,1.29c.49.12,1.79.69,2.21.54-1.46.5-.22-1.54-.32-1.77-.21-.46.64-.18-.1-.17-.49,0-1.12.18-1.61.22-.77.06-1.54.12-2.32.14a18.48,18.48,0,0,1-5-.42c-3-.76-5.61-2.66-8.48-3.82-6.74-2.72-14.22-2.66-21.37-2.54-3.22.05-3.23,5.05,0,5,6.68-.11,13.77-.3,20,2.37,3.16,1.34,5.94,3.36,9.37,4a25.76,25.76,0,0,0,5.47.4,20.58,20.58,0,0,0,5.26-.54,4.92,4.92,0,0,0,3.38-2.86,3.64,3.64,0,0,0-1.78-4.37,19.86,19.86,0,0,0-4.82-1.37l-6-1.46c-3.7-.9-7.39-1.9-11.13-2.63a61,61,0,0,0-11.21-.9c-7.44-.08-14.45-2.21-20.11-7.2a2.55,2.55,0,0,0-3.53,0,2.53,2.53,0,0,0,0,3.54Z"/><path class="cls-7" d="M367.3,344.81a76.72,76.72,0,0,1,28.28,5.84c2.61,1.07,4.47-3.34,1.93-4.57a30.57,30.57,0,0,0-15.3-3.11c-3.2.2-3.22,5.2,0,5A25.33,25.33,0,0,1,395,350.4l1.93-4.57a80.62,80.62,0,0,0-29.61-6c-3.21,0-3.22,5,0,5Z"/><path class="cls-9" d="M247.69,235.78c1,.88,1.95,1.7,2.87,2.59l.12.12c.27.26.53.53.79.81l.13.13.46.51c.21.24.43.48.65.71l.12.13c.35.37.71.72,1,1.07l.13.13c.43.43.85.87,1.25,1.34l.12.14a12.22,12.22,0,0,1,1.11,1.57c0,.05.07.1.1.16.3.44.8,1,1.24,1.68l.11.16a4.76,4.76,0,0,1,.79,1.69h0a1.22,1.22,0,0,1,0,.26,1.31,1.31,0,0,1-.17.73,1,1,0,0,1-.48.43.76.76,0,0,1-.16.06,2.58,2.58,0,0,1-.71.11h-.19a5.56,5.56,0,0,1-.78-.1l-.18,0a9.92,9.92,0,0,1-1-.29l-.19-.07a6.38,6.38,0,0,1-1.17-.57c-1.82-1.22-3.38-.79-4.12,1.53a5.34,5.34,0,0,0-.34,2c1-1,1.52-3.64,3.67-2.29-.05,1.18-.31,2.63.9,3.09l.17.05.36.07a9,9,0,0,0,1.15,0l.19,0,.73,0a2.53,2.53,0,0,0,.72-.11l.19-.07a7.15,7.15,0,0,1,1.16-.39l.1,0,.17,0a1.62,1.62,0,0,1,1.42.36c.26.24,0,.68.26.91a4.41,4.41,0,0,0,1.07.23c.75.16,3.33.68,3.38-.49a5.94,5.94,0,0,1-.12,1.64A2.47,2.47,0,0,0,266,254a4.44,4.44,0,0,0,3.07,1.21h.12c.21,0,.42,0,.62,0,.56,0,1.92.11,2.36-.24s.36-1.3.47-1.88c1.51.05,1.3,2.07,2.38,2.65,1-1.13-.84-3.69-2.12-3.82.56-1,2-.28,2.17.72a1.37,1.37,0,0,0,.56.21c.48-2.72-3.49-2-4.79-1.87l-.93.1-.19,0h-.06a13.6,13.6,0,0,1-2,0h-.19a5.25,5.25,0,0,1-2.11-.58,6.54,6.54,0,0,1-1-.73l0,0-.11-.1h0a15.44,15.44,0,0,1-1.22-1.21h0l-.19-.2c-.42-.47-.8-.93-1.1-1.32l-.06-.07-.06-.08h0c-.44-.61-.69-1.32-1.11-1.94h0l-.09-.13h0a1.71,1.71,0,0,0-.11-.14,7,7,0,0,0-1.14-1l-.2-.16h0l-.59-.45a6.44,6.44,0,0,1-.93-1l-.11-.15c-.33-.45-.63-.94-.94-1.41l-.1-.16a9.61,9.61,0,0,0-.8-1.07,2.66,2.66,0,0,0-.56-.48l-.15-.11h0c-.48-.32-1-.6-1.54-.91l-.15-.1h0a3.16,3.16,0,0,1-.87-.78l-.09-.16,0-.08.07.05.15.11.52.4-.36-.52-.11-.15h0c-.88-1.21,2.74-9.87,1.74-10.92-.53-.56-5.08.41-5.65,0-.33-.26-2.39,4.53-2.77,4.82C244.33,231.2,246.92,235.09,247.69,235.78Z"/><path class="cls-10" d="M243.26,240.11c.44,1.3,0,1.31,1.32,1.88a6.25,6.25,0,0,1,3.22,3.14l.1.16.29.5c.31.53.63,1.07,1,1.59l.1.16h0c.42.64.87,1.26,1.34,1.84l.11.14c.31.38.63.74.95,1.08a9.94,9.94,0,0,1,1,1.16,1.63,1.63,0,0,1,.11.17,3.83,3.83,0,0,1,.72,3v0l-.24,0a7.48,7.48,0,0,1-.9-.28l-.2-.08c-.37-.14-.71-.29-.92-.39-.82-.41-1.48-1.4-2.66-1.3-1.8.16-2.72,2.86-2,4.53,1.1.06,1.13-4.76,3.09-2.39a2.3,2.3,0,0,0,.31,2.4,5.76,5.76,0,0,0,2.45.45h.48a12.5,12.5,0,0,0,1.56-.21l.18,0a3.31,3.31,0,0,1,1.26,0h0l.14.05c.79.31,1.34,1.2,2.21,1.48s1.63.67,2.32,0c.42-.4.06-.75.63-1a1.45,1.45,0,0,1,.61-.07h0l.17,0c.24,0,.47.06.63.08l1,.15.17,0a8.72,8.72,0,0,0,1.87.11l.41-.05.17,0a3,3,0,0,1,1.15,0,1.55,1.55,0,0,1,.55.33l.18.15a1.33,1.33,0,0,0,.75.41c1.44.14,1.18-.92,1.18-2,.93-.1.61,1.11,1.22,1.34,0-.47-.06-1-.06-1.43a7.32,7.32,0,0,1,.65-.44c1,.56,1.66,3,2.86,2.74-.79-.81-1.38-2.1-2.15-2.78s-2.09-.62-3-1-.65-.58-1.61-.5l-1,.09-.24,0a5.59,5.59,0,0,0-.59.11c-.5.12-1,.24-1.48.34l-.24,0a14.7,14.7,0,0,1-1.64.22l-.21,0-.49,0a4.32,4.32,0,0,1-1.53-.23l-.17-.07a5.79,5.79,0,0,1-1.8-1.42l-.13-.14c-.25-.25-.5-.51-.79-.79l-.77-.75-.13-.12c-.83-.8-1.71-1.65-2.49-2.54l-.11-.14a13.43,13.43,0,0,1-.9-1.16c-.21-.3-.41-.6-.61-.92l-.1-.15c-.4-.63-.79-1.27-1.2-1.9l-.09-.16a24.69,24.69,0,0,0-1.47-2.07l0,0-.12-.14a11.11,11.11,0,0,1-1.79-2.41c-.25-.53-.23-.93-.64-1.34s-.81-.21-1.13-.63l0,.37c-.35-.65-1.31.36-2.08.24-.39-.66-.85-1.87-1.75-1.69C242.32,238.76,243,239.32,243.26,240.11Z"/><path class="cls-9" d="M282.38,175.11H264.55V155.56l-.32.12c-3.36,1.22-5.09,4.57-6.59,7.7a28.28,28.28,0,0,1-2.67,5.11c-1.24,1.66-.4,3.41-1.93,4.91s-2.7,2.8-4.21,4-3.69,2.2-5.09,3.59a37.15,37.15,0,0,0-4.39,5c-1.25,1.82-2.14,3.93-3.26,5.88a34.87,34.87,0,0,1-4.2,5.55c-1.7,2-2.59,4.18-3.88,6.39-1.58,2.69-3.41,5.13-5.11,7.69a14.51,14.51,0,0,1-6.13,5.27l-.36.15a22.5,22.5,0,0,0-3.86,1.49c-1.21.7-2.18,1.55-3.42,2.26a44.08,44.08,0,0,1-4.82,2.13c-1.54.66-2.73,1.71-4.34,2.35-2.16.87-3.37,2.62-5,4-1.09.95-4.07,1.89-3.64,3.56a18.28,18.28,0,0,0,3.81-.68c1.28-.27,2.23-1.25,3.52-1.47a14.42,14.42,0,0,0-3.4,2.63c-1.54,1.44-3.85,2.32-5.3,3.82-.32.33-1.3,1.34-.81,1.84s1.77,0,2.23-.17c1.41-.52,2.76-1.57,4.4-1.49a.82.82,0,0,0,.31.74c.66.45,1.57,0,2.33-.12a18.2,18.2,0,0,1,2.69-.28c-.92.87-1.65,1.93-2.53,2.85s-3.37,1.84-3,3.51a12.64,12.64,0,0,0,3.17-.63c1.06-.26,1.85-1.23,2.92-1.43a12.29,12.29,0,0,0-2.8,2.58c-1.27,1.43-3.19,2.28-4.38,3.76-.26.33-1.07,1.33-.65,1.83s1.47,0,1.85-.14c1.17-.51,2.29-1.54,3.65-1.44a.93.93,0,0,0,.27.74c.56.45,1.31,0,1.94-.09a13.08,13.08,0,0,1,2.65-.26c1.33,0,2.68-1,3.85-1.7a15.16,15.16,0,0,0,2.31-1.53c.64-.57,1-1.4,1.64-2a13.22,13.22,0,0,0,3.36-3.69c.52.48-.14.91,0,1.47a12,12,0,0,0,1.65-1.69c.4-.53.58-1.29,1.11-1.75a17.51,17.51,0,0,1,4.7-2.9h.12a13,13,0,0,0,2.52-.77c1.13-.26,1.87.29,2.91.14a13.22,13.22,0,0,0,6-3.09,17.12,17.12,0,0,0-2,2.69,13.59,13.59,0,0,0,3-2.46c.88-.81,2-1.44,2.87-2.26l.17.35c-.49.62-1.06,1.19-1.52,1.76a10.53,10.53,0,0,1,1.7-1.4c1.26,2.42,3.34,5.51,3.32,6.73s.44,1.49.84,2.4c.31.73.34,1.32.93,1.8.84.68,1.34.24,2.24.19s1.38.5,2.14.34a36.6,36.6,0,0,0,0-3.79c-.15-1.16-.81-2.1-.55-3.39.16-.79.47-1.35.57-2.12a10.69,10.69,0,0,1,.23-1.76,8.12,8.12,0,0,1,.8-1.62,17,17,0,0,0,1.11-1.65c.82-.24,1.33-.93,2.08-1.27-.26.32-.51.62-.79.93.76-.34,1.94-.2,2.74-.62a1.74,1.74,0,0,0-.42.69c.38-.31,5.47,1.38,10.91-2.65a17.25,17.25,0,0,1,2.05-2.7,15,15,0,0,1-1.27,3.24l.24.19a16.66,16.66,0,0,0,1.5-2.13c.81-.23,1.78-1.6,2.19-2L266.68,226l0,0,.13-.06c1.81-1.18,1.75-3.88,3.16-5.37a52.65,52.65,0,0,1,4.05-4c1.7-1.44,2.33-3,3.56-4.76,1.75-2.51,2.34-5.36,3.69-8.09,2.16-4.37,2.69-9.16,4.3-13.68,1.45-4.06,2-9-.92-12.66A26.17,26.17,0,0,0,282.38,175.11Zm-39.65,51.11c0-.14.05-.27.08-.39A.31.31,0,0,1,242.73,226.22Z"/><path class="cls-9" d="M222.69,235.07h0Z"/><polygon class="cls-9" points="241.91 226.46 241.91 226.46 241.92 226.45 241.91 226.46"/><g class="cls-11"><g class="cls-12"><g class="cls-13"><path class="cls-14" d="M249.83,163.14c-2.75,10.5-11.61,10.27-17.16,16.36-5.92,6.5-11.29,24.68-16,29.8s-18.17,8-21,11.82-9.08,11.69-9.08,11.69,8.33-1.53,13-5.1,7.08-2.75,9.84-4.3,4.1-1.76,8.08-4.29,11.55-7.83,14.13-12.67,2.81-8.39,7.16-12.94,2-4.42,5.63-8.09,3.67-3.4,7.1-6.89,5.67-11.17,7.31-14.75c.09-.21-.69-5.55-.59-5.76Z"/></g></g></g><path class="cls-9" d="M228.66,212a2.16,2.16,0,0,0-.35-.21c0,1.59-1.47,2.91-2.44,4a21.43,21.43,0,0,1-2.1,2.48c-1.42,1.09-5.41,2.51-5.24,5,1-.36,1-1.86,2.18-1.95-.2,1.17-2.05,2.54-2.75,3.61,1.24-.08,1.54-2,2.73-2-.27,1.27-2,2.49-2.59,3.81,1.34-.07,2.43-2.07,3.5-2.79a3.59,3.59,0,0,1,1.36-.7c1.11-.24.76.08,1.58-.81a6.54,6.54,0,0,1,2.56-2.06c1.06-.41,2.5-1,2.64-2.37-3-1.06-4.21,3.06-6.4,3.6-.85-1.21,3.55-4.6,4.38-5.4-.1,0-.2,0-.3,0,.21-1.15,2.83-3.74,1-4.49a11.61,11.61,0,0,0-.76.92"/><path class="cls-15" d="M276.65,136.89l-.25.21c4-3.52,7.93-7.25,13.45-7.13-.65.61-1.38,1.18-2,1.72-8.59,7.23-6,11.26-7.23,12.57-1.5,1.65-4.61,4.4-6.85,2.94-2.67-1.76-.78-4.83.39-6.78a28.42,28.42,0,0,0,2.25-3.48"/><path class="cls-15" d="M282,147.73l-.25.18c4.15-2.83,8.45-5.65,10.58-9.52-.71.46-1.42,1-2.06,1.43-8.71,6.12-10.63,4.39-12.07,5.24-1.8,1.07-5.05,3.29-4.88,4.84.21,1.85,3.21.48,5.1-.37,1-.46,2.5-1.34,3.43-1.62"/><path class="cls-16" d="M287,131.25c-.74.8-1.83,1-2.66,1.72a19.34,19.34,0,0,0-2.13,2.38c-1,1.15-2.66,2.81-2.53,1.47s.16-1.87,1.28-2.7a20.57,20.57,0,0,1,6.32-3.07.88.88,0,0,1-.41.62c0,.06,0-.14-.05-.25s-.26.14-.1.22"/><path class="cls-9" d="M262.27,163.65c0,1.85,1.79,16,1.82,17.65l21.75-2c-4.88-12,.48-21.67,0-26.9-.17-1.89-.39-4.85-1.1-6.45-.4-.88-2.91,0-3.1-.76a6.63,6.63,0,0,1-1.05-1.8.76.76,0,0,1-.34.17,11,11,0,0,1-.94.75,3.64,3.64,0,0,1,0-.45,22.14,22.14,0,0,0-2.22,2.14,3.88,3.88,0,0,0-.22-.92c-.43.31-.84.66-1.24,1,.14-.35.16-.67.27-1l-.92.78c-.25-.86.52-1.44.56-2.18-.28.24-.64.44-.92.69,0-1.33,1.52-2.48,1.89-3.42a5.19,5.19,0,0,0-.45.37c.91-.81,1.45-1.88,2.45-2.65l-1.4,1.15c.68-.66,1-1.49,1.81-2.13l-1.89,1.56c.36-.67,1.37-1.52,1.79-2.39-.21.19-.5.36-.72.56a8.55,8.55,0,0,0,.78-1.4,5.07,5.07,0,0,1-1.09.73,5.16,5.16,0,0,1,1-1.39c-.52.21-6.22,3.67-7.16,4.37-1.67,1.25-3.51,2-5.17,3.27a19.23,19.23,0,0,0-4.2,4.84c-2,3-1.12,8.28-3.42,13.18C258.08,162.79,262.3,161.63,262.27,163.65Z"/><path class="cls-15" d="M271.26,143.52a4.65,4.65,0,0,1,.56,5.41,2.85,2.85,0,0,1-4.11.56c-1.22-.92-1.4-2.42-.29-3.89S270.65,143,271.26,143.52Z"/><path class="cls-15" d="M254.83,256.33c0,1.09-1.53.83-2.17.76a2.49,2.49,0,0,1-.82-.08c-.18-.09-.26-.36-.45-.47-.44-.25-.73-.08-1-.69-.08-.2-.32-1-.19-1.24.29-.46,1.06,0,1.37.18a4.78,4.78,0,0,0,2.43.73,5.12,5.12,0,0,0,0-1.83c-.14-.52-.37-2.13.23-.89.31.66.41,1.38.66,2.06.15.41.75,1.62-.18,1.48"/><path class="cls-10" d="M263.64,258.36l.17,0a6,6,0,0,1,.13-.95,4,4,0,0,1,.76-1.7l-.24,0c-.08.11-.14.23-.21.34a4.59,4.59,0,0,0-.46,1.18A6.44,6.44,0,0,0,263.64,258.36Z"/><path class="cls-10" d="M261.82,258.11h0a8.34,8.34,0,0,1,.26-.85c.12-.32.28-.62.4-.94,0-.1.08-.2.13-.3l.21,0a2.87,2.87,0,0,0-.18.4c-.12.29-.25.56-.36.85a6.48,6.48,0,0,0-.29.88Z"/><path class="cls-10" d="M259.29,258.11a11.43,11.43,0,0,1,.89-1.7l.41-.6-.17-.07c-.12.18-.25.36-.37.55a11.06,11.06,0,0,0-.91,1.74C259.09,258.13,259.25,258.22,259.29,258.11Z"/><path class="cls-10" d="M255.88,257.66a6.75,6.75,0,0,1,2.61-3.48l.13.14c-1.26.62-2,2.12-2.57,3.4Z"/><path class="cls-10" d="M255.2,254.89a15.88,15.88,0,0,1,1.6-2.37l.13.12a14.85,14.85,0,0,0-1.65,2.48A1.55,1.55,0,0,0,255.2,254.89Z"/><path class="cls-10" d="M252.66,251.76a1.63,1.63,0,0,1,.11.17,7.94,7.94,0,0,1,1.54-2l-.11-.14A8,8,0,0,0,252.66,251.76Z"/><path class="cls-10" d="M250.61,249.38a7.4,7.4,0,0,1,2-1.77l.1.15a7.47,7.47,0,0,0-2,1.76Z"/><path class="cls-10" d="M249.17,247.38a12.4,12.4,0,0,1,2.13-1.83l.09.16a11.86,11.86,0,0,0-2.12,1.83h0Z"/><path class="cls-10" d="M247.8,245.13a9.52,9.52,0,0,1,1.89-1.81l.12.14a9.46,9.46,0,0,0-1.91,1.83Z"/><path class="cls-10" d="M253.49,255l.09.16a9.67,9.67,0,0,1,.65,1.38,11.28,11.28,0,0,1,.39,1.16l-.18,0c-.12-.41-.25-.82-.41-1.22a12.78,12.78,0,0,0-.78-1.52Z"/><path class="cls-10" d="M252.4,257.87a10.15,10.15,0,0,0-.25-3.3l.2.08a10.55,10.55,0,0,1,.23,3.22Z"/><path class="cls-10" d="M268.8,253.91a7.43,7.43,0,0,0-.14-3.18h.18a7.6,7.6,0,0,1,.14,3.11Z"/><path class="cls-10" d="M267,255.25a4.33,4.33,0,0,0-.67,2,7.93,7.93,0,0,0-.08,1.19l-.17,0a10.51,10.51,0,0,1,.09-1.37,4.4,4.4,0,0,1,.59-1.79Z"/><path class="cls-10" d="M268,258.71a5.07,5.07,0,0,1,1.21-3.14.09.09,0,1,1,.13.12,4.87,4.87,0,0,0-1.16,3.17Z"/><path class="cls-9" d="M256.74,209.63l4.41-6,1.47-2c.22-.31.45-.6.66-.89l.32-.44.33-.36a6.39,6.39,0,0,0,.87-1.26,2.22,2.22,0,0,0,.26-.83l0,0h-.35l.35,0h0v0a2.22,2.22,0,0,1-.05.93,5.57,5.57,0,0,1-.67,1.5l-.28.41c-.07.15-.15.29-.23.44l-.58,1a24.59,24.59,0,0,1-1.4,2.09,30.72,30.72,0,0,1-3.52,4C257.4,209.11,256.74,209.63,256.74,209.63Z"/><path class="cls-9" d="M249.08,223.93l1.55-1.5,3.75-3.54,2-2c.66-.6,1.23-1.11,1.7-1.58a9.76,9.76,0,0,0,1.35-1.65,6.83,6.83,0,0,1-1,1.95,17.51,17.51,0,0,1-1.48,1.83,23.26,23.26,0,0,1-2,2.11,29.68,29.68,0,0,1-4.1,3.24C249.81,223.54,249.08,223.93,249.08,223.93Z"/><path class="cls-9" d="M257.37,179.42s0-.14.11-.38.22-.59.4-1a19,19,0,0,1,1.69-3.08,14.21,14.21,0,0,1,2.3-2.68,3.66,3.66,0,0,1,.91-.62.46.46,0,0,1,.31,0,.21.21,0,0,1,.09.06.17.17,0,0,0-.09,0,.42.42,0,0,0-.23.13,4.1,4.1,0,0,0-.63.8c-.49.73-1.12,1.79-1.88,2.9s-1.51,2.09-2.07,2.79l-.67.83A3.89,3.89,0,0,0,257.37,179.42Z"/><path class="cls-9" d="M232.91,207.71a28.19,28.19,0,0,1,.58-2.91,29.37,29.37,0,0,1,2.52-6.72c.33-.63.68-1.22,1-1.78s.7-1.08,1.07-1.58c.72-1,1.44-1.81,2-2.5,1.22-1.35,1.93-2.23,1.93-2.23a25.16,25.16,0,0,1-1.55,2.52c-.51.76-1.14,1.65-1.76,2.66l-1,1.61c-.32.56-.65,1.14-1,1.75A58.2,58.2,0,0,0,234,205C233.32,206.6,232.91,207.71,232.91,207.71Z"/><path class="cls-9" d="M261.74,163.12a5.2,5.2,0,0,1,.05-.88,7,7,0,0,1,.58-2,9.08,9.08,0,0,1,1.08-1.75c.33-.42.57-.67.57-.67a5.75,5.75,0,0,1-.14.87,9.43,9.43,0,0,1-.65,1.95,13.75,13.75,0,0,1-1,1.76C262,162.85,261.74,163.12,261.74,163.12Z"/><path class="cls-9" d="M261.28,164.08a5.72,5.72,0,0,1,0-1,7.86,7.86,0,0,1,.56-2.18c.09-.2.18-.39.28-.57l.25-.46a3.33,3.33,0,0,1,.54-.92,1.73,1.73,0,0,1,.77-.6,2.54,2.54,0,0,0-.35.82,6.37,6.37,0,0,0-.18.91,1.49,1.49,0,0,1-.05.21l-.05.13-.1.28-.23.58A18.93,18.93,0,0,1,261.28,164.08Z"/><path class="cls-15" d="M243.89,233.11a14.1,14.1,0,0,1,0-3.21,12.7,12.7,0,0,1,.8-3.1,10.17,10.17,0,0,1,.14,3.22A9.18,9.18,0,0,1,243.89,233.11Z"/><path class="cls-15" d="M246.29,232.21a2,2,0,0,1-.15-.62,3.89,3.89,0,0,1,.12-1.44c.15-.52.34-.93.46-1.26s.19-.58.19-.58a1.66,1.66,0,0,1,.29.58,2.87,2.87,0,0,1,0,1.51,5.54,5.54,0,0,1-.58,1.28Z"/><path class="cls-15" d="M245.84,236.1s-.5-.3-.38-.7.66-.42.66-.42.33.43.26.68S245.84,236.07,245.84,236.1Z"/><path class="cls-9" d="M282.17,203.33a9.15,9.15,0,0,1-.1-1,13.67,13.67,0,0,1,.1-2.47c.06-.47.14-.92.22-1.32l.13-.58,0-.13a.64.64,0,0,0,0-.09l0-.26a3.92,3.92,0,0,1,.16-.76,1,1,0,0,1,.12-.26,6.27,6.27,0,0,0,.19,1l.06.24a.72.72,0,0,1,0,.17l0,.14c0,.19,0,.39,0,.6a8.17,8.17,0,0,1-.08,1.37,12.62,12.62,0,0,1-.57,2.41C282.33,203,282.17,203.33,282.17,203.33Z"/><path class="cls-9" d="M281.37,205.47s-.05-.29-.1-.74a8.59,8.59,0,0,1-.08-1.69,6.08,6.08,0,0,1,.36-1.71,3.9,3.9,0,0,1,.32-.68,7.41,7.41,0,0,1,.15.73,7.17,7.17,0,0,1,.12,1.71,5.38,5.38,0,0,1-.4,1.72A3.83,3.83,0,0,1,281.37,205.47Z"/><path class="cls-9" d="M279.48,208.66s-.07-.29-.14-.73a6.37,6.37,0,0,1,0-1.72,4.54,4.54,0,0,1,.57-1.67,2.86,2.86,0,0,1,.46-.6v.73a13.39,13.39,0,0,1-.09,1.67,6.33,6.33,0,0,1-.44,1.65A4.47,4.47,0,0,1,279.48,208.66Z"/><path class="cls-9" d="M278.1,212.67a14.93,14.93,0,0,1,1.51-7.33,15.75,15.75,0,0,1-.29,3.77A15.35,15.35,0,0,1,278.1,212.67Z"/><path class="cls-9" d="M275.62,215.9s0-.32.06-.81a11.73,11.73,0,0,1,.37-1.82c.19-.68.43-1.28.59-1.73l.28-.75a3,3,0,0,1,.19.8,4.83,4.83,0,0,1-.15,1.94,6.07,6.07,0,0,1-.83,1.73A4.86,4.86,0,0,1,275.62,215.9Z"/><path class="cls-9" d="M274.52,216.83a6,6,0,0,1,0-.76,10.11,10.11,0,0,1,.38-1.7c.2-.63.44-1.17.61-1.59l.29-.69a2.9,2.9,0,0,1,.18.75,4.15,4.15,0,0,1-.18,1.82,5.43,5.43,0,0,1-.83,1.59A6.11,6.11,0,0,1,274.52,216.83Z"/><path class="cls-9" d="M271,220.13a4.42,4.42,0,0,1,.05-1.77,4.86,4.86,0,0,1,.78-1.59,3,3,0,0,1,.14,1.82A3.13,3.13,0,0,1,271,220.13Z"/><path class="cls-9" d="M229.49,235a4.61,4.61,0,0,1,0-.72,4.25,4.25,0,0,1,.51-1.6,2.72,2.72,0,0,1,.95-1,1.41,1.41,0,0,1,.54-.21.86.86,0,0,1,.4,0H232v.06a.16.16,0,0,1-.12.14h-.06s.1-.06,0-.12l.08.07a1,1,0,0,0-.25.19,2,2,0,0,0-.26.34c-.17.27-.35.63-.57,1a8.58,8.58,0,0,1-.9,1.32A4.82,4.82,0,0,1,229.49,235Z"/><path class="cls-9" d="M226.75,237.89a6.41,6.41,0,0,1,0-.94,7.51,7.51,0,0,1,.48-2.19,7.71,7.71,0,0,1,1.72-2.65,17.84,17.84,0,0,1-.83,3A19.92,19.92,0,0,1,226.75,237.89Z"/><path class="cls-9" d="M257.8,164a10.65,10.65,0,0,1,.36-1.36,9.43,9.43,0,0,1,1.59-3,7.83,7.83,0,0,1,.68-.73c.11-.11.23-.21.35-.31a2.43,2.43,0,0,1,.4-.28c.52-.3,1-.5,1.34-.7a2.94,2.94,0,0,0,.79-.55.94.94,0,0,0,.21-.29.78.78,0,0,1-.08.37,2.82,2.82,0,0,1-.64.86c-.32.31-.74.63-1.16,1a3.38,3.38,0,0,0-.27.26l-.29.32c-.2.22-.39.45-.59.69-.78,1-1.43,1.92-1.91,2.63Z"/><path class="cls-9" d="M286.55,186.49a24.32,24.32,0,0,1-.65-3.45c0-.39-.07-.77-.1-1.12l0-.51a1.92,1.92,0,0,1,0-.2l0-.22a7.39,7.39,0,0,0-.22-1.16v0h0v-.09c.08,0,0,0,0,0v0s-.05,0,0,0l0,.09v0a3.08,3.08,0,0,1,.72,1l.11.21.1.27c.05.16.1.33.14.51a8,8,0,0,1,.22,1.16,9.53,9.53,0,0,1-.07,2.51A7.4,7.4,0,0,1,286.55,186.49Z"/><path class="cls-9" d="M286.14,190.8s-.06-.55-.1-1.44-.05-2.09,0-3.41v-1.18a.83.83,0,0,1,0-.16v-.11l0-.44c0-.57.07-1.08.08-1.51a12.21,12.21,0,0,0,0-1.43,5.58,5.58,0,0,1,.51,1.37,8.91,8.91,0,0,1,.25,1.57l0,.46v.19l0,.24c0,.33,0,.66,0,1a15.92,15.92,0,0,1-.44,3.46C286.31,190.28,286.14,190.8,286.14,190.8Z"/><path class="cls-9" d="M285.23,193.07a39.47,39.47,0,0,1-.11-4.12,33.46,33.46,0,0,1,.39-4.11,12.81,12.81,0,0,1,.56,4.14,12.52,12.52,0,0,1-.44,2.92A10.74,10.74,0,0,1,285.23,193.07Z"/><path class="cls-9" d="M284.6,195.93a23.45,23.45,0,0,1-.18-3.38,26.21,26.21,0,0,1,.32-3.37,6.14,6.14,0,0,1,.33,1,8.57,8.57,0,0,1,.3,2.42A9.12,9.12,0,0,1,285,195,6.71,6.71,0,0,1,284.6,195.93Z"/><path class="cls-5" d="M272.7,147.36a2.2,2.2,0,1,1-2.2-2.21A2.19,2.19,0,0,1,272.7,147.36Z"/><path class="cls-4" d="M347.25,319.59a229.73,229.73,0,0,0,37.15,17v-4.82a75.84,75.84,0,0,1-42.23-5.23v4.32c2.62-1.31,5.84-.8,8.64-.47l10.82,1.3,21.64,2.59c2.24.27,3.17-2.86,1.77-4.27-4.6-4.61-10.75-6.86-16.85-8.73-5.74-1.75-12-3.24-16.78-7L349,318.41c18.15,2.84,36.5,5.76,53.53,12.95,2.59,1.09,4.54-3.47,1.93-4.57l-34-14.39c-4.87-2.07-11.29-5.94-16.34-2.27a6.41,6.41,0,0,0-2.76,6.53,6.84,6.84,0,0,0,4.09,4.64,14.87,14.87,0,0,0,7.29,1c2-.13,4.64-.56,6.18,1l1.1-4.18a25.82,25.82,0,0,1-18.06.49,2.52,2.52,0,0,0-3.07,1.74,2.55,2.55,0,0,0,1.74,3.08L373.81,333l11.82,4.39c3.37,1.26,6.79,2.43,10.08,3.88a32.42,32.42,0,0,1,9.62,6.08l3-3.92a64.43,64.43,0,0,0-50-8.08,2.53,2.53,0,0,0-.6,4.57c6.66,3.7,14.3,4.18,21.75,4.42,6.32.2,12.82.34,18.76,2.82a17.18,17.18,0,0,1,7.54,5.79l1.49-3.67c-2.73.74-5.3-1.14-7.54-2.74-2.82-2-5.51-4.15-8.89-5.19-4.07-1.26-8.5-1.67-12.69-2.4l-13.68-2.38a2.57,2.57,0,0,0-3.07,1.75,2.52,2.52,0,0,0,1.74,3.07l14.17,2.46,6.83,1.19a33,33,0,0,1,6.22,1.42c6.25,2.42,10.69,9.68,18.24,7.64a2.53,2.53,0,0,0,1.49-3.68c-3.89-5.6-10.1-8.56-16.65-9.87-7.08-1.41-14.29-.93-21.44-1.63a30.11,30.11,0,0,1-11.75-3.32l-.59,4.57a59.37,59.37,0,0,1,46.15,7.58c2.4,1.53,5.05-2,3-3.93-5.37-5.21-12.47-7.74-19.35-10.3l-23.88-8.88L352,319.55l-1.33,4.82a30.13,30.13,0,0,0,20.72-.49c1.69-.67,2.55-2.73,1.1-4.17-3.28-3.28-7.6-2.33-11.75-2.32a6.57,6.57,0,0,1-4-1.1,1,1,0,0,1-.51-.91,1.9,1.9,0,0,1,.72-1.14c1.68-1.29,4-.39,5.79.28,2.45,1,4.86,2,7.28,3.06L385,324l16.88,7.15,1.92-4.57c-17-7.19-35.38-10.11-53.53-13a2.62,2.62,0,0,0-2.82,1.15,2.51,2.51,0,0,0,.39,3c5.18,4.08,11.38,6,17.61,7.9,5.71,1.72,11.69,3.52,16,7.86l1.77-4.27-22.63-2.71c-3.69-.44-7.39-.93-11.1-1.32-3.41-.36-6.77-.26-9.9,1.29-1.57.78-1.7,3.58,0,4.32a82,82,0,0,0,46.09,5.73,2.52,2.52,0,0,0,1.84-2.41,2.59,2.59,0,0,0-1.84-2.41,222.74,222.74,0,0,1-36-16.47c-2.8-1.6-5.32,2.72-2.53,4.31Z"/><path class="cls-4" d="M363.14,344.1c6-.37,12,1.06,17.85,2.16,4.41.82,9.92,1.19,13,4.86l1.11-4.18c-1.83.57-3.91-1-5.55-1.66a32.66,32.66,0,0,0-6.23-1.79c-4.27-.83-8.64-1.22-12.72-2.85l-.66,4.91c3.35-.44,6.3,1.31,9.28,2.57a20.33,20.33,0,0,0,5,1.57c1.24.18,3.3-.06,4.22.92v-3.53c.5-.39.07-.14-.41-.34s-1-.59-1.57-.86a9.67,9.67,0,0,0-4.48-1,26,26,0,0,1-8.58-2,2.52,2.52,0,0,0-3.07,1.75,2.55,2.55,0,0,0,1.75,3.07,43.57,43.57,0,0,0,5.24,1.64,44.29,44.29,0,0,0,5.49.51c1.53.15,2.75,1.39,4.22,1.79a5.35,5.35,0,0,0,4.95-1.06c1.08-.85.83-2.64,0-3.53-1.5-1.61-3.55-2-5.64-2.17a16.71,16.71,0,0,1-5-1.26c-3.68-1.52-7.31-3.65-11.44-3.1a2.51,2.51,0,0,0-.67,4.91c4.35,1.73,9,2.07,13.58,3a29.08,29.08,0,0,1,6.36,2.09c2.3,1.07,4.67,2,7.21,1.18a2.53,2.53,0,0,0,1.11-4.17c-3.62-4.3-9.55-5.09-14.75-6.06-6.45-1.21-13.05-2.83-19.65-2.43-3.2.19-3.22,5.19,0,5Z"/><path class="cls-4" d="M376.72,325.35a122,122,0,0,1,20,4.43,79.22,79.22,0,0,1,8.76,3.11c2.34,1,4.75,2.36,6.24,4.5l1.49-3.67a7.29,7.29,0,0,1-3.78-.64c-1.45-.51-2.87-1.09-4.31-1.64l-9-3.46-17.79-6.82c-2.63-1-4.44,3.3-1.92,4.57q12.11,6.11,24,12.74,5.91,3.31,11.76,6.76c2.64,1.56,5.81,3.37,6.74,6.5l4.57-1.92c-3.33-5.42-8.71-8.85-14-12.06l-1.93,4.57,11.34,3.34c3.1.92,4.4-3.86,1.33-4.82-12-3.73-24.05-7.51-34.92-13.92-2.78-1.64-5.28,2.65-2.52,4.31l19.6,11.84,9.81,5.92c1.44.87,3,1.68,4.33,2.65.47.33,1.92,1.32,1.82,2l3.67-1.49-15.7-8.73c-2.81-1.57-5.31,2.69-2.52,4.31a26.29,26.29,0,0,1,9.5,9.47,2.54,2.54,0,0,0,3.42.89,2.57,2.57,0,0,0,.9-3.42,114.58,114.58,0,0,0-25.09-36.32l-3,3.93c3.72,2.56,8.16,3.53,12.6,3.93,4.66.41,9.39.3,14.07.35l-2.5-2.5c0,.77.11.05.06.08a1.57,1.57,0,0,1-.51.22,5.3,5.3,0,0,1-2.44-.63c-2-.77-4-1.61-5.93-2.41l-11.93-4.83c-7.34-3-15.09-5.56-21.74-9.94l-1.27,4.66a133.08,133.08,0,0,1,41.09,11.11l1.26-4.65a12.11,12.11,0,0,1-8.28-3.32l-3,3.93a28.76,28.76,0,0,0,15.55,3.47c2.39-.16,3.5-3.35,1.26-4.66-11.4-6.67-24.57-8.72-37.44-10.58l-.67,4.91a38.18,38.18,0,0,1,19.78,5.47c.16.09.92.75,1.05.73-.16,0,.71-1,.27-.53.48-.48,1.07-.17.16-.69a33.86,33.86,0,0,0-5-2.32,29.8,29.8,0,0,0-10.63-1.74c-3.22.05-3.23,5.05,0,5a24.87,24.87,0,0,1,12.33,2.95c2.11,1.14,4.63,2.4,6.67.33a4.59,4.59,0,0,0,.29-5.81c-1.25-1.75-3.45-2.8-5.32-3.73a44.39,44.39,0,0,0-6.32-2.59,43.4,43.4,0,0,0-13.28-2.07,2.5,2.5,0,0,0-.66,4.91c12.41,1.79,25.25,3.65,36.25,10.07l1.26-4.65a23.81,23.81,0,0,1-13-2.79c-2.43-1.32-5.15,1.92-3,3.93a17.25,17.25,0,0,0,11.81,4.78c2.33,0,3.6-3.6,1.26-4.66a140.31,140.31,0,0,0-43.61-11.8,2.51,2.51,0,0,0-2.41,1.83,2.59,2.59,0,0,0,1.15,2.83,71.46,71.46,0,0,0,12.19,6.08c4.49,1.85,9,3.65,13.5,5.48L408,328c2.18.89,4.55,1.86,6.91,1.05a5.15,5.15,0,0,0,3.66-5,2.55,2.55,0,0,0-2.5-2.5c-4.41-.05-8.84,0-13.24-.29A21.37,21.37,0,0,1,391.9,318c-2.37-1.63-5,2-3,3.93a110.72,110.72,0,0,1,24.3,35.31l4.32-2.53a31.4,31.4,0,0,0-11.3-11.25l-2.52,4.31,15.7,8.74c1.26.7,3.42.16,3.67-1.5.58-3.94-2.13-6.46-5.25-8.36-3.62-2.2-7.25-4.37-10.87-6.56l-21.74-13.12-2.52,4.31c11.23,6.63,23.73,10.58,36.11,14.43l1.33-4.82-11.34-3.34c-2.74-.81-4.34,3.12-1.92,4.57,4.56,2.74,9.38,5.61,12.24,10.26,1.45,2.37,5.39.86,4.57-1.93-1.18-4-4.35-6.6-7.75-8.71-3.85-2.39-7.83-4.6-11.78-6.82q-12.47-7-25.23-13.46L377,326l18.72,7.18,9.24,3.55c3.14,1.2,6.16,2.51,9.59,1.83a2.52,2.52,0,0,0,1.5-3.67c-3.89-5.59-10.91-7.66-17.09-9.63a128.63,128.63,0,0,0-22.2-4.89,2.52,2.52,0,0,0-2.5,2.5,2.56,2.56,0,0,0,2.5,2.5Z"/><path class="cls-17" d="M184.08,309.6c0-.4,0-.59,0-1a.41.41,0,0,0-.1-.21,1.28,1.28,0,0,1-.11-.51c0-.27,0-.6,0-1a5.33,5.33,0,0,0-.16-1.19,12.89,12.89,0,0,1-1.55.32,8.19,8.19,0,0,0-1.5.35l-.29-.31a1,1,0,0,1-.24-.43.45.45,0,0,0,.22-.29c0-.13.13-.2.32-.21l.24-.21a.91.91,0,0,1,.4-.2,1.72,1.72,0,0,0,.51-.24,1,1,0,0,1,.61-.15,2.79,2.79,0,0,0,.9-.19l.61-.22a.19.19,0,0,0,.13-.18.22.22,0,0,1,.23.05s.16,0,.34,0a.88.88,0,0,0,.46-.32.35.35,0,0,0,.33,0,1.91,1.91,0,0,1,.36-.13,1.63,1.63,0,0,1,.36-.07,1,1,0,0,0,.47-.17,1,1,0,0,1,.55-.15.39.39,0,0,0,.38-.19,1.73,1.73,0,0,0,.58,0,1,1,0,0,0,.53-.23,1.75,1.75,0,0,0,.81-.07,1.37,1.37,0,0,1,.64-.08,9.67,9.67,0,0,0,1.44-.13,11.46,11.46,0,0,1,1.49-.13l.81,0a1.92,1.92,0,0,0,.45,0,1.06,1.06,0,0,1,.45.08,1.33,1.33,0,0,1,.45.24.84.84,0,0,0,.35.18l.4.09.47.09a1.52,1.52,0,0,1,.51.23,1.2,1.2,0,0,0,.66.2,4.87,4.87,0,0,0,.73.4,2.32,2.32,0,0,0,.69.48.79.79,0,0,0,.25.38,2.81,2.81,0,0,1,.3.26,1.14,1.14,0,0,1,.15.24,1.2,1.2,0,0,0,.18.3c.09.13.2.26.31.41a5.54,5.54,0,0,1,.4.63,3.89,3.89,0,0,0,.56.77,1.76,1.76,0,0,0,.15.8,2.16,2.16,0,0,1,.18.46,2.12,2.12,0,0,0,.24.49.86.86,0,0,1,.12.71,2.58,2.58,0,0,0-.13.49,1.14,1.14,0,0,0,0,.36,1.76,1.76,0,0,1,0,.48.74.74,0,0,0,0,.36s0,.1,0,.18c-.2.22-.3.37-.29.44a1,1,0,0,1,0,.29.66.66,0,0,1-.17.33.73.73,0,0,0-.07.57.33.33,0,0,0-.16.22.92.92,0,0,1-.08.27.92.92,0,0,0-.07.26.8.8,0,0,1-.12.27,1.87,1.87,0,0,1-.28.32.72.72,0,0,0-.23.39c-.1,0-.16,0-.19.16s-.11.15-.26.13a1.14,1.14,0,0,0-.26.34.63.63,0,0,1-.28.28,3.2,3.2,0,0,0-.3.17,2,2,0,0,1-.38.18,2.05,2.05,0,0,0-.47.29.39.39,0,0,0-.31.18.22.22,0,0,1-.26.09.8.8,0,0,1-.49.38.79.79,0,0,0-.49.42,1.35,1.35,0,0,0,.56.7c.29.18.56.35.84.51a4.7,4.7,0,0,0,.91,1.15,4.65,4.65,0,0,1,1,1.27,3.18,3.18,0,0,0,.25.52c.07.09.16.25.3.48l.41.74c.13.26.27.51.4.74l.28.47.18.26a1.07,1.07,0,0,1,.17.27l.25.53c.12.27.3.68.53,1.23a7.81,7.81,0,0,0,.48,1.05c.09.16.18.3.24.42s.14.26.23.4.16.28.24.4a2.61,2.61,0,0,1,.17.32,1,1,0,0,0,.23.32c.11.11.23.28.35.4a1.69,1.69,0,0,1,.28.34.93.93,0,0,0,.33.37,2.17,2.17,0,0,0,.4.09s.06,0,.13.06a2.55,2.55,0,0,0,1.18-.11c.58-.13.91-.27,1-.4a1.08,1.08,0,0,1,.45-.36c.21-.12.34-.22.38-.32l.24-.4a1.8,1.8,0,0,1,.13-.56.8.8,0,0,0,.11-.32,1.34,1.34,0,0,0,0-.5,2.42,2.42,0,0,1-.11-.58.18.18,0,0,0-.12-.22.42.42,0,0,1-.23-.24.47.47,0,0,0-.14-.24,1.5,1.5,0,0,1-.23-.15.83.83,0,0,0-.41-.18.64.64,0,0,0-.63.22,2.29,2.29,0,0,0-.53.78l-.84.07a.76.76,0,0,1-.39-.45,1.84,1.84,0,0,0-.34-.57.63.63,0,0,1,.16-.49l.28-.37a.84.84,0,0,0,.15-.3c.32-.15.51-.22.56-.24l.22-.12.55-.37a.78.78,0,0,1,.71-.14,2.5,2.5,0,0,0,.68.15.29.29,0,0,1,.12.18.35.35,0,0,0,.12.19,1.32,1.32,0,0,1,.4.22.58.58,0,0,0,.34.12c.2.21.4.44.59.66a1.54,1.54,0,0,1,.28,1,3.07,3.07,0,0,1,.32,1.12,2.92,2.92,0,0,0,.07.59.5.5,0,0,1-.06.39c-.07.22-.11.34-.19.56a3.92,3.92,0,0,1-.45.91,3.25,3.25,0,0,0-.29.43,3,3,0,0,1-.33.48.68.68,0,0,1-.43.29.72.72,0,0,0-.43.22,1.62,1.62,0,0,1-.81.27,1.57,1.57,0,0,1-.76,0,1.19,1.19,0,0,1-1.47.23.91.91,0,0,0-.72,0,5.91,5.91,0,0,0-1.58-.57.26.26,0,0,1-.09-.23,2.14,2.14,0,0,0,0-.34,1.88,1.88,0,0,1-.44,0c0-.05-.11-.18-.31-.41s-.35-.4-.45-.51l-.17-.21a1,1,0,0,1-.46-.24c-.08-.1-.14-.17-.2-.19a2.05,2.05,0,0,1-.31-.38l-1-1.44c-.1-.14-.14-.22-.24-.36s-.23-.4-.4-.67a12.13,12.13,0,0,1-1.3-2.38l-.33-.24c-.13-.36-.28-.57-.44-.62a.4.4,0,0,0-.14-.41.43.43,0,0,1-.14-.42,2,2,0,0,1-.65-.91q-.36-.78-.39-.9a1.57,1.57,0,0,0-.06-.28.57.57,0,0,0-.18-.28.71.71,0,0,1-.18-.41,6.39,6.39,0,0,0-.74-.5c-.27-.15-.57-.5-.76-.57a7.56,7.56,0,0,1-1.8-.5.71.71,0,0,0-.26,0,.6.6,0,0,1-.28,0,.8.8,0,0,1-.36-.09.56.56,0,0,0-.42,0q-.23.09-.24.15a2.14,2.14,0,0,1-.19.36.6.6,0,0,0,0,.65,1.79,1.79,0,0,1,.25.7q0,.36.06.81c0,.3,0,.5.05.6l.53,2.2a1.58,1.58,0,0,1,0,.51c.06.28.1.42.16.71a7,7,0,0,0,.08.71l.12.67c0,.18,0,.28,0,.31s0,.14,0,.34a1.51,1.51,0,0,0,.08.53,3.1,3.1,0,0,1,.11.69,7.92,7.92,0,0,1,0,1c0,.37.12.89.32,1a1.37,1.37,0,0,0,.85,0l.38-.17a2.22,2.22,0,0,0,.61,0,1.3,1.3,0,0,1,.46,0,.58.58,0,0,1,.13.23c0,.09.06.25.1.27s.15.08.14.2a2.19,2.19,0,0,0,0,.36,1.27,1.27,0,0,1-1.09.32c-.13,0-.18.06-.16.18s0,.18-.11.2-.15-.06-.2,0a.53.53,0,0,1-.29.16,1.24,1.24,0,0,1-.48,0,.78.78,0,0,0-.95.49A.89.89,0,0,0,191,332a.55.55,0,0,0-.46.3.29.29,0,0,0-.33-.07l-.32.19a.51.51,0,0,0-.58,0,2.31,2.31,0,0,1-.63.31.9.9,0,0,0-.47.27.52.52,0,0,1-.35.19h-.12a1,1,0,0,0-.41.18c-.28.23-.6.16-1-.18a2,2,0,0,0,0-.41.69.69,0,0,1,0-.33.32.32,0,0,1,.27-.16.66.66,0,0,0,.5-.31,4.51,4.51,0,0,1,.61-.3q.54-.24.54-.3s.09-.08.29-.14a.56.56,0,0,0,.39-.4.78.78,0,0,0-.13-.43,2.09,2.09,0,0,1-.24-.38,2.73,2.73,0,0,0-.22-1,2.7,2.7,0,0,1-.22-.8,3.12,3.12,0,0,1,0-.44.59.59,0,0,0,0-.23l-.17-.55a.52.52,0,0,1-.05-.27,3.14,3.14,0,0,0-.17-.75c-.08-.25-.12-.38-.19-.63a1.85,1.85,0,0,0,0-.51l-.2-.69a1.18,1.18,0,0,1-.09-.37,3.69,3.69,0,0,0-.05-.37c-.15-.29-.22-.45-.2-.48s0-.09,0-.18c-.09-.27-.14-.41-.24-.68a3.48,3.48,0,0,1-.18-1,7.16,7.16,0,0,0-.1-.93l-.15-.85a5,5,0,0,0-.17-.69c-.07-.23-.1-.34-.17-.56a5.13,5.13,0,0,1-.16-1,2.94,2.94,0,0,0-.11-.73,1.25,1.25,0,0,1-.1-.31l-.13-.74-.62-1.46c0-.26,0-.38-.07-.64a7.22,7.22,0,0,0-.09-.9l-.09-.49a.37.37,0,0,0-.09-.19,1,1,0,0,1-.16-.3,2,2,0,0,1-.07-.62,4.78,4.78,0,0,0,0-.62A1.59,1.59,0,0,0,184.08,309.6Zm7.64-6-2.68.51a1.87,1.87,0,0,1-1.35.67.6.6,0,0,1-.28.34.75.75,0,0,0-.3.53.88.88,0,0,0,.24.75,1.85,1.85,0,0,1,.4.68,1.24,1.24,0,0,0,.22.49c.09.41.13.62.21,1a8.5,8.5,0,0,1,.21,1.19c0,.39.09.75.14,1.07s.12.59.18.82.13.45.18.66a3.52,3.52,0,0,1,.09.64,2.38,2.38,0,0,0,.18.75,1.82,1.82,0,0,1,.17.65,1.41,1.41,0,0,0,.11.49,3.21,3.21,0,0,1,.16.63.81.81,0,0,0,.24.5.58.58,0,0,1,0,.33c0,.12,0,.16.15.11.05.12.12.15.23.09a3.76,3.76,0,0,1,.94-.12,2.14,2.14,0,0,0,1.25-.41,2.47,2.47,0,0,0,2.28-.37c.25-.18.71-.29.86-.42s.21-.37.36-.48a2.93,2.93,0,0,0,.42-.37.73.73,0,0,1,.13-.33c.05-.07,0-.18,0-.34a1.38,1.38,0,0,0,.63-1,.16.16,0,0,1,.14-.16c.09,0,.13-.08.11-.2s0-.06,0-.16a.7.7,0,0,1,0-.5,1.77,1.77,0,0,0,0-.88.9.9,0,0,0,.18-.84,1.67,1.67,0,0,0-.38-1.74,1.16,1.16,0,0,0,0-.39q0-.25-.06-.39a.94.94,0,0,0-.07-.34,1,1,0,0,0-.18-.33.43.43,0,0,1-.08-.37,6.48,6.48,0,0,1-.62-1,.57.57,0,0,0-.38-.21s-.11,0-.24-.15a2.31,2.31,0,0,1-.35-.35.56.56,0,0,0-.35-.21.8.8,0,0,0-.43-.26.83.83,0,0,1-.31-.12.53.53,0,0,0-.21-.09,1.27,1.27,0,0,1-.23-.08,1.37,1.37,0,0,0-1.13-.36A1.77,1.77,0,0,1,191.72,303.62Z"/><path class="cls-17" d="M219,325.92l-1.57.09a.89.89,0,0,1-.47-.2c-.21-.15-.35-.21-.42-.17L216,325a2.92,2.92,0,0,1-.23-.81c0-.3-.05-.45-.08-.75a.7.7,0,0,1-.33-.29,1.83,1.83,0,0,0-.82.42c-.1.13-.19.26-.25.28a2.21,2.21,0,0,0-1,.58.4.4,0,0,0-.41,0,.88.88,0,0,1-.45.11,1.24,1.24,0,0,1-.35-.05l-.31-.09a.74.74,0,0,1-.4.08,1.47,1.47,0,0,0-.47.06,4.28,4.28,0,0,0-1.05-.41,5.32,5.32,0,0,0-1.19-.32c-.58-.66-1.05-1.21-1.41-1.67a1.23,1.23,0,0,0-.05-.68,1.75,1.75,0,0,1,.11-1.17,3.84,3.84,0,0,1,.55-1.11l.55-.61a2.35,2.35,0,0,1,.37-.33,1.58,1.58,0,0,0,.38-.45.86.86,0,0,1,.48-.4,3.74,3.74,0,0,1,.56-.16,3.53,3.53,0,0,0,.59-.16l.43-.16a2,2,0,0,1,1.29,0,3.05,3.05,0,0,1,.87-.11,2.52,2.52,0,0,0,.91-.09.43.43,0,0,0,.24-.42,4.79,4.79,0,0,1-.08-.5,1.55,1.55,0,0,0-.08-.42l-.2-.45a3.07,3.07,0,0,0-.27-1.38q0-.33,0-.36a.29.29,0,0,1-.05-.16c0-.08,0-.2-.08-.37s-.1-.35-.16-.56-.14-.52-.25-.93a6.66,6.66,0,0,0-.32-.94c-.1-.21-.17-.38-.23-.5l-.17-.34a1.13,1.13,0,0,1-.13-.33,1,1,0,0,0-.2-.35l-.24-.32a.78.78,0,0,0-.26-.2.56.56,0,0,1-.12-.28.3.3,0,0,0-.17-.23,4.45,4.45,0,0,0-.82,0,.68.68,0,0,0-.56.32,1.9,1.9,0,0,0-1,.3.51.51,0,0,0,0,.51.94.94,0,0,1,.09.44,2.66,2.66,0,0,1,0,.35c0,.1-.05.2-.07.3a1.56,1.56,0,0,1,.17.56,1.06,1.06,0,0,0,.26.55,2.17,2.17,0,0,0,.37.42,1,1,0,0,0,.34.14,1.17,1.17,0,0,0,.35,0,.83.83,0,0,1,.42.13c.19.1.33.37.44.82a1,1,0,0,1-.83.46,1.79,1.79,0,0,1-1-.13.41.41,0,0,0-.22.08s-.14.05-.28,0a.65.65,0,0,1-.36-.15.61.61,0,0,0-.45-.09.88.88,0,0,0-.3-.38,1.85,1.85,0,0,1-.36-.3c-.12-.16-.18-.34-.21-.33s-.06,0-.07,0a1.73,1.73,0,0,1-.51-1.35.7.7,0,0,1,0-.31c0-.11.07-.24.1-.37a1,1,0,0,0,0-.41.72.72,0,0,1,0-.36.79.79,0,0,1,.18-.29,3.08,3.08,0,0,1,.25-.27c.09-.1.18-.19.26-.29a2.68,2.68,0,0,1,.3-.23c0-.06.07-.25.12-.36s.08-.32.13-.4a1.17,1.17,0,0,1,.25-.14.4.4,0,0,0,.18-.16,1.62,1.62,0,0,0,.67-.17,2.11,2.11,0,0,1,.66-.21,1.94,1.94,0,0,0,.54-.13l.54-.07a1.67,1.67,0,0,1,.5,0,1,1,0,0,0,.54-.06l.41.06a.61.61,0,0,0,.43-.08,2,2,0,0,0,.76.33,1.59,1.59,0,0,1,.86.54c.23.26.39.44.5.54a1.55,1.55,0,0,1,.31.36,4.27,4.27,0,0,0,.29.41,4.57,4.57,0,0,1,.29.36,4.79,4.79,0,0,0,.31.39,2.13,2.13,0,0,1,.29.4.85.85,0,0,0,.32.33,1.1,1.1,0,0,0,.36.9c0,.09.06.17.08.24a2.35,2.35,0,0,0,.13.33,2.71,2.71,0,0,1,.18.63,4.43,4.43,0,0,0,.16.67,1.6,1.6,0,0,0,.15.37,1.37,1.37,0,0,1,.13.31,3.39,3.39,0,0,1,.07.55,3.68,3.68,0,0,0,.07.57.64.64,0,0,1,0,.34.68.68,0,0,0,0,.25c.06.2.09.3.16.49a3.23,3.23,0,0,1,0,.44,1.51,1.51,0,0,0,.05.46,4.47,4.47,0,0,0,.21.61,5.82,5.82,0,0,1,.24.7,3,3,0,0,1,.11.58l0,.47c0,.14,0,.57,0,1.29.07.19.1.28.16.46a9.31,9.31,0,0,0,.06,1.36l0,.44a.35.35,0,0,1,0,.28.84.84,0,0,0,0,.36.55.55,0,0,0,.2.38.38.38,0,0,1,.06.46,1.17,1.17,0,0,0,.82,0,2.05,2.05,0,0,1,1-.17l.6.09a.41.41,0,0,1,.25.09c.15.27.24.46.29.56s0,.22-.17.33a.5.5,0,0,0-.26.34,10.52,10.52,0,0,1-1.7.35A2.92,2.92,0,0,0,219,325.92Zm-7.29-7.22-.42-.1a4,4,0,0,1-1.18.8.73.73,0,0,0-.17.49,6.24,6.24,0,0,1,0,.69,1.26,1.26,0,0,0,0,.5,1.65,1.65,0,0,1,.28.48,1,1,0,0,0,.18.34,2.62,2.62,0,0,1,.21.37,1.31,1.31,0,0,1,.5.3.8.8,0,0,0,.44.24.65.65,0,0,0,.42-.05.3.3,0,0,1,.34,0,1.63,1.63,0,0,1,.42-.07,2.34,2.34,0,0,0,.53-.08.64.64,0,0,1,.49-.25.87.87,0,0,0,.5-.18,4.56,4.56,0,0,0,.53-.68,1,1,0,0,1,.36-.32,11.91,11.91,0,0,0-.06-1.55,2.55,2.55,0,0,0-.46-.35c-.15-.08-.24-.35-.34-.47a.67.67,0,0,0-.31-.12.41.41,0,0,1-.25-.18c-.12,0-.19,0-.2,0a1,1,0,0,1-.29-.06A4.54,4.54,0,0,0,211.72,318.7Z"/><path class="cls-17" d="M235.83,306l-.61.83a1.37,1.37,0,0,1-.21,1,3.47,3.47,0,0,0-.37.51,3.28,3.28,0,0,0-.19.37.63.63,0,0,1-.21.28,2.18,2.18,0,0,1-.91,2,1.54,1.54,0,0,1-.13.91,2.64,2.64,0,0,1-.08.49l-.12.49c0,.17-.09.33-.14.48s-.1.28-.15.4l-.27.42a1.33,1.33,0,0,0-.19.57.86.86,0,0,1-.26.53.63.63,0,0,1,0,.36c0,.13-.08.27-.12.43a1.13,1.13,0,0,1-.23.43c-.08.23-.11.35-.19.58a.58.58,0,0,0-.05.31,1.1,1.1,0,0,1,0,.4,1.38,1.38,0,0,1-.16.37.69.69,0,0,0-.06.47c0,.21,0,.34-.11.39a.23.23,0,0,0-.09.26,1.3,1.3,0,0,1-.25.73c-.18.32-.23.58-.17.68a.88.88,0,0,1,0,.58,8.27,8.27,0,0,0-.14.82.49.49,0,0,1-.26.18.56.56,0,0,0-.32.27.44.44,0,0,1-.4.23l-.65.16a.49.49,0,0,1-.29-.13,1.26,1.26,0,0,0-.27-.19l-.27-.12a1,1,0,0,1-.28-.23,1.65,1.65,0,0,1-.3-.61,1.59,1.59,0,0,0-.43-.56c-.18-.22-.28-.92-.5-1.35a2.54,2.54,0,0,1-.28-1.4,3.15,3.15,0,0,1-.42-.74,5.38,5.38,0,0,0-.31-.67,3,3,0,0,0-.24-.38,1,1,0,0,1-.15-.24.51.51,0,0,1-.06-.3,1.09,1.09,0,0,0-.07-.37,1.87,1.87,0,0,0-.2-.4,1.33,1.33,0,0,1-.19-.4,1,1,0,0,0-.16-.35,2.59,2.59,0,0,0-.19-.23.41.41,0,0,1,0-.36.89.89,0,0,1-.26-.43,2,2,0,0,0-.21-.48.83.83,0,0,1-.15-.35.55.55,0,0,0-.14-.31,1.57,1.57,0,0,1-.2-.38,1.74,1.74,0,0,0-.21-.4c-.1-.16-.2-.32-.29-.48a5.48,5.48,0,0,1-.28-.62l-.37-.76c-.13-.28-.22-.39-.28-.34s-.12,0-.18,0a.63.63,0,0,1-.1-.28.63.63,0,0,0-.1-.29c-.06-.09-.19-.36-.4-.8a3.49,3.49,0,0,0-.73-1.05,1,1,0,0,1-.61,0,1.05,1.05,0,0,1-.54-.26,1.41,1.41,0,0,0-.4-.27.56.56,0,0,1,.11-.46c.12-.17.19-.29.24-.36a.46.46,0,0,1,.39-.13,1.6,1.6,0,0,0,.52,0c.2-.05.51-.13.92-.27a3.61,3.61,0,0,1,1-.2,2.25,2.25,0,0,0,.65-.07,1,1,0,0,0,.39-.2,1.53,1.53,0,0,1,1.54-.09c.21.37.2.66,0,.88a1.68,1.68,0,0,1-.8.45,1.14,1.14,0,0,0,.3.49,1,1,0,0,1,.25.51,9.14,9.14,0,0,1,.92,1.36,2.55,2.55,0,0,1,.39.58,1.3,1.3,0,0,0,.35.62,1.41,1.41,0,0,1,.37.58,2.31,2.31,0,0,0,.25.54c.09.13.13.21.12.25a.3.3,0,0,0,0,.17,3.2,3.2,0,0,0,.28.39,1,1,0,0,1,.2.64,3.07,3.07,0,0,1,.66,1.3,3.78,3.78,0,0,0,.63,1.34,2.39,2.39,0,0,0,.38,1.08c.16.11.23.2.21.28a.19.19,0,0,0,0,.17c.17.3.38.39.62.27s.22-.61.31-.87a3.81,3.81,0,0,0,.25-.43,2.28,2.28,0,0,1,.2-.45,3.26,3.26,0,0,0,.18-.39,3.07,3.07,0,0,1,.26-.52c.14-.23.15-.66.25-.85a2.41,2.41,0,0,0,.27-.41.78.78,0,0,0,.07-.38.51.51,0,0,1,0-.27,1,1,0,0,1,.13-.28,1.2,1.2,0,0,0,.15-.34,1.94,1.94,0,0,1,.15-.36c0-.12.11-.26.18-.45a5.53,5.53,0,0,1,.26-.61,3.64,3.64,0,0,0,.2-.44,3.9,3.9,0,0,1,.2-.48c.11-.25.21-.51.31-.78a1.4,1.4,0,0,0,.09-.74,1,1,0,0,1,.11-.64c-.11-.23-.12-.41,0-.53-.14-.21-.26-.31-.36-.31a1.13,1.13,0,0,0-.43-.33l-.44-.08c-.38-.36-.5-1-.28-1.24a1.61,1.61,0,0,1,1.09-.18,2.56,2.56,0,0,0,.79.06L234,304a4.68,4.68,0,0,1,.83,0,4.3,4.3,0,0,0,.86-.05,1.31,1.31,0,0,1,.54,0,.12.12,0,0,0,.15,0l.73-.14a5.17,5.17,0,0,1,.75,0,5.4,5.4,0,0,0,.63.06.54.54,0,0,1,.36.15.9.9,0,0,1,0,.73,1.91,1.91,0,0,1-.32.61h-.82a2.45,2.45,0,0,0-.7.16c-.28.1-.42.13-.44.11s-.07,0-.17,0a.61.61,0,0,0-.24.17A.29.29,0,0,1,235.83,306Z"/><path class="cls-17" d="M247.79,310.24a3.41,3.41,0,0,0-.08,1.26.78.78,0,0,1-.16.61,4,4,0,0,0-.31.3,1.69,1.69,0,0,0,0,.3.24.24,0,0,1-.09.24l-1.41,0a2.59,2.59,0,0,0-1.17.27.37.37,0,0,1-.26,0,.61.61,0,0,0-.2-.09,2.4,2.4,0,0,0-.45.27.55.55,0,0,1-.54.09.92.92,0,0,0-.57,0,3.06,3.06,0,0,0-1.35.77,5,5,0,0,1,0,.77,2.26,2.26,0,0,0,.06.7l.1.46a.35.35,0,0,1,0,.25.61.61,0,0,0,0,.28.89.89,0,0,0,.1.35.32.32,0,0,1,0,.38l.17.35a.8.8,0,0,1,0,.47.57.57,0,0,0,.12.26.84.84,0,0,1,.14.27,1.13,1.13,0,0,1,.05.44,1.44,1.44,0,0,0,.06.45l.13.41a1.78,1.78,0,0,0,.37.58c.21.23.27.42.21.56a3.39,3.39,0,0,1,.32.35,1,1,0,0,0,.33.31,4.63,4.63,0,0,1,.61.16,1.49,1.49,0,0,0,.7.12,2,2,0,0,0,1-.38,7.83,7.83,0,0,1,.74-.43.34.34,0,0,0,.12-.28.43.43,0,0,1,.12-.29.45.45,0,0,1,.2-.11.82.82,0,0,0,.25-.11,1.78,1.78,0,0,0,.31-.23,3.31,3.31,0,0,1,.4-.28c.17-.1.4-.05.7.16a.85.85,0,0,1,0,.61l-.21.37c-.07.12-.08.2,0,.23s.06.11,0,.23a.65.65,0,0,0-.21.48.54.54,0,0,0-.32.27.87.87,0,0,1-.32.34,1.34,1.34,0,0,1-.42.15,1.32,1.32,0,0,0-.44.16,1.19,1.19,0,0,0-.37.33,1.31,1.31,0,0,1-.46.39,3.71,3.71,0,0,0-.51,0,2,2,0,0,1-1.29.32c-.45-.05-.94-.08-1.45-.11a11,11,0,0,0-1.35-.77c-.23-.2-.62-.76-1.21-.88a.29.29,0,0,0-.18-.28c-.11,0-.17-.16-.18-.35a.29.29,0,0,1-.25-.17.37.37,0,0,0-.25-.2.37.37,0,0,0-.1-.16.29.29,0,0,1,0-.23.52.52,0,0,1-.28-.22,3.38,3.38,0,0,0-.26-.33,6.66,6.66,0,0,1-.35-.67c0-.11-.13-.31-.27-.59a2.12,2.12,0,0,1-.2-1l-.32-.6a.53.53,0,0,0,0-.37,1.41,1.41,0,0,1-.07-.41c0-.22,0-.33,0-.54a5,5,0,0,0,0-.85,2.75,2.75,0,0,1,0-.81l.08-.43a.63.63,0,0,0,0-.27.92.92,0,0,1,.05-.4c.06-.18.13-.4.22-.64a2.92,2.92,0,0,0,.14-.51,2,2,0,0,1,.07-.36,2.52,2.52,0,0,1,.17-.41c.07-.12.13-.25.19-.38a.92.92,0,0,0,.08-.37.42.42,0,0,1,.15-.33,1.23,1.23,0,0,0,.23-.28l.16-.22a1.6,1.6,0,0,0,.16-.23.92.92,0,0,1,.3-.53.51.51,0,0,0,.19-.49c.12,0,.2-.06.22-.16a.67.67,0,0,1,.29-.32,2.19,2.19,0,0,0,.33-.25s.19-.15.42-.3a1.38,1.38,0,0,0,.53-.67c.13.09.21.12.25.08a2,2,0,0,1,.24-.17.58.58,0,0,1,.3-.12.68.68,0,0,0,.32-.14.52.52,0,0,1,.38-.1.39.39,0,0,0,.32-.09,2.36,2.36,0,0,1,.95-.12,2.19,2.19,0,0,0,.84-.08.52.52,0,0,1,.29.24,1,1,0,0,0,.24.28.67.67,0,0,0,.25.13,1.43,1.43,0,0,1,.31.17l.27.19a.73.73,0,0,1,.16.18,1.2,1.2,0,0,0,.22.24,1.68,1.68,0,0,1,.27.34,2.57,2.57,0,0,1,.26.57,3.11,3.11,0,0,0,.36.67.69.69,0,0,0,.05.43,1.47,1.47,0,0,0,.14.28A1.24,1.24,0,0,1,247.79,310.24Zm-4.14,1.67.49-.13a4,4,0,0,1,.62-.11,1.52,1.52,0,0,0,.61-.14c.15-.21,0-1-.23-1.32a.45.45,0,0,0-.09-.49.7.7,0,0,1-.17-.55,3.51,3.51,0,0,0-.51-.41.56.56,0,0,0-.08-.32,2.72,2.72,0,0,0-.16-.25.88.88,0,0,0-.39-.07.48.48,0,0,1-.3-.12,2.67,2.67,0,0,1-1.61.82,1.2,1.2,0,0,1-.23.87,1,1,0,0,0,0,.29v.21a.48.48,0,0,0-.16.46,1.15,1.15,0,0,1-.14.65c-.12.23-.15.61-.08.67s.68,0,1,0a6.76,6.76,0,0,1,.87-.09Z"/><path class="cls-17" d="M251.87,324.55l-1,.38c-.36,0-.59-.28-.67-.85a.63.63,0,0,0,.18-.36c0-.28.19-.42.45-.39a.68.68,0,0,0,.59-.17,1.93,1.93,0,0,1,.37-.3,2.35,2.35,0,0,0,1.05-.59,1.83,1.83,0,0,1-.1-.57,2.39,2.39,0,0,0-.06-.55,4.8,4.8,0,0,1-.1-.63,5.43,5.43,0,0,1,0-.68,6.19,6.19,0,0,0-.09-1c0-.35-.09-.61-.12-.77a.94.94,0,0,1,0-.37,1,1,0,0,0,0-.36c0-.15,0-.43-.07-.85s-.06-.81-.09-1.18-.05-.87,0-1.49,0-1.07,0-1.34a4.21,4.21,0,0,0-.09-.58,1.65,1.65,0,0,1,0-.3c0-.6,0-.91.06-1.51l-.1-1.54c0-.17,0-.26,0-.43-.07-.33-.1-.5-.17-.83a6.62,6.62,0,0,1,0-1.2,5.08,5.08,0,0,0-.06-1.06,2.93,2.93,0,0,0-1.1.15,1.4,1.4,0,0,1-1-.07,2.72,2.72,0,0,1,.17-1.3,3,3,0,0,1,1.24-.24,4.23,4.23,0,0,0,1-.16c.24-.07.37-.14.4-.2a.29.29,0,0,1,.15-.16c.3-.09.77-.05,1-.14s.51,0,.84.26a1.19,1.19,0,0,1,.47.36.82.82,0,0,1,.16.46.47.47,0,0,0,0,.29c0,.12,0,.27.08.46a3,3,0,0,0,.12.54,1.46,1.46,0,0,1,.06.5.58.58,0,0,0,.13.43,1.15,1.15,0,0,0,1.49-.51c.13-.21.2-.32.23-.32a.34.34,0,0,0,.25-.16,2.52,2.52,0,0,1,.26-.29,3.27,3.27,0,0,1,.42-.31,2.62,2.62,0,0,0,.52-.39.75.75,0,0,0,.62-.12,1.72,1.72,0,0,1,.67-.29,3.14,3.14,0,0,1,.88-.05,1.82,1.82,0,0,0,.9-.14l.5.19a6,6,0,0,1,.71,0,1.42,1.42,0,0,1,.71.15.9.9,0,0,0,.24.29,1.42,1.42,0,0,1,.31.37.63.63,0,0,0,.2.25.53.53,0,0,1,.15.15,1.65,1.65,0,0,1,.17.31,2.84,2.84,0,0,0,.24.45c.13.16.27.3.28.38a2.54,2.54,0,0,0,.11.4c.06.18.14.39.23.63a1.58,1.58,0,0,1,.15.54.81.81,0,0,0,0,.32c0,.1.05.18.07.26l.09.34a2.46,2.46,0,0,1,0,.57,2.47,2.47,0,0,0,.05.54l.09.31c0,.07.07.25.14.54a4,4,0,0,1,0,1.21,9.66,9.66,0,0,0,0,1.31,5.43,5.43,0,0,1,0,.88,2,2,0,0,0,0,.57c0,.16.06.3.08.43s.05.26.07.38a1.4,1.4,0,0,1,0,.54l.25.54a2.25,2.25,0,0,1,0,.69.36.36,0,0,0,.31.43,2,2,0,0,1,.5-.07,1.12,1.12,0,0,0,.51-.15.53.53,0,0,1,.45.31,2,2,0,0,0,.27.46,1.49,1.49,0,0,1-.5.67,5.38,5.38,0,0,0-.64.52,2.17,2.17,0,0,0-.58,0c-.11,0-.25,0-.42-.17a3.8,3.8,0,0,1-.59.17,1,1,0,0,0-.52.24.5.5,0,0,1-.19-.11c0-.05-.12-.06-.22,0a1.44,1.44,0,0,1-.41.21l-.44.15a2.23,2.23,0,0,0-.34.16.85.85,0,0,1-.27.12l-.3.1a4.27,4.27,0,0,1-.46.16,3.62,3.62,0,0,0-.59.24.92.92,0,0,1-.43.14.52.52,0,0,1-.35-.11.32.32,0,0,1,0-.37.3.3,0,0,0,0-.34c.05,0,.07-.07.06-.2a.34.34,0,0,1,.05-.27A2,2,0,0,0,262,319a1,1,0,0,1,.44-.36,1.7,1.7,0,0,1,.62-.17.58.58,0,0,0,.48-.34,1.72,1.72,0,0,0-.14-.39,2.08,2.08,0,0,1-.14-.36.62.62,0,0,1,0-.4,1,1,0,0,0,0-.43c-.06-.34-.09-.52-.14-.86a6.59,6.59,0,0,0-.08-1.28,8,8,0,0,1-.12-.88c0-.26,0-.48-.07-.66a4.81,4.81,0,0,1,0-.52l.05-.47a9.26,9.26,0,0,1-.1-1l0-.39a.6.6,0,0,0-.06-.24c0-.08-.06-.18-.09-.28s0-.17,0-.18,0-.1.05-.27c-.15-.27-.21-.44-.19-.51a.45.45,0,0,0,0-.18l-.18-.93a1.94,1.94,0,0,0-.2-.78,2.41,2.41,0,0,1-.24-.63,1.91,1.91,0,0,0-1-.67.75.75,0,0,0-.93.23,5.48,5.48,0,0,0-.56.16,4.13,4.13,0,0,0-.55.16,3.47,3.47,0,0,1-.33.32.47.47,0,0,0-.17.47.34.34,0,0,0-.17.11.29.29,0,0,1-.21.07.87.87,0,0,1-.28.46,3.41,3.41,0,0,0-.38.38,3.63,3.63,0,0,1-.34.34q-.18.15-.36.33a.29.29,0,0,1-.08.3c-.07.06-.08.18,0,.34a1.45,1.45,0,0,0-.34.49c-.08.18-.16.37-.26.56a3.33,3.33,0,0,0-.16,1.7,13,13,0,0,1,.14,1.6c.09,1.06.14,1.59.23,2.66,0,.26,0,.53,0,.82a7,7,0,0,1,0,1,6.36,6.36,0,0,0,.42,3.3c0,.12.08.18.16.18s.18.11.28.34a1.3,1.3,0,0,1-.14,1,2.57,2.57,0,0,0-.46.2,1.49,1.49,0,0,1-.46.16.38.38,0,0,1-.31,0,.35.35,0,0,0-.23-.07l-1.24.29a1.18,1.18,0,0,0-.57.17c-.18.11-.31.16-.38.13s-.12,0-.14.15a1.88,1.88,0,0,1-.51,0,1.41,1.41,0,0,1-.29.18Z"/><path class="cls-17" d="M276.92,318.88l1-.13,1.27-.33.62-.43a.66.66,0,0,1,.22.06.81.81,0,0,0,.43,0,.53.53,0,0,1,.5.21c.15.16.2.3.13.4a.44.44,0,0,0,0,.38,1.82,1.82,0,0,1-.89.73.34.34,0,0,1-.25.17,1.65,1.65,0,0,0-.38.12,4.37,4.37,0,0,0-.5.3,1.88,1.88,0,0,1-.77.28,3.78,3.78,0,0,0-.9.28.15.15,0,0,0-.2-.06.55.55,0,0,1-.24,0l-.55,0-.56.11a2.6,2.6,0,0,0-1-.1,1,1,0,0,1-.7-.1c-.23-.11-.34-.19-.32-.22a.09.09,0,0,0,0-.1.67.67,0,0,1-.37-.28l-.16-.28a1.3,1.3,0,0,0-.51-.18c-.17,0-.25-.32-.32-.38s-.54-.18-.65-.28a1,1,0,0,1-.35-.62.78.78,0,0,0-.43-.63,2.82,2.82,0,0,1-.38-.85,1.09,1.09,0,0,0-.35-.61,3.6,3.6,0,0,0-.28-1.37,1.81,1.81,0,0,1,0-1.54,2.4,2.4,0,0,0-.06-.47,1.86,1.86,0,0,0,.23-.77,5.32,5.32,0,0,1,.09-.69c.05-.19.08-.32.11-.4a3.08,3.08,0,0,0,.33-.79,3.29,3.29,0,0,1,.29-.78c.1-.2.15-.46.2-.52a1.47,1.47,0,0,0,.3-.33,2.4,2.4,0,0,1,.42-.56,1.52,1.52,0,0,0,.36-.62.4.4,0,0,0,.29-.17l.22-.28A.43.43,0,0,0,273,307a.94.94,0,0,1,.41-.23,1.35,1.35,0,0,0,.49-.29,1.51,1.51,0,0,1,.49-.29,1,1,0,0,0,.37-.18.19.19,0,0,1,.13-.07l.43-.09a1.06,1.06,0,0,1,.23.05,1.74,1.74,0,0,0,1.24-.45l.88.13a.65.65,0,0,0,.66-.27.39.39,0,0,1,.24.21.37.37,0,0,0,.24.21,1.13,1.13,0,0,1,.83.2,3.82,3.82,0,0,1,.54.59,2.27,2.27,0,0,0,.25-.27,5.5,5.5,0,0,1,.37-.47,1.27,1.27,0,0,1,.56-.4.49.49,0,0,1,.49.05,1.86,1.86,0,0,1,.31.32c.08.11.09.19,0,.24s-.07.12,0,.25l0,.43a1.89,1.89,0,0,0-.12.43,3.13,3.13,0,0,1-.13.49.43.43,0,0,0,0,.25,2.16,2.16,0,0,1-.14.73,4.62,4.62,0,0,0-.14,1.38,4.09,4.09,0,0,1,0,.93c0,.12-.07.26-.1.41a1.07,1.07,0,0,1-.13.33c-.14.09-.21.16-.22.21a.32.32,0,0,1-.11.13l-.5.26a.62.62,0,0,1-.78-.33,4.23,4.23,0,0,1-.29-.87,3.33,3.33,0,0,0,.14-1.8v-.25a.92.92,0,0,0-.24-.55c-.16-.22-.24-.35-.23-.39s0-.07,0-.12a4.65,4.65,0,0,1-.67-.29l-.59-.32a.61.61,0,0,1-.35,0,.58.58,0,0,0-.32,0,.33.33,0,0,0-.22.16.21.21,0,0,1-.16.13l-.5.09c-.36.13-.55.26-.57.4a.6.6,0,0,1-.22.39.18.18,0,0,1-.2.13.18.18,0,0,0-.19.14.85.85,0,0,0-.27.35,2.64,2.64,0,0,1-.18.4l-.17.32a1,1,0,0,0-.07.27.39.39,0,0,1-.08.24.55.55,0,0,0-.1.23,3,3,0,0,1-.11.32.87.87,0,0,0-.07.29.31.31,0,0,1-.12.23,1,1,0,0,0-.23.4,2.45,2.45,0,0,0-.1.79,2.39,2.39,0,0,1-.13.84c-.08.23-.09.39,0,.46a1.27,1.27,0,0,1,.15.26,3.06,3.06,0,0,0,.22,2.06.58.58,0,0,0,.33.26.69.69,0,0,0,.08.65,1.61,1.61,0,0,1,.42.67,2.75,2.75,0,0,1,.52.34,2.2,2.2,0,0,0,.45.34c.26.1.61.13.71.25A.64.64,0,0,0,276.92,318.88Z"/><path class="cls-17" d="M286,300.46l0-.43a1.34,1.34,0,0,1,0-.67,1.64,1.64,0,0,0,.14-.33,1.43,1.43,0,0,1,.09-.78.77.77,0,0,0,.07-.54.52.52,0,0,0-.16-.17c-.06,0-.12-.15-.16-.18a1.11,1.11,0,0,0-.71.05,2.86,2.86,0,0,1-.64.15c-.13-.05-.2,0-.23,0a.36.36,0,0,1-.21.16.67.67,0,0,1-.85-.19q-.4-.42-.21-.66a.8.8,0,0,1,.51-.31c.21,0,.44-.1.69-.14a6.31,6.31,0,0,1,.79-.1,3.5,3.5,0,0,0,.67-.08,5,5,0,0,1,.52-.07,1.73,1.73,0,0,0,.44-.08l.3-.12.3-.12a1.09,1.09,0,0,1,.32-.07c.09,0,.42-.07.94-.2a3.69,3.69,0,0,1,1.7-.09,1.11,1.11,0,0,0,.13.4.59.59,0,0,1,0,.74,1.38,1.38,0,0,0-.28.56.34.34,0,0,1-.2.29c0,.46-.07.71-.25.77l.1,2.21a1.83,1.83,0,0,0,0,.84,5.28,5.28,0,0,1,.06,1.29,5,5,0,0,0,.06,1.73l-.13.71a1.11,1.11,0,0,0,0,.32c0,.1,0,.27.08.51a3.21,3.21,0,0,1-.06.94,6.61,6.61,0,0,0-.15,1.14c0,.59.11,1.1.09,1.34a1,1,0,0,1-.24.59c.07.2.07.3,0,.33s-.07.09-.08.21a3.77,3.77,0,0,0,0,.48,2.28,2.28,0,0,1-.09.7c0,.37.07.56.12.94l-.11.39c0,.48,0,.72.06,1.19,0,.19-.09.39-.14.6a.8.8,0,0,0,.08.62,1,1,0,0,0-.12.55,1.09,1.09,0,0,1-.12.57.66.66,0,0,0,0,.55,1.69,1.69,0,0,1,.07.69c-.06.27-.1.41-.16.68a1.64,1.64,0,0,0,0,.73.9.9,0,0,1-.13.7,1.86,1.86,0,0,1,0,1.43,2.13,2.13,0,0,1,0,1.12,1.53,1.53,0,0,0,.1,1.09,1.25,1.25,0,0,0-.24.7,6.19,6.19,0,0,0,0,.72c.06.55.36.73.91.54a1.05,1.05,0,0,0,.31-.21.3.3,0,0,1,.33,0c.22.08.35.28.32.64a.77.77,0,0,1,.16.7c-.07.18-.36.32-.74.33a6.84,6.84,0,0,0-.87.08.56.56,0,0,0-.42.29.36.36,0,0,1-.18-.07.34.34,0,0,0-.25,0c-.28.15-.45.21-.52.18s-.46,0-.82.22a.75.75,0,0,0-.4,0,.82.82,0,0,1-.5-.1,1.11,1.11,0,0,0-.74-.06,1.83,1.83,0,0,0-.77.36,1.44,1.44,0,0,0-.66.1,1.07,1.07,0,0,1-.66.07,1.14,1.14,0,0,1-.28-.63.53.53,0,0,1,.18-.37,1.73,1.73,0,0,1,.38-.24.59.59,0,0,0,.29-.27,7.22,7.22,0,0,0,1.53-.4,3.17,3.17,0,0,0,0-1.51,2.89,2.89,0,0,1-.16-.77,1.75,1.75,0,0,0,0-.43c0-.22,0-.46,0-.72s0-.52,0-.76a3.29,3.29,0,0,1,0-.65,4.41,4.41,0,0,0,0-1c0-.45,0-.84,0-1.15l-.1-1.8.07-1c0-.34,0-.5-.06-.83a1.8,1.8,0,0,1,0-.4,3.19,3.19,0,0,0,0-.45V314a.54.54,0,0,0-.18-.41,2,2,0,0,0,.23-.63c0-.28,0-.42-.07-.69a.66.66,0,0,1,0-.31,1.59,1.59,0,0,0,.06-.3c0-.73.05-1.1.09-1.83a3.28,3.28,0,0,1,.14-.8,2.48,2.48,0,0,0,.1-.87,1.23,1.23,0,0,1,0-.56.45.45,0,0,0,.07-.23c0-.54,0-.82-.06-1.37.05-.3.08-.44.13-.74s0-.48-.06-.8a.37.37,0,0,1,0-.23,1.07,1.07,0,0,0,.06-.27c0-.34,0-.52,0-.86a1,1,0,0,0,0-.5.63.63,0,0,1,0-.36.84.84,0,0,0,0-.34,2.28,2.28,0,0,1,0-.63Q285.94,300.7,286,300.46Z"/><path class="cls-17" d="M302.78,326.53l-1.55-.25c-.1,0-.23-.11-.41-.29s-.3-.28-.37-.26l-.4-.73a2.45,2.45,0,0,1-.06-.84c0-.3.05-.45.08-.75a.72.72,0,0,1-.26-.35,1.83,1.83,0,0,0-.89.23,1,1,0,0,1-.3.22,2.22,2.22,0,0,0-1.07.36.37.37,0,0,0-.4-.09.9.9,0,0,1-.46,0,1.08,1.08,0,0,1-.34-.12l-.28-.15a.8.8,0,0,1-.41,0,1.61,1.61,0,0,0-.47,0,4.35,4.35,0,0,0-.94-.63,5.87,5.87,0,0,0-1.09-.57q-.65-1.14-1-1.92a1.41,1.41,0,0,0,.1-.68,1.72,1.72,0,0,1,.35-1.12,3.56,3.56,0,0,1,.78-1l.66-.48a2.3,2.3,0,0,1,.43-.25,1.38,1.38,0,0,0,.47-.36.93.93,0,0,1,.55-.29,4.16,4.16,0,0,1,.59,0l.6,0,.46-.07a2.13,2.13,0,0,1,1.25.31,3,3,0,0,1,.87.07,2.37,2.37,0,0,0,.91.11.43.43,0,0,0,.33-.36,4.9,4.9,0,0,1,0-.5,2.17,2.17,0,0,0,0-.43l-.1-.48a3.05,3.05,0,0,0,0-1.41c.08-.21.1-.33.08-.35a.26.26,0,0,1,0-.17,2.23,2.23,0,0,0,0-.37c0-.17,0-.37,0-.59s0-.54-.05-1a6.24,6.24,0,0,0-.11-1q-.07-.36-.12-.54c0-.12-.06-.25-.09-.37a1.12,1.12,0,0,1-.06-.35,1,1,0,0,0-.12-.39l-.17-.36a.8.8,0,0,0-.21-.26.6.6,0,0,1-.06-.29.3.3,0,0,0-.11-.26,4.64,4.64,0,0,0-.81-.16.74.74,0,0,0-.62.19,2,2,0,0,0-1,.08.5.5,0,0,0-.16.49,1,1,0,0,1,0,.45,1.75,1.75,0,0,1-.13.33l-.12.28a1.36,1.36,0,0,1,0,.58,1.1,1.1,0,0,0,.14.59,2.78,2.78,0,0,0,.27.5,1.38,1.38,0,0,0,.31.21,1.09,1.09,0,0,0,.33.1.81.81,0,0,1,.38.22,1.18,1.18,0,0,1,.25.89,1,1,0,0,1-.9.27,1.85,1.85,0,0,1-1-.35.39.39,0,0,0-.23,0c-.05,0-.15,0-.28,0a.7.7,0,0,1-.32-.23.59.59,0,0,0-.42-.18,1.06,1.06,0,0,0-.21-.44,1.62,1.62,0,0,1-.29-.37c-.08-.18-.1-.36-.14-.37s-.05,0-.05,0a1.71,1.71,0,0,1-.22-1.42.71.71,0,0,1,.1-.3,3.69,3.69,0,0,0,.19-.35,1,1,0,0,0,.11-.38.8.8,0,0,1,.11-.35.79.79,0,0,1,.23-.25l.31-.21.31-.22c.09-.08.28-.12.34-.17a2.61,2.61,0,0,0,.2-.32c.08-.1.14-.3.21-.36a.61.61,0,0,1,.28-.08.37.37,0,0,0,.2-.13,1.51,1.51,0,0,0,.7,0,2,2,0,0,1,.68-.06,2,2,0,0,0,.56,0l.54.06a1.36,1.36,0,0,1,.49.12,1,1,0,0,0,.53,0l.39.15a.58.58,0,0,0,.45,0,1.8,1.8,0,0,0,.66.49,1.57,1.57,0,0,1,.73.71,4.54,4.54,0,0,0,.38.63,1.92,1.92,0,0,1,.22.43,3.07,3.07,0,0,0,.2.45c.07.14.14.28.2.42a3.61,3.61,0,0,0,.22.44,3.57,3.57,0,0,1,.2.46.8.8,0,0,0,.24.39,1.09,1.09,0,0,0,.16.95c0,.1,0,.19,0,.26a2.36,2.36,0,0,0,.05.35,3,3,0,0,1,0,.65,4.78,4.78,0,0,0,0,.69,1.29,1.29,0,0,0,.07.39,1.28,1.28,0,0,1,.05.33,2.36,2.36,0,0,1,0,.56,2.44,2.44,0,0,0,0,.57.76.76,0,0,1,0,.34.84.84,0,0,0-.07.24c0,.21,0,.31.06.52a3.15,3.15,0,0,1-.09.42,1.36,1.36,0,0,0,0,.46,4.41,4.41,0,0,0,.07.64,5.13,5.13,0,0,1,.09.74,3.61,3.61,0,0,1,0,.59l-.05.46c0,.15-.11.57-.26,1.28l.05.47a9.4,9.4,0,0,0-.23,1.35l-.12.42a.31.31,0,0,1,0,.28.9.9,0,0,0-.09.35.58.58,0,0,0,.11.42.37.37,0,0,1,0,.46,1.15,1.15,0,0,0,.79.2,2,2,0,0,1,1.05.06l.56.21a.61.61,0,0,1,.23.14c.08.3.14.5.16.62s-.06.2-.24.27a.54.54,0,0,0-.33.29,9.64,9.64,0,0,1-1.73,0A3,3,0,0,0,302.78,326.53Zm-5.57-8.61-.39-.18a4,4,0,0,1-1.33.52.79.79,0,0,0-.26.44c0,.19-.11.41-.19.67a1.18,1.18,0,0,0-.11.5,1.6,1.6,0,0,1,.18.52.89.89,0,0,0,.09.37,1.78,1.78,0,0,1,.13.4,1.31,1.31,0,0,1,.43.41.76.76,0,0,0,.37.32.66.66,0,0,0,.43,0,.29.29,0,0,1,.32.11,1.26,1.26,0,0,1,.42,0,3.27,3.27,0,0,0,.54,0,.65.65,0,0,1,.53-.15.86.86,0,0,0,.53-.07,4.67,4.67,0,0,0,.67-.54,1,1,0,0,1,.41-.25,13.29,13.29,0,0,0,.28-1.52,2.48,2.48,0,0,0-.39-.44c-.12-.11-.15-.39-.22-.53a.86.86,0,0,0-.28-.19.43.43,0,0,1-.2-.22H299a.86.86,0,0,1-.27-.12A4.54,4.54,0,0,0,297.21,317.92Z"/><path class="cls-17" d="M314.21,323.34l-.15.49c0,.26-.06.47-.07.64a.46.46,0,0,1-.33.39.54.54,0,0,1-.15.23c-.05,0-.13.14-.17.16s-.46,0-.65,0a4,4,0,0,1-.59.1l-.19-.15a.61.61,0,0,1-.14-.17,1,1,0,0,1-.1-.23,1.39,1.39,0,0,0-.19-.35c-.11-.14-.21-.27-.32-.39a.91.91,0,0,1-.2-.59c0-.27,0-.57,0-.87l0-.89c-.05-.27-.08-.4-.13-.67a1.2,1.2,0,0,0,0-.38,4,4,0,0,1-.1-.54q-.06-.48-.12-.9a1.78,1.78,0,0,0-.11-.51.59.59,0,0,1-.06-.24,2.28,2.28,0,0,1,0-.43,2.1,2.1,0,0,0,0-.56,2.63,2.63,0,0,1-.19-.75,2.06,2.06,0,0,0,0-.48c0-.17-.06-.35-.1-.55s-.07-.39-.09-.56a2.57,2.57,0,0,1,0-.45.75.75,0,0,0-.12-.4,1.43,1.43,0,0,0,0-.65c-.05-.2-.1-.4-.14-.6s-.06-.39-.07-.57a4.91,4.91,0,0,0-.13-.68,5,5,0,0,1-.09-1.23,7.81,7.81,0,0,0-.11-1.44.62.62,0,0,0-.16-.2.81.81,0,0,1-.2-.28c-.45-.54-.86-.75-1.23-.64a.6.6,0,0,1-.8-.3,1,1,0,0,1,0-.93.94.94,0,0,1,.55-.21,1,1,0,0,1,.66.14c.3-.14.46-.17.49-.11s.1.09.21.07l.26-.08a.71.71,0,0,1,.26-.06,8,8,0,0,0,2.58-.1l1.36,0a4,4,0,0,1,1.37.23c.07-.14.17-.16.28-.07s.23.2.24.29a.91.91,0,0,1-.64.9l-1,.22a1.88,1.88,0,0,0-.77.25,1.15,1.15,0,0,0-.09,1,4.93,4.93,0,0,1,.34,1.56,1.93,1.93,0,0,0,.09.75c.08.25.08.43,0,.54a2.5,2.5,0,0,1,.42,1.4,5.31,5.31,0,0,0,.17,1.26l-.07.46a6.55,6.55,0,0,1,.3,1.53.86.86,0,0,0,0,.36c0,.12.05.23.07.31a.65.65,0,0,1,0,.28.35.35,0,0,1,.15.16c0,.05.06.09.15.1s.31-.14.48-.4.31-.39.43-.38l.55-1.15c0-.13,0-.2.11-.22s.2-.12.29-.3a.92.92,0,0,1,.26-.36,3,3,0,0,1,.39-.73.77.77,0,0,0,.15-.57,1.62,1.62,0,0,1,.22-.35.82.82,0,0,0,.13-.47.46.46,0,0,0,.34-.28.47.47,0,0,1,.39-.27.92.92,0,0,1,.12-.56,2.09,2.09,0,0,0,.28-.58,2.16,2.16,0,0,1,.56-.78,1.66,1.66,0,0,0,.51-.69.88.88,0,0,1,.2-.38.27.27,0,0,0,.06-.3,1.61,1.61,0,0,0,.57-.37,1.57,1.57,0,0,1,.56-.37l.47.22.44.21a1.53,1.53,0,0,0,.25.62,1.37,1.37,0,0,1,.32.89,1.36,1.36,0,0,0,.08.49,16.46,16.46,0,0,1,.28,1.64,11.84,11.84,0,0,1,.25,1.42,3.48,3.48,0,0,0,0,.55,2.54,2.54,0,0,0,.06.33,2.47,2.47,0,0,1,.09.44c0,.21.06.47.1.78s.08.58.13.8.11.43.16.59a1,1,0,0,1,0,.44,1,1,0,0,0,0,.39c0,.12.06.28.09.47s.07.35.09.49a1.55,1.55,0,0,1,0,.44.44.44,0,0,0,.21.41.31.31,0,0,1,.23,0,.32.32,0,0,0,.19,0,2,2,0,0,1,.62-.29c.19,0,.27-.15.26-.3a.48.48,0,0,1,.08-.34.66.66,0,0,1,.39-.29.58.58,0,0,1,.34-.55.92.92,0,0,0,.42-.75c0-.35.16-.57.38-.66,0-.12,0-.2-.05-.24s-.06-.13,0-.24a1.52,1.52,0,0,0,.39-.37,1.55,1.55,0,0,1,.4-.37c.06-.21.1-.31.16-.52.14,0,.21-.08.23-.18.17-.36.25-.54.43-.91a1.81,1.81,0,0,1,.16-.48,2.1,2.1,0,0,0,.25-.32.42.42,0,0,1,.12-.16c.08-.08.1-.14.05-.17s0-.15.1-.31a1,1,0,0,0,.21-.46c0-.13,0-.19-.12-.17s-.11-.11-.14-.19-.16-.08-.26-.08h-.29c-.09,0-.17-.07-.22-.21a.61.61,0,0,0-.36-.3,2.24,2.24,0,0,1-.68-.46c-.12-.21-.19-.32-.22-.31s-.05,0-.06-.07a.92.92,0,0,1,.18-.62,1.32,1.32,0,0,1,.53,0,.93.93,0,0,0,.51-.08,2.9,2.9,0,0,0,.63.18,4.42,4.42,0,0,0,1.67.51H331a3.16,3.16,0,0,1,.54.15,7,7,0,0,0,.72.23c.3.07.66.15,1.09.22a7.91,7.91,0,0,1,1.28.29.74.74,0,0,0,.17.44c.12.14.11.25.08.3s-.17.48-.36.57l-.58.28q-.12-.21-.36,0a.5.5,0,0,1-.43.1,1.8,1.8,0,0,1-.31-.15,1.09,1.09,0,0,0-.35-.12c-.15,0-.24,0-.27,0s-.12,0-.27-.05a2,2,0,0,1-.39.22.88.88,0,0,0-.3.28c-.09.13-.17.17-.24.14s-.12,0-.14.12a1.41,1.41,0,0,1-.65.57,2,2,0,0,1-.19.62c-.05.11-.09.28-.19.34a.58.58,0,0,0-.25.2c-.05.12-.08.29-.16.36a.41.41,0,0,0-.1.35c0,.16,0,.23-.14.23s-.16.06-.19.2a.51.51,0,0,1-.19.33.51.51,0,0,0-.17.41,5.15,5.15,0,0,1-.43.47l-.08.46a1,1,0,0,0-.28.37,1.54,1.54,0,0,1-.28.42c-.13.14-.18.24-.17.3s0,.14-.14.23a.93.93,0,0,0-.22.31.47.47,0,0,1-.23.25l-.07.39a6.31,6.31,0,0,0-.64.62,1.25,1.25,0,0,1-.17.66,1,1,0,0,0-.17.63c-.12.1-.18.18-.17.24a.37.37,0,0,1-.12.22.54.54,0,0,1-.2.16.48.48,0,0,0-.15.25,1.78,1.78,0,0,0-.09.31,3.78,3.78,0,0,1-.13.42.82.82,0,0,1-.4.46.7.7,0,0,0-.33.61c0,1-.26,1.59-.65,1.86-.06.35-.17.54-.32.57a1.2,1.2,0,0,1-.33.85,1.59,1.59,0,0,0-.39.1,1,1,0,0,1-.47.05.85.85,0,0,1-.43-.22,1.07,1.07,0,0,0-.32-.22q-.12,0-.09-.21c-.18,0-.28-.14-.31-.4s-.1-.41-.19-.44a1,1,0,0,0-.09-.6c-.1-.28-.17-.48-.2-.6a.69.69,0,0,1,0-.35.24.24,0,0,0-.15-.27,2,2,0,0,0,0-.73c-.05-.25-.08-.51-.11-.76a5,5,0,0,0-.07-.6,4.37,4.37,0,0,1-.08-.56,5.68,5.68,0,0,1,0-.87,6.75,6.75,0,0,0-.05-.94c0-.27-.06-.51-.07-.72a3.79,3.79,0,0,0-.09-.54,2.09,2.09,0,0,0-.13-.38,1.19,1.19,0,0,1-.1-.32.73.73,0,0,1,0-.33.74.74,0,0,0,0-.29,1,1,0,0,0-.08-.24,1.21,1.21,0,0,1-.08-.36c0-.16,0-.38,0-.66s0-.51,0-.69a2.2,2.2,0,0,0-.05-.39,1.24,1.24,0,0,1-.06-.35,1.21,1.21,0,0,1,.06-.52c.05-.18,0-.34-.28-.48a.73.73,0,0,0-.43.61,1.67,1.67,0,0,1-.28.72q-.22.27-.27.27s-.1.12-.17.37-.44.44-.61.6-.42.78-.71,1.2a2.62,2.62,0,0,0-.43.74.47.47,0,0,1-.13.27.63.63,0,0,0-.17.37,1.43,1.43,0,0,1-.33.59,1.07,1.07,0,0,0-.29.68,1.06,1.06,0,0,1-.07.48,1.15,1.15,0,0,1-.24.33,1.13,1.13,0,0,0-.24.42c-.07.17-.13.35-.2.55a1.81,1.81,0,0,1-.21.48.33.33,0,0,0-.07.3A.66.66,0,0,1,314.21,323.34Z"/></svg>