<svg id="Layer_1" data-name="Layer 1" xmlns="http://www.w3.org/2000/svg" xmlns:xlink="http://www.w3.org/1999/xlink" viewBox="0 0 445.69 400.6"><defs><style>.cls-1{fill:#1a472a;}.cls-2,.cls-3{fill:#5e5e5e;}.cls-2{stroke:#5e5e5e;stroke-miterlimit:10;}.cls-4{clip-path:url(#clip-path);}.cls-5{clip-path:url(#clip-path-2);}.cls-6{opacity:0.2;}.cls-7{clip-path:url(#clip-path-3);}.cls-8{fill:#fff;}.cls-9{fill:#1d1d1b;}</style><clipPath id="clip-path"><path d="M306.8,187.42a20.83,20.83,0,0,1,9,7.41c1.9,2.95,3.74,8.61.44,11.3a5.7,5.7,0,0,1-5.18.69,25,25,0,0,1-4.86-2.4c-2.65-1.46-4.92-1.53-7.88-1.49-3.15,0-6.3.16-9.45.29-6.37.28-12.74.67-19.11.9a193.75,193.75,0,0,1-38.92-2.72c-11.69-2-23.47-4.65-33.93-10.41-19-10.5-32.94-39-12.79-55.55a56.1,56.1,0,0,1,13.78-8.14c6.31-2.71,12.87-4.93,18.82-8.4,6.43-3.74,10-12.36,5.65-19-3.1-4.71-8.89-6.68-14-9.07-1.4-.66-2.87-1.46-3.52-2.85a4.52,4.52,0,0,1,.71-4.52,9.14,9.14,0,0,1,3.91-2.69,22,22,0,0,1,16.28.31,31.06,31.06,0,0,1,12.91,10.27,29.58,29.58,0,0,1,6.18,15c.78,8.88-3.79,17.81-10.88,23.21-6.29,4.79-14.25,6.95-21.54,10-6.73,2.79-15.31,7-15.46,15.38-.24,14,12.18,23.68,24.53,27.12,9,2.51,18.4,3,27.69,3.21,14.72.35,29.45-.17,44.17-.56a30.14,30.14,0,0,1,11.88,2.16C305.76,187,306.27,187.18,306.8,187.42Z"/></clipPath><clipPath id="clip-path-2"><path d="M151,217.54c2.95-6.95,10.08-10.64,17.35-11.82,14.75-2.4,29.38.43,44,2,17.6,1.88,34.83,5.52,52.29,8,9.41,1.35,19.16,1.06,28.65,1-2.75,4.16-7.44,6.58-12.08,8.44a53.23,53.23,0,0,1-11.11,3.26c-16,2.63-31.54-.79-47.24-3.6q-15.47-2.76-31.09-4.45c-9.2-1-20.14-3.21-29.16-.3-4,1.29-7.67,4.07-9.06,8-.46,1.32-.71,2.85-1.28,4.1-.35.78-1.39,1.37-2,.82a2,2,0,0,1-.47-1.29c-.39-4.19-.61-8.51.63-12.53C150.55,218.61,150.74,218.07,151,217.54Z"/></clipPath><clipPath id="clip-path-3"><path d="M161.59,181.12c6.14-1.93,14.34,0,20.36,1.58,5.84,1.55,11.3,4.14,17,6a161.14,161.14,0,0,0,19.09,5.07,188.4,188.4,0,0,0,25.7,3.21c6.14.37,12.29.29,18.43.3a184,184,0,0,0,20.2-.85c3.46-.38,6.89-1,10.3-1.64,3.18-.64,6.34-1.59,9.6-1.66a26.24,26.24,0,0,1,11.1,2.08c5.54,2.4,5.73,8.56,4.09,13.66a16.28,16.28,0,0,1-10.69,10.68c-11.5,3.49-24.41,1.22-36.22,1-13-.21-26-.68-39-1.78-9-.76-17.9-1.82-26.77-3.31-1.67-.28-3.34-.58-5-.88q-13.42-2.47-26.82-5.07c-7.9-1.52-17.28-3.49-20-12.28a12.79,12.79,0,0,1,8.33-16.08Z"/></clipPath></defs><path class="cls-1" d="M117.06,81.38s105.52-124.46,217.54,0c0,0,37.88-38,40-27.66,0,0-96.32,109.91,0,188.92,0,0-10.82,73.59-27.05,77.92l-42.21,36.8s-33.25,5.41-80.48,33.55"/><path class="cls-1" d="M334.06,81.38s-105.52-124.46-217.54,0c0,0-37.88-38-40-27.66,0,0,96.32,109.91,0,188.92,0,0,10.82,73.59,27.06,77.92l42.2,36.8s33.25,5.41,80.48,33.55"/><path class="cls-2" d="M52.72,276.27s177.49-42.2,178-31.38v46.54S84.1,305.49,69,315.23a23.48,23.48,0,0,0,2.7-19C69.71,289.87,64.49,282.77,52.72,276.27Z"/><path class="cls-2" d="M97.7,307.66l-21.07,6.93,13,14.07c-26,14.06-71.43,0-71.43,0,20.56-3.25,22.73-32.47,22.73-32.47l33-.63"/><path class="cls-2" d="M406.72,276.27s-177.49-42.2-178-31.38V247a19.55,19.55,0,0,1,8.62,3.34,4.52,4.52,0,0,1,4,3.61c3.24,3.78-.57,8.94-4.34,8.33-2.05.51-4.14.9-6.21,1.32a89.43,89.43,0,0,1,9.42,3.1c4.76,1.91,4.58,9.43-1.09,9.55a3.92,3.92,0,0,1-4.53,3.26c-2-.21-3.93-.38-5.9-.55v12.43s146.65,14.06,161.8,23.8a23.48,23.48,0,0,1-2.7-19C389.73,289.87,395,282.77,406.72,276.27Z"/><path class="cls-2" d="M361.74,307.66l21.07,6.93-13,14.07c26,14.06,71.43,0,71.43,0-20.56-3.25-22.73-32.47-22.73-32.47l-33-.63"/><path class="cls-3" d="M250.29,268.9l-16.37-4.85a43.74,43.74,0,0,1,14.49,2.74"/><path class="cls-3" d="M251,266.49l-16.37-4.86-.66,4.92a42,42,0,0,1,13.82,2.65,2.51,2.51,0,0,0,3.08-1.74,2.57,2.57,0,0,0-1.75-3.08,46.36,46.36,0,0,0-15.15-2.83c-2.86-.06-3.34,4.11-.67,4.91l16.37,4.85a2.52,2.52,0,0,0,3.08-1.74,2.56,2.56,0,0,0-1.75-3.08Z"/><path class="cls-3" d="M250.3,260.7l.06,4.49a2,2,0,0,1-.18,1.09c-.5.86-1.8.56-2.73.18a49.8,49.8,0,0,0-22.8-3.57,157.75,157.75,0,0,1,27.66.39c-.6-1.55-2.47-2.11-4.1-2.45q-11.42-2.4-23-3.86l25.14-2a211,211,0,0,0-27.22-3.44c1.45-1.79,4.09-1.93,6.39-1.92l12.62.08c3.78,0,7.75.09,11.06,1.91a1.36,1.36,0,0,1,.51.41,1.26,1.26,0,0,1-.12,1.18c-1.54,3-5.38,3.79-8.68,4.53a59.14,59.14,0,0,0-24.07,11.55l21.4-1.73c5.07-.41,10.33-.79,15.08,1l-34.49,2.09,27.16,4a14.48,14.48,0,0,1,4.95,1.33A34.37,34.37,0,0,1,241.26,272l16.72.36L225.06,275l27.25,3.32c-.39.89-1.53,1.11-2.5,1.18-4.66.33-9.33-.23-14-.14s-9.52.9-13.32,3.62a82.08,82.08,0,0,1,22.14-.17,2.28,2.28,0,0,1,1.78.83c.54.91-.4,2-1.4,2.4-3.4,1.21-6.75-1.9-10.31-2.51-4-.68-7.95,1.81-11.91,1.14l14.33-.05c1.8,0,3.84.09,5,1.47-6.07.77-12.81-2.63-18.05.54,5.86,1.1,12.17-2,17.74.15a91.61,91.61,0,0,1-9.91-1.41"/><path class="cls-3" d="M247.8,260.7l0,2.74a6.83,6.83,0,0,1-.07,2.18l.64-1.11c.34-.44.89.12.3-.25a7.57,7.57,0,0,0-1.23-.46c-1.06-.42-2.14-.81-3.23-1.15a48.79,48.79,0,0,0-6.2-1.53,52.78,52.78,0,0,0-13.4-.73,2.57,2.57,0,0,0-2.5,2.5,2.52,2.52,0,0,0,2.5,2.5,161.72,161.72,0,0,1,27.66.39c2.07.2,2.86-2.23,2.15-3.77-.92-2-3.05-3-5.09-3.48-2.6-.62-5.25-1.09-7.89-1.57-5.4-1-10.83-1.8-16.27-2.49v5l25.14-2a2.53,2.53,0,0,0,2.46-2.17,2.47,2.47,0,0,0-1.79-2.74A219.86,219.86,0,0,0,223.13,249l1.77,4.27c1.14-1.3,3-1.19,4.62-1.19l8.5,0c2.57,0,5.15,0,7.72.12a19.36,19.36,0,0,1,3.3.43c.83.19,2.29.43,2.9,1.07l-.64-1.1c.23-.83.22-1,0-.46l-.17.28a4.12,4.12,0,0,1-.45.48,5.78,5.78,0,0,1-1.39.89,16.14,16.14,0,0,1-3.33,1.06,80,80,0,0,0-9.26,2.61,63.42,63.42,0,0,0-17.6,10c-1.67,1.33-.3,4.43,1.77,4.27l18.91-1.53c5.62-.45,11.49-1.25,16.91.73l.66-4.91-34.49,2.09a2.51,2.51,0,0,0-2.45,2.16,2.47,2.47,0,0,0,1.79,2.75l16.3,2.38,7.9,1.16c2.37.35,5.14.41,7.31,1.52l1.26-4.66a32.24,32.24,0,0,1-12.42-3.57l-1.26,4.66,16.72.36v-5l-32.92,2.6a2.5,2.5,0,0,0,0,5l27.25,3.32-2.16-3.76a1,1,0,0,1,.31-.2c-.18,0-.47.12-.65.15a15.7,15.7,0,0,1-1.69.07c-1.45.05-2.89,0-4.34,0-2.8-.09-5.59-.27-8.39-.19-4.93.14-10,1.08-14.16,3.95-2.43,1.69-.85,5,1.93,4.57a80,80,0,0,1,11.36-.75q2.89,0,5.79.23,1.32.11,2.64.24c.42,0,.85.12,1.28.15.77.06.28.23.14-.08l-.34-1.26c0,.51.12.39.29-.39,0,.14-.06.21-.28.22s-.62.07-.79.07a6.89,6.89,0,0,1-2.14-.55,38.45,38.45,0,0,0-5.37-2.08,15.63,15.63,0,0,0-6.63.27c-1.82.39-3.78,1.07-5.66.8l-.66,4.91,10.13,0c1.58,0,3.17,0,4.75,0a3.58,3.58,0,0,1,2.69.73l1.76-4.26c-6.51.73-13.17-2.65-19.31.88-1.73,1-1.59,4.2.6,4.57a31,31,0,0,0,9.22-.18c2.87-.36,5.74-.68,8.51.33l.67-4.91a89.73,89.73,0,0,1-9.24-1.32,2.57,2.57,0,0,0-3.08,1.75,2.52,2.52,0,0,0,1.75,3.07,101.45,101.45,0,0,0,10.57,1.5,2.47,2.47,0,0,0,2.45-2.17,2.52,2.52,0,0,0-1.79-2.74,19.44,19.44,0,0,0-9-.61c-2.86.34-5.86.95-8.73.46l.59,4.57c2.4-1.38,5.21-1.1,7.86-.78,3,.36,5.93.91,8.93.58,2.11-.24,3.36-2.59,1.77-4.27-2.44-2.59-6.24-2.21-9.49-2.19l-11.61,0a2.5,2.5,0,0,0-2.46,2.17,2.47,2.47,0,0,0,1.79,2.74,16.68,16.68,0,0,0,5.85-.25,27.76,27.76,0,0,1,5.09-.92c3.36,0,6.17,2.48,9.49,2.85a6.45,6.45,0,0,0,5.07-1.46,3.91,3.91,0,0,0,.56-5.43c-1.42-1.62-3.72-1.6-5.71-1.81s-4.17-.34-6.26-.39a87.57,87.57,0,0,0-14.38.9l1.93,4.57c4.25-3,9.43-3.37,14.46-3.27,2.9.05,5.8.25,8.7.23,2.67,0,6,.13,7.55-2.52,1-1.79-.34-3.54-2.16-3.76l-27.25-3.32v5l32.92-2.6c3.18-.25,3.26-4.93,0-5l-16.72-.36c-2.43,0-3.48,3.51-1.26,4.66a38.49,38.49,0,0,0,14.94,4.25c2.46.18,3.43-3.56,1.27-4.66-2.38-1.21-4.92-1.49-7.53-1.87l-8.39-1.23-16.79-2.46-.67,4.91L257.32,271a2.51,2.51,0,0,0,.67-4.91c-5.69-2.08-11.84-1.42-17.74-.95l-19.41,1.57,1.77,4.26a56.6,56.6,0,0,1,13-7.73,56,56,0,0,1,7-2.45c2.19-.6,4.45-1,6.61-1.66a11.39,11.39,0,0,0,5.55-3.39c1.88-2.31,2-5.21-.93-6.64-4.91-2.37-10.58-2-15.88-2-3.12,0-6.26-.11-9.38,0-2.64.06-5.45.56-7.28,2.64a2.54,2.54,0,0,0,1.77,4.27,210,210,0,0,1,26.56,3.35l.66-4.91-25.14,2a2.5,2.5,0,0,0,0,5q7,.88,14,2.14,3.47.63,6.92,1.33c1.23.25,3.46.35,4,1.6l2.16-3.76a161.72,161.72,0,0,0-27.66-.39v5a48.14,48.14,0,0,1,17.62,1.88c1.39.42,2.75.9,4.09,1.43a6,6,0,0,0,3.85.48c3.55-1,2.63-5.69,2.59-8.48-.05-3.21-5.05-3.22-5,0Z"/><path class="cls-3" d="M223.38,250.24a43.37,43.37,0,0,0,19.65-.9c-2.83-1.18-5.83-2.38-8.86-1.91-1.19.18-2.33.62-3.52.86-2.62.53-5.69.22-7.6,2.1"/><path class="cls-3" d="M222.72,252.65a46.93,46.93,0,0,0,21-.9,2.57,2.57,0,0,0,1.83-2.41,2.63,2.63,0,0,0-1.83-2.42,26.42,26.42,0,0,0-5.79-1.86,15.16,15.16,0,0,0-6.69.51c-3.28.9-7.09.42-9.94,3.05-2.37,2.19,1.18,5.72,3.54,3.53a5.86,5.86,0,0,1,2.92-1,32.6,32.6,0,0,0,4.81-.79,9.48,9.48,0,0,1,4.57-.42,28.74,28.74,0,0,1,5.25,1.78v-4.83a41.15,41.15,0,0,1-18.33.91,2.57,2.57,0,0,0-3.07,1.75,2.52,2.52,0,0,0,1.75,3.07Z"/><path d="M306.8,187.42a20.83,20.83,0,0,1,9,7.41c1.9,2.95,3.74,8.61.44,11.3a5.7,5.7,0,0,1-5.18.69,25,25,0,0,1-4.86-2.4c-2.65-1.46-4.92-1.53-7.88-1.49-3.15,0-6.3.16-9.45.29-6.37.28-12.74.67-19.11.9a193.75,193.75,0,0,1-38.92-2.72c-11.69-2-23.47-4.65-33.93-10.41-19-10.5-32.94-39-12.79-55.55a56.1,56.1,0,0,1,13.78-8.14c6.31-2.71,12.87-4.93,18.82-8.4,6.43-3.74,10-12.36,5.65-19-3.1-4.71-8.89-6.68-14-9.07-1.4-.66-2.87-1.46-3.52-2.85a4.52,4.52,0,0,1,.71-4.52,9.14,9.14,0,0,1,3.91-2.69,22,22,0,0,1,16.28.31,31.06,31.06,0,0,1,12.91,10.27,29.58,29.58,0,0,1,6.18,15c.78,8.88-3.79,17.81-10.88,23.21-6.29,4.79-14.25,6.95-21.54,10-6.73,2.79-15.31,7-15.46,15.38-.24,14,12.18,23.68,24.53,27.12,9,2.51,18.4,3,27.69,3.21,14.72.35,29.45-.17,44.17-.56a30.14,30.14,0,0,1,11.88,2.16C305.76,187,306.27,187.18,306.8,187.42Z"/><g class="cls-4"><path d="M283.83,205.94l-11.24-2.4c2.38-11.12,11.11-21,22.23-25.3a35.68,35.68,0,0,1,24.14-.47l.48,15.87c-5.23-1.77-14.95-3.57-20.11-1.59C291.87,194.9,285.39,198.64,283.83,205.94Z"/><path d="M248.43,203.72a36.23,36.23,0,0,1,10.44-29.15L272,178.8c-6.54,3.83-12.91,16.58-12.18,23.74Z"/><path d="M221.33,209.79l-5.65-10a18.82,18.82,0,0,0,5.22-4.5,34.28,34.28,0,0,0,6.79-15.85l11.36,1.72c0,7.14-3.89,15.75-8.66,21.9C228.13,206,224.56,208,221.33,209.79Z"/><path d="M181.77,196.22c-1.06,0-2.13,0-3.2-.13l1-11.45A27,27,0,0,0,206.84,168l9.51,3.9C214,181.12,210,189.71,203,194,197,197.64,188.84,196.22,181.77,196.22Z"/><path d="M183.87,169.31c-8.3.87-17.06.52-25.05-3.71l7.34-22.37C176.39,148.65,188,155.57,199,152l3.56,10.93C197.28,166.59,192.17,168.43,183.87,169.31Z"/><path d="M212.29,150.84c-12.33-5.13-24.25-13.92-29.7-26l15-7.42c4.26,9.43,9.44,18.77,19.1,22.79Z"/><path d="M232.47,135.71c-6.71-8.25-17-14-27-17.7l4-10.76c11.86,4.46,30.11,6.82,38.11,16.65Z"/><path d="M221.12,105.92l-6.73-9.32c9.8-7.07,18.11-13.45,29.73-13.71l4,16.65C238.4,99.76,228.36,100.68,221.12,105.92Z"/></g><path d="M151,217.54c2.95-6.95,10.08-10.64,17.35-11.82,14.75-2.4,29.38.43,44,2,17.6,1.88,34.83,5.52,52.29,8,9.41,1.35,19.16,1.06,28.65,1-2.75,4.16-7.44,6.58-12.08,8.44a53.23,53.23,0,0,1-11.11,3.26c-16,2.63-31.54-.79-47.24-3.6q-15.47-2.76-31.09-4.45c-9.2-1-20.14-3.21-29.16-.3-4,1.29-7.67,4.07-9.06,8-.46,1.32-.71,2.85-1.28,4.1-.35.78-1.39,1.37-2,.82a2,2,0,0,1-.47-1.29c-.39-4.19-.61-8.51.63-12.53C150.55,218.61,150.74,218.07,151,217.54Z"/><g class="cls-5"><path d="M274.29,245.06l-19.08-2.5c3.06-7.56,5.75-21.81-2.56-34.47l12.9-3.29C272.2,214.93,280.34,230.13,274.29,245.06Z"/><path d="M239.32,236.49l-15.71-1.12c.79-9.94,2.19-19.69,2.39-29.68h14.05v2.93C240.06,217.74,240.06,227.17,239.32,236.49Z"/><path d="M198.55,229.91c-1.31-9.51-3.18-21,1-29.64l11.11,4.52c-3.19,6.65.38,17.82,2.46,23.88Z"/><path d="M170.63,225.4a71.5,71.5,0,0,1,.09-8.57c.08-1.59.15-3.1.16-4.61l.1-14.7,11.49.07c3.19,0,2.52,27.35,2.84,27.34Z"/><path d="M158.42,232c-2.3-5.65-6.78-7.72-15.07-9.83l2.83-16.25c10.24,2.6,18.15,10.12,22.88,21.75Z"/></g><g class="cls-6"><path d="M269.68,216.31c-.39.09-.77.18-1.15.25-15.9,3.25-31.55.45-47.34-1.74q-15.57-2.16-31.25-3.23c-11.9-.81-31.49-5.4-37.71,8.83a21.73,21.73,0,0,0-1.68,7.75c0,.41-.08,3.11-.06,5a1.59,1.59,0,0,0,1.76-1c.57-1.26.82-2.78,1.28-4.1,1.39-3.94,5.08-6.73,9.06-8,9-2.91,20-.69,29.16.29q15.62,1.68,31.09,4.45c15.7,2.81,31.22,6.23,47.24,3.61a53.87,53.87,0,0,0,11.11-3.27c4.64-1.85,9.33-4.27,12.08-8.44C285.47,216.77,277.5,217,269.68,216.31Z"/></g><path d="M155.84,97.86c4.15-4.68,17.76-11,27.87-10-8.83,2.13-18.46,6.07-23.25,12.45-.53-1.65-.79-2.92-.79-2.92Z"/><g class="cls-6"><path d="M208.39,90.8c.94.44,1.9.86,2.87,1.29a4.92,4.92,0,0,1-2-2,4.33,4.33,0,0,1,.69-4.34,8.78,8.78,0,0,1,3.76-2.59,21.2,21.2,0,0,1,15.66.3A26.21,26.21,0,0,1,232.47,85a27.72,27.72,0,0,0-6.69-3.91,22.06,22.06,0,0,0-16.29-.31,9.14,9.14,0,0,0-3.91,2.69,4.52,4.52,0,0,0-.71,4.51C205.52,89.34,207,90.14,208.39,90.8Z"/><path d="M316.33,203.7a5.5,5.5,0,0,1-5,.67c-4.88-1.45-7.77-6-12.3-8.06-5.09-2.28-10.25-2.73-15.79-2.61-24.44.52-49.7,2.17-73.49-4.73-6.94-2-14.51-5-19.78-10.11a33,33,0,0,1-9.61-18.78c-1.33-9.12,1.68-18.43,8.89-24.36a54.18,54.18,0,0,1,13.26-7.83c6.07-2.6,12.38-4.73,18.1-8.07,6.18-3.6,9.65-11.89,5.43-18.3-2.44-3.71-6.6-5.65-10.72-7.49a18.19,18.19,0,0,1,7,5.84c4.39,6.67.78,15.29-5.65,19-6,3.47-12.51,5.69-18.82,8.4a56.29,56.29,0,0,0-13.78,8.14C164,152,177.9,180.49,196.93,191c10.46,5.76,22.24,8.46,33.93,10.41a193.75,193.75,0,0,0,38.92,2.72c6.37-.23,12.74-.62,19.11-.9,3.15-.13,6.3-.24,9.45-.29,3,0,5.23,0,7.89,1.49a24.59,24.59,0,0,0,4.85,2.4,5.7,5.7,0,0,0,5.18-.69c1.63-1.33,2-3.38,1.73-5.48A4.71,4.71,0,0,1,316.33,203.7Z"/></g><path d="M161.59,181.12c6.14-1.93,14.34,0,20.36,1.58,5.84,1.55,11.3,4.14,17,6a161.14,161.14,0,0,0,19.09,5.07,188.4,188.4,0,0,0,25.7,3.21c6.14.37,12.29.29,18.43.3a184,184,0,0,0,20.2-.85c3.46-.38,6.89-1,10.3-1.64,3.18-.64,6.34-1.59,9.6-1.66a26.24,26.24,0,0,1,11.1,2.08c5.54,2.4,5.73,8.56,4.09,13.66a16.28,16.28,0,0,1-10.69,10.68c-11.5,3.49-24.41,1.22-36.22,1-13-.21-26-.68-39-1.78-9-.76-17.9-1.82-26.77-3.31-1.67-.28-3.34-.58-5-.88q-13.42-2.47-26.82-5.07c-7.9-1.52-17.28-3.49-20-12.28a12.79,12.79,0,0,1,8.33-16.08Z"/><g class="cls-7"><path d="M313.08,226.29c-.08.38-12.06,0-13.09,0a16.57,16.57,0,0,1-3.07,0c-1.35-.28-1,0-.85-1.63.48-5.29.5-10.57-1.12-15.7a24.44,24.44,0,0,0-5.18-9.14c-.53-.57-7.79-6-8.08-5.41.62-1.32,1.24-2.64,1.88-3.95q7.41,2.85,14.73,6c4.1,1.75,8.68,4.07,11.72,7.41,4.53,5,4.5,12.52,3.66,18.78C313.52,223.85,313.31,225.07,313.08,226.29Z"/><path d="M278.68,229.9l-14.86-4.34a32.44,32.44,0,0,0,2.05-16.64c-.7-5-3.25-9.78-6-14.81l-.56-1,10.13-5.44.55,1c3.07,5.71,9.34,14.3,10.32,21.38C281.41,217.73,281.57,222.84,278.68,229.9Z"/><path d="M248.68,227.18l-15-1.72,3.09-27c.1-.88.16-1.82.22-2.81a42.81,42.81,0,0,1,.63-5.74l11.27,2.25a31.62,31.62,0,0,0-.43,4.2c-.07,1.1.86,9.63.72,10.8Z"/><path d="M206.22,220.53c-1.82-12,2.24-26.12,9.22-34.22l10,5.58a43.82,43.82,0,0,0-5,27.72Z"/><path d="M176.21,218.48a73.75,73.75,0,0,1,2.3-21.41c2.28-9,10.46-15.95,17.57-19.35l5,10.36c-4,1.9-7.17,6.4-8.59,12-1.46,5.8-1.16,12.28-.87,18.54Z"/><path d="M156.3,219.43c-8.17-10.74-7.74-28,.95-38.52,4.15-5,10-8.88,17.42-11.51l3.84,10.83c-5.42,1.92-9.6,4.62-12.41,8-5.3,6.4-5.6,17.73-.66,24.24Z"/></g><g class="cls-6"><path d="M317.51,203A16.16,16.16,0,0,1,307,213.71c-11.34,3.49-24.06,1.23-35.71,1-12.81-.22-25.63-.68-38.41-1.78-8.83-.76-17.64-1.83-26.39-3.32-1.65-.28-3.29-.58-4.94-.88q-13.23-2.46-26.45-5.06c-7.78-1.53-17-3.49-19.74-12.29a13.11,13.11,0,0,1-.49-5.49A12.69,12.69,0,0,0,153,197.29c2.75,8.79,12.14,10.76,20,12.28q13.41,2.6,26.82,5.07c1.67.3,3.34.6,5,.88,8.87,1.49,17.8,2.55,26.76,3.31,13,1.1,26,1.57,39,1.78,11.81.2,24.72,2.47,36.22-1a16.28,16.28,0,0,0,10.69-10.68,15.37,15.37,0,0,0,.58-8.11A21,21,0,0,1,317.51,203Z"/></g><path d="M211.77,70.69a88.74,88.74,0,0,0-15.55-.7c-4.65.07-9.87.54-14,3-4.64,2.77-8.2,8.93-5.1,14.09,3.35,5.59,12.46,6.79,18.31,7.91a185.63,185.63,0,0,0,20.88,2.8c7.27.55,11.67-3.63,11.47-11.1C227.46,76,220.23,72.09,211.77,70.69Z"/><g class="cls-6"><path d="M226.15,79.56l0,.13c1.08,7.4-3,12.09-10.56,12.43a200.18,200.18,0,0,1-21.91-.22c-4-.26-9.41-.4-13.86-1.85,4.25,3.13,10.91,4.07,15.54,5a185.63,185.63,0,0,0,20.88,2.8c7.27.55,11.67-3.63,11.47-11.1A17.22,17.22,0,0,0,226.15,79.56Z"/></g><g class="cls-6"><circle cx="208.43" cy="78.44" r="5.4"/></g><ellipse cx="208.43" cy="78.64" rx="3.48" ry="3.24"/><path class="cls-8" d="M210.9,79.14a1.24,1.24,0,1,1-1.23-1.24A1.24,1.24,0,0,1,210.9,79.14Z"/><g class="cls-6"><path d="M159.65,184.13a36.12,36.12,0,0,1,13.09,2.26c3.93,1.28,8.1,2.28,12.12,3.43a120.53,120.53,0,0,0,27.79,4.51"/><path class="cls-8" d="M159.65,184.13a20,20,0,0,1,7-.9,39,39,0,0,1,7,1l6.52,1.38c1.1.24,2.2.51,3.31.77l3.28.87c4.24,1.17,8.5,2.3,12.8,3.42s8.65,2.23,13.1,3.68a49.18,49.18,0,0,1-13.83,1A66.44,66.44,0,0,1,185.16,193l-3.25-1c-1.07-.33-2.15-.64-3.23-1a67,67,0,0,1-6.49-2.39A65.8,65.8,0,0,0,159.65,184.13Z"/></g><g class="cls-6"><path d="M269.7,188.77c10.65-.2,21.85-1.67,32.26,1.13a22,22,0,0,1,6.44,2.66,10.72,10.72,0,0,1,4.39,5.27"/><path class="cls-8" d="M269.7,188.77a66.79,66.79,0,0,1,11.51-2.8,53.53,53.53,0,0,1,11.9-.54,34.67,34.67,0,0,1,11.9,2.93,16.35,16.35,0,0,1,5.27,3.73,9.13,9.13,0,0,1,2.51,5.74,12.12,12.12,0,0,0-4.34-3.42,21.05,21.05,0,0,0-5-1.59,87.92,87.92,0,0,0-10.82-1.41c-3.67-.29-7.44-.43-11.28-.74A57.11,57.11,0,0,1,269.7,188.77Z"/></g><g class="cls-6"><path d="M238,97a29,29,0,0,1,2.15,15.34,18.93,18.93,0,0,1-8,13"/><path class="cls-8" d="M238,97a16.52,16.52,0,0,1,4.44,7.17,18.86,18.86,0,0,1,.67,8.63,17,17,0,0,1-3.57,8.08,11.85,11.85,0,0,1-7.38,4.42,37.48,37.48,0,0,0,3.33-6.85,36,36,0,0,0,1.7-6.58,53.5,53.5,0,0,0,.6-7C237.88,102.39,237.83,99.84,238,97Z"/></g><g class="cls-6"><path d="M180.85,80.39c.47-2.88,3.12-5,5.91-5.84,4.06-1.25,8.94-1.11,13.12-.73"/><path class="cls-8" d="M180.85,80.39a4.79,4.79,0,0,1,.06-3.21,7.34,7.34,0,0,1,1.82-2.8,9.49,9.49,0,0,1,2.75-1.89,14.11,14.11,0,0,1,3-.92,15.86,15.86,0,0,1,5.91,0,14.23,14.23,0,0,1,5.49,2.23,26.42,26.42,0,0,1-5.47,1.7c-1.75.38-3.41.67-5,1-.79.13-1.62.32-2.31.46a16.81,16.81,0,0,0-2.1.64A9.55,9.55,0,0,0,180.85,80.39Z"/></g><path class="cls-3" d="M72,295.84a44.81,44.81,0,0,0,41.59-9.07c1.68-1.45.29-4.26-1.77-4.26l-29.21,0H77.39a6.31,6.31,0,0,0-1.84,0c-.74-.09-.55.61.58,2.11a.41.41,0,0,1,.33-.23c.14,0,.71-.25.82-.28,1.17-.35,2.35-.68,3.52-1l13.84-4c2.23-.65,2.52-4.35,0-4.82a55.8,55.8,0,0,0-15.9-.73v5q8.17-.94,16.25-2.59a2.5,2.5,0,0,0-1.33-4.82c-4.94,1-9.91,1.83-14.92,2.41a2.58,2.58,0,0,0-2.5,2.5,2.51,2.51,0,0,0,2.5,2.5,51.21,51.21,0,0,1,14.57.55v-4.82L80.64,277.9c-3,.88-10.21,1.88-9.17,6.6.49,2.26,2.6,3,4.67,3h35.71l-1.77-4.27A39.67,39.67,0,0,1,73.36,291c-3.09-.92-4.41,3.91-1.33,4.82Z"/><path class="cls-3" d="M95.28,275.35a65.29,65.29,0,0,1-3.21,11.57c-.62,1.59-2.06,6-4.27,5.44a2.42,2.42,0,0,1-.66-4.38,3.92,3.92,0,0,1,2.85-.75c1,.15,1.28.55.54,1.36s-2.42,1.07-3.54,1.2-3.19.43-4.19-.49c-.79-.72-.55-1,.3-1.43a12.52,12.52,0,0,1,5.13-1c1.91,0,3.6.7,5.46,1a7.54,7.54,0,0,0,5.22-.86c2.64-1.57,4.78-4.94,5.64-7.86,1.32-4.44-3.85-7.3-7.48-5.19-1.83,1.06-2.9,2.93-3.92,4.71l-3.53,6.16a2.53,2.53,0,0,0,2.16,3.76l8.61.86-1.77-4.27c-1.31,1.13-3.37,1-5,.87-2.42-.22-4.8-.85-7.25-.58-4.26.45-8.87,4.14-7.59,8.91,1.12,4.18,5.51,4.94,9.2,4.33a31.51,31.51,0,0,0,5.45-1.68q3.54-1.26,7.19-2.21a83,83,0,0,1,16.51-2.53c3.2-.17,3.24-5,0-5-4.9,0-9.81,0-14.72.08a11.14,11.14,0,0,0-6.53,1.81,54.63,54.63,0,0,1-4.46,3.4c-3,1.72-6.49,2.4-9.78,3.39-3.54,1.06-7,2.48-9.63,5.11a2.52,2.52,0,0,0,1.1,4.18,47,47,0,0,0,36-7.18,2.58,2.58,0,0,0,1.15-2.83,2.5,2.5,0,0,0-2.41-1.83,82.84,82.84,0,0,0-22.39,5.16,2.58,2.58,0,0,0-1.75,3.08,2.53,2.53,0,0,0,3.08,1.75,77.93,77.93,0,0,1,21.06-5l-1.26-4.66a41.93,41.93,0,0,1-32.14,6.68l1.1,4.17c2.31-2.27,5.41-3.25,8.46-4.12a47.06,47.06,0,0,0,9.64-3.42A27.54,27.54,0,0,0,98,293.89a6.78,6.78,0,0,1,4.87-1.46q7.13-.06,14.26-.08v-5A87.54,87.54,0,0,0,91,292.68,21.48,21.48,0,0,1,86.69,294a9,9,0,0,1-1.77.05,2.38,2.38,0,0,1-1.06-.4,1.44,1.44,0,0,1-.28-.62,2.33,2.33,0,0,1,.83-1.5c1.27-1.19,3.13-1.1,4.75-1a48.68,48.68,0,0,0,6.59.64,10.21,10.21,0,0,0,6.41-2.39c1.81-1.56.18-4.08-1.77-4.27l-8.61-.86,2.16,3.77c1.21-2.13,2.43-4.25,3.65-6.38a10.41,10.41,0,0,1,1.49-2.28,2.22,2.22,0,0,1,.52-.45c.4-.22.33-.07.19,0s.26-.08.17,0,.19,0,.2.11c0,.78-.36-.44-.35-.44-.17-.13.29-.76-.14.12l-.15.31a18,18,0,0,1-1.36,2.47c-.72,1.11-1.71,2.31-3.13,2.24a17.06,17.06,0,0,1-2.88-.71,19.2,19.2,0,0,0-3.7-.46,17.5,17.5,0,0,0-6.68,1.13c-2.07.8-4,2.13-4.35,4.46a6.14,6.14,0,0,0,2.34,5.74,9.15,9.15,0,0,0,6.37,1.62,14.69,14.69,0,0,0,6.36-1.55c3.79-2.2,4.91-8.16.45-10.34a8.76,8.76,0,0,0-10.64,2.91,7.4,7.4,0,0,0,2.26,10.44c4.38,2.77,8.79-.35,10.77-4.4a58.27,58.27,0,0,0,4.77-15.25,2.57,2.57,0,0,0-1.74-3.08,2.52,2.52,0,0,0-3.08,1.75Z"/><path class="cls-3" d="M332.77,277.77A42.1,42.1,0,0,1,345.4,290l2.16-3.76a77.14,77.14,0,0,1-26.91-2.73l-.66,4.91,47.69,1.71,3,.11a9.11,9.11,0,0,0,2.36.09c.08-.12.73.44-.16-.29-.25-.21.45-.19,0,.16v-.06c.09-.1.05,0-.14.24a3,3,0,0,1-.8.48,22.57,22.57,0,0,1-4.13,1.23,10.76,10.76,0,0,1-5.07.27A3.45,3.45,0,0,1,360.5,291a3.32,3.32,0,0,1-.58-1.31,2.31,2.31,0,0,1,0-1.17c-.1.28,0-.11.07-.15.19-.33,0-.12.31-.35a.94.94,0,0,1,.68-.16,4.21,4.21,0,0,1,2.38,1.56c.84,1,2.19,4.25,0,4.43a8.12,8.12,0,0,1-3.69-.94,20.19,20.19,0,0,1-4-2.31c-2-1.5-4.13-3.67-4.8-6.13a3.85,3.85,0,0,1,0-2.52,1,1,0,0,1,1.36-.4c2.35,1,4.07,4.66,4.72,6.92a3.09,3.09,0,0,1-.22,2.84c-.79.94-2-.21-2.7-.86a11.9,11.9,0,0,1-3-7.14c-.1-.83-.47-2.48,0-3.22s2.77-1.12,3.66-1.34c2.47-.59,5.77-1.15,8,.42,1.74,1.23,2.12,4,.55,5.27-1.14.94-3.49-.05-3.51-1.34,0-.53-.15.12.07-.35-.17.37.17-.24.22-.3-.27.33.31-.25.31-.25-.38.3.7-.35.24-.15a4,4,0,0,1,.75-.22c-.58.11.82,0,.19,0,.06,0,.75.25.33.06.25.16.28.17.1,0a2.11,2.11,0,0,1,.35.38,2.53,2.53,0,0,0,3.54,0,2.55,2.55,0,0,0,0-3.53c-2.64-3.18-7.74-2-10,1-2.47,3.33-.53,7.78,3,9.37a7.16,7.16,0,0,0,10-4.51,8.61,8.61,0,0,0-4.61-10.27c-3.88-1.8-8.44-1.12-12.41,0-2.35.69-4.68,1.75-5.54,4.23-.72,2.06-.29,4.6.07,6.69.71,4.19,2.92,8.79,6.94,10.7a5.94,5.94,0,0,0,7.06-1.11,7.66,7.66,0,0,0,1.74-6.64,18.38,18.38,0,0,0-2.9-6.67,12.09,12.09,0,0,0-4.65-4.44c-4.5-2.1-8.93,1.39-8.77,6.14.13,4.31,3,8.09,6.22,10.7s7.86,5.35,12.16,4.85c5.54-.65,6.5-6.81,4.17-11-1.95-3.54-6.6-6.43-10.49-4.05s-3.5,7.38-1,10.54c3.18,4.06,8.71,3.67,13.19,2.48,2.27-.6,4.88-1.21,6.5-3a5.31,5.31,0,0,0,.6-6.36c-1.58-2.32-4.64-2-7.1-2.08l-8.2-.29-33.54-1.2-8.19-.3c-2.86-.1-3.35,4.15-.67,4.91a81.39,81.39,0,0,0,28.24,2.91c1.76-.13,3.29-2.07,2.16-3.77a48,48,0,0,0-14.43-14.05c-2.73-1.72-5.24,2.61-2.52,4.31Z"/><path class="cls-3" d="M324.31,285.91a216.16,216.16,0,0,0,26.21,7.19c9.09,1.88,18.28,3,27.43,4.54,3.23.54,7.23,1.28,9,4.34l2.16-3.76a18.42,18.42,0,0,1-10.23-3.33c-2.81-2-4.79-4.86-6.85-7.53s-4.51-5.61-7.72-7.25c-3.56-1.82-7.54-2-11.46-1.86s-8.51.91-12.3-.75l-.6,4.57a10.9,10.9,0,0,1,12.85,5.21l1.5-3.67a22.13,22.13,0,0,1-20.11-5.29l-1.77,4.26a208.87,208.87,0,0,1,49.87,12.14c2.37.89,4.19-2.55,2.43-4.18A77.83,77.83,0,0,0,359.66,275l-1.33,4.82q14.85,3,29.95,4.52c2.89.29,3.26-4.12.66-4.91q-21.65-6.62-43.88-11.08l1.11,4.18c.18-.15.68-.12.91-.14.85-.08,1.71-.07,2.56-.1,1.7,0,3.4-.06,5.1,0q5,0,10,.37a153.83,153.83,0,0,1,19.81,2.69,2.55,2.55,0,0,0,3.07-1.75,2.52,2.52,0,0,0-1.74-3.07,161.66,161.66,0,0,0-22.11-2.93c-3.65-.23-7.29-.33-10.94-.31-3.32,0-7.45-.5-10.17,1.76a2.51,2.51,0,0,0,1.1,4.17q22.2,4.47,43.88,11.08l.67-4.91q-14.41-1.47-28.62-4.34a2.5,2.5,0,0,0-1.33,4.82,71.24,71.24,0,0,1,22.87,14.28l2.43-4.18a214.21,214.21,0,0,0-51.2-12.32c-2.19-.25-3.24,2.88-1.76,4.27a27.3,27.3,0,0,0,25,6.58,2.53,2.53,0,0,0,1.49-3.67,15.91,15.91,0,0,0-18.5-7.51c-1.83.59-2.71,3.64-.6,4.57,3.78,1.65,7.72,1.8,11.79,1.59,3.72-.19,7.78-.71,11.34.72,3,1.23,5.2,4,7.12,6.49,2.38,3.12,4.69,6.18,7.93,8.47a23.08,23.08,0,0,0,12.91,4.13,2.52,2.52,0,0,0,2.16-3.76c-1.94-3.33-5.4-5.1-9-6-4.14-1.06-8.49-1.42-12.71-2.07a276,276,0,0,1-28.39-5.59q-7.85-2-15.52-4.68a2.5,2.5,0,1,0-1.33,4.82Z"/><path class="cls-3" d="M334.72,292.21c3.75-.9,7.5.14,11,1.61,3.88,1.63,7.54,3.74,11.44,5.33a64.51,64.51,0,0,0,11.6,3c3.91.81,7.74,1.8,11,4.26a2.51,2.51,0,0,0,3.42-.9,2.56,2.56,0,0,0-.9-3.42c-6.89-5.25-16.18-4.61-23.92-7.86-8-3.37-15.78-9.08-24.9-6.88-3.12.75-1.8,5.57,1.33,4.82Z"/><path class="cls-3" d="M333.24,292.15a33.87,33.87,0,0,0,16.46,8.08,63.2,63.2,0,0,0,10.1.61,47.69,47.69,0,0,1,10.29,1.43c3.34.79,6.67,1.62,10,2.44l5.25,1.29c.5.12,1.79.69,2.22.55-1.48.5-.22-1.55-.33-1.78-.21-.45.65-.17-.1-.17-.49,0-1.12.19-1.61.23-.77.06-1.54.11-2.32.13a18.16,18.16,0,0,1-5-.42c-3-.75-5.61-2.66-8.48-3.82-6.76-2.72-14.24-2.66-21.4-2.55-3.21.05-3.22,5.05,0,5,6.69-.1,13.79-.3,20.07,2.38,3.15,1.34,5.94,3.36,9.38,4a25.07,25.07,0,0,0,5.47.4,20.58,20.58,0,0,0,5.26-.54,4.92,4.92,0,0,0,3.39-2.86,3.66,3.66,0,0,0-1.78-4.37,19.48,19.48,0,0,0-4.83-1.36l-6-1.47c-3.7-.91-7.39-1.91-11.14-2.63a62,62,0,0,0-11.21-.91c-7.45-.07-14.48-2.21-20.14-7.2a2.55,2.55,0,0,0-3.53,0,2.51,2.51,0,0,0,0,3.53Z"/><path class="cls-9" d="M178.53,257.67l1.07-.39.45.11.44.11a.68.68,0,0,0,.59.35.94.94,0,0,1,.79.33,3.67,3.67,0,0,0,.54.46,1,1,0,0,0,1-.16l.41-.55c.22-.23.47-.2.76.09a.65.65,0,0,1,.2.56c0,.22-.14.46-.17.66a3.32,3.32,0,0,1-.11.49,2.51,2.51,0,0,1-.23.48.74.74,0,0,0-.14.46,2.64,2.64,0,0,0-.7,1.39,2.69,2.69,0,0,1-.33.63c-.06.06-.36.11-.51.19s-.42.13-.49.06-.13-.28-.19-.39a1,1,0,0,1-.11-.46,1.29,1.29,0,0,1,.22-.73.79.79,0,0,0,0-.81c-.14-.26-.28-.4-.43-.44a.48.48,0,0,1-.34-.37,2.4,2.4,0,0,1-1-.52.74.74,0,0,1-.75-.24,1,1,0,0,0-.71.32l-.41.46a2.91,2.91,0,0,1-.33.26,1.59,1.59,0,0,0-.18,1,4.41,4.41,0,0,1,.07.73,1.3,1.3,0,0,0,.09.56c.07.18.14.33.2.45a1.37,1.37,0,0,1,.12.51,2.24,2.24,0,0,0,.16.63c.09.2.17.38.25.54a3.37,3.37,0,0,1,.17.42,2,2,0,0,0,.3.53,3.47,3.47,0,0,1,.33.62,2.06,2.06,0,0,0,.27.51,1.8,1.8,0,0,1,.48.55,4.13,4.13,0,0,0,.41.59,2.92,2.92,0,0,0,.48.46,1.27,1.27,0,0,1,.38.45,1.06,1.06,0,0,0,.54.11,1.94,1.94,0,0,0,.19.65,1.75,1.75,0,0,0,.29.34,1.92,1.92,0,0,1,.3.34l.24.39.27.38c.09.12.2.24.31.36a4.11,4.11,0,0,1,.29.35c.17.14.26.23.25.28s0,.11.14.23a4.87,4.87,0,0,1,.55.9,2.79,2.79,0,0,0,.74,1,1,1,0,0,0,0,.46,2.12,2.12,0,0,1,.11.45,6.17,6.17,0,0,0,.15.71,2.13,2.13,0,0,1,.08.85,1.82,1.82,0,0,0,0,.5.49.49,0,0,1-.07.32c-.07.14-.13.27-.18.4l-.13.35-.11.26a.61.61,0,0,0-.07.24.78.78,0,0,1,0,.19,1.14,1.14,0,0,0-.26.25s-.11.17-.36.38c-.07.12-.1.18-.16.3a1.42,1.42,0,0,1-.39.64c-.2.1-.34.16-.35.2s0,0-.08,0c-.08.18-.14.26-.17.26a.08.08,0,0,0-.09,0,.47.47,0,0,0-.08.14.66.66,0,0,1-.14.17,1.13,1.13,0,0,1-.27.16,2.51,2.51,0,0,0-.28.13l-.21.11-.36.17a2.49,2.49,0,0,0-.79.54.33.33,0,0,1-.17-.07.45.45,0,0,0-.29,0c-.14,0-.22.11-.22.23a.48.48,0,0,0-.42,0,1.08,1.08,0,0,1-.39.14h-.45a1.36,1.36,0,0,1-.63.08,3.33,3.33,0,0,0-.53-.12l-.54-.09c-.12,0-.21-.12-.26-.32a1,1,0,0,1-.54-.06,1,1,0,0,1-.36-.17,1.52,1.52,0,0,0-.3-.24,1.31,1.31,0,0,1-.29-.26.81.81,0,0,1-.13-.31,2,2,0,0,0-.14-.39.77.77,0,0,1-.25-.42c0-.11-.09-.17-.27-.19a.37.37,0,0,0-.07-.26.5.5,0,0,1-.11-.3c0-.14-.09-.21-.2-.21s-.17-.08-.2-.22a1.34,1.34,0,0,1,0-.4,1.63,1.63,0,0,0-.08-1.14c.17-.31.32-.61.47-.88s.29-.54.44-.81a1.13,1.13,0,0,0,.8-.59.3.3,0,0,0,.41-.09.46.46,0,0,1,.36-.21.45.45,0,0,0,.3-.09,1.64,1.64,0,0,1,.62-.08,4.33,4.33,0,0,1,.87,0q.34.06.36.15a1.69,1.69,0,0,1,.74.34l.35.4s.09,0,.14.11l.16.19a2.07,2.07,0,0,1,.5,1.48,1.48,1.48,0,0,1,0,.55,2,2,0,0,0-.07.55q0,.62-.75.63a.4.4,0,0,1-.36-.18.52.52,0,0,0-.4-.21c-.07-.19-.15-.38-.23-.55l-.26-.58c-.32-.89-.6-1.34-.82-1.37a1.31,1.31,0,0,0-.51.06.79.79,0,0,0-.47.29c-.07.12-.14.18-.2.18a.32.32,0,0,0-.19.11,1.3,1.3,0,0,0-.23.3,1.56,1.56,0,0,1-.26.3c-.2,1,0,1.68.55,2a.92.92,0,0,0,.16.38c.06.09.08.25.11.28a1.22,1.22,0,0,1,.08.34,4.16,4.16,0,0,0,.4.22.78.78,0,0,1,.33.32.83.83,0,0,1,.59.1,2.84,2.84,0,0,0,.49.27.63.63,0,0,1,.42-.09l.45.09a4,4,0,0,0,1.76-.93.45.45,0,0,1,.23-.21c.08,0,.24-.21.47-.57a1.48,1.48,0,0,0,.36-.41,5.1,5.1,0,0,1,.37-.59.89.89,0,0,0,.22-.77,7.22,7.22,0,0,0-.21-1.21.76.76,0,0,0-.11-.35,2.91,2.91,0,0,1-.18-.35,5.1,5.1,0,0,0-.26-.49,4.48,4.48,0,0,0-.59-.73,4.39,4.39,0,0,1-.56-1.1,1.9,1.9,0,0,0-.47-.47c-.16-.13-.31-.34-.45-.48s-.34-.28-.5-.43a4.38,4.38,0,0,1-.4-.59,7.62,7.62,0,0,1-.57-.57,4,4,0,0,0-.5-.56.88.88,0,0,1-.26-.32c0-.12-.12-.23-.31-.34s-.25-.68-.39-.86-.21-.11-.27-.21a1.74,1.74,0,0,0-.61-.53,1.19,1.19,0,0,1-.5-1.16.46.46,0,0,0-.22-.22.35.35,0,0,1-.2-.2,1.8,1.8,0,0,1-.12-.35,2,2,0,0,0-.12-.37l-.15-.34a.7.7,0,0,1-.07-.31l-.1-.45a2.19,2.19,0,0,0-.19-.38l-.14-.5c0-.19,0-.29.06-.48l-.15-.56a2.93,2.93,0,0,1,0-1.17,2,2,0,0,0,.11-.48c0-.15,0-.29,0-.42a.6.6,0,0,1,.12-.41c.13-.15.23-.24.22-.28s0-.12.06-.24a1.14,1.14,0,0,1,.21-.3,1.58,1.58,0,0,0,.22-.23,1.11,1.11,0,0,0,.16-.24.37.37,0,0,1,.16-.19.54.54,0,0,1,.19-.11,4.71,4.71,0,0,0,.45-.25,3.43,3.43,0,0,0,.65-.48,1.4,1.4,0,0,1,.49-.33.56.56,0,0,1,.31-.05A.8.8,0,0,0,178.53,257.67Z"/><path class="cls-9" d="M188.68,260.44l0-.37a1.12,1.12,0,0,1-.06-.56,1.63,1.63,0,0,0,.07-.3,1.29,1.29,0,0,1-.05-.68.66.66,0,0,0,0-.46.88.88,0,0,0-.17-.12c-.06,0-.13-.1-.17-.12a1,1,0,0,0-.59.15,2.8,2.8,0,0,1-.52.23c-.11,0-.18,0-.19.05a.34.34,0,0,1-.15.17.59.59,0,0,1-.75,0c-.27-.2-.37-.37-.29-.52a.76.76,0,0,1,.39-.34c.17-.07.36-.15.57-.22a4.12,4.12,0,0,1,.65-.2,4.14,4.14,0,0,0,.56-.18l.43-.14a1.51,1.51,0,0,0,.36-.13,1.53,1.53,0,0,0,.23-.15l.24-.15.26-.11a6.61,6.61,0,0,0,.77-.31,3.22,3.22,0,0,1,1.43-.34.76.76,0,0,0,.17.32.5.5,0,0,1,.14.62,1.19,1.19,0,0,0-.15.51.27.27,0,0,1-.12.27c.08.38.05.61-.1.69.18.73.26,1.1.43,1.83a1.57,1.57,0,0,0,.14.71,4.94,4.94,0,0,1,.25,1.07,4.06,4.06,0,0,0,.32,1.45c0,.25,0,.37,0,.62a.77.77,0,0,0,.07.27l.14.41a2.82,2.82,0,0,1,.1.79,5.14,5.14,0,0,0,.05,1c.1.5.26.91.28,1.12a.85.85,0,0,1-.11.53c.08.16.11.25.08.27s0,.09,0,.19a3.19,3.19,0,0,0,.07.41,1.87,1.87,0,0,1,0,.59c.1.31.15.47.24.78l0,.34c.09.4.14.6.23,1l0,.53a.69.69,0,0,0,.17.51.86.86,0,0,0,0,.48.9.9,0,0,1,0,.49.56.56,0,0,0,.06.47,1.41,1.41,0,0,1,.17.57c0,.24,0,.35,0,.59a1.53,1.53,0,0,0,.13.62.74.74,0,0,1,0,.6,1.5,1.5,0,0,1,.19,1.21,1.79,1.79,0,0,1,.16.94,1.28,1.28,0,0,0,.26.9,1.14,1.14,0,0,0-.1.63q0,.36.09.6c.14.46.42.56.86.32a1,1,0,0,0,.23-.23.27.27,0,0,1,.28-.07c.2,0,.34.18.37.49a.61.61,0,0,1,.24.56c0,.16-.26.32-.57.39s-.57.14-.73.2a.49.49,0,0,0-.32.31.41.41,0,0,1-.16,0s-.11,0-.22,0-.35.25-.42.23-.39.05-.66.32a.57.57,0,0,0-.34,0,.7.7,0,0,1-.45,0,.94.94,0,0,0-.64.07,1.48,1.48,0,0,0-.6.42,1.19,1.19,0,0,0-.55.19,1.06,1.06,0,0,1-.55.15,1,1,0,0,1-.34-.48.46.46,0,0,1,.1-.34,1.42,1.42,0,0,1,.29-.26.53.53,0,0,0,.21-.27,5.26,5.26,0,0,0,1.23-.58,2.61,2.61,0,0,0-.25-1.26,2.42,2.42,0,0,1-.26-.62,1.1,1.1,0,0,0-.06-.37l-.14-.6q-.09-.33-.15-.63a1.79,1.79,0,0,1-.06-.54,4,4,0,0,0-.13-.82c-.08-.38-.14-.71-.17-1l-.37-1.5-.1-.89c-.07-.27-.1-.41-.17-.69a1.09,1.09,0,0,1-.05-.33,2.65,2.65,0,0,0,0-.38c0-.13-.05-.27-.08-.41a.43.43,0,0,0-.21-.31,1.68,1.68,0,0,0,.1-.57l-.17-.57a.51.51,0,0,1,0-.25.83.83,0,0,0,0-.27c-.09-.62-.13-.93-.21-1.55a2.66,2.66,0,0,1,0-.69,2.14,2.14,0,0,0-.05-.75,1,1,0,0,1,0-.47.47.47,0,0,0,0-.21c-.1-.45-.15-.68-.26-1.14,0-.26,0-.39,0-.65l-.17-.65a.27.27,0,0,1,0-.2.89.89,0,0,0,0-.23l-.11-.73a1,1,0,0,0-.07-.43.53.53,0,0,1-.05-.3.56.56,0,0,0,0-.29,1.69,1.69,0,0,1-.06-.53A6.42,6.42,0,0,0,188.68,260.44Z"/><path class="cls-9" d="M199.23,289.33l-.51.23a.85.85,0,0,0-.35.15.88.88,0,0,1-.48.14c-.48,0-.78-.1-.84-.38a1.53,1.53,0,0,1-.85-.34.59.59,0,0,1-.24-.23.52.52,0,0,0-.24-.22.57.57,0,0,1-.23-.2.41.41,0,0,0-.27-.18.83.83,0,0,0-.27-.6,1.89,1.89,0,0,1-.4-.91,1.75,1.75,0,0,1,0-1.1,2.48,2.48,0,0,0,.2-.72.43.43,0,0,1,.22-.36q.19-.09.09-.45c.21-.19.41-.37.58-.54a2.7,2.7,0,0,1,.94-.51c.46-.17.76-.2.92-.09a.8.8,0,0,0,.52.14,1,1,0,0,1,.44,0,1.9,1.9,0,0,0,.45.31,1.38,1.38,0,0,1,.32.17.86.86,0,0,1,.15.32c0,.12.08.24.13.36a1.91,1.91,0,0,0,.17.32.73.73,0,0,1,.11.3.61.61,0,0,1-.15.17l-.17.15a.47.47,0,0,0-.12.18.32.32,0,0,1-.24.15.33.33,0,0,1-.3,0,.51.51,0,0,0-.35-.05,4.53,4.53,0,0,1-.84-1.22c-.44,0-.72.1-.85.3s-.22.36-.28.49-.24.29-.29.4-.06.77-.17,1.09a.73.73,0,0,0,.2.38.67.67,0,0,1,.17.37c0,.15.09.22.19.2a.25.25,0,0,1,.26.08.33.33,0,0,1,.1.24.51.51,0,0,0,.08.27,1,1,0,0,1,.6-.06l.23.14a.48.48,0,0,0,.27.12.93.93,0,0,0,.43-.12,2.74,2.74,0,0,1,.48-.18.73.73,0,0,1,.48,0c.11.05.27,0,.45-.13s.27-.24.27-.3a.78.78,0,0,0,.39-.27,1.82,1.82,0,0,1,.2-.25,1.13,1.13,0,0,1,.16-.13,1.19,1.19,0,0,0,.2-.2.4.4,0,0,1,.26-.18l.36-.56a.28.28,0,0,0,.07-.11.14.14,0,0,0,0-.11.57.57,0,0,1,0-.23,1.3,1.3,0,0,1,.14-.32c.07-.1.15-.22.24-.37s.28-.32.34-.43.05-.41.11-.53a.79.79,0,0,1,.23-.25.58.58,0,0,0,.18-.32,3,3,0,0,0,.08-.39,2.1,2.1,0,0,1,.2-.69,5.28,5.28,0,0,0,.32-1,6.42,6.42,0,0,1,.3-.95,1,1,0,0,0,.11-.48.67.67,0,0,0-.22-.43c-.5-.43-.73-.83-.67-1.18a1.63,1.63,0,0,1-.33-.56,1.08,1.08,0,0,0-.39-.52.44.44,0,0,0-.13-.36,1.66,1.66,0,0,1-.29-.45,2.28,2.28,0,0,0-.29-.47.84.84,0,0,1-.21-.35.56.56,0,0,0-.15-.27.75.75,0,0,1-.16-.15.73.73,0,0,0-.1-.45,2.13,2.13,0,0,1-.28-.43,2.07,2.07,0,0,0-.25-.54c-.12-.13-.28-.22-.28-.26s-.1-.32-.37-.46a4,4,0,0,0-.62-1.24.5.5,0,0,0-.2-.44.47.47,0,0,1-.18-.48c-.09,0-.19-.14-.32-.32l-.22-.34a7,7,0,0,1-.63-.77.45.45,0,0,1-.2-.26c0-.08-.13-.18-.33-.31a.75.75,0,0,1-.35-.43,1.67,1.67,0,0,0-.76.15,1.38,1.38,0,0,1-.54.18.7.7,0,0,1-.42-.19.62.62,0,0,1,0-.35c0-.1,0-.2.05-.3a3.69,3.69,0,0,1,.88-.46,6.84,6.84,0,0,0,1.4-.47,1.53,1.53,0,0,0,.91-.19,3.19,3.19,0,0,1,.76-.28,3,3,0,0,1,.61,0,1,1,0,0,0,.65-.13,1.28,1.28,0,0,1,.53-.18,1.81,1.81,0,0,1,.46,0c.33.34.38.61.13.8a1.24,1.24,0,0,1-.65.3.51.51,0,0,0-.4.14.29.29,0,0,0,.06.29c.07.08,0,.14-.08.17a4.25,4.25,0,0,1,.7,1.14c.1.3.2.48.32.53a.69.69,0,0,1,.28.26.53.53,0,0,0,.22.56,1.12,1.12,0,0,1,.38.43,1.19,1.19,0,0,1,.08.4,1.15,1.15,0,0,0,0,.33c.18.32.32.57.42.77a2.41,2.41,0,0,0,.36.52c.14.16.21.24.2.26a.31.31,0,0,0,0,.1.69.69,0,0,1,.26.25,2.33,2.33,0,0,0,.17.28l.24.38c.08.15.16.29.22.43a1.43,1.43,0,0,0,.31.41.51.51,0,0,0,.09.45l.28.29c.11,0,.18,0,.2-.09l.14-.32a1.88,1.88,0,0,0,.13-.62,1.38,1.38,0,0,1,.24-.68.54.54,0,0,1,.06-.51.63.63,0,0,0,.1-.51.3.3,0,0,0,.18-.19.23.23,0,0,1,.12-.17.43.43,0,0,1,.06-.44,1.07,1.07,0,0,0,.19-.52,2.6,2.6,0,0,1,.1-.48,2.13,2.13,0,0,0,.09-.27l.1-.25a.65.65,0,0,0,.06-.26.79.79,0,0,1,.13-.32.7.7,0,0,0,.12-.36,1.33,1.33,0,0,1,.11-.41c.06-.16.09-.25.07-.28a.25.25,0,0,1,0-.07,1,1,0,0,0,.22-.42.54.54,0,0,1,.23-.32,1.25,1.25,0,0,0,.05-.36,1.7,1.7,0,0,1,.06-.35,3.15,3.15,0,0,0,.33-.53,1.43,1.43,0,0,1,.16-.35c.11-.2.22-.41.35-.62a4.67,4.67,0,0,0,.34-.67.55.55,0,0,0,.29-.17c.08-.08.2-.2.36-.34a.5.5,0,0,1,.57-.08c.19.12.3.29.28.34a.32.32,0,0,0,0,.17c.11.14.08.45-.1.94a4.34,4.34,0,0,0-.26.86v.21a1.45,1.45,0,0,1-.49,1,4,4,0,0,0-.12.74,2.47,2.47,0,0,1-.3,1c0,.17-.06.26-.1.28a.13.13,0,0,0-.05.11.47.47,0,0,0,0,.2.4.4,0,0,1-.08.28.58.58,0,0,0-.11.3.9.9,0,0,1-.07.27.53.53,0,0,0-.06.23.9.9,0,0,1-.07.24.59.59,0,0,0-.17.33c0,.11-.05.27-.1.47a2.44,2.44,0,0,1-.15.44.43.43,0,0,0,0,.32,1.47,1.47,0,0,0-.42,1,1.39,1.39,0,0,1,0,.59c0,.1-.09.21-.14.33a1.84,1.84,0,0,0-.11.45,3,3,0,0,1-.17.59,1.07,1.07,0,0,0-.1.49,1.36,1.36,0,0,1,0,.35,1,1,0,0,0-.17.49.51.51,0,0,1,0,.24,3.23,3.23,0,0,0-.06.33.92.92,0,0,1-.18.58,2,2,0,0,0-.29.61,3.09,3.09,0,0,1-.17.48,4.23,4.23,0,0,0-.34,1.44.3.3,0,0,0-.15.2c0,.08-.07.14-.17.19a.74.74,0,0,1-.08.41l-.18.3a.69.69,0,0,0-.11.26.64.64,0,0,1-.08.19l-.11.14a.52.52,0,0,0-.1.18.46.46,0,0,0,0,.26c.05.19-.17.56-.61,1.06.07.08.06.19,0,.34a1.13,1.13,0,0,1-.62.85,1,1,0,0,1-.29.67,1.34,1.34,0,0,0-.39.61.54.54,0,0,0-.21.31.94.94,0,0,1-.17.37.4.4,0,0,0-.25.1.38.38,0,0,1-.29.07.49.49,0,0,1-.19.31.77.77,0,0,0-.26.25.63.63,0,0,0-.43.05,1.48,1.48,0,0,1-.39.11,1.13,1.13,0,0,0-.45.34,1.14,1.14,0,0,1-.64.31Z"/><path class="cls-9" d="M219.09,261.22l.46-.05a1.8,1.8,0,0,1,.46.05.87.87,0,0,0,.5-.05,1.72,1.72,0,0,1,.51.34.87.87,0,0,1,.11.47c-.08.41-.47.58-1.18.5l-.39.18a1.1,1.1,0,0,1-.47,0,1.49,1.49,0,0,0-.45,0s-.14,0-.36.06-.34,0-.35,0-.07,0-.17.19a.55.55,0,0,0-.14.36,3.16,3.16,0,0,1,0,.44l0,.68a3.37,3.37,0,0,1,0,.7,1.15,1.15,0,0,0,0,.46,1.65,1.65,0,0,1,0,.4,1.19,1.19,0,0,1-.1.48,2,2,0,0,0-.15.37.21.21,0,0,0,.11.28c.11,0,.15.16.11.34l-.08.37a.45.45,0,0,0,0,.23.45.45,0,0,1,0,.26c0,.19-.06.28-.11.47a.43.43,0,0,1,.06.33.65.65,0,0,0,0,.36c0,.15,0,.25,0,.29s-.05.14,0,.29a.56.56,0,0,1,0,.35.54.54,0,0,0,0,.28c0,.27,0,.4.09.67a.84.84,0,0,1-.15.47,1.32,1.32,0,0,1,.09.62,2.18,2.18,0,0,0,.06.63l.12.55a1.65,1.65,0,0,0,.09.21.4.4,0,0,1,0,.24c-.05.15-.07.23-.11.38a2.18,2.18,0,0,0,.08.42,1.71,1.71,0,0,1,.25.73,1.89,1.89,0,0,0,.08.52,1.57,1.57,0,0,0,.27.45,1.2,1.2,0,0,1,.26.43.66.66,0,0,0,.12.29c.19.12.3.17.32.16l.1,0a.91.91,0,0,0,.42.26,1.52,1.52,0,0,1,.32.11.58.58,0,0,0,.44,0,.69.69,0,0,0,.42-.26.56.56,0,0,1,.49-.17.48.48,0,0,0,.17-.23.31.31,0,0,1,.17-.2c.32-.36.49-.64.48-.85v-.55a.65.65,0,0,0-.08-.32l-.13-.25c-.19-.06-.29-.11-.29-.17s-.06-.07-.18-.07a.59.59,0,0,0-.27.07,3.42,3.42,0,0,0-.2.36q-.08.16-.36.18a1.4,1.4,0,0,1-.64-.16,1,1,0,0,1-.3-.72,1.13,1.13,0,0,0,0-.53,3.52,3.52,0,0,1,1.32-1,.61.61,0,0,1,.4,0,1.18,1.18,0,0,0,.45,0,.78.78,0,0,1,.56.17,1.06,1.06,0,0,0,.59.21,2.72,2.72,0,0,1,.29.73,1.5,1.5,0,0,0,.35.7,1.13,1.13,0,0,0,0,.4c0,.16,0,.27,0,.34a.57.57,0,0,1,.16.65c-.09.24-.16.43-.23.57a1.14,1.14,0,0,0-.08.44.8.8,0,0,0-.37.33.82.82,0,0,1-.41.3.65.65,0,0,1-.19.52,1.69,1.69,0,0,0-.32.41,2,2,0,0,0-.82.24,9.73,9.73,0,0,0-1.09.4.94.94,0,0,0-.66.08,1.74,1.74,0,0,0-1.3-.26,1,1,0,0,0-.37-.2.5.5,0,0,1-.31-.2.43.43,0,0,1-.4,0c-.08-.07-.27-.1-.34-.16s-.12-.2-.23-.31a2,2,0,0,1-.29-.36,6.69,6.69,0,0,0-.43-.56,1.2,1.2,0,0,1-.33-.51,1.77,1.77,0,0,0-.18-.54,10.21,10.21,0,0,1-.21-1,.82.82,0,0,0-.17-.24,1.1,1.1,0,0,1-.17-.28.65.65,0,0,1-.05-.37.21.21,0,0,0-.14-.25.65.65,0,0,0,0-.58,1.57,1.57,0,0,1-.21-.62,2.18,2.18,0,0,1,0-.72,1,1,0,0,0-.15-.7,1.61,1.61,0,0,0,0-1,5.57,5.57,0,0,1-.14-1.33,8.88,8.88,0,0,0,0-1.07,5,5,0,0,1,0-.86,9.82,9.82,0,0,0,.06-1.47l0-.62c0-.62,0-.93,0-1.56a.74.74,0,0,0-.68-.21,2.5,2.5,0,0,0-1,.25.94.94,0,0,1-.86,0c-.15,0-.25,0-.29.09s-.11.1-.23,0c-.39-.39-.6-.66-.6-.81s.09-.3.3-.42a2.67,2.67,0,0,0,.39-.25,3.58,3.58,0,0,1,.75-.13,6.89,6.89,0,0,0,2.17-.48,3.07,3.07,0,0,0,.14-.85,4,4,0,0,1,0-.65,2,2,0,0,1,.06-.34.48.48,0,0,0,0-.18.44.44,0,0,0,0-.2c0-.06,0-.17.07-.33a.93.93,0,0,0,.1-.38q.12-.28.06-.36a.28.28,0,0,1,0-.21,1.13,1.13,0,0,1,.13-.36.78.78,0,0,0,0-.53,2.52,2.52,0,0,1,.73-.86,7.58,7.58,0,0,0,.93-.28,3,3,0,0,0,.56.47,6.45,6.45,0,0,1,.64,3.66.88.88,0,0,1,0,.21.51.51,0,0,0,0,.29.65.65,0,0,0,.25.31.78.78,0,0,0,.35.18.41.41,0,0,0,.26,0,.39.39,0,0,1,.23-.07Z"/><path class="cls-9" d="M230.85,263.34l.8-.24a1.51,1.51,0,0,0,.62-.14l.4-.17.39-.06.56.06.6,0a3,3,0,0,1,.43.08.48.48,0,0,1,.26.18.52.52,0,0,0,.18.18l.16.11a.54.54,0,0,1,.12.15,1.44,1.44,0,0,1,.09.24,2,2,0,0,0,.15.32c.07.14.13.21.16.22s.08.09.14.29.15.39.24.6a4.38,4.38,0,0,1,.24.57,2.71,2.71,0,0,1,.12.44,1,1,0,0,0,.1.31,1.71,1.71,0,0,0,.13.23.43.43,0,0,1,.06.17v.56l.13.33c0,.22,0,.33-.08.55s.06.28.09.47v.39a7.44,7.44,0,0,1,.08.85c0,.3,0,.6.07.9s.06.57.08.79a1.24,1.24,0,0,1-.09.65,1.35,1.35,0,0,1,.06.59,1.32,1.32,0,0,0,0,.49,2.43,2.43,0,0,0,.1.37.58.58,0,0,1,.06.27l0,.52c0,.25.05.37.09.62s0,.38,0,.6a1.42,1.42,0,0,0,0,.69,1.37,1.37,0,0,0,.65.21,4.27,4.27,0,0,1,.71.15,3.52,3.52,0,0,0,.16.45.49.49,0,0,1,0,.44.14.14,0,0,1-.16.15h-.3a.48.48,0,0,0-.23.07.56.56,0,0,1-.17.09h-.44a.88.88,0,0,1-.51.18,2.19,2.19,0,0,0-.46,0,1.75,1.75,0,0,0-.34.1,4.23,4.23,0,0,1-.85.3h-.35a1.39,1.39,0,0,0-.49.05.53.53,0,0,1-.19.06h-.22a.69.69,0,0,0-.27,0l-.35.12a1.53,1.53,0,0,1-.49.09,2.47,2.47,0,0,0-.47.06.31.31,0,0,1-.33-.17.58.58,0,0,1,.32-.73c.08,0,.1-.09.06-.22a1.11,1.11,0,0,0,.71-.21,1.47,1.47,0,0,1,.72-.27,1.7,1.7,0,0,0,.08-.89,1.09,1.09,0,0,1,0-.44.67.67,0,0,0,0-.17l-.12-.52a6.74,6.74,0,0,1,.09-1.08,1.48,1.48,0,0,0-.17-1,1.07,1.07,0,0,0,0-.79,6.67,6.67,0,0,1-.17-.74,3.56,3.56,0,0,1,0-.86,3.74,3.74,0,0,0,0-.9,3.47,3.47,0,0,0-.11-.49.7.7,0,0,1,0-.36,2,2,0,0,0,0-.61c-.06-.27-.07-.42,0-.46a.09.09,0,0,0,0-.12c0-.16-.05-.24-.09-.4a3.87,3.87,0,0,1,0-.48,1.7,1.7,0,0,1,.05-.41c0-.12,0-.2,0-.23s-.06-.14,0-.32a1.11,1.11,0,0,0-.12-.72,3.67,3.67,0,0,0-.36-.82,1.68,1.68,0,0,0-1-.12c-.25,0-.54,0-.67.06s-.12.1-.15.18a.32.32,0,0,1-.15.19l-.42.21c-.11.06-.2.3-.3.4s-.36.2-.49.36a2.52,2.52,0,0,1-.45.41,3.42,3.42,0,0,1-.44,1.12.66.66,0,0,0-.17.28.61.61,0,0,0,0,.32,1.75,1.75,0,0,1,.1.46,2.25,2.25,0,0,1,0,.58,5.92,5.92,0,0,0,0,.85,5.23,5.23,0,0,0,.12.82q.09.3,0,.36t-.06.27a2.18,2.18,0,0,1,.05.43v.55c0,.11,0,.65.11,1.63v1c0,.31.07.49.19.56a.92.92,0,0,1,.31.31,1.9,1.9,0,0,0,.17.27.91.91,0,0,1,.12.37.81.81,0,0,1-.11.55.9.9,0,0,0-.09.66l-.37.3a.71.71,0,0,1-.52.11,2.47,2.47,0,0,0-.5.52.28.28,0,0,0-.27,0,.51.51,0,0,1-.3.08.56.56,0,0,1-.33-.1.84.84,0,0,0-.33-.15.43.43,0,0,0-.32,0,2.43,2.43,0,0,1-.48.13,4.7,4.7,0,0,1-1,0,3.36,3.36,0,0,0-1,.11.86.86,0,0,1-.28-.65.55.55,0,0,1,.36-.54.11.11,0,0,1,.15,0c.07,0,.19,0,.38-.09a2,2,0,0,1,.54-.16.61.61,0,0,0,.41-.19.9.9,0,0,0,.08-.49c0-.39,0-.59,0-1a1.31,1.31,0,0,1-.17-.54,1.78,1.78,0,0,0,0-.35,1.36,1.36,0,0,0,0-.53,1.72,1.72,0,0,1-.05-.36c0-.24,0-.36,0-.61s-.07-.44-.11-.73,0-.36,0-.52a3.24,3.24,0,0,0,0-.59.93.93,0,0,1,0-.38.53.53,0,0,0,0-.23v-.46a1.77,1.77,0,0,0-.07-.52l-.1-.43,0-1.47a2.13,2.13,0,0,1-.07-.52l.05-.49a13.08,13.08,0,0,1-.2-2.13,9.7,9.7,0,0,0-.05-1.45v-.34a1.23,1.23,0,0,1-.11-.67,1.7,1.7,0,0,0,.06-.46c-.08-.4-.11-.61-.19-1l-.05-2.85c0-.49,0-.73-.09-1.22l-.1-.49a3.21,3.21,0,0,1-.07-.74,1.56,1.56,0,0,0,0-.53.83.83,0,0,1-.06-.37,2.35,2.35,0,0,1,.14-.71,1.3,1.3,0,0,0,0-.87,4.19,4.19,0,0,0-.7,0,1.58,1.58,0,0,1-.76-.1,1,1,0,0,0-.08-.42.43.43,0,0,1,0-.35.49.49,0,0,1,.41-.14,3.53,3.53,0,0,0,.81-.14,1.86,1.86,0,0,1,.71-.11.76.76,0,0,0,.37,0l.56-.14a2.76,2.76,0,0,1,.7-.11c.28,0,.58.05.78,0a3.16,3.16,0,0,1,.54,0l.38,0a.48.48,0,0,1,.27.09c.2.31.25.54.14.7a.57.57,0,0,1-.54.24.7.7,0,0,0-.57.2.54.54,0,0,0,0,.25c0,.08,0,.17,0,.26a2.64,2.64,0,0,1,0,.29,1.25,1.25,0,0,0,.05.32,1.83,1.83,0,0,0,.14.32,1,1,0,0,1,.12.32.92.92,0,0,1,0,.37,1.51,1.51,0,0,0,0,.47,5.1,5.1,0,0,0,.12.65,6.1,6.1,0,0,1,.14.72,8,8,0,0,1,.08.84,2.76,2.76,0,0,0,.16.89,1.7,1.7,0,0,0-.06.95,8,8,0,0,1,.14,1.07l-.06.34.06.33a3,3,0,0,0-.06.56c0,.18.06.27.11.45a1.58,1.58,0,0,1,0,.28c.07.49.11.73.18,1.22a.35.35,0,0,0,.26.37l.33-.09a.79.79,0,0,0,.26-.13.7.7,0,0,0,.21-.21.67.67,0,0,1,.27-.22l.31-.15A1,1,0,0,1,230.85,263.34Z"/><path class="cls-9" d="M249.35,267.48a2.75,2.75,0,0,0-.15,1.07.68.68,0,0,1-.17.51,3.56,3.56,0,0,0-.29.23v.26a.19.19,0,0,1-.09.2c-.41,0-.81-.08-1.21-.1a2.1,2.1,0,0,0-1,.15.29.29,0,0,1-.22,0l-.16-.08a2.33,2.33,0,0,0-.42.19.5.5,0,0,1-.47.05.72.72,0,0,0-.48-.05,2.74,2.74,0,0,0-1.22.57,3.59,3.59,0,0,1,0,.66,2,2,0,0,0,0,.6l0,.4a.3.3,0,0,1,0,.21.7.7,0,0,0-.06.23.79.79,0,0,0,.08.31.32.32,0,0,1-.06.32c0,.1.08.21.11.31a.61.61,0,0,1,0,.4.55.55,0,0,0,.09.23.54.54,0,0,1,.1.24.92.92,0,0,1,0,.38,1.13,1.13,0,0,0,0,.38c0,.11.06.22.09.36a1.31,1.31,0,0,0,.28.51c.16.21.21.38.14.5a2.44,2.44,0,0,1,.26.32.88.88,0,0,0,.26.28c.13.06.36.09.52.17a1.26,1.26,0,0,0,.6.15,1.69,1.69,0,0,0,.87-.26c.33-.18.57-.28.66-.32a.27.27,0,0,0,.12-.22.37.37,0,0,1,.12-.24.5.5,0,0,1,.18-.09.79.79,0,0,0,.23-.08,1.61,1.61,0,0,0,.28-.17,1.9,1.9,0,0,1,.36-.21q.22-.12.6.18a.7.7,0,0,1,0,.52l-.2.3c-.07.1-.09.16,0,.19s0,.1,0,.2a.93.93,0,0,1-.51.61.7.7,0,0,1-.3.26.92.92,0,0,1-.37.11,1,1,0,0,0-.38.1,1,1,0,0,0-.35.26,1.23,1.23,0,0,1-.42.31,1.61,1.61,0,0,0-.44-.05,1.73,1.73,0,0,1-1.13.18l-1.24-.18a10.54,10.54,0,0,0-1.12-.74,2.23,2.23,0,0,0-1-.83.23.23,0,0,0-.13-.25c-.1,0-.14-.15-.14-.31a.26.26,0,0,1-.2-.16.37.37,0,0,0-.2-.19.37.37,0,0,0-.08-.14s0-.1,0-.2a.45.45,0,0,1-.23-.2,2.23,2.23,0,0,0-.2-.3,4.65,4.65,0,0,1-.26-.59,5.52,5.52,0,0,0-.19-.52,1.75,1.75,0,0,1-.11-.83l-.25-.53a.44.44,0,0,0,0-.32,1.42,1.42,0,0,1,0-.36l.07-.45a4.27,4.27,0,0,0,0-.72,2.16,2.16,0,0,1,0-.69l.1-.37a.46.46,0,0,0,0-.23.94.94,0,0,1,.08-.33,5.06,5.06,0,0,1,.22-.53,3.27,3.27,0,0,0,.16-.43,2,2,0,0,1,.26-.64,3.14,3.14,0,0,0,.18-.31.71.71,0,0,0,.09-.31.43.43,0,0,1,.16-.27l.22-.22a.65.65,0,0,1,.15-.18l.15-.18a.75.75,0,0,1,.29-.44.44.44,0,0,0,.19-.41c.11,0,.18,0,.2-.12a.6.6,0,0,1,.27-.25,1.78,1.78,0,0,0,.3-.19,3,3,0,0,1,.39-.23,1.23,1.23,0,0,0,.49-.54c.11.09.18.11.21.09l.22-.14a.72.72,0,0,1,.27-.08.63.63,0,0,0,.28-.1.51.51,0,0,1,.33-.06.35.35,0,0,0,.28,0,2.19,2.19,0,0,1,.83-.05,1.94,1.94,0,0,0,.72,0,.43.43,0,0,1,.24.22.73.73,0,0,0,.19.26.8.8,0,0,0,.21.13,1,1,0,0,1,.25.16l.23.18a.55.55,0,0,1,.12.16,1.09,1.09,0,0,0,.17.22,2.94,2.94,0,0,1,.22.3,2.77,2.77,0,0,1,.19.5,2,2,0,0,0,.26.6.55.55,0,0,0,0,.37,1.3,1.3,0,0,0,.1.25A1.18,1.18,0,0,1,249.35,267.48Zm-3.67,1.16.42-.08a3.29,3.29,0,0,1,.54-.05c.19,0,.49,0,.54-.09s0-.84-.11-1.14a.37.37,0,0,0,0-.41.62.62,0,0,1-.11-.48,4.33,4.33,0,0,0-.41-.39.47.47,0,0,0-.05-.28,1.07,1.07,0,0,0-.13-.21c0-.06-.21-.08-.32-.09a.52.52,0,0,1-.26-.12,2.29,2.29,0,0,1-1.43.59,1,1,0,0,1-.25.73.67.67,0,0,0,0,.24v.19a.39.39,0,0,0-.16.37.93.93,0,0,1-.17.55c-.11.19-.17.51-.11.56s.58.07.84.05a6.37,6.37,0,0,1,.75,0Z"/><path class="cls-9" d="M253,265.49l0-.4a1.35,1.35,0,0,1,.1-.61c.08-.18,0-.35-.2-.53a1.25,1.25,0,0,0-.45.08.77.77,0,0,1-.46,0l-.33-.1-.28,0c-.09,0-.16-.07-.22-.24a.7.7,0,0,1,.13-.58.86.86,0,0,1,.52-.38,3.65,3.65,0,0,1,.8-.05,1.82,1.82,0,0,0,.71-.08,1.18,1.18,0,0,0,.31-.17.76.76,0,0,1,.19-.12,2,2,0,0,1,.64-.07c.08,0,.18-.1.24-.13a.92.92,0,0,1,.81.33,4.59,4.59,0,0,0,.49.62.44.44,0,0,0,.05.43,1.29,1.29,0,0,1,.2.46.84.84,0,0,1,0,.41.39.39,0,0,0,.18.38.79.79,0,0,0,.79-.25,7.64,7.64,0,0,1,.55-.58l.41-.21a1.21,1.21,0,0,1,.33-.13,1.43,1.43,0,0,0,.28-.07.55.55,0,0,0,.2-.25.46.46,0,0,1,.13-.18l.41-.13c.23-.07.33-.16.32-.29a4.46,4.46,0,0,0,1.18.06,4.74,4.74,0,0,1,.94,0,2.4,2.4,0,0,0,.7,0,1,1,0,0,1,.35.23,2.17,2.17,0,0,0,.36.29.41.41,0,0,1,.2.31.74.74,0,0,0,.17.4,3.06,3.06,0,0,1,.33.52,5.88,5.88,0,0,1,.22.74,1.56,1.56,0,0,1,0,.65,2.16,2.16,0,0,1-.17.62c-.08.18-.16.37-.25.56a.73.73,0,0,0-.4.46,2.25,2.25,0,0,0-.64.47,1,1,0,0,1-.36.28.74.74,0,0,1-.39,0l-.47-.07a1.09,1.09,0,0,1-.48-.16,2.43,2.43,0,0,0-.6-.23.38.38,0,0,1-.09-.15.79.79,0,0,0-.08-.16.86.86,0,0,0-.17-.15.58.58,0,0,1-.2-.23c-.23-.4-.19-.83,0-.95a4.94,4.94,0,0,1,.91-.22c.2,0,.35.06.43.36a.84.84,0,0,0,.54-.11c.1-.12.15-.35.21-.38s.09-.12.1-.26,0-.2.06-.22c-.05-.22-.08-.32-.13-.54a1.4,1.4,0,0,0-.13-.21l-.18-.24a.64.64,0,0,0-.29-.27.85.85,0,0,0-.57.06,1.13,1.13,0,0,1-.73.05.61.61,0,0,0-.35.28.5.5,0,0,1-.42.25c-.62.44-1.07.75-1.35.91,0,.09,0,.15-.14.19a.51.51,0,0,0-.27.21.79.79,0,0,0-.11.24.77.77,0,0,1-.13.22.66.66,0,0,0-.13.21.6.6,0,0,1-.09.15.38.38,0,0,0-.09.27.9.9,0,0,1-.09.34c-.14.16-.21.27-.2.34a.28.28,0,0,1-.06.18.42.42,0,0,1-.16.11.28.28,0,0,0-.12.17.29.29,0,0,1,0,.37.37.37,0,0,0,0,.42.63.63,0,0,1,.09.35,1.74,1.74,0,0,0,0,.4,3.23,3.23,0,0,1,0,.44c0,.16,0,.37,0,.63a.28.28,0,0,0,0,.28.39.39,0,0,1,.06.28l0,.43a2.32,2.32,0,0,0,0,.44,1.68,1.68,0,0,1,0,.45,1.75,1.75,0,0,0,0,.46c0,.19,0,.29,0,.31s0,.06,0,.12,0,.13.07.2a.56.56,0,0,1,0,.21l-.09.33,0,.4a2.25,2.25,0,0,0,0,.72,1.66,1.66,0,0,1,0,.73l.09.28a2.2,2.2,0,0,1,.12.41c0,.14.33.23.9.28l1.09,0a1.7,1.7,0,0,1,.14.58.82.82,0,0,1-.1.56l-1.28.08a2.19,2.19,0,0,1-.51,0c-.17,0-.37.21-.5.26-.33.15-1,0-1.15.11a.5.5,0,0,1-.43,0,.59.59,0,0,0-.36-.05.79.79,0,0,0-.26.09.92.92,0,0,1-.7.06.81.81,0,0,0-.65.07,1.89,1.89,0,0,1-.41.22c-.59-.13-.92-.16-1-.09-.25.21-.7.17-.79,0a1.3,1.3,0,0,1,.55-1.35,1.45,1.45,0,0,1,.53-.09.66.66,0,0,0,.47-.16.56.56,0,0,0,.32-.07,1,1,0,0,1,.3-.14c0-.62,0-1.13,0-1.54a5.75,5.75,0,0,0,0-.92c0-.2,0-.4-.05-.6s0-.49,0-.89,0-.74,0-1a3.43,3.43,0,0,0-.07-.77,5.1,5.1,0,0,1-.06-.88c0-.37,0-.79,0-1.26l0-.47a.41.41,0,0,1,0-.27.49.49,0,0,0,.06-.2c0-.05,0-.45,0-1.19a9.55,9.55,0,0,1,.05-1.32A1,1,0,0,0,253,265.49Z"/><path class="cls-9" d="M269.62,264.8a1.43,1.43,0,0,1,.71-.09l.69.06a.46.46,0,0,1,.4.34.57.57,0,0,1-.06.58c-.07.15-.15.24-.26.25a2,2,0,0,0-1.05.47,3.05,3.05,0,0,1,0,.52,2.45,2.45,0,0,0,0,.46c0,.13,0,.23,0,.31a1.27,1.27,0,0,0,0,.27,1.44,1.44,0,0,0,.05.24.29.29,0,0,1,0,.18l-.07.43c0,.23-.12.85-.1,1.59a5,5,0,0,1,0,.76c0,.15-.06.3-.08.46,0,.48.05.71.07,1.18a7.69,7.69,0,0,1-.21,1.15,4.06,4.06,0,0,0-.17.85,3.35,3.35,0,0,1-.07.45l-.12.54a1.75,1.75,0,0,0,0,.56c0,.08.07.12.15.1a.31.31,0,0,1,.25.09.27.27,0,0,0,.29.05.69.69,0,0,1,.44,0,.94.94,0,0,1,.16.91,2.82,2.82,0,0,1-.56.34.64.64,0,0,1-.36,0,.58.58,0,0,0-.37,0,1.82,1.82,0,0,0-.59-.33,1,1,0,0,0-.5.09,1.43,1.43,0,0,0-.41.22.61.61,0,0,1-.37.13,1.13,1.13,0,0,1-.6-.09,2.23,2.23,0,0,0-.65-.14,11.76,11.76,0,0,0-1.79.25,3.52,3.52,0,0,1-.67-.34,1,1,0,0,1,.06-.61,3,3,0,0,1,1.35-.31c.33,0,.53,0,.61-.14s.24-.17.28-.2,0-.15-.06-.21-.07-.1,0-.14a1.25,1.25,0,0,0,.18-.83,3,3,0,0,1,.18-1.2,2.27,2.27,0,0,0,0-.74,1.53,1.53,0,0,1,.1-.79,1.32,1.32,0,0,0,0-.83c.06-.18.12-.37.2-.56a1.49,1.49,0,0,0,.09-.58,2.57,2.57,0,0,1,.05-.7c.09-.18.14-.27.24-.44a1.15,1.15,0,0,0,0-.16.65.65,0,0,1,0-.33.67.67,0,0,0,0-.31.34.34,0,0,1,0-.15c.07-.25.1-.38.16-.63a.36.36,0,0,0,0-.25.84.84,0,0,1,0-.28.77.77,0,0,0,.08-.5,1.38,1.38,0,0,1,0-.45c0-.12-.05-.22-.21-.29a2.86,2.86,0,0,0-.5,0,1.1,1.1,0,0,1-.91-.45,1.22,1.22,0,0,1,.46-.76,1.52,1.52,0,0,1,.67.08,2.38,2.38,0,0,0,.6.13,1.09,1.09,0,0,1,.46-.09.6.6,0,0,0,.31-.1c.15-.07.24-.11.27-.09a.8.8,0,0,0,.24,0,1.49,1.49,0,0,1,.53,0C269.48,264.75,269.6,264.77,269.62,264.8Zm-2.7-6.55a1.47,1.47,0,0,0,.53-.66.22.22,0,0,0,.21-.07.68.68,0,0,1,.36-.15,2,2,0,0,1,.53-.07,3.38,3.38,0,0,0,.65-.12.94.94,0,0,1,.79.1,1.36,1.36,0,0,1,.33.38.74.74,0,0,0,.2.19,1.19,1.19,0,0,0,.39.13.33.33,0,0,1,.3.26.47.47,0,0,1-.24.33,1.15,1.15,0,0,0-.33.26c0,.16,0,.35,0,.57a.44.44,0,0,1-.26.42.15.15,0,0,0,0,.2c.05.07,0,.12-.06.13a.46.46,0,0,1-.33.23.87.87,0,0,0-.36.14.51.51,0,0,1-.36.08,2,2,0,0,1-1.64-.81c-.1-.15-.34-.23-.41-.29s-.09-.18-.16-.24l-.23-.19a1.12,1.12,0,0,1,.1-.41A.61.61,0,0,0,266.92,258.25Z"/><path class="cls-9" d="M273.22,281.78l-.88.21c-.32,0-.48-.31-.49-.8a.5.5,0,0,0,.2-.29c.07-.22.21-.33.43-.27a.6.6,0,0,0,.53-.08,1.31,1.31,0,0,1,.34-.2,2.21,2.21,0,0,0,1-.38,1.25,1.25,0,0,1,0-.5,1.81,1.81,0,0,0,0-.48,5.32,5.32,0,0,1,0-.54c0-.12,0-.32.05-.58a5.84,5.84,0,0,0,0-.86c0-.31,0-.53,0-.66a.89.89,0,0,1,0-.32.87.87,0,0,0,0-.31c0-.12,0-.36,0-.72s0-.69.05-1,.06-.74.14-1.26.11-.91.12-1.15,0-.4,0-.49a1.22,1.22,0,0,1,0-.27c.09-.5.13-.76.21-1.27s.06-.79.09-1.31l.08-.36-.05-.72a6.19,6.19,0,0,1,.09-1,4,4,0,0,0,.07-.9,2.39,2.39,0,0,0-1,0,1.18,1.18,0,0,1-.88-.18,2.27,2.27,0,0,1,.29-1.07,2.51,2.51,0,0,1,1.09-.06,3.64,3.64,0,0,0,.84,0c.21,0,.34-.08.36-.13a.35.35,0,0,1,.15-.12c.27,0,.67.05.87,0s.44.06.7.32a1,1,0,0,1,.36.35c.08.22.11.35.08.41a.46.46,0,0,0,0,.25c0,.1,0,.23,0,.4a2.42,2.42,0,0,0,0,.47,1.24,1.24,0,0,1,0,.43.5.5,0,0,0,.07.38,1,1,0,0,0,1.33-.26c.13-.17.21-.25.23-.25a.29.29,0,0,0,.23-.11l.27-.21a2.14,2.14,0,0,1,.39-.21,2.6,2.6,0,0,0,.49-.28.64.64,0,0,0,.54,0,1.56,1.56,0,0,1,.61-.17,2.54,2.54,0,0,1,.76.06,1.75,1.75,0,0,0,.79,0l.4.21a4.51,4.51,0,0,1,.61.06,1.1,1.1,0,0,1,.59.2,1,1,0,0,0,.18.28,1.17,1.17,0,0,1,.22.34.7.7,0,0,0,.15.24.27.27,0,0,1,.11.14,1.63,1.63,0,0,1,.11.28,1.92,1.92,0,0,0,.16.41,1.24,1.24,0,0,1,.19.35,2.2,2.2,0,0,0,.05.35c0,.16.08.35.13.56a1.46,1.46,0,0,1,.07.48.89.89,0,0,0,0,.28l0,.22a2.78,2.78,0,0,1,0,.3,2.2,2.2,0,0,1,0,.49,2.63,2.63,0,0,0,0,.46,2.24,2.24,0,0,0,.05.27c0,.07,0,.22.06.48a4.11,4.11,0,0,1-.09,1,8,8,0,0,0-.16,1.11,4.4,4.4,0,0,1-.08.75,1.76,1.76,0,0,0,0,.49c0,.13,0,.26,0,.37s0,.23,0,.33a1.22,1.22,0,0,1-.1.45l.15.49a1.64,1.64,0,0,1,0,.58.32.32,0,0,0,.22.41,1.59,1.59,0,0,1,.44,0,1,1,0,0,0,.45-.07.46.46,0,0,1,.36.32,2.31,2.31,0,0,0,.17.41,1.17,1.17,0,0,1-.5.51l-.61.37a2.51,2.51,0,0,0-.5,0c-.1,0-.21-.05-.34-.19a2.72,2.72,0,0,1-.53.07.93.93,0,0,0-.47.15.58.58,0,0,1-.15-.11.18.18,0,0,0-.18-.06,1.32,1.32,0,0,1-.38.13l-.4.08-.3.09a.89.89,0,0,1-.26.07l-.26.06-.42.08a2.74,2.74,0,0,0-.53.14.88.88,0,0,1-.38.07.53.53,0,0,1-.29-.14.29.29,0,0,1,0-.32.24.24,0,0,0,.05-.28s.06-.05.07-.16a.27.27,0,0,1,.08-.23,1.58,1.58,0,0,0,.48-.31A.94.94,0,0,1,283,278a1.36,1.36,0,0,1,.55-.08.49.49,0,0,0,.45-.23,1.84,1.84,0,0,0-.08-.35,1.86,1.86,0,0,1-.08-.32.55.55,0,0,1,0-.34.74.74,0,0,0,.07-.36c0-.3,0-.45,0-.75a6.66,6.66,0,0,0,.08-1.08,6.6,6.6,0,0,1,0-.76c0-.23,0-.42,0-.57a3.19,3.19,0,0,1,0-.45l.09-.39c0-.49,0-.78,0-.86l.08-.33a.35.35,0,0,0,0-.2,2,2,0,0,1,0-.26c0-.09,0-.14,0-.15s0-.08.06-.22-.13-.39-.1-.45a.77.77,0,0,0,.06-.15l-.05-.81a1.75,1.75,0,0,0-.09-.68,2.19,2.19,0,0,1-.14-.56,1.57,1.57,0,0,0-.75-.68.66.66,0,0,0-.83.09,3.4,3.4,0,0,0-.49.07,3,3,0,0,0-.49.07c-.07,0-.19.17-.32.24a.39.39,0,0,0-.2.37.59.59,0,0,0-.16.07.2.2,0,0,1-.18,0,.77.77,0,0,1-.3.36l-.37.28a2.39,2.39,0,0,1-.33.25l-.34.23c0,.13,0,.21-.1.25s-.1.14-.07.29a1.23,1.23,0,0,0-.35.37c-.08.15-.18.29-.28.44a2.85,2.85,0,0,0-.33,1.43,9.45,9.45,0,0,1-.06,1.37l-.1,2.27a5.24,5.24,0,0,0-.05.7c0,.25-.06.55-.12.89a5.45,5.45,0,0,0,0,2.84c0,.1.05.16.12.17s.14.11.2.32a1.11,1.11,0,0,1-.23.82,2.62,2.62,0,0,0-.42.11,1,1,0,0,1-.41.09.41.41,0,0,1-.26-.06.31.31,0,0,0-.2-.09l-1.1.11a.9.9,0,0,0-.5.08c-.17.07-.28.09-.34.06s-.11,0-.14.11a1.49,1.49,0,0,1-.44-.08l-.27.12Z"/></svg>