<svg id="Layer_1" data-name="Layer 1" xmlns="http://www.w3.org/2000/svg" viewBox="0 0 548.6 612.95"><defs><style>.cls-1{fill:#fff;}</style></defs><path d="M490.34,131.83a101.1,101.1,0,0,1-101-101V21.65H150.6v9.18a101.11,101.11,0,0,1-101,101H40.42V416.48c0,48.77,57.77,73.67,113.67,97.77,45.62,19.65,92.74,40,107.58,71.43l8.3,17.63,8.3-17.63c14.8-31.44,62-51.78,107.58-71.43,55.86-24.1,113.67-49,113.67-97.77V131.87Zm-9.18,284.65c0,36.69-49.84,58.17-102.59,80.91C336,515.72,292.23,534.59,270,564.2c-22.3-29.61-66.08-48.48-108.61-66.81-52.74-22.74-102.58-44.22-102.58-80.91V149.86A119.53,119.53,0,0,0,168.6,40H371.34A119.55,119.55,0,0,0,481.16,149.86Z"/><path d="M463.9,160.41A131.93,131.93,0,0,1,360.8,57.31l-.92-4.45H180.06l-.88,4.41A132,132,0,0,1,76,160.41l-4.4.91V416.48c0,28.24,48.18,49,94.9,69.16,36.47,15.72,74.19,32,99.68,55.46l3.75,3.45,3.75-3.45c25.48-23.51,63.24-39.78,99.75-55.5,46.61-20.09,94.83-40.88,94.83-69.12V161.32Zm-6.62,256.07c0,21-48.88,42-88.22,59-35.62,15.35-72.43,31.22-99.09,54.17-26.67-22.95-63.43-38.82-99.17-54.21-39.26-16.93-88.15-38-88.15-59V170.25A143,143,0,0,0,189,63.88H351A143,143,0,0,0,457.28,170.25Z"/><path class="cls-1" d="M189,63.88H351s20.37,91.3,106.32,106.37V419.7s-2.72,25.49-102.5,62c0,0-73.14,32.35-84.81,48"/><path class="cls-1" d="M351,65.81H189S168.6,157.11,82.65,172.18V421.63s2.73,25.49,102.51,62c0,0,73.14,32.35,84.81,48"/></svg>